<?xml version="1.0" encoding="UTF-8" standalone="no"?>
<!-- Created with Inkscape (http://www.inkscape.org/) -->

<svg
   width="600"
   height="300"
   viewBox="0 0 158.75 79.374999"
   version="1.1"
   id="svg17659"
   inkscape:export-filename="intro4.svg"
   inkscape:export-xdpi="300"
   inkscape:export-ydpi="300"
   sodipodi:docname="intro5.svg"
   inkscape:version="1.2.2 (732a01da63, 2022-12-09)"
   xmlns:inkscape="http://www.inkscape.org/namespaces/inkscape"
   xmlns:sodipodi="http://sodipodi.sourceforge.net/DTD/sodipodi-0.dtd"
   xmlns="http://www.w3.org/2000/svg"
   xmlns:svg="http://www.w3.org/2000/svg">
  <sodipodi:namedview
     id="namedview17661"
     pagecolor="#ffffff"
     bordercolor="#000000"
     borderopacity="0.25"
     inkscape:showpageshadow="2"
     inkscape:pageopacity="0.0"
     inkscape:pagecheckerboard="0"
     inkscape:deskcolor="#d1d1d1"
     inkscape:document-units="mm"
     showgrid="false"
     inkscape:zoom="0.85389312"
     inkscape:cx="296.87556"
     inkscape:cy="206.11479"
     inkscape:window-width="1280"
     inkscape:window-height="657"
     inkscape:window-x="-8"
     inkscape:window-y="-8"
     inkscape:window-maximized="1"
     inkscape:current-layer="layer1" />
  <defs
     id="defs17656" />
  <g
     inkscape:label="שכבה 1"
     inkscape:groupmode="layer"
     id="layer1"
     transform="translate(-37.513715,-168.01599)">
    <g
       id="g17228"
       transform="matrix(0.56581154,0,0,0.56874907,60.331643,96.615919)">
      <path
         class="f"
         d="m 154.78858,212.44716 c 0.0529,-0.0564 0.20461,-0.254 0.79374,-0.8008 -0.20814,0.15875 -0.6103,0.26458 -1.34055,0.79374 -1.15004,0.32103 -3.15028,1.03011 -5.01293,1.5381 -1.91204,0.12347 -3.41486,0.58561 -5.0976,0.94897 -1.7674,0.63499 -3.48542,0.63852 -4.74483,0.72319 -1.49576,-0.16934 -3.01622,-0.3175 -4.40968,-0.8255 -1.41463,0.11995 -3.02682,-0.23283 -4.68133,-0.90663 -1.95085,-0.6103 -3.6865,-1.62276 -4.80127,-3.38311 -1.01246,-1.48519 -1.78857,-3.02681 -2.28951,-4.68133 -0.51152,-1.89793 -0.78316,-3.86289 -1.18533,-5.90545 -0.43744,-1.96496 -0.40569,-3.94756 0.30692,-5.76435 0.98071,-2.04962 2.63523,-4.0428 4.7801,-5.78551 2.08843,-1.6016 4.91769,-2.56115 8.90757,-2.24365 0.82903,-0.56444 1.18886,-2.40593 2.06374,-5.55268 1.67568,-2.37771 3.80997,-4.26505 6.29351,-5.21049 2.60348,-1.33702 5.1999,-1.33349 7.42239,-0.52916 1.34407,0.2928 2.3142,0.73377 3.30903,1.44638 0.83607,0.45508 1.50282,0.98071 2.01081,1.65451 1.00894,0.84313 1.3723,1.47107 1.6263,2.01435 1.4746,1.89087 1.64393,4.32502 0.37747,8.2126 -1.67569,-3.19614 -1.91204,-4.69544 -2.50118,-6.16651 -0.508,-0.4198 -0.93133,-0.87135 -1.49224,-1.26293 -0.91369,-0.21167 -1.7039,-0.58208 -2.63876,-1.06891 -1.00893,-0.34219 -1.91204,-0.64205 -3.12206,-0.94897 -1.8944,-0.76552 -3.29844,-0.86782 -4.98824,-0.0741 -1.41462,1.09713 -2.89628,2.39182 -4.22271,4.11336 -1.02305,2.30009 -2.68462,4.131 -4.33208,5.18227 -2.56468,1.61571 -5.21755,2.43062 -7.02376,3.48894 -1.68626,1.1818 -2.5047,2.47648 -2.88922,3.97578 -0.29986,1.47107 -0.29633,3.43955 -0.0847,5.43273 0.11994,1.91557 0.53622,3.55245 1.18533,4.98472 0.56444,1.28763 1.1571,2.39181 1.90498,3.31255 0.86783,0.51858 2.01082,0.87136 3.40075,1.03364 1.29116,0.35277 2.39182,0.44449 4.35678,0.59619 1.77445,0.4833 3.68297,0.52563 5.76081,0.59266 2.65287,-0.29281 5.1858,-0.76905 7.54939,-1.4111 1.86618,-0.55386 3.45367,-1.45696 4.85771,-2.2366 1.90852,-0.96307 2.57173,-2.30362 2.6564,-5.02704 0.16228,-1.24177 -0.1905,-2.16251 -0.39863,-3.00565 -0.19756,-0.37041 -0.61736,-1.00541 -0.14817,-0.86782 -5.5174,2.8857 -10.97836,0.10936 -14.92239,-1.43933 -0.80785,-0.20813 -1.16416,-0.13052 -1.40404,-0.22224 -0.71261,0.0811 -0.87489,-0.004 -1.74624,-0.65969 -0.37041,-0.29986 -0.75494,-0.66675 -1.62277,-1.4993 0.18698,0.22931 0.45156,-0.66321 0.43392,-1.3229 0.46213,-0.47625 0.65616,-0.61736 1.37229,-0.91016 0.43039,0.007 0.66675,-0.20461 0.95955,0.11641 0.57503,0.45155 1.03716,1.47107 1.4993,0.85019 -1.27352,-3.60889 0.59971,-3.39722 2.24717,0.50094 0.27517,0.26458 0.52564,0.38805 0.78669,0.47625 0.44803,0.18697 1.09008,0.34572 1.5381,0.46213 2.05315,0.47625 3.9793,0.5468 6.26882,0.6738 0.41627,-0.14816 0.6103,-0.25752 1.62276,-1.82737 0.49389,-0.27517 0.83961,-0.75494 1.46755,-1.10772 1.03715,-0.14816 1.94026,0.0706 2.96331,0.78316 0.13052,0.0353 0.85724,0.75494 1.48871,1.84855 0.0952,0.37394 0.34572,1.21001 0.67027,1.79915 2.20837,8.46307 -2.96684,12.72813 -2.24365,15.25047 1.1571,0.65263 1.92968,1.66157 2.3389,2.4024 0.32455,0.70202 0.69144,1.62982 0.33866,1.66509 -0.11994,0.0741 0.21167,0.23636 0.12347,0.56092 -0.16227,0.51152 0.16581,0.6491 0.127,0.79374 0.16934,0.381 0.52564,0.63147 0.41275,1.29469 -0.11642,0.43744 1.1183,1.23118 0.6103,2.00376 -0.27516,0.49741 -0.49036,0.71613 -0.88899,1.00894 -0.85372,0.3316 -1.18885,0.32808 -1.84149,0.22577 -0.88899,-0.74435 -0.6491,-3.40781 -1.94379,-5.36571 -0.5468,-1.06538 -0.86077,-1.62982 -1.09713,-1.8309 -0.36336,-0.33867 -0.6738,-0.8643 -1.07949,-1.60513 -0.43039,-0.63852 -0.77963,-1.33349 -0.64911,-1.31232"
         id="path17617"
         style="fill:#010101;stroke-width:0.352775" />
      <path
         class="f"
         d="m 64.975558,195.03771 c -0.730244,0.49741 -1.146519,0.72671 -1.823847,1.17827 -0.980715,0.65969 -2.201317,1.52751 -3.383114,2.15898 -1.739181,1.01246 -4.882407,-0.42686 -3.753527,-0.62441 -1.569849,2.24012 -3.351364,3.04445 -3.679445,2.65287 -1.591015,-0.55033 -2.624646,-1.18533 -3.788804,-1.9826 -1.432267,-1.10419 -2.285983,-1.67921 -2.984478,-1.68274 2.63523,9.08749 2.98095,15.29986 1.464017,21.5722 0.02822,0.06 0.07761,0.56091 -0.264581,1.30527 -0.476247,0.33514 -0.853716,0.49388 -1.19238,0.88899 -0.980715,0.22225 -1.703904,-0.254 -1.841486,-1.40404 -0.155221,-0.93838 -0.225777,-3.0762 -0.08819,-5.03058 0.21872,-1.82737 0.402163,-3.23847 0.483302,-4.0181 -0.20461,-1.65805 -0.709078,-3.40428 -1.354657,-5.20696 -0.906632,-3.44662 -2.084901,-4.512 -1.718015,-3.27376 3.09031,-1.17474 1.894403,0.30692 -0.45508,-0.127 -0.179915,0.49036 -0.204609,0.33514 -0.25047,-0.0423 -0.292803,0.55386 -0.349247,0.43039 -0.409219,0.3175 1.08302,-0.57503 1.707432,-1.38641 1.481656,-2.62465 -1.090076,0.74436 -0.94191,0.43039 -0.642051,0.007 0.299859,-0.92427 0.504468,-1.38288 0.680856,-2.26835 0.194026,-2.95625 0.50094,-2.76223 0.631467,-3.7888 -0.165804,-0.58561 -1.284101,-1.76741 -2.296566,-3.23848 -1.047742,-2.30715 -1.696848,-4.00752 -1.979068,-5.1611 -0.430386,-1.25941 -0.321026,-3.80997 -0.130527,-4.89652 0.102305,-0.69496 0.409219,-1.61571 1.379351,-3.66533 0.09525,-0.5715 0.25047,-0.83608 0.7373,-1.43227 0.257526,-0.41274 0.342192,-0.50447 0.585606,-0.9278 0.09525,-0.20108 0.190499,0.24342 0.232832,0.17992 -0.194026,-0.87136 0.04586,-1.46755 0.275165,-1.60513 0.761994,0.0106 1.01952,-0.50799 1.495766,-0.7761 0.472719,0.0212 0.567968,-0.33867 0.740828,-0.38806 0.03881,0.33161 0.148165,0.34925 0.874882,0.29281 1.594544,-0.11642 2.568203,0.87841 2.822201,2.75517 -7.909218,5.57032 -6.695672,10.742 -1.947319,15.86783 0.264582,0.26105 1.273519,1.26293 1.411101,1.54162 0.377469,0.47625 0.726717,0.87489 0.772577,0.71261 0.906632,0.57502 1.686266,1.17121 2.229539,1.82385 0.232832,0.1905 0.321026,0.2928 0.176388,0.21872 0.25047,0.10936 0.747883,0.36336 1.777986,0.86077 0.980715,0.55386 2.261289,1.40404 5.330432,3.28434 -2.003762,-2.44474 -1.001881,-3.03034 1.019521,-4.09572 3.182031,-1.25588 6.409923,-2.87512 10.103479,-6.27235 2.790451,-4.55432 2.582314,-9.48612 0.370414,-14.08278 -2.77634,0.21167 -3.651223,-0.30339 -4.695437,-2.99153 0.575023,-1.74271 0.98777,-2.20837 3.799388,-2.89629 0.158749,-0.14463 0.553857,-0.3951 0.03528,0.62089 0.222248,-0.17286 0.416274,-0.23989 0.631467,-0.41275 1.068909,0.26106 1.598071,0.98072 2.024929,1.18885 -0.04939,0.3175 0.186971,0.69144 0.08114,1.17122 -0.02822,0.13052 -0.0635,0.27516 0.652634,0.007 -0.373941,0.47272 -0.458607,0.62089 -0.575023,0.77611 0.359831,0.2928 0.575023,0.52916 1.104186,1.03716 0.359831,0.38805 0.871355,1.00541 1.305268,1.66862 0.289276,0.82197 0.218721,0.82197 0.613829,1.78505 0.268109,0.81843 0.451552,1.31232 0.610301,2.03198 0.666745,4.78363 -0.811383,8.61124 -2.663452,11.4405 1.001881,2.91392 2.031984,7.22483 1.753292,11.47577 -0.275165,1.07597 -0.419802,1.79916 -0.652634,3.10795 -0.28222,1.50635 -0.716134,2.84337 -1.220602,4.33561 -0.134055,0.73024 0.194026,1.63335 1.033631,2.90334 0.613829,1.09007 1.128881,2.05668 1.421684,2.51176 0.0388,0.12699 0.186971,0.6103 0.338664,1.10771 0.296331,0.62088 0.08114,0.37041 0.299859,0.7126 -0.123471,0.15523 -0.105833,0.20814 0.01411,0.33161 0.0071,0.06 0.0071,0.21167 0.02117,0.26811 -0.0635,0.13406 0.119944,0.27869 0.109361,0.39511 0.05292,0.0529 0.05292,0.10936 0.05997,0.18697 0.07761,0.12347 0.03881,0.37042 0.232832,0.60677 -0.253998,0.52211 -0.211665,0.60325 -0.560912,1.00541 -0.303387,0.18697 -0.649107,0.27517 -1.11477,0.44097 -0.246942,0.0565 -0.402163,0.007 -0.476246,-0.0212 -0.673801,-0.13053 -1.072437,-0.5715 -1.202963,-1.31233 -0.102305,0.0423 -0.606774,-0.93838 -1.005409,-2.01082 -0.582079,-0.95249 -1.072437,-1.77093 -1.464017,-2.66698 -0.179916,-0.5468 -0.582079,-1.26293 -0.956021,-1.91556 -0.09525,-0.0423 -0.317497,-0.68792 -0.388052,-1.57338 -0.137583,-1.1183 0.222248,-2.26129 0.268109,-3.242 0.215192,-1.29116 0.278692,-2.47649 0.490357,-3.90875 -0.04939,-1.16416 0.08819,-2.56115 0.09172,-3.78175 0.222248,-1.14652 0.162276,-2.57173 0.253998,-3.33373 -0.271637,-1.65804 -0.253998,-2.32479 -0.296331,-2.49764 -0.814911,0.86429 -1.848542,1.71095 -3.047977,2.43767 m 13.959311,-4.7413 v -1.79562 c 0.02469,-0.75494 0.07761,-1.58749 0.158749,-2.50118 0.07761,-0.91016 0.208137,-1.83443 0.39158,-2.77281 0.208138,-0.96308 0.511524,-1.82385 0.903105,-2.57879 0.39158,-0.75493 0.87841,-1.36524 1.453433,-1.83443 0.603245,-0.49388 1.322907,-0.74082 2.158984,-0.74082 0.550329,0 0.970131,0.14463 1.255879,0.43038 0.289276,0.28575 0.458608,0.63852 0.511524,1.0548 0.05292,0.41627 -0.07761,0.87135 -0.39158,1.36524 -0.289276,0.46919 -0.747884,0.89958 -1.375823,1.28763 -0.444497,0 -0.772578,0.33866 -0.980715,1.01599 -0.183443,0.65263 -0.328081,1.36524 -0.430386,2.1484 -0.07761,0.77963 -0.116416,1.53457 -0.116416,2.26482 v 1.32643 c 0,1.27705 0.03881,2.74812 0.116416,4.41322 0.105833,1.6404 0.299859,3.35842 0.589135,5.15404 0.31397,1.77093 0.747883,3.54186 1.294684,5.3128 0.575024,1.74271 1.308796,3.3443 2.201317,4.80479 0.917215,1.43227 2.017874,2.64229 3.298448,3.63359 1.284101,0.96307 2.829256,1.48518 4.635465,1.56279 1.361712,0.10583 2.945672,-0.13053 4.75188,-0.70202 1.834437,-0.59972 3.534807,-1.44638 5.108187,-2.53998 1.56985,-1.09361 2.90687,-2.35654 4.00752,-3.78881 1.12536,-1.45696 1.6898,-2.96684 1.6898,-4.52963 v -0.27164 c -0.36689,-2.05668 -0.73377,-3.76058 -1.10066,-5.11524 -0.36689,-1.37935 -0.68086,-2.62817 -0.94191,-3.75 -0.26105,-1.11829 -0.4833,-2.26481 -0.66675,-3.43603 -0.15874,-1.17121 -0.23635,-2.53998 -0.23635,-4.09924 0.13052,-2.26482 0.38099,-3.94403 0.74788,-5.03763 0.36688,-1.0936 0.74788,-1.69332 1.13946,-1.79563 0.39158,-0.13052 0.81138,0.14464 1.25588,0.81844 0.4445,0.6738 0.83961,1.6651 1.17827,2.96684 0.34219,1.30174 0.58913,2.83631 0.74788,4.60724 0.15875,1.77093 0.20814,3.65828 0.15875,5.66204 0.0529,1.48519 0.32808,3.11148 0.8255,4.88241 0.5221,1.74271 1.10065,3.50306 1.72859,5.27399 0.65617,1.74271 1.3088,3.45014 1.96496,5.11524 0.65616,1.6404 1.15358,3.08678 1.49224,4.33561 0.36689,1.24882 0.47272,2.27892 0.31397,3.08678 -0.15875,0.80785 -0.66674,1.21002 -1.53104,1.21002 -0.99483,0 -1.74271,-0.28575 -2.24013,-0.86077 -0.47271,-0.59972 -0.88899,-1.24883 -1.25588,-1.95438 -0.34219,-0.73024 -0.70555,-1.37935 -1.10065,-1.95437 -0.39158,-0.59972 -0.87841,-0.89958 -1.45344,-0.89958 -0.49741,0 -1.08654,0.18344 -1.7674,0.5468 -0.68086,0.36336 -1.45343,0.84666 -2.31773,1.44638 -0.8643,0.5715 -1.80621,1.21002 -2.82926,1.91204 -0.99483,0.67733 -2.02846,1.31585 -3.10442,1.91204 -1.07244,0.5715 -2.187208,1.0548 -3.340783,1.44638 -1.125352,0.39158 -2.278927,0.58561 -3.457196,0.58561 -2.095484,0 -3.929915,-0.49389 -5.499764,-1.48519 -1.569849,-1.01599 -2.931561,-2.33184 -4.085136,-3.94402 -1.125353,-1.61571 -2.067262,-3.45014 -2.829256,-5.50682 -0.758467,-2.08138 -1.361712,-4.18039 -1.806209,-6.28645 -0.419802,-2.13429 -0.733772,-4.19097 -0.94191,-6.17004 -0.183443,-1.97907 -0.275164,-3.72178 -0.275164,-5.23166"
         id="path17619"
         style="fill:#010101;stroke-width:0.352775" />
    </g>
  </g>
</svg>
