<?xml version="1.0" encoding="UTF-8" standalone="no"?>
<svg
   version="1.1"
   width="600"
   height="300"
   id="svg30738"
   sodipodi:docname="intro13.svg"
   inkscape:version="1.2.2 (732a01da63, 2022-12-09)"
   xmlns:inkscape="http://www.inkscape.org/namespaces/inkscape"
   xmlns:sodipodi="http://sodipodi.sourceforge.net/DTD/sodipodi-0.dtd"
   xmlns="http://www.w3.org/2000/svg"
   xmlns:svg="http://www.w3.org/2000/svg">
  <sodipodi:namedview
     id="namedview30740"
     pagecolor="#ffffff"
     bordercolor="#000000"
     borderopacity="0.25"
     inkscape:showpageshadow="2"
     inkscape:pageopacity="0.0"
     inkscape:pagecheckerboard="0"
     inkscape:deskcolor="#d1d1d1"
     showgrid="false"
     inkscape:zoom="1.7116667"
     inkscape:cx="93.768255"
     inkscape:cy="300.29211"
     inkscape:window-width="2560"
     inkscape:window-height="1377"
     inkscape:window-x="-8"
     inkscape:window-y="-8"
     inkscape:window-maximized="1"
     inkscape:current-layer="svg30738" />
  <defs
     id="defs30732" />
  <g
     id="g30736"
     transform="matrix(1.1509531,0,0,1.1519462,-43.096882,-196.98571)">
    <path
       stroke-width="1"
       fill="#000000"
       opacity="1"
       d="m 176.11456,329.72223 c 0,2.56326 -0.72429,4.83371 -2.17288,6.81134 -1.44859,1.97763 -3.62147,3.66241 -6.51865,5.05438 -2.3007,1.13736 -4.73349,1.99036 -7.29834,2.55902 -2.56485,0.5687 -5.26179,0.85303 -8.0908,0.85303 -2.57336,0 -5.37256,-0.29282 -8.39755,-0.87848 -3.025,-0.58563 -6.27581,-1.46411 -9.75241,-2.63541 -4.29465,-1.49383 -7.51563,-3.11496 -9.66295,-4.86343 C 122.07366,334.87421 121,332.99847 121,330.99536 c 0,-1.49383 0.52831,-2.78393 1.58493,-3.87036 1.05662,-1.08643 2.33479,-1.62964 3.8345,-1.62964 2.1814,0 4.22647,0.91669 6.1352,2.75 3.16986,2.75 4.87408,4.24384 5.11267,4.48151 1.43155,0.83178 3.43826,1.45563 6.02017,1.87152 2.58189,0.41589 5.73897,0.62384 9.47122,0.62384 3.30618,0 5.78583,-0.37772 7.43892,-1.13312 1.65309,-0.7554 2.47965,-1.88849 2.47965,-3.39929 0,-1.27316 -0.77543,-2.79669 -2.32627,-4.57062 -1.55084,-1.77392 -3.8771,-3.79822 -6.97879,-6.0729 -2.18141,-1.39197 -4.35855,-2.78394 -6.53143,-4.17594 -2.17288,-1.39197 -4.34151,-2.78393 -6.50588,-4.1759 -2.77787,-1.88428 -5.18083,-3.71759 -7.20886,-5.5 -2.02801,-1.78241 -3.68112,-3.51392 -4.95929,-5.19446 -1.67013,-2.22375 -2.92274,-4.6088 -3.7578,-7.15509 -0.83507,-2.5463 -1.2526,-5.25385 -1.2526,-8.12268 0,-3.61575 0.55387,-7.03626 1.66161,-10.2616 1.10775,-3.22528 2.76936,-6.2554 4.98485,-9.09027 2.36887,-3.12344 5.0232,-5.46603 7.96299,-7.02777 2.93977,-1.56174 6.16502,-2.34259 9.67572,-2.34259 3.03352,0 5.82844,0.41589 8.38478,1.24768 2.55633,0.83179 4.87407,2.07947 6.95321,3.74307 2.09621,1.66358 3.81321,3.66242 5.15102,5.99652 1.33781,2.33411 2.29645,5.00348 2.87589,8.00809 0.23858,2.30866 0.71577,5.7207 1.43153,10.23612 0.34085,1.32406 0.51128,2.30865 0.51128,2.9537 0,2.95371 -0.49422,5.46607 -1.48269,7.53705 -1.22703,2.78393 -3.1528,4.1759 -5.77731,4.1759 -1.46562,0 -2.88013,-0.71295 -4.24351,-2.13888 -1.32929,-1.42591 -1.99395,-2.91974 -1.99395,-4.48148 0,-1.12036 0.23861,-2.78393 0.71579,-4.99072 0.51126,-2.20682 0.7669,-3.87039 0.7669,-4.99075 0,-2.91977 -0.23008,-5.47455 -0.69022,-7.66434 -0.46013,-2.18982 -1.15035,-4.01468 -2.07063,-5.47455 -1.84055,-2.91977 -4.6014,-4.37964 -8.28252,-4.37964 -2.04506,0 -3.92824,0.44986 -5.64949,1.34955 -1.72127,0.89969 -3.28064,2.24921 -4.6781,4.04861 -1.38042,1.78241 -2.41574,3.65393 -3.10594,5.61457 -0.69022,1.96066 -1.03533,4.01043 -1.03533,6.14932 0,3.02161 0.87769,6.005 2.63303,8.95023 0.87768,1.47262 1.97478,2.93566 3.29129,4.38919 1.31651,1.45349 2.85245,2.89746 4.60779,4.33187 3.23802,2.22376 6.48456,4.44754 9.73962,6.6713 1.62753,1.11188 3.2572,2.22375 4.88899,3.33563 1.63179,1.11188 3.26572,2.22379 4.90178,3.33566 3.47661,2.56327 6.08408,5.07563 7.82239,7.53702 1.7383,2.46143 2.60745,4.87192 2.60745,7.23151 m 24.74532,-66.76389 c 0,0.44135 -0.37493,1.375 -1.12479,2.80091 -0.30676,0.67901 -0.63057,2.58026 -0.97142,5.7037 -1.73829,18.94446 -2.60745,35.5633 -2.60745,49.85651 0,3.73456 0.32381,6.73919 0.9714,9.01388 0.57944,1.93518 1.78943,4.60031 3.63001,7.99536 0.0682,0.16977 0.10225,0.42438 0.10225,0.76389 0,1.76544 -2.01099,2.64813 -6.03295,2.64813 -0.35789,0 -0.71578,0 -1.07366,0 -4.19239,-0.0679 -6.73168,-3.53085 -7.61788,-10.38885 -1.15886,-8.38581 -1.73831,-19.92902 -1.73831,-34.62964 0,-3.46298 0.0511,-8.67438 0.15338,-15.63428 0.13634,-6.9938 0.20451,-12.27313 0.20451,-15.83795 0,-1.93518 0.97141,-3.78549 2.91422,-5.55093 1.9769,-1.79938 3.91971,-2.69907 5.82844,-2.69907 1.46563,0 3.05056,0.64505 4.75478,1.93518 1.73831,1.25617 2.60747,2.59723 2.60747,4.02316 m 67.31065,-1.65185 c 0.63208,0.68823 1.35401,2.15713 1.71228,4.23437 -1.6514,1.3609 -4.98443,3.09784 -8.90106,3.5503 -5.5914,2.86383 -5.74023,3.12643 -2.66675,11.59576 0.38193,5.53693 1.76798,17.92374 1.00305,35.8465 -0.7391,3.27642 -1.41488,6.69146 -2.54226,10.06521 -0.98783,4.5246 -2.24625,6.56275 -2.65784,6.73365 -0.20023,0.0584 -4.98578,-2.49924 -12.66483,-7.26188 -5.59588,-3.76587 -12.9613,-9.30908 -20.54855,-17.42382 -2.423,-4.16748 1.4737,-14.42057 2.04648,-17.81623 -6.94611,8.74564 -6.97864,15.32746 -5.05542,19.62741 5.98666,13.67554 4.56979,21.24836 4.66702,21.37149 -2.98419,2.65235 -0.94806,4.04276 -0.19192,5.51911 1.14999,1.93493 0.97983,4.18411 -0.84989,7.52133 -2.72116,1.13925 -2.83291,0.82187 -3.4645,-3.48267 -1.00873,0.34052 -6.96747,-2.37014 -8.51841,-7.96945 -0.87518,-3.69116 -0.87417,-6.65719 2.34821,-12.31018 0.27289,-1.14581 0.50394,-2.17306 0.61017,-3.95651 -0.95658,-2.07501 -1.80023,-3.76569 -3.20178,-6.03513 -1.6409,-3.46399 -1.91239,-9.02633 0.96356,-14.95916 1.83316,-5.10581 1.99045,-5.80353 1.46341,-8.70142 -2.37741,-12.3208 -2.24869,-13.04758 -1.57907,-18.30923 1.17187,-0.52421 0.80719,-2.17649 1.72732,-2.83136 0.24286,-0.43482 0.42539,-0.67075 0.48688,-0.81574 0.694,-1.31488 0.49228,-2.70093 2.29254,-3.21536 4.41327,-3.15753 6.07883,-3.24478 7.0217,-3.49549 3.33435,-0.0867 5.10592,1.1655 6.26709,3.65946 0.53747,2.09506 0.60635,2.47064 7.65155,6.85257 2.46707,12.61261 3.64911,9.50928 -3.43845,15.80359 -2.19296,5.712 -3.31537,10.09704 2.78876,15.64602 9.21786,13.75751 15.76157,20.24558 16.52103,19.9506 -3.44648,1.4887 -2.89341,-0.46042 -2.78171,-3.85318 0.13257,-0.98856 0.28003,-2.59906 0.69702,-4.59882 0.48425,-1.20236 0.53671,-1.60077 1.12143,-3.78363 2.12814,-13.30841 5.1973,-23.26492 -9.45328,-33.30777 1.21988,-7.51703 12.73001,-7.79126 15.50696,-8.39767 5.93265,-4.07291 6.71555,-4.95456 7.60193,-4.95096 0.53091,-0.38266 1.7059,-0.74298 3.16614,-0.69391 0.33392,-0.31668 0.53271,-0.18308 0.85119,0.1922 m 68.43067,56.75369 c 0,3.51389 -0.77967,6.83258 -2.33902,9.95602 -1.55936,3.12345 -3.89841,6.0517 -7.01715,8.78473 -3.10166,2.73301 -6.32691,4.78278 -9.67576,6.1493 -3.34875,1.36651 -6.82113,2.04977 -10.41702,2.04977 -5.1979,0 -9.71835,-1.03125 -13.56137,-3.09375 -3.84302,-2.0625 -7.0086,-5.15625 -9.49676,-9.28125 -2.01099,-3.37808 -3.51923,-7.33334 -4.52472,-11.86575 -1.0055,-4.53238 -1.50824,-9.64197 -1.50824,-15.32871 0,-2.87729 0.15124,-5.6867 0.45373,-8.42822 0.30252,-2.74152 0.75629,-5.41513 1.36127,-8.02084 1.21002,-5.21143 3.02502,-10.15125 5.44501,-14.81943 1.44857,-2.86035 3.03564,-5.36316 4.76117,-7.50839 1.72552,-2.14527 3.5895,-3.93299 5.59198,-5.36316 4.00491,-2.86032 8.56372,-4.2905 13.67639,-4.2905 5.07855,0 9.49249,1.22223 13.24179,3.66666 4.15829,2.8179 6.73166,6.63736 7.72012,11.45834 0.81806,3.97223 1.22705,5.87347 1.22705,5.7037 0,5.58487 -0.61352,9.77353 -1.84057,12.56598 -1.22702,2.79242 -3.06757,4.18866 -5.52167,4.18866 -1.46564,0 -2.81195,-0.52624 -4.039,-1.5787 -1.22705,-1.08643 -1.84055,-2.42749 -1.84055,-4.02316 0,-0.91666 0.42603,-2.20679 1.27814,-3.87037 0.8862,-1.69754 1.32931,-3.03857 1.32931,-4.02316 0,-5.09259 -0.57943,-8.57251 -1.73831,-10.43982 -1.46567,-2.58023 -4.36279,-3.87036 -8.69156,-3.87036 -4.43097,0 -8.52111,2.85187 -12.27038,8.55557 -1.55084,2.39353 -2.83753,4.83796 -3.86005,7.33332 -1.02255,2.49539 -1.78094,5.04168 -2.27514,7.63888 -0.98847,5.5679 -1.48267,10.69446 -1.48267,15.37964 0,4.00617 0.15338,7.45642 0.46014,10.35071 0.30674,2.89429 0.76688,5.23263 1.3804,7.01504 0.98844,2.90277 2.47538,5.30478 4.46079,7.20603 1.98541,1.90121 4.46936,3.30169 7.45172,4.20138 1.7724,0.50925 3.23804,0.76389 4.39691,0.76389 2.93128,0 6.03296,-1.3071 9.30506,-3.9213 2.86309,-2.44445 5.07855,-5.21142 6.64648,-8.30093 0.88617,-1.83334 1.41449,-4.14197 1.5849,-6.92593 -0.17041,-0.13581 -0.34085,-0.27161 -0.51126,-0.40741 -5.79434,0 -10.27646,0.79785 -13.44632,2.39352 -0.98843,0.54321 -1.9769,1.15433 -2.96533,1.83334 -1.29523,0.64505 -2.31775,0.96759 -3.0676,0.96759 -2.04507,0 -3.64703,-0.79785 -4.80594,-2.39352 -1.12475,-1.59567 -1.68716,-3.36111 -1.68716,-5.29629 0,-1.66358 0.93732,-3.03858 2.81198,-4.125 1.22702,-0.57718 5.07855,-1.29014 11.55463,-2.13889 5.8966,-0.67902 10.02081,-1.01852 12.37262,-1.01852 3.3573,0 5.8753,1.01428 7.55398,3.04281 1.67868,2.02857 2.51798,5.07138 2.51798,9.12848 m 67.12936,14.76852 c 0,1.32407 -0.28973,2.49537 -0.86917,3.51389 -0.71576,1.32407 -1.68717,1.98611 -2.91422,1.98611 -0.34085,0 -0.81802,0.0339 -1.43155,0.10184 -0.61352,0.034 -1.09069,0.0509 -1.43154,0.0509 -3.51069,0 -8.60633,1.08642 -15.28687,3.25924 C 375.15073,343.91357 370.07214,345 366.56146,345 c -13.19067,0 -19.78604,-10.13428 -19.78604,-30.40277 0,-15.95679 0.40903,-28.58643 1.22705,-37.88889 0.0682,-1.25619 0.10227,-1.91821 0.10227,-1.98611 0,-0.61112 -0.0852,-1.47687 -0.25565,-2.59723 -0.13632,-1.12036 -0.2045,-1.91821 -0.2045,-2.39352 0,-3.83643 2.04505,-6.09412 6.1352,-6.77314 6.30563,-1.15432 12.5942,-2.34259 18.86572,-3.56482 C 380.92804,257.79785 387.11438,257 391.2045,257 c 2.35184,0 4.43097,0.37347 6.23746,1.12036 2.4541,1.08643 3.68112,2.56329 3.68112,4.43057 0,2.81791 -2.01099,4.22684 -6.03293,4.22684 -0.4772,0 -1.22705,0 -2.24957,0 -1.02256,0 -1.7724,0 -2.24958,0 -6.64648,0 -15.69592,1.52777 -27.14828,4.58334 -0.64762,0.10184 -1.26111,0.23764 -1.84055,0.40741 -0.54535,0.16974 -0.95434,0.79783 -1.22705,1.88425 -0.8862,4.0741 -1.32928,12.05246 -1.32928,23.93518 0,1.79938 0.78393,2.6991 2.3518,2.6991 2.11325,0 5.16382,-0.69599 9.15168,-2.08798 4.02197,-1.39197 7.08957,-2.08796 9.20282,-2.08796 2.38589,0 5.12973,0.79783 8.23138,2.39353 0.81802,2.85184 1.22705,4.60031 1.22705,5.24536 0,2.20679 -0.61352,3.41205 -1.84057,3.61575 -1.22703,0.16974 -2.53928,0.33951 -3.93674,0.50925 -0.64762,-1.32407 -1.55084,-1.98611 -2.70972,-1.98611 -2.8631,0 -6.2886,0.40741 -10.27646,1.22222 -3.37436,0.78086 -6.76578,1.52778 -10.17419,2.24076 -0.51129,0.10183 -0.95438,0.20367 -1.32932,0.30554 -0.34085,0.0679 -0.59646,0.59415 -0.76687,1.5787 -0.17047,1.62964 -0.25568,2.91974 -0.25568,3.87037 0,6.89199 0.11932,11 0.35791,12.32406 0.81802,5.19446 3.0676,7.79169 6.74872,7.79169 3.13577,0 7.68603,-1.08643 13.65082,-3.25928 5.96478,-2.17282 10.71957,-3.25925 14.26434,-3.25925 5.55576,0 9.15167,1.375 10.78775,4.125 m 77.20126,8.81019 c 0,0.2037 0,0.40741 0,0.61111 -1.22702,1.83334 -2.74377,2.75 -4.55026,2.75 -1.39746,0 -2.57339,-0.69598 -3.52774,-2.08795 -0.74985,-3.29321 -6.18634,-8.65741 -16.30942,-16.09259 -10.08899,-7.43521 -16.76953,-11.1528 -20.04165,-11.1528 -0.57944,0 -1.31223,0 -2.19846,0 -1.15884,0.10186 -1.94281,0.1528 -2.35181,0.1528 0,1.78241 0,3.56479 0,5.3472 0,1.83334 0.2045,4.2608 0.61353,7.28241 0.409,3.70062 0.86914,5.95834 1.3804,6.77316 1.46564,2.20679 2.19846,3.58179 2.19846,4.125 0,1.66357 -0.57944,3.02161 -1.73831,4.07407 -1.12479,1.05245 -2.42002,1.5787 -3.88562,1.5787 -3.13578,0 -5.55576,-1.13736 -7.26001,-3.41205 -1.63605,-2.00308 -2.45408,-10.28702 -2.45408,-24.85184 -1.70422,0 -3.51068,-0.54321 -5.41943,-1.62963 -2.11322,-1.35804 -3.16983,-2.78397 -3.16983,-4.27778 0,-3.0895 2.74377,-5.31326 8.23138,-6.67129 0.34082,-2.58026 0.63056,-6.12808 0.86915,-10.64352 0.17044,-5.12653 0.37493,-8.69135 0.61352,-10.69443 0.4772,-2.6821 1.09073,-6.70526 1.84058,-12.06946 -0.32383,0 -0.64762,0 -0.97141,0 -3.30618,0.0679 -4.95929,-1.35803 -4.95929,-4.27777 0,-2.51236 0.98844,-4.09107 2.96533,-4.73612 1.36338,-0.40741 2.74381,-0.81481 4.14127,-1.22222 1.63605,-1.45987 2.91422,-2.4105 3.8345,-2.85184 0.95435,-0.44138 2.47113,-0.66205 4.55027,-0.66205 1.46563,0 2.19845,0.83179 2.19845,2.49536 0,0.50928 1.02252,0.76389 3.0676,0.76389 9.57776,0 17.72391,1.95218 24.43857,5.8565 8.24844,4.68518 12.37265,11.49228 12.37265,20.4213 0,6.89197 -2.13028,12.5617 -6.39084,17.00925 -2.8631,3.05557 -7.92462,6.48455 -15.18463,10.28704 5.79437,3.73456 11.55462,7.46912 17.28082,11.20371 6.6124,5.02466 9.88449,10.55862 9.81631,16.60184 m -16.82067,-56.88425 c 0,-5.05866 -2.65857,-8.89508 -7.97574,-11.50928 -4.26059,-2.13888 -9.23688,-3.20831 -14.92902,-3.20831 -0.74985,0 -2.50519,0.1188 -5.26602,0.35647 0.0682,2.85184 -0.71579,7.75773 -2.35184,14.71759 -0.8862,4.20987 -1.49972,10.33796 -1.84057,18.38425 4.73773,1.5957 7.68606,2.39353 8.84494,2.39353 0.95434,0 2.38589,-0.27161 4.29461,-0.81482 5.38538,-1.59568 9.79929,-4.02314 13.24182,-7.28241 3.98789,-3.7006 5.98182,-8.0463 5.98182,-13.03702"
       id="path30734" />
  </g>
</svg>
