<?xml version="1.0" encoding="UTF-8" standalone="no"?>
<svg
   version="1.1"
   width="600"
   height="300"
   id="svg30778"
   sodipodi:docname="intro12.svg"
   xml:space="preserve"
   inkscape:version="1.2.2 (732a01da63, 2022-12-09)"
   xmlns:inkscape="http://www.inkscape.org/namespaces/inkscape"
   xmlns:sodipodi="http://sodipodi.sourceforge.net/DTD/sodipodi-0.dtd"
   xmlns="http://www.w3.org/2000/svg"
   xmlns:svg="http://www.w3.org/2000/svg"><sodipodi:namedview
     id="namedview30780"
     pagecolor="#ffffff"
     bordercolor="#000000"
     borderopacity="0.25"
     inkscape:showpageshadow="2"
     inkscape:pageopacity="0.0"
     inkscape:pagecheckerboard="0"
     inkscape:deskcolor="#d1d1d1"
     showgrid="false"
     inkscape:zoom="1.7116667"
     inkscape:cx="-23.076923"
     inkscape:cy="300.87633"
     inkscape:window-width="2560"
     inkscape:window-height="1377"
     inkscape:window-x="-8"
     inkscape:window-y="-8"
     inkscape:window-maximized="1"
     inkscape:current-layer="svg30778"
     showguides="true"><sodipodi:guide
       position="595.32618,-221.71372"
       orientation="1,0"
       id="guide30846"
       inkscape:locked="false" /></sodipodi:namedview><defs
     id="defs30772" /><path
     stroke-width="0.83202"
     fill="#000000"
     opacity="1"
     d="m 209.57439,190.14767 c 0.79563,0 1.48517,0.28675 2.06862,0.86026 0.63651,0.52572 0.95476,1.17091 0.95476,1.93558 0,0.81247 -0.31825,1.48155 -0.95476,2.00727 -0.58345,0.47793 -1.27299,0.7169 -2.06862,0.7169 -4.67428,0 -9.34858,0 -14.02286,0 -4.67429,0 -9.34858,0 -14.02286,0 -4.67429,0 -9.34858,0 -14.02288,0 -4.67428,0 -9.34856,0 -14.02285,0 -0.90171,0 -1.64429,-0.26287 -2.22775,-0.78857 -0.53042,-0.57351 -0.79562,-1.21872 -0.79562,-1.9356 0,-3.78752 0,-7.57505 0,-11.36257 0,-3.78754 0,-7.57504 0,-11.36258 0,-3.78754 0,-7.57505 0,-11.36257 0,-3.78754 0,-7.57507 0,-11.36259 0,-3.78751 0,-7.57504 0,-11.36258 0,-3.78752 0,-7.57505 0,-11.36257 0,-3.78754 0,-7.57505 0,-11.36259 0,-3.78752 0,-7.57504 0,-11.36256 0,-0.71689 0.29173,-1.33819 0.87518,-1.8639 0.6365,-0.573502 1.40561,-0.860262 2.30731,-0.860262 0.95475,0 1.72385,0.28676 2.30731,0.860262 0.63651,0.52571 0.95475,1.14701 0.95475,1.8639 0,7.55115 0,15.1023 0,22.65346 0,3.77559 0,7.55115 0,11.32674 0,3.77557 0,7.55115 0,11.32672 0,3.77559 0,7.55117 0,11.32675 0,3.77556 0,7.55115 0,11.32673 0,3.77557 0,7.55116 0,11.32672 0,3.77559 0,7.55115 0,11.32675 -0.92823,-0.83637 -1.85645,-1.67274 -2.78469,-2.5091 4.62126,0 9.24249,0 13.86375,0 4.62124,0 9.24249,0 13.86373,0 4.62125,0 9.2425,0 13.86375,0 4.62124,0 9.24249,0 13.86373,0 m 28.80157,2.65245 c -0.10608,0.8125 -0.47737,1.50548 -1.11387,2.07899 -0.58346,0.5257 -1.29952,0.78857 -2.14818,0.78857 -1.00779,0 -1.80341,-0.26287 -2.38687,-0.78857 -0.53041,-0.57351 -0.79562,-1.26649 -0.79562,-2.07899 0,-7.55113 0,-15.1023 0,-22.65345 0,-7.55116 0,-15.10231 0,-22.65347 0,-15.1023 0,-30.20461 0,-45.30693 0,-0.81246 0.29173,-1.48156 0.87517,-2.00727 0.63651,-0.573502 1.40561,-0.860262 2.30732,-0.860262 0.95475,0 1.72384,0.28676 2.30731,0.860262 0.63649,0.52571 0.95474,1.19481 0.95474,2.00727 0,15.10232 0,30.20463 0,45.30693 0,15.10231 0,30.20462 0,45.30692 M 361.2325,146.02271 c 2.45263,3.39715 5.17566,7.8564 8.41744,13.11047 -10.03156,2.27592 -10.13458,2.34616 -9.65904,5.30559 1.14836,5.29779 -1.25351,9.39636 -6.17453,11.56874 -4.14852,1.17041 -5.55807,2.45401 -7.31547,5.77238 -2.18879,3.20647 -6.47253,4.51085 -9.38763,5.52451 -2.24674,1.66503 -4.09262,3.1199 -5.51319,5.03618 -1.33784,2.50222 -3.63483,4.92045 -6.89732,6.62568 -3.55882,1.1235 -7.65328,2.21197 -15.15034,4.613 -5.47062,-4.30204 -8.63497,-5.3492 -11.74639,-6.70995 -2.90287,-1.75204 -4.76925,-4.34749 -5.99083,-6.77749 -1.27409,-2.26739 -2.91839,-3.4111 -6.44215,-4.18487 -4.70054,-0.35658 -7.14588,-2.41343 -9.12141,-6.55566 -1.41329,-2.11164 -2.53132,-2.76031 -7.78163,-3.08094 -2.95724,-3.12515 -5.13855,-7.55258 -4.38727,-12.33041 0.8177,-2.59796 0.78934,-2.6558 -8.81552,-4.19745 -0.43082,-1.76599 2.48434,-9.10719 6.05104,-12.84135 1.6314,-2.74089 3.03697,-6.92951 5.47242,-10.87465 1.21235,-3.18444 0.98839,-4.09898 -1.49219,-7.00899 -1.93549,-3.75433 -2.27481,-8.39341 -1.88032,-11.96445 0.49386,-3.80246 3.35578,-7.15148 7.65775,-9.11592 4.5629,-0.88246 8.53492,-0.21364 12.30294,0.75813 2.6316,0.009 2.68953,-0.0416 2.67037,-8.58946 11.76347,3.23261 17.99539,6.07703 13.53443,5.10717 3.66362,-2.70349 7.74656,-4.61702 13.93046,-6.209142 9.98761,-3.60089 15.01205,-4.5976 9.74843,4.786082 0.527,0.82829 0.7133,0.90511 4.82918,0.53387 7.86137,-1.08004 10.45497,0.31625 14.28169,3.94518 2.0561,-0.28113 5.27702,-0.75659 9.0382,-0.50994 4.11968,0.86268 7.37706,3.44552 8.80633,7.08271 1.15335,5.09499 0.69979,12.09023 -1.93747,15.47241 -2.63604,1.80259 -2.79561,2.18611 -2.30722,3.98916 2.59914,2.92372 4.32162,7.61124 5.25924,11.71941 m -6.0181,2.2298 c -0.83871,-3.5787 -1.51853,-5.92881 -2.10507,-7.1156 -1.2163,-1.88712 -3.48043,-4.68728 -5.22606,-9.10083 4.94877,-3.25107 6.93214,-5.75673 7.5658,-11.77631 -0.43489,-4.94398 -1.92801,-7.09846 -4.11528,-7.83234 -3.29366,0.37412 -7.97788,1.83051 -19.38674,4.76944 -4.0204,-5.35942 -6.82238,-5.81648 -20.10257,-2.36324 0.7323,-12.74749 12.95506,-8.74875 3.85227,-9.4579 -4.99602,3.24914 -9.51395,5.78461 -14.17856,8.81521 -6.00099,-3.21444 -6.2673,-3.02479 -10.86527,4.32109 -10.57822,-4.54788 -14.71184,-6.27856 -17.82979,-6.24806 -3.07679,2.06278 -4.49724,4.63031 -4.56796,8.31249 1.09178,4.65111 3.08175,7.73169 7.93103,12.64955 -2.17022,4.61366 -4.78024,7.57582 -5.59011,9.38433 -0.86393,2.48182 -1.95725,5.37618 -3.64778,7.77916 -1.96884,1.56876 -2.09631,1.9743 -1.96676,2.16054 2.33578,2.52237 0.98876,-0.20443 7.49068,0.69141 -1.17414,9.34804 -1.99006,13.32845 -1.00592,15.66799 2.09199,1.26381 7.02991,2.78609 11.54181,5.72995 2.71437,2.07386 5.28494,3.90331 9.05323,6.55581 3.1949,5.09967 5.00435,8.30206 6.94259,11.34372 2.08029,1.66156 5.50236,2.5313 11.06118,3.13338 7.0778,-0.58143 12.65131,-0.46073 15.32247,-1.37684 1.7675,-2.34677 3.28638,-5.28783 5.59874,-8.83698 2.8996,-3.94787 6.33697,-6.96455 8.19608,-9.33304 4.21433,-3.14208 9.2182,-5.85012 13.68229,-7.74226 0.84569,-1.70045 0.24966,-5.85182 -1.85796,-16.66706 5.30825,-1.86166 7.36703,8.05941 7.82293,2.91158 -0.33438,-1.57516 -1.82325,-3.59029 -3.61527,-6.37519 M 462.02573,99.318738 c 0.90172,0 1.59125,0.26286 2.06861,0.788572 0.5304,0.47792 0.79564,1.07533 0.79564,1.7922 0,7.56311 0,15.12621 0,22.68931 0,7.5631 0,15.12623 0,22.68931 0,7.56313 0,15.12622 0,22.68933 0,7.5631 0,15.1262 0,22.68931 0,1.00362 -0.3448,1.76829 -1.0343,2.29401 -0.63651,0.47793 -1.35257,0.7169 -2.14821,0.7169 -0.42434,0 -0.87517,-0.0956 -1.35255,-0.28677 -0.42432,-0.19115 -0.79562,-0.45403 -1.11387,-0.78857 -5.90751,-7.27636 -11.815,-14.55271 -17.72251,-21.82904 -2.95375,-3.63818 -5.90751,-7.27636 -8.86126,-10.91453 -2.95376,-3.63819 -5.90752,-7.27637 -8.86127,-10.91452 -2.95374,-3.63818 -5.90749,-7.27635 -8.86124,-10.91453 -2.95375,-3.63818 -5.90751,-7.27636 -8.86127,-10.91453 -2.95375,-3.63818 -5.90751,-7.27637 -8.86124,-10.91454 -2.95376,-3.63818 -5.90751,-7.27634 -8.86126,-10.91452 0.71604,-0.31065 1.43212,-0.62129 2.14817,-0.93194 0,7.24648 0,14.49296 0,21.73945 0,7.24646 0,14.49294 0,21.73943 0,7.24648 0,14.49296 0,21.73945 0,7.24649 0,14.49295 0,21.73943 0,0.66911 -0.29173,1.2426 -0.87518,1.72052 -0.53042,0.43013 -1.21995,0.64521 -2.06861,0.64521 -0.90172,0 -1.61777,-0.21508 -2.1482,-0.64521 -0.47735,-0.47792 -0.71605,-1.05141 -0.71605,-1.72052 0,-7.60492 0,-15.20982 0,-22.81475 0,-7.60494 0,-15.20984 0,-22.81476 0,-7.60493 0,-15.20985 0,-22.81477 0,-7.60493 0,-15.20985 0,-22.81477 0,-1.00363 0.29174,-1.69663 0.87518,-2.078972 0.63651,-0.43012 1.27299,-0.64519 1.9095,-0.64519 0.3713,0 0.7691,0.0717 1.19344,0.21507 0.42432,0.14337 0.76909,0.38233 1.0343,0.716872 5.88099,7.22857 11.76196,14.45713 17.64294,21.68569 5.881,7.22856 11.76199,14.45712 17.64297,21.68568 5.881,7.22853 11.76196,14.45712 17.64295,21.68568 5.88099,7.22856 11.76195,14.4571 17.64294,21.68566 -0.39779,0.90806 -0.79562,1.81612 -1.19343,2.72415 0,-7.31816 0,-14.63633 0,-21.95451 0,-7.31815 0,-14.63632 0,-21.9545 0,-7.31816 0,-14.63633 0,-21.95451 0,-7.31818 0,-14.63633 0,-21.95451 0,-0.71687 0.29173,-1.31428 0.87517,-1.7922 0.63651,-0.525712 1.32604,-0.788572 2.06864,-0.788572"
     id="path30876" /></svg>
