<?xml version="1.0" encoding="UTF-8" standalone="no"?>
<svg
   version="1.1"
   width="600"
   height="300"
   id="svg30778"
   sodipodi:docname="intro1.svg"
   xml:space="preserve"
   inkscape:version="1.2.2 (732a01da63, 2022-12-09)"
   xmlns:inkscape="http://www.inkscape.org/namespaces/inkscape"
   xmlns:sodipodi="http://sodipodi.sourceforge.net/DTD/sodipodi-0.dtd"
   xmlns="http://www.w3.org/2000/svg"
   xmlns:svg="http://www.w3.org/2000/svg"><sodipodi:namedview
     id="namedview30780"
     pagecolor="#ffffff"
     bordercolor="#000000"
     borderopacity="0.25"
     inkscape:showpageshadow="2"
     inkscape:pageopacity="0.0"
     inkscape:pagecheckerboard="0"
     inkscape:deskcolor="#d1d1d1"
     showgrid="false"
     inkscape:zoom="1.7116667"
     inkscape:cx="215.28724"
     inkscape:cy="300.29211"
     inkscape:window-width="2560"
     inkscape:window-height="1377"
     inkscape:window-x="-8"
     inkscape:window-y="-8"
     inkscape:window-maximized="1"
     inkscape:current-layer="svg30778" /><defs
     id="defs30772" /><g
     inkscape:label="שכבה 1"
     id="layer1"
     transform="matrix(1.3995816,0,0,1.505443,78.531488,-103.39489)"><path
       class="f"
       d="m -55.631264,190.50753 c -0.391581,0.52916 -0.190499,-0.13405 0.617356,-3.1397 -1.01952,-0.58913 -0.913687,-0.7373 -0.881938,-1.74976 -1.340545,-2.12018 -1.157102,-2.44826 -1.054797,-2.82926 0.05997,-1.2594 0.21872,-2.40592 0.373941,-4.14158 -0.116415,-2.26481 0.497413,-4.72366 1.880292,-6.68509 0.126999,-0.37394 0.204609,-1.4746 0.352775,-2.13429 0.144638,-0.34924 0.331609,-0.97718 0.631467,-2.27187 0.437442,-1.06538 0.497413,-1.60512 0.836077,-3.44661 0.09172,-1.07949 3.820555,-4.76599 4.035748,-5.0341 0.395108,-0.85372 0.603245,-1.35113 0.970131,-1.7921 0.980715,-0.78316 0.864299,6.19473 3.079727,2.59995 0.08114,-0.45508 -1.178269,-2.65639 -1.626293,-4.14863 -0.469191,-1.38994 -0.194026,-3.88758 -0.07761,-4.51552 0.440969,-1.6016 0.472719,-1.96496 1.040687,-3.72884 0.165804,-0.72671 2.991533,-3.06914 3.062088,-3.18908 0.31397,-0.635 1.792098,-0.29986 2.409454,-1.10419 0.84666,0.23636 1.672154,-0.51858 3.055033,0.10583 0.28222,-0.14111 0.698494,0.30339 0.793744,0.22578 2.317732,0.63147 3.488946,1.78504 5.094072,3.71825 1.11477,2.06726 1.36524,4.57902 1.188853,7.57761 0.03528,1.70743 -0.243415,3.16439 -0.476247,4.63546 0.303387,0.36336 0.500941,0.57503 0.550329,0.58208 2.088429,-0.47272 2.278928,0.32808 2.356538,0.90663 0.01764,0.18698 1.636877,2.24365 2.218956,3.49601 0.719661,1.70037 1.142991,2.97389 1.608654,5.15757 0.197554,0.53269 0.631468,1.13946 1.157103,1.8309 0.0071,0.29633 0.05644,0.64205 0.504468,2.35301 1.185324,2.13782 1.82032,3.5842 2.437676,5.06232 0.352775,1.80621 0.42333,2.01435 -0.08114,4.55433 0.296331,1.55927 0.165804,3.33725 0.215193,4.62841 0.0071,1.26646 0.144637,1.41463 0.356303,1.48166 -0.130527,0.17638 -2.017874,3.79233 -4.078081,4.0181 -0.48683,-1.52751 -0.87841,-2.68109 -1.238241,-4.54021 0.426858,-1.94732 0.483302,-2.58231 0.366887,-3.16792 -1.432267,-2.0214 -1.954375,-2.98095 -2.536454,-4.51552 -0.271636,-1.91557 -0.70555,-3.25965 -2.663452,-6.94262 -0.04939,0.007 -1.502822,3.50306 -2.8857,3.96519 -2.539981,0.32456 -4.589604,0.34925 -6.762699,0.31397 -2.173095,-0.38805 -3.559501,-0.57149 -4.984713,-0.47977 -1.696848,-1.91204 -2.790451,-4.09219 -3.446613,-4.45908 -2.448259,3.35489 -2.490592,3.52423 -2.497647,5.46096 0.08819,2.07785 -0.201082,3.73236 -0.945438,5.85254 -0.811383,1.53105 -0.345719,-1.0548 -0.754939,1.46049 3.252587,6.17004 2.638758,6.55103 -1.142991,7.91627 -2.504703,-2.68461 -2.52587,-2.72342 -3.05856,-3.88758 m 10.382172,-19.11688 c 2.554091,1.46754 4.04633,2.64228 1.396989,1.26646 1.809736,-0.3563 3.407808,-0.33514 5.348071,-0.0917 1.08302,0.19403 2.942144,0.16933 4.716603,0.24694 0.867827,-0.52916 1.382879,-0.7761 4.120414,-0.7761 0.356303,-4.0675 0.310442,-6.83679 0.01411,-10.26929 -0.162277,-1.4111 -0.211665,-1.54868 -5.71143,1.01952 1.64746,-4.98118 2.30715,-7.54233 2.317733,-10.15639 -0.966604,-2.52587 -1.202963,-4.05692 -2.031985,-5.57385 -1.086547,0.11642 -2.716368,0.13758 -3.926387,-0.23283 0.04586,0.84313 1.185325,3.04798 1.591016,4.7801 0.349247,1.97554 1.033631,5.97954 0.306914,11.29939 -8.431325,-3.54892 -8.448964,-3.51717 -8.590074,-1.8556 1.591016,3.496 1.534572,7.32361 0.451552,10.3469 m 123.503042,22.71166 c -0.261053,-2.26129 -0.698495,-4.01458 -1.248824,-7.29186 0.183443,-3.28434 0.959549,-5.81374 1.922625,-8.35019 1.023047,-1.55927 2.557619,-3.46072 4.942379,-5.23166 0,-0.27869 -0.02117,-0.37394 -2.388288,-2.64581 -1.735653,-2.9492 -2.420037,-5.97954 -2.614063,-8.23024 -0.363359,-1.46755 -0.65969,-3.51364 -0.155221,-6.08537 0.35983,-1.89793 0.571495,-4.11336 1.580432,-6.39934 1.481656,-1.71449 1.99318,-3.34431 2.000235,-3.59831 0.194027,-0.0141 3.57714,-1.12535 0.490358,-0.6738 1.718014,-0.76905 3.891109,-1.93674 6.558089,-2.5929 4.773047,-1.1571 9.267403,-0.86782 13.260823,0 2.6952,0.99483 4.58254,1.92615 6.42756,3.6865 1.44285,1.3723 2.07079,2.06726 2.55762,3.44661 1.00188,1.52752 1.46049,2.96332 1.70037,4.65311 0.11995,1.01599 0.13759,1.08302 4.11689,2.21543 0.24341,4.38499 0.21166,4.49788 -3.8135,5.63029 -0.0423,1.56985 -0.32808,3.46778 -0.93485,5.27751 -0.77964,2.80104 -2.61759,4.52611 -5.78904,5.94426 4.15569,2.55762 5.01646,5.11172 6.68509,8.9746 0.58913,4.45203 0.11994,8.20202 0.36688,10.48448 -1.25588,-0.34925 -2.37065,-0.51858 -5.09054,0.17991 -0.96661,-4.32855 -1.06186,-7.90216 -2.68462,-12.69284 0.0741,-2.89629 -0.22931,-6.21237 -0.95602,-7.46473 0.32808,0.0988 0.61383,0.19756 0.89252,0.34572 -0.14817,0.0388 -0.33161,0.0741 -0.52564,0.10936 -0.21166,0.0776 -0.51152,0.18345 -1.3476,0.47978 -3.48894,1.05127 -6.939086,0.81138 -10.244589,0.76199 -2.797507,-0.2293 -5.386876,-1.11829 -7.718719,-1.77798 2.095484,6.38523 0.850188,8.46307 -1.74271,11.39463 -1.047742,2.22249 -0.405691,5.09055 0.232832,9.23566 -2.850423,-0.39159 -4.399106,-0.32103 -6.480479,0.22224 m 6.487535,-26.29233 c 4.688381,1.51341 6.787393,2.08843 8.720601,2.34243 3.037393,-0.0388 5.983066,0.0494 8.808799,-0.45155 2.03551,-0.0776 3.78175,-0.68086 5.03763,-1.12888 0.22577,0.06 1.33701,-0.28575 1.96848,-1.67568 0.48683,-1.25941 0.4445,-3.09384 0.2928,-4.74483 0.21873,-2.83631 0.23284,-3.14675 0.23989,-3.18909 -0.20814,-0.74788 -0.70908,-2.52234 -0.46566,-4.18038 -0.0282,-0.73025 -0.16933,-1.68274 -0.9913,-2.54704 -0.72672,-0.80785 -1.40052,-1.08654 -3.81703,-1.15357 -1.71096,-0.39158 -2.67403,-0.72319 -4.974128,-0.76905 -2.11665,-0.50447 -4.085136,-0.43744 -6.568672,-0.21167 -2.769285,0.37394 -5.136406,0.83961 -8.396048,1.50282 -1.880292,1.65452 -2.158984,4.03575 -2.162512,7.53881 -0.271637,3.00564 0.0035,5.86665 2.310677,8.66768"
       id="path17609"
       style="fill:#010101;stroke-width:0.352775" /><path
       class="f"
       d="m 8.9018885,194.01059 c -1.8062086,0 -3.7888048,-0.0494 -5.9513163,-0.15169 -2.13781719,-0.0741 -4.2227182,-0.18698 -6.2582306,-0.33867 -2.0355124,-0.15169 -3.8769986,-0.32808 -5.5315139,-0.52916 v -5.27399 c 1.7532924,0.15169 3.5983062,0.29986 5.5315139,0.45155 1.9332077,0.1517 3.81349905,0.27517 5.6444019,0.37747 1.8309029,0.0741 3.3831134,0.11289 4.6531039,0.11289 2.5928971,0 4.6672146,-0.0988 6.2194256,-0.29986 1.55221,-0.22577 2.875117,-0.65263 3.96872,-1.28057 0.712606,-0.42686 1.234713,-1.00541 1.562794,-1.73213 0.356302,-0.72671 0.571495,-1.56985 0.649106,-2.52587 0.07761,-0.98071 0.112888,-2.0214 0.112888,-3.12559 0,-1.63334 -0.04939,-2.95272 -0.151693,-3.9546 -0.102305,-1.03011 -0.356303,-1.82032 -0.761995,-2.37418 -0.405691,-0.55386 -1.079492,-0.95602 -2.021401,-1.20649 -0.917215,-0.27517 -2.162512,-0.49036 -3.739416,-0.64205 -4.1698023,-0.45155 -8.343132,-0.90311 -12.51293391,-1.35466 -2.33889909,-0.29986 -4.22271819,-0.79022 -5.64440189,-1.47107 -1.4005173,-0.70202 -2.4553149,-1.59455 -3.1679206,-2.67404 -0.7126058,-1.10418 -1.1959077,-2.40945 -1.4499058,-3.91933 -0.2293038,-1.53104 -0.3421918,-3.23847 -0.3421918,-5.12229 0,-3.0374 0.3951081,-5.47507 1.1817966,-7.3095 0.8149106,-1.83443 1.9967072,-3.2279 3.5489177,-4.18039 1.5769048,-0.95602 3.4713072,-1.58396 5.68320722,-1.88382 2.23659428,-0.32808 4.79421388,-0.49036 7.66933108,-0.49036 1.8555972,0 3.7499994,0.0494 5.6832074,0.1517 1.957902,0.0741 3.802916,0.20108 5.531514,0.37747 1.753292,0.17638 3.192615,0.37747 4.310912,0.60324 v 5.1611 c -1.269991,-0.20108 -2.748119,-0.36336 -4.4238,-0.49035 -1.654516,-0.1517 -3.344308,-0.26459 -5.072907,-0.33867 -1.728598,-0.0741 -3.369002,-0.11289 -4.9212125,-0.11289 -2.6952019,0 -4.8718244,0.127 -6.522812,0.37747 -1.65451527,0.22578 -2.97389422,0.65264 -3.9687201,1.28058 -1.0689086,0.62794 -1.7427091,1.50635 -2.0214014,2.63875 -0.2539981,1.12888 -0.3809971,2.48707 -0.3809971,4.0675 0,1.88382 0.126999,3.35136 0.3809971,4.40969 0.2786923,1.0301 0.864299,1.75682 1.7532924,2.18368 0.91721526,0.40216 2.27539947,0.69144 4.0816081,0.86782 4.0816081,0.46567 8.1632165,0.9278 12.2448245,1.39347 1.753292,0.127 3.29492,0.35277 4.614298,0.67732 1.347601,0.29986 2.504704,0.81492 3.471308,1.54516 0.991298,0.72672 1.728598,1.77093 2.2119,3.12559 0.306914,0.67733 0.522107,1.43226 0.649106,2.26129 0.151693,0.80432 0.268109,1.70743 0.342192,2.71284 0.07761,0.98071 0.112888,2.07079 0.112888,3.27728 0,2.73753 -0.268109,5.0094 -0.8008,6.81914 -0.53269,1.80974 -1.298212,3.25259 -2.28951,4.33208 -0.966604,1.0548 -2.162512,1.84501 -3.587723,2.37418 -1.400517,0.52916 -2.973895,0.85371 -4.730715,0.98071 -1.728598,0.15169 -3.587723,0.22578 -5.5703187,0.22578 M 49.252307,193.44968 V 149.17993 H 33.380954 v -5.49977 h 38.149102 v 5.49977 H 55.545815 v 44.26622 h -6.293508 m 98.463063,0.56444 c -3.89111,0 -7.12253,-0.20108 -9.69073,-0.60325 -2.5682,-0.40216 -4.60372,-1.12888 -6.10301,-2.18367 -1.4746,-1.0795 -2.55762,-2.56115 -3.242,-4.44497 -0.68792,-1.90851 -1.13241,-4.34619 -1.33349,-7.3095 -0.17639,-2.98801 -0.26811,-6.61806 -0.26811,-10.88664 0,-4.26858 0.0882,-7.92333 0.26811,-10.88664 0.2046,-2.98801 0.6491,-5.42568 1.33349,-7.3095 0.68791,-1.90852 1.7674,-3.39017 3.242,-4.44497 1.49929,-1.07949 3.53481,-1.82032 6.10301,-2.22248 2.5682,-0.40217 5.79962,-0.60325 9.69073,-0.60325 3.89111,0 7.15781,0.20108 9.72954,0.60325 2.5682,0.40216 4.5896,1.14299 6.0642,2.22248 1.4993,1.0548 2.58232,2.53645 3.24201,4.44497 0.68791,1.88382 1.1324,4.32149 1.33349,7.3095 0.20461,2.96331 0.30691,6.59336 0.30691,10.88664 0,4.29327 -0.1023,7.89863 -0.30691,10.88664 -0.20461,2.96331 -0.64911,5.40099 -1.33349,7.3095 -0.65969,1.88382 -1.74271,3.36547 -3.24201,4.44497 -1.4746,1.05479 -3.496,1.78151 -6.0642,2.18367 -2.5682,0.40217 -5.81021,0.60325 -9.72954,0.60325 m 0,-5.3516 c 2.6952,0 4.92121,-0.0741 6.67451,-0.22578 1.75329,-0.17638 3.13969,-0.57855 4.15921,-1.20649 1.04422,-0.62794 1.83091,-1.64393 2.3636,-3.0515 0.53269,-1.43227 0.8643,-3.40428 0.9913,-5.91604 0.12699,-2.51176 0.19049,-5.73965 0.19049,-9.68368 0,-3.94402 -0.0635,-7.20719 -0.19049,-9.71895 -0.127,-2.51176 -0.45861,-4.46966 -0.9913,-5.87724 -0.53269,-1.43226 -1.32291,-2.46237 -2.3636,-3.09031 -1.01599,-0.62794 -2.40239,-1.01599 -4.15921,-1.16768 -1.7533,-0.17639 -3.97931,-0.26458 -6.67451,-0.26458 -2.6952,0 -4.88241,0.0882 -6.63923,0.26458 -1.7286,0.15169 -3.115,0.53974 -4.15922,1.16768 -1.04421,0.62794 -1.81679,1.65805 -2.32831,3.09031 -0.508,1.40758 -0.83961,3.36548 -0.9913,5.87724 -0.15169,2.51176 -0.2293,5.75023 -0.2293,9.71895 0,3.96872 0.0776,7.17192 0.2293,9.68368 0.15169,2.51176 0.4833,4.48377 0.9913,5.91604 0.50799,1.40757 1.2841,2.42356 2.32831,3.0515 1.04422,0.62794 2.4271,1.03011 4.15922,1.20649 1.7533,0.1517 3.96872,0.22578 6.63923,0.22578 m 34.82949,4.78363 v -49.76246 h 6.44873 c 2.17662,3.17851 4.35677,6.35348 6.53339,9.53199 2.17662,3.1785 4.35678,6.35348 6.5334,9.53198 2.17662,3.1785 4.35677,6.35348 6.53339,9.53198 2.17663,3.17851 4.35678,6.35348 6.5334,9.53199 h 0.30338 v -38.12794 h 6.06421 v 49.76599 h -6.06421 c -1.10418,-1.61924 -2.20837,-3.23848 -3.31255,-4.85419 -1.10419,-1.61923 -2.20838,-3.23847 -3.31256,-4.85418 -2.20837,-3.23848 -4.42027,-6.47343 -6.62865,-9.7119 -2.20837,-3.23848 -4.42027,-6.47343 -6.62864,-9.7119 -2.20837,-3.23848 -4.42027,-6.47342 -6.62865,-9.7119 h -0.30691 v 38.84407 h -6.0642 m 48.45013,0 c 0.39511,-1.03716 0.79374,-2.07432 1.18885,-3.11148 0.39511,-1.03716 0.79375,-2.07432 1.18886,-3.11147 0.3951,-1.03716 0.79374,-2.07432 1.18885,-3.11148 0.39511,-1.03716 0.79374,-2.07432 1.18885,-3.11148 0.39511,-1.03716 0.79374,-2.07432 1.18885,-3.11147 0.39511,-1.03716 0.79375,-2.07432 1.18885,-3.11148 0.39511,-1.03716 0.79375,-2.07432 1.18886,-3.11148 0.3951,-1.03716 0.79374,-2.07431 1.18885,-3.11147 0.39511,-1.03716 0.79374,-2.07432 1.18885,-3.11148 0.39511,-1.03716 0.79374,-2.07432 1.18885,-3.11148 0.39511,-1.03716 0.79375,-2.07431 1.18885,-3.11147 0.39511,-1.03716 0.79375,-2.07432 1.18886,-3.11148 0.3951,-1.03716 0.79374,-2.07432 1.18885,-3.11148 0.39511,-1.03716 0.79374,-2.07431 1.18885,-3.11147 0.39511,-1.03716 0.79374,-2.07432 1.18885,-3.11148 0.39511,-1.03716 0.79375,-2.07432 1.18886,-3.11148 h 7.89863 c 0.79022,2.07432 1.58396,4.14864 2.37418,6.21943 0.79021,2.07432 1.58396,4.14863 2.37417,6.21942 0.39511,1.03716 0.79022,2.07432 1.18886,3.11148 0.39863,1.03716 0.79021,2.07432 1.18885,3.11148 0.79021,2.07432 1.58396,4.14863 2.37417,6.21942 0.79022,2.07432 1.58396,4.14864 2.37418,6.21943 0.79022,2.07432 1.58396,4.14863 2.37418,6.21942 0.79021,2.07432 1.58396,4.14864 2.37417,6.21943 0.39511,1.03716 0.79022,2.07432 1.18886,3.11148 0.3951,1.03715 0.79021,2.07431 1.18885,3.11147 h -6.52281 c -0.43392,-1.13241 -0.87136,-2.26834 -1.30527,-3.40075 -0.43392,-1.13241 -0.87136,-2.26834 -1.30527,-3.40075 -0.43391,-1.13241 -0.87135,-2.26835 -1.30527,-3.40075 -0.43391,-1.13241 -0.87135,-2.26835 -1.30527,-3.40076 h -22.62346 c -0.43392,1.13241 -0.8643,2.26835 -1.29822,3.40076 -0.43391,1.1324 -0.8643,2.26834 -1.29821,3.40075 -0.43391,1.13241 -0.8643,2.26834 -1.29821,3.40075 -0.43391,1.13241 -0.8643,2.26834 -1.29821,3.40075 h -6.37112 m 13.46542,-19.02516 h 18.80645 c -0.76553,-2.03198 -1.53105,-4.06397 -2.3001,-6.09243 -0.76905,-2.02845 -1.53104,-4.06397 -2.30009,-6.09242 -0.76552,-2.03199 -1.53105,-4.06397 -2.3001,-6.09243 -0.76552,-2.03198 -1.53104,-4.06397 -2.30009,-6.09243 h -0.381 c -0.76905,2.03199 -1.5381,4.06397 -2.30715,6.09243 -0.76905,2.03199 -1.5381,4.06397 -2.30715,6.09243 -0.76905,2.03198 -1.53809,4.06397 -2.30714,6.09242 -0.76905,2.03199 -1.5381,4.06397 -2.30715,6.09243 m 61.76386,19.5896 c -1.7427,0 -3.33725,-0.0494 -4.78715,-0.15169 -1.44991,-0.0988 -2.75165,-0.25047 -3.90875,-0.45155 -2.31421,-0.40217 -4.18392,-1.07949 -5.60913,-2.03552 -1.40051,-0.98071 -2.4659,-2.32478 -3.2032,-4.03222 -0.7373,-1.70743 -1.23471,-3.84172 -1.48871,-6.40639 -0.11288,-1.28058 -0.20108,-2.6952 -0.25752,-4.23683 -0.0565,-1.54516 -0.0847,-3.22084 -0.0847,-5.03057 v -27.96449 h 6.29351 v 30.44097 c 0,3.03739 0.11289,5.49976 0.34219,7.38358 0.254,1.88382 0.77611,3.36548 1.5628,4.44497 0.81491,1.05479 2.09901,1.77093 3.8523,2.1484 1.78151,0.37747 4.20861,0.56444 7.28481,0.56444 3.0762,0 5.48212,-0.18697 7.21072,-0.56444 1.7286,-0.37747 2.98801,-1.09361 3.77822,-2.1484 0.81491,-1.07949 1.32291,-2.56115 1.52752,-4.44497 0.20461,-1.88382 0.30691,-4.34619 0.30691,-7.38358 v -30.44097 h 6.29351 v 27.98918 c 0,1.80974 -0.0282,3.48542 -0.0847,5.03057 -0.0564,1.54516 -0.14463,2.95626 -0.25752,4.23683 -0.22931,2.56115 -0.6985,4.69544 -1.4111,6.4064 -0.68791,1.70743 -1.74271,3.0515 -3.16792,4.03222 -1.42521,0.95602 -3.29492,1.63335 -5.60913,2.03551 -1.1571,0.20108 -2.45178,0.35278 -3.88052,0.45155 -1.43227,0.0988 -2.99859,0.1517 -4.7025,0.1517 m 43.33843,-0.56444 v -44.26975 h -15.87136 v -5.49977 h 38.14911 v 5.49977 h -15.98424 v 44.26622 h -6.29351"
       id="path17611"
       style="fill:#010101;stroke-width:0.352775" /></g></svg>
