<?xml version="1.0" encoding="UTF-8" standalone="no"?>
<!-- Created with Inkscape (http://www.inkscape.org/) -->

<svg
   width="205.26225mm"
   height="49.050446mm"
   viewBox="0 0 205.26225 49.050446"
   version="1.1"
   id="svg17659"
   inkscape:export-filename="intro7.svg"
   inkscape:export-xdpi="300"
   inkscape:export-ydpi="300"
   xmlns:inkscape="http://www.inkscape.org/namespaces/inkscape"
   xmlns:sodipodi="http://sodipodi.sourceforge.net/DTD/sodipodi-0.dtd"
   xmlns="http://www.w3.org/2000/svg"
   xmlns:svg="http://www.w3.org/2000/svg">
  <sodipodi:namedview
     id="namedview17661"
     pagecolor="#ffffff"
     bordercolor="#000000"
     borderopacity="0.25"
     inkscape:showpageshadow="2"
     inkscape:pageopacity="0.0"
     inkscape:pagecheckerboard="0"
     inkscape:deskcolor="#d1d1d1"
     inkscape:document-units="mm"
     showgrid="false" />
  <defs
     id="defs17656" />
  <g
     inkscape:label="שכבה 1"
     inkscape:groupmode="layer"
     id="layer1"
     transform="translate(18.758759,-144.36842)">
    <path
       class="f"
       d="m 20.755584,156.64559 c 0,2.52587 -0.69144,4.77304 -2.074318,6.738 -1.361712,1.96849 -3.224365,3.60184 -5.591486,4.9071 1.527517,0.99483 2.744591,2.21543 3.644167,3.66534 0.899577,1.42874 1.351129,3.00211 1.351129,4.72013 0,2.07079 -0.649106,4.10983 -1.947319,6.11712 -1.298212,2.00729 -3.037394,3.7888 -5.214016,5.34101 -2.1766225,1.55221 -4.6601593,2.80457 -7.443555,3.75706 -2.76575697,0.95249 -5.5914857,1.42874 -8.4807139,1.42874 -3.1396986,0 -5.8842891,-0.59972 -8.2302431,-1.80268 -2.345955,-1.19944 -4.187441,-2.89981 -5.527987,-5.09408 0.398636,-1.16063 0.931327,-2.59995 1.601599,-4.31796 0.670273,-1.73918 1.404045,-3.57009 2.197789,-5.49624 0.818439,-1.92615 1.633349,-3.84172 2.451788,-5.74671 0.818438,-1.90498 1.591015,-3.61241 2.324788,-5.12582 1.5275158,-3.31256 2.8892278,-6.05715 4.0851355,-8.23024 1.2135464,-2.1731 2.324788,-3.90169 3.3301971,-5.1858 -2.2189555,0.70555 -4.2297737,1.49224 -6.0324546,2.36007 -1.802681,0.86783 -3.132643,1.71801 -3.989887,2.54704 -0.356302,-0.24695 -0.723189,-0.61031 -1.100658,-1.08655 -0.377469,-0.49741 -0.744355,-1.03363 -1.100658,-1.61571 -0.335137,-0.59972 -0.617357,-1.19944 -0.846661,-1.80268 -0.208137,-0.62089 -0.335136,-1.1818 -0.377469,-1.67568 1.047742,-0.72319 2.398871,-1.41816 4.053386,-2.08138 1.675682,-0.68438 3.4960016,-1.26293 5.4644868,-1.73918 1.9684851,-0.49741 3.9898866,-0.88899 6.06420428,-1.1818 2.07431772,-0.28927 4.05338612,-0.43391 5.93720522,-0.43391 4.8365467,0 8.6182967,0.97366 11.3417197,2.92098 2.744591,1.94732 4.116886,4.64957 4.116886,8.10677 m -22.9938822,14.47436 c -0.7549388,-0.35277 -1.4569613,-0.87841 -2.1060675,-1.58396 -0.920743,1.90499 -1.8026808,3.76764 -2.6387579,5.59149 -0.8184383,1.82032 -1.5486828,3.51011 -2.197789,5.06232 -0.6279397,1.55221 -1.1535744,2.9104 -1.5698494,4.0675 -0.398636,1.16063 -0.617356,1.99671 -0.659689,2.51529 0.56444,0.28927 1.234713,0.51858 2.0108178,0.68438 0.7972718,0.14464 1.7815144,0.21872 2.9527278,0.21872 2.7234239,0 5.3304321,-0.35277 7.8210244,-1.0548 2.5117589,-0.70555 4.7130756,-1.65804 6.5968948,-2.85748 1.8838191,-1.2206 3.3936962,-2.61053 4.5225772,-4.16274 1.132408,-1.57338 1.696848,-3.22084 1.696848,-4.93885 0,-2.46237 -1.153575,-4.2333 -3.457196,-5.30927 -3.1396986,1.26294 -6.6815608,1.8944 -10.61853117,1.8944 H -1.1976121 c -0.2928034,0 -0.638523,-0.0423 -1.0371589,-0.12347 M 9.4844185,149.90405 c -0.8572435,0 -1.7603478,0.0635 -2.7022574,0.18697 -0.9419096,0.12348 -1.9367354,0.32103 -2.9844775,0.58914 0.1658043,0.1658 0.3033866,0.34219 0.4092191,0.52916 0.1058326,0.16581 0.1869708,0.34219 0.2504704,0.52916 -0.3563029,0.49742 -0.7972718,1.22061 -1.319379,2.1731 -0.5221072,0.93133 -1.1112416,2.01787 -1.7603478,3.25964 -0.62793975,1.24177 -1.29821248,2.62818 -2.01081822,4.16275 -0.69143928,1.50988 -1.40404498,3.06561 -2.13781728,4.66016 0.6914393,-0.14464 1.5275163,-0.25753 2.5117589,-0.34219 0.98424259,-0.10231 1.9579019,-0.15523 2.920978,-0.15523 0.5221072,0 1.0371588,0.0212 1.5380995,0.0635 0.5009407,0.0212 0.9948259,0.0635 1.4781278,0.12348 1.9261521,-0.33161 3.6653335,-0.81844 5.214016,-1.46049 1.548683,-0.64205 2.878645,-1.37583 3.989887,-2.20485 1.132408,-0.85019 2.000235,-1.7921 2.607008,-2.82573 0.606773,-1.03363 0.91016,-2.13429 0.91016,-3.29139 0,-1.96848 -0.765522,-3.4572 -2.293038,-4.47319 -1.527517,-1.01599 -3.739417,-1.52046 -6.628645,-1.52046 m 37.101359,-1.0548 c -1.760347,2.31774 -3.37253,4.86477 -4.836547,7.64111 -1.446378,2.77282 -2.68109,5.61971 -3.707666,8.54069 -1.005409,2.92098 -1.781514,5.80668 -2.324788,8.66416 -0.543274,2.83631 -0.818438,5.48565 -0.818438,7.95155 0,3.06561 0.462135,5.28104 1.382878,6.64628 0.920743,1.36524 2.511759,2.04962 4.776575,2.04962 2.596425,0 4.87888,-0.88899 6.847365,-2.6705 1.989652,-1.80268 3.841721,-4.27564 5.559736,-7.42239 1.132408,-2.04963 2.095484,-4.28622 2.889228,-6.70979 0.818439,-2.44473 1.478128,-4.94943 1.979069,-7.51411 0.500941,-2.58936 0.867827,-5.18579 1.100658,-7.79633 0.250471,-2.62817 0.37747,-5.14346 0.37747,-7.54586 0,-1.53104 -0.02117,-2.64934 -0.0635,-3.35489 -0.04233,-0.70555 -0.105832,-1.27351 -0.186971,-1.70743 0.126999,0 0.430386,0.0423 0.91016,0.12347 0.483302,0.0811 1.026576,0.19756 1.633349,0.34219 0.62794,0.12348 1.255879,0.29986 1.883819,0.52917 0.62794,0.20813 1.16063,0.44449 1.601599,0.7126 -0.208137,2.98095 -0.585607,6.05715 -1.132408,9.22507 -0.522107,3.16792 -1.234713,6.30409 -2.137817,9.41204 -0.87841,3.08326 -1.904986,6.05715 -3.079727,8.91463 -1.153575,2.85748 -2.451787,5.42568 -3.894637,7.70108 -2.137818,3.37606 -4.533161,6.00423 -7.193085,7.88805 -2.659924,1.90499 -5.78904,2.85748 -9.394402,2.85748 -3.605361,0 -6.586311,-1.03363 -8.639462,-3.10442 -2.053151,-2.07079 -3.079727,-5.21754 -3.079727,-9.44026 0,-2.42357 0.28222,-5.16463 0.84666,-8.23025 0.56444,-3.08325 1.319379,-6.22295 2.261289,-9.41204 0.941909,-3.21025 2.031984,-6.32525 3.266697,-9.34854 1.25588,-3.04445 2.564676,-5.76787 3.926387,-8.16674 0.69144,0 1.495767,0.1023 2.420038,0.31044 0.920743,0.18697 1.820319,0.4445 2.702257,0.77611 0.899577,0.31044 1.718015,0.66321 2.451787,1.05479 0.754939,0.39511 1.308796,0.75494 1.665099,1.08655 m 24.44026,44.53433 c -2.303621,-0.66321 -3.852304,-1.30526 -4.649576,-1.92615 -0.797272,-0.59972 -1.19238,-1.42874 -1.19238,-2.48354 0,-1.18179 0.271637,-2.83631 0.818438,-4.9706 0.564441,-2.13429 1.298213,-4.50494 2.197789,-7.11194 0.920744,-2.62818 1.957902,-5.37277 3.111477,-8.23025 1.171213,-2.85748 2.356538,-5.59148 3.548918,-8.19849 1.213546,-2.62818 2.398871,-5.03057 3.548917,-7.20367 1.153575,-2.17309 2.16604,-3.87347 3.047977,-5.09407 -0.137582,-0.85019 -0.271636,-1.69685 -0.409219,-2.54704 0.543274,0 1.319379,0.14464 2.324788,0.43392 1.005409,0.2681 2.021402,0.59971 3.047977,0.99482 1.026576,0.39511 1.926153,0.80786 2.702258,1.24177 0.797272,0.41275 1.234713,0.75494 1.319379,1.02658 -0.208138,0.93132 -0.37747,2.34948 -0.500941,4.25446 -0.105832,1.90499 -0.158749,3.93345 -0.158749,6.0889 0,4.26505 0.165805,8.44897 0.500941,12.54821 0.356303,4.09925 1.153575,8.262 2.388288,12.48471 0.649106,-3.12558 1.340545,-6.24412 2.074317,-9.34854 0.754939,-3.12558 1.527517,-6.10653 2.324788,-8.94285 0.818439,-2.83631 1.622766,-5.46448 2.420038,-7.88805 0.797268,-2.44473 1.559268,-4.57549 2.293038,-6.39934 0.75494,-1.82032 1.45696,-3.24906 2.10607,-4.28622 0.6491,-1.03363 1.23471,-1.59454 1.76035,-1.67568 0.44096,0.0811 0.92074,0.24694 1.44637,0.49742 0.52211,0.24694 1.02658,0.55738 1.50635,0.93132 0.4833,0.35278 0.92075,0.74436 1.31938,1.1818 0.39864,0.41275 0.72319,0.8396 0.97366,1.27352 -1.29821,0.51858 -2.57526,1.71801 -3.83114,3.60183 -1.25588,1.86265 -2.46237,4.14158 -3.61241,6.83325 -1.15358,2.67051 -2.21896,5.58091 -3.2032,8.72766 -0.984244,3.12559 -1.852071,6.21237 -2.60701,9.25329 -0.733772,3.02329 -1.308796,5.82785 -1.728598,8.41722 -0.419802,2.58937 -0.649106,4.66016 -0.691439,6.21237 0,0.0811 0.02117,0.14463 0.0635,0.18697 -0.126999,0.0423 -0.261053,0.0635 -0.409219,0.0635 h -0.377469 c -1.862653,0 -3.506585,-0.22931 -4.931796,-0.68439 -1.425212,-0.43391 -2.356538,-1.06538 -2.797507,-1.8944 -0.836077,-3.29139 -1.5381,-6.45931 -2.106068,-9.50376 -0.56444,-3.06562 -1.047742,-6.11712 -1.446378,-9.16157 -0.377469,-3.06562 -0.680856,-6.14887 -0.910159,-9.25329 -0.208138,-3.12559 -0.37747,-6.38876 -0.500941,-9.78246 -0.754939,1.1818 -1.559266,2.72343 -2.420037,4.62841 -0.836077,1.88382 -1.654516,3.9652 -2.451788,6.24412 -0.797271,2.25776 -1.569849,4.639 -2.324788,7.1437 -0.733772,2.5047 -1.382878,4.96002 -1.947318,7.35889 -0.56444,2.38123 -1.015993,4.63899 -1.351129,6.76975 -0.31397,2.13429 -0.472719,3.98636 -0.472719,5.55974 0,0.82902 0.01058,1.41815 0.03175,1.77093 0.02117,0.35277 0.07408,0.64205 0.158749,0.87135 m 40.209304,0 c -2.30362,-0.66321 -3.8523,-1.30526 -4.64957,-1.92615 -0.79727,-0.59972 -1.19238,-1.42874 -1.19238,-2.48353 0,-1.1818 0.27163,-2.83632 0.81844,-4.97061 0.56444,-2.13429 1.29821,-4.50493 2.19778,-7.11194 0.92075,-2.62818 1.95791,-5.37277 3.11148,-8.23025 1.17121,-2.85747 2.35654,-5.59148 3.54892,-8.19849 1.21355,-2.62817 2.39887,-5.03057 3.54892,-7.20367 1.15357,-2.17309 2.16604,-3.87347 3.04797,-5.09407 -0.13758,-0.85019 -0.27163,-1.69685 -0.40922,-2.54704 0.54328,0 1.31938,0.14464 2.32479,0.43392 1.00541,0.26811 2.0214,0.59971 3.04798,0.99482 1.02657,0.39511 1.92615,0.80786 2.70226,1.24177 0.79727,0.41275 1.23471,0.75494 1.31938,1.02658 -0.20814,0.93132 -0.37747,2.34948 -0.50094,4.25446 -0.10584,1.90499 -0.15875,3.93345 -0.15875,6.0889 0,4.26505 0.1658,8.44897 0.50094,12.54821 0.3563,4.09925 1.15357,8.262 2.38828,12.48472 0.64911,-3.12559 1.34055,-6.24412 2.07432,-9.34855 0.75494,-3.12558 1.52752,-6.10653 2.32479,-8.94284 0.81844,-2.83632 1.62277,-5.46449 2.42004,-7.88806 0.79727,-2.44473 1.55926,-4.57549 2.29304,-6.39934 0.75493,-1.82032 1.45696,-3.24906 2.10606,-4.28621 0.64911,-1.03364 1.23472,-1.59455 1.76035,-1.67569 0.44097,0.0811 0.92074,0.24695 1.44638,0.49742 0.52211,0.24694 1.02657,0.55738 1.50635,0.93132 0.4833,0.35278 0.92074,0.74436 1.31938,1.1818 0.39863,0.41275 0.72319,0.8396 0.97366,1.27352 -1.29822,0.51858 -2.57526,1.71801 -3.83114,3.60183 -1.25588,1.86265 -2.46237,4.14158 -3.61242,6.83326 -1.15357,2.6705 -2.21895,5.5809 -3.2032,8.72765 -0.98424,3.12559 -1.85207,6.21237 -2.607,9.25329 -0.73378,3.02329 -1.3088,5.82785 -1.7286,8.41722 -0.4198,2.58937 -0.64911,4.66016 -0.69144,6.21237 0,0.0811 0.0212,0.14464 0.0635,0.18697 -0.127,0.0423 -0.26106,0.0635 -0.40922,0.0635 h -0.37747 c -1.86265,0 -3.50659,-0.22931 -4.9318,-0.68439 -1.42521,-0.43391 -2.35653,-1.06538 -2.7975,-1.8944 -0.83608,-3.29139 -1.5381,-6.45931 -2.10607,-9.50376 -0.56444,-3.06562 -1.04774,-6.11712 -1.44638,-9.16157 -0.37747,-3.06562 -0.68085,-6.14887 -0.91016,-9.25329 -0.20814,-3.12559 -0.37747,-6.38876 -0.50094,-9.78246 -0.75494,1.1818 -1.55927,2.72343 -2.42004,4.62841 -0.83607,1.88382 -1.65451,3.9652 -2.45178,6.24412 -0.79728,2.25776 -1.56985,4.639 -2.32479,7.1437 -0.73377,2.5047 -1.38288,4.96002 -1.94732,7.35889 -0.56444,2.38123 -1.01599,4.63899 -1.35113,6.76975 -0.31397,2.13429 -0.47272,3.98636 -0.47272,5.55974 0,0.82902 0.0106,1.41816 0.0318,1.77093 0.0212,0.35278 0.0741,0.64205 0.15875,0.87136 m 55.96777,-25.2199 c -0.23636,-1.60513 0.81844,-3.5595 2.38476,-6.66745 1.55574,-1.6404 2.82926,-3.34783 4.12747,-4.95649 1.81327,-1.7286 3.15381,-3.14322 5.01646,-4.49083 1.19238,-0.66321 2.08843,-1.3229 2.99859,-2.16956 0.92427,-0.9525 2.79398,-0.95602 2.76576,-1.55221 0.43744,-0.19403 0.87135,-0.34925 0.92074,-0.3175 0.44803,0.0741 0.77611,0.17286 1.09361,0.31044 -0.22225,0.79022 -0.96661,3.72178 -2.16252,4.7413 -0.88899,1.06185 -1.92262,2.41298 -2.66698,3.37253 -0.46919,0.38452 -1.4111,1.7286 -2.29303,2.53998 -1.08655,0.97013 -1.52046,1.42521 -2.69168,2.34948 -2.18368,2.12371 -4.13099,3.92992 -6.03951,5.53152 -1.30879,0.91721 -1.45696,1.34054 1.8309,6.37464 -1.64393,3.11853 -1.67568,3.15734 -4.74482,3.74295 0.0141,0.88193 1.47107,5.04468 1.23118,8.21613 -1.62982,2.55409 -1.88734,3.03034 -3.62652,4.69544 -0.16934,0.17991 -0.42686,0.14816 3.87347,0.74082 -0.89252,3.16792 -5.09408,1.82032 -6.20532,2.12724 -1.68626,-0.27869 -1.81326,0.22577 -3.12558,-0.32808 -0.5715,0.13405 -1.29469,0.32102 -2.1096,-0.27164 -0.66674,-0.34572 -0.98071,-0.54327 -1.18885,-0.79727 0.84666,-1.12888 -1.23824,-1.0936 -0.94191,-5.5809 1.24177,-2.87865 1.91557,-3.89111 2.77281,-5.22813 0.39864,-1.23824 2.65287,-3.79586 3.54539,-5.15052 -0.31397,-2.94214 -0.25047,-3.09384 0.50447,-4.35677 0.67027,-2.6952 1.28057,-1.31232 0.47272,-2.89981 -0.54328,-1.16769 -1.24883,-2.43062 -2.09196,-4.07808 -0.51858,-1.28058 -1.23118,-2.73754 -1.74271,-4.24742 -0.25047,-1.5134 -0.56444,-2.93861 -0.9913,-4.40263 -0.92074,-2.17662 -1.95437,-5.66557 -2.45884,-6.87206 1.50282,-1.04421 0.86783,-0.67733 0.0388,0.0706 -0.127,-0.55033 -0.10936,-1.09008 -0.20814,-1.81327 0.0776,-1.04774 0.42686,-2.16956 1.1571,-2.40592 1.87324,-0.381 1.85913,1.26646 2.89629,1.35818 0.21166,0.23283 0.38099,0.38453 0.6103,0.55386 -0.17639,0.26105 -0.40922,0.59619 1.50282,2.41651 0.007,0.38805 0.88194,2.15898 1.66863,4.32855 0.29985,1.97554 0.75493,4.03927 1.16768,5.73965 0.21167,2.09901 0.46919,3.82408 0.67733,5.38688 0.22578,1.17474 0.50094,2.49412 0.74083,3.24553 0.77257,0.70202 0.75846,0.127 1.29115,0.74082"
       id="path17613"
       style="fill:#010101;stroke-width:0.352775" />
  </g>
</svg>
