<?xml version="1.0" encoding="UTF-8" standalone="no"?>
<svg
   version="1.1"
   width="600"
   height="300"
   id="svg30738"
   sodipodi:docname="intro9.svg"
   inkscape:version="1.2.2 (732a01da63, 2022-12-09)"
   xml:space="preserve"
   xmlns:inkscape="http://www.inkscape.org/namespaces/inkscape"
   xmlns:sodipodi="http://sodipodi.sourceforge.net/DTD/sodipodi-0.dtd"
   xmlns="http://www.w3.org/2000/svg"
   xmlns:svg="http://www.w3.org/2000/svg"><sodipodi:namedview
     id="namedview30740"
     pagecolor="#ffffff"
     bordercolor="#000000"
     borderopacity="0.25"
     inkscape:showpageshadow="2"
     inkscape:pageopacity="0.0"
     inkscape:pagecheckerboard="0"
     inkscape:deskcolor="#d1d1d1"
     showgrid="false"
     inkscape:zoom="1.7116667"
     inkscape:cx="78.578382"
     inkscape:cy="347.03018"
     inkscape:window-width="2560"
     inkscape:window-height="1377"
     inkscape:window-x="-8"
     inkscape:window-y="-8"
     inkscape:window-maximized="1"
     inkscape:current-layer="svg30738" /><defs
     id="defs30732" /><g
     inkscape:label="שכבה 1"
     id="layer1"
     transform="matrix(3.0808286,0,0,3.0266705,-17.461011,-323.39852)"><path
       class="d"
       d="m 15.962892,166.10788 c 0.169326,0.0282 0.687889,0.0212 0.737276,-0.31749 0.236352,-0.22577 0.493869,-0.26457 0.571477,-0.56442 -0.02469,-0.19049 0.342181,-0.31749 0.539729,-0.26457 0.938351,0.78313 1.456914,1.46044 1.929617,2.24005 0.444482,0.43743 0.860744,0.68436 1.142955,0.79019 0.278683,0.0705 0.603226,0.10936 0.888964,0.0388 0.250462,-0.0741 0.578533,-0.21871 0.797246,-0.2434 0.998321,-0.25399 2.451708,-0.36688 2.994964,-0.83958 0.596171,-0.94188 1.562743,-2.16597 2.917356,-2.70923 1.351085,-0.34923 1.781457,-0.85721 2.014281,-2.70569 1.389889,-1.1606 2.116582,-2.01429 2.038974,-3.04788 -0.155216,-1.29112 -0.40215,-2.51521 -0.444482,-3.54881 -0.02469,-0.0847 -0.158744,-0.0952 -0.310432,-2.49404 -0.359819,-0.35629 -2.06014,0.62792 -3.132542,0.10231 -1.795567,-0.21519 -2.892662,-0.73375 -3.704019,-1.08299 -1.10415,-1.89434 -1.92609,-2.30707 -3.450029,-3.79926 -0.483286,-0.59265 -0.486814,-0.60676 -0.793719,-0.74081 1.566271,2.66337 -0.680834,4.18025 -1.082984,5.6548 0.25399,1.25584 0.723165,2.96322 0.571477,4.4801 0.183437,1.39695 0.564422,2.25769 1.16412,3.51 0.07761,0.62087 0.201076,1.35462 0.366875,2.13422 0.455065,0.30691 0.730221,0.79372 0.871326,1.19234 -0.0635,0.17991 -0.13405,0.2928 -0.236352,0.42685 -0.01411,0.0847 -0.0035,0.17991 -0.0071,0.31396 0.211658,0.53973 0.469176,0.74786 0.469176,1.5063 -0.557367,-0.0176 -0.910131,-0.36335 -1.100623,-1.54158 -0.680834,0.10936 -1.012432,-0.45859 -0.811357,-2.00017 -0.169326,-0.25046 -0.430371,-0.67378 -1.054763,-1.41458 -0.0035,-0.68436 -0.03528,-1.76735 -0.07055,-2.5399 -0.64203,-1.23467 -0.769025,-2.02486 -1.171175,-3.00907 0.169326,-1.81321 0.162271,-2.65632 -0.05644,-3.19957 0.03175,-0.57148 -0.05644,-0.86074 -0.373929,-1.59802 -0.222241,-2.08483 -0.151689,-0.2046 -0.310432,-0.93835 -0.09877,-0.46918 -0.285739,-1.90493 -0.141106,-1.4287 0.05644,-1.64035 1.502774,-1.36872 0.790191,-1.8767 -1.513356,0.88191 -3.651104,0.68789 -5.305566,1.98606 -1.601548,-0.29985 -2.518733,-0.34923 -3.069045,-0.44801 -1.0441803,-0.43743 -1.2346727,-0.4727 -1.5309942,-0.38451 -0.014111,-0.0917 -0.1481608,-0.0141 -0.165799,-0.0776 -0.00706,-0.0564 -0.1128844,-0.11641 -0.1763818,-0.1411 -0.2539899,-0.0423 -0.3069045,0.0141 -0.359819,0.0247 -0.045859,0.0459 -0.05997,0.0882 -0.024694,0.12699 -0.1023015,0.0106 -0.077608,-0.0635 0.00706,-0.15521 -0.063497,-0.0705 -0.2151859,-0.18344 -0.4621205,-0.37746 -0.031749,-0.0882 -0.3457084,0 -0.4303717,-0.27516 -0.067025,0.0212 -0.088191,-0.12699 -0.1093568,-0.22224 -0.088191,0.0353 -0.095246,-0.0705 -0.067025,-0.13757 -0.1693266,0.1411 -0.035276,-0.17639 -0.1516884,-0.11994 0.045859,-0.41274 0.2892663,-0.7267 1.1358992,-0.84664 0.8043013,-0.2434 1.4921905,-0.36687 2.0777783,-0.28926 0.4092059,0 0.8889639,0.0635 1.6050749,-0.007 0.828994,0.0882 1.100623,0.0917 1.273477,0.0564 1.781457,0.26105 2.317657,0.2928 2.920883,0.38452 0.82194,-0.0459 1.34403,0.0317 2.173025,0.28574 -0.08114,-0.0388 1.047708,-4.28961 2.585758,-1.67563 1.53805,-0.69847 2.515205,-0.14816 1.665045,2.63161 1.876703,0.5997 3.485305,1.41811 4.857556,1.87318 1.749708,0.92777 5.086853,1.45691 4.889305,4.89283 -1.848482,0.20108 -0.08819,-0.13757 2.257688,-0.20813 0.321015,1.82732 0.462121,2.97733 0.927769,4.62121 -0.116412,2.02133 -0.878382,3.48883 -1.844955,4.43776 -0.405678,0.87839 -0.769024,2.03192 -1.43222,3.13607 -1.164121,0.79019 -2.303547,1.28054 -3.005547,1.59097 -0.52209,0.48681 -1.100623,1.37578 -2.307075,2.74097 -1.386361,0.0494 -2.173024,0.23283 -3.591135,0.66673 -1.9402,0.18696 -3.294813,-0.48682 -4.169667,-1.28759 -0.349236,-0.41626 -0.546784,-0.65614 -0.839577,-1.04771 -0.176382,-0.19049 -0.405679,-0.52562 -0.589116,-0.74786 -0.395095,-0.33865 -0.335125,-0.34923 -0.571477,-0.575 -0.342181,-0.23988 -0.56795,-0.49035 -0.719638,-0.92777 m 27.286274,-4.87872 c 0.176382,1.13237 0.38804,2.18008 0.634974,3.13959 0.246935,0.94541 0.430372,1.7744 0.553839,2.49051 0.137578,0.702 0.176382,1.26995 0.123468,1.70033 -0.05292,0.41978 -0.306905,0.68083 -0.758442,0.79019 -0.05291,0.14816 -0.162272,0.06 -0.328071,-0.26458 -0.151688,-0.33865 -0.32807,-0.83605 -0.532673,-1.49924 -0.204603,-0.67378 -0.423316,-1.47808 -0.65614,-2.40938 -0.218714,-0.94541 -0.437427,-1.93667 -0.656141,-2.97732 -0.218713,-1.05124 -0.423316,-2.13422 -0.613809,-3.23838 -0.176381,-1.12178 -0.321015,-2.18713 -0.430371,-3.19956 -0.109357,-1.01243 -0.162272,-1.93668 -0.162272,-2.77273 0,-0.83605 0.07408,-1.53099 0.225769,-2.08483 0.299849,-0.2293 0.575005,-0.28221 0.818412,-0.16227 0.246935,0.10936 0.437427,0.28927 0.575005,0.54678 0.151688,0.24341 0.246934,0.53268 0.285738,0.87133 0,0.32454 -0.02116,0.62792 -0.05997,0.91013 0.01411,0.0953 0.05291,0.28221 0.123467,0.56795 0.06703,0.27163 0.137578,0.56795 0.204603,0.89249 0.08113,0.31043 0.158744,0.60676 0.225769,0.89249 0.08113,0.27163 0.151688,0.4586 0.204603,0.56795 0.356291,-0.0529 0.881909,-0.11994 1.576853,-0.20107 0.709055,-0.0953 1.474553,-0.22224 2.292965,-0.38451 0.818411,-0.16227 1.657989,-0.35629 2.518733,-0.58559 0.860743,-0.2293 1.633296,-0.49387 2.31413,-0.79019 0.694944,-0.31043 1.269949,-0.66673 1.721486,-1.0724 0.451538,-0.40568 0.677307,-0.86427 0.677307,-1.37578 0,-0.0388 -0.01411,-0.1023 -0.04233,-0.18344 v -0.11994 c -0.709055,-0.81136 -1.439276,-1.46397 -2.190663,-1.96489 -0.737276,-0.51151 -1.523939,-0.88544 -2.356461,-1.11474 -0.832523,-0.2434 -1.714432,-0.39862 -2.6422,-0.46564 -0.913658,-0.0811 -1.897869,-0.11994 -2.949105,-0.11994 -0.765497,0 -1.569799,0.007 -2.416432,0.0212 -0.846633,0 -1.62624,0.1023 -2.335295,0.30338 -0.694945,0.20107 -1.277005,0.575 -1.739126,1.11473 -0.465648,0.52562 -0.694944,1.29464 -0.694944,2.30708 -0.218714,0 -0.423317,-0.0741 -0.613809,-0.22224 -0.176382,-0.14817 -0.335126,-0.3316 -0.472703,-0.54679 -0.123468,-0.21518 -0.218714,-0.44448 -0.285739,-0.68789 -0.08114,-0.2434 -0.123467,-0.45154 -0.123467,-0.62792 0,-0.34923 0.08113,-0.68083 0.246934,-0.99126 0.151689,-0.32455 0.349236,-0.61381 0.592643,-0.87133 0.261046,-0.25752 0.539729,-0.48681 0.839578,-0.68789 0.31396,-0.21518 0.627919,-0.40568 0.941879,-0.56795 0.818412,-0.14816 1.541578,-0.27163 2.169497,-0.36334 0.627919,-0.10936 1.220563,-0.1905 1.781457,-0.24341 0.560894,-0.067 1.125316,-0.10936 1.700321,-0.11994 0.585588,-0.0141 1.234673,-0.0212 1.947256,-0.0212 0.712582,0 1.481607,0.06 2.271798,0.18344 0.790191,0.10936 1.59802,0.27516 2.416432,0.50445 0.818411,0.21519 1.590964,0.51151 2.31413,0.89249 0.737276,0.36335 1.393416,0.81136 1.964893,1.33698 0.575005,0.51151 1.023015,1.10768 1.351086,1.78146 0.34218,0.66319 0.511507,1.41105 0.511507,2.2471 0,0.73022 -0.232824,1.37578 -0.694945,1.94373 -0.465648,0.55384 -1.079457,1.0336 -1.844954,1.43927 -0.765497,0.40568 -1.619185,0.74786 -2.561064,1.0336 -0.927769,0.27163 -1.862593,0.51151 -2.804472,0.73022 -0.927769,0.21519 -1.802623,0.39863 -2.621035,0.54679 -0.818411,0.20107 -1.481607,0.37745 -1.986059,0.52561 1.269949,1.75324 2.532843,3.23838 3.788682,4.45541 1.255839,1.21704 2.430542,2.24005 3.52411,3.0761 1.107678,0.83605 2.109527,1.51336 3.009074,2.02486 0.899548,0.51151 1.633296,0.95247 2.190663,1.31581 0.560894,0.34924 0.913658,0.62792 1.065346,0.829 0.162272,0.20107 0.04939,0.43037 -0.349236,0.68789 -0.271628,0.34923 -0.730221,0.43742 -1.372251,0.26457 -0.64203,-0.17638 -1.379306,-0.52562 -2.211828,-1.05124 -0.832523,-0.5115 -1.728542,-1.15353 -2.684532,-1.92256 -0.941879,-0.78313 -1.876703,-1.58744 -2.804472,-2.40938 -0.913658,-0.83605 -1.788512,-1.66151 -2.621034,-2.46934 -0.818412,-0.81136 -1.516884,-1.51689 -2.088361,-2.12717 m 32.729418,7.55267 c 0,-0.43037 0.04233,-0.87132 0.123467,-1.3158 0.08114,-0.44449 0.169327,-0.88544 0.264573,-1.31581 0.109356,-0.44448 0.197547,-0.89602 0.264573,-1.35814 0.08114,-0.4586 0.123467,-0.91719 0.123467,-1.37578 0,-0.702 -0.02822,-1.45692 -0.08114,-2.26827 -0.05291,-0.81136 -0.183437,-1.58038 -0.38804,-2.30708 -0.709055,0.14816 -1.446331,0.20108 -2.211828,0.16227 -0.751387,-0.0388 -1.502774,-0.10935 -2.254161,-0.20107 -0.751386,-0.10936 -1.516884,-0.20813 -2.292964,-0.30338 -0.765497,-0.10935 -1.530994,-0.16227 -2.292964,-0.16227 H 66.13291 c -0.490342,0 -1.001849,0.0141 -1.534522,0.0388 -0.518563,0.0282 -0.998322,0.067 -1.432221,0.11993 -0.409206,0.0388 -0.663196,0.11642 -0.758442,0.22225 -0.130523,0.11641 -0.261045,0.22929 -0.38804,0.3457 0,0.0282 -0.0071,0.0882 -0.02117,0.18344 -0.01411,0.0811 -0.02117,0.19049 -0.02117,0.32454 0,0.11994 -0.0071,0.24341 -0.02116,0.36335 -0.01411,0.11994 -0.02117,0.22224 -0.02117,0.30338 0,0.73022 0.05291,1.47102 0.162271,2.22594 0.123467,0.7408 0.25399,1.47102 0.38804,2.18713 0.151688,0.702 0.285739,1.404 0.409206,2.106 0.123467,0.71611 0.183437,1.42517 0.183437,2.12717 v 0.38451 c -0.380985,0.36335 -0.730221,0.49387 -1.04418,0.38451 -0.29985,-0.11994 -0.575005,-0.40568 -0.818412,-0.85016 -0.232824,-0.44448 -0.437427,-1.01243 -0.613809,-1.70032 -0.162271,-0.702 -0.292794,-1.46397 -0.38804,-2.28944 -0.08114,-0.82194 -0.130523,-1.66857 -0.144633,-2.52931 -0.01411,-0.86075 0.02117,-1.70032 0.102301,-2.51168 -0.05291,-0.0388 -0.158744,-0.14111 -0.306904,-0.30338 -0.151689,-0.17638 -0.306905,-0.35629 -0.472704,-0.54678 -0.151688,-0.19049 -0.299849,-0.3704 -0.451537,-0.54678 -0.109357,-0.17639 -0.183437,-0.31749 -0.225769,-0.42685 l -0.04233,-0.06 v -0.0811 c 0,-0.17639 0.04233,-0.29633 0.123468,-0.36335 0.09525,-0.0811 0.204603,-0.14111 0.32807,-0.18344 0.137578,-0.0388 0.264573,-0.0882 0.38804,-0.1411 0.123467,-0.0529 0.225769,-0.14111 0.306904,-0.26458 v -1.03359 c 0.09525,-1.05124 0.176382,-2.18008 0.246935,-3.38301 0.06703,-1.20292 0.183437,-2.3741 0.349236,-3.52411 0.162271,-1.16059 0.416261,-2.27532 0.758442,-3.34067 0.356291,-1.06535 0.839578,-2.0037 1.453387,-2.81505 0.613808,-0.81136 1.393416,-1.44986 2.335295,-1.92257 0.95599,-0.48681 2.151859,-0.73022 3.58408,-0.73022 1.118261,0 2.130693,0.27163 3.03024,0.81136 0.913658,0.52562 1.721487,1.24173 2.416432,2.1448 0.709055,0.89249 1.322864,1.92256 1.844954,3.09727 0.532673,1.1747 0.977155,2.42348 1.329919,3.74635 0.370402,1.30875 0.670251,2.63867 0.899548,3.98976 0.246934,1.33697 0.430371,2.61045 0.553839,3.82748 0.137577,1.21351 0.232824,2.32824 0.285738,3.34067 0.05291,1.01244 0.08114,1.84849 0.08114,2.51168 v 1.29465 c 0,0.37745 -0.02117,0.74785 -0.05997,1.11473 -0.04233,0.36335 -0.08114,0.74786 -0.123467,1.15354 -0.04233,0.40567 -0.109357,0.87838 -0.204603,1.41811 -0.204603,0.27162 -0.472704,0.52561 -0.797246,0.76902 -0.31396,0.24341 -0.663196,0.36335 -1.044181,0.36335 -0.342181,0 -0.560894,-0.0811 -0.65614,-0.24341 -0.08114,-0.17638 -0.123468,-0.39862 -0.123468,-0.66672 m -0.920713,-11.5001 c 0.08114,0 0.176382,-0.007 0.285739,-0.0212 0.123467,-0.0141 0.218713,-0.0741 0.285738,-0.18343 0.08114,-0.11994 0.158744,-0.31044 0.225769,-0.56795 0.08114,-0.25752 0.151688,-0.60676 0.204603,-1.05124 0,-0.7408 -0.07408,-1.58744 -0.225769,-2.52931 -0.137578,-0.94541 -0.349236,-1.92257 -0.634974,-2.935 -0.271629,-1.01243 -0.634975,-1.99664 -1.086513,-2.95616 -0.437427,-0.97363 -0.963045,-1.83437 -1.576854,-2.59281 -0.613808,-0.75492 -1.329919,-1.36167 -2.151858,-1.82379 -0.804302,-0.45859 -1.707377,-0.68789 -2.70217,-0.68789 -1.051236,0 -1.940201,0.27516 -2.663366,0.829 -0.709055,0.53972 -1.291116,1.24878 -1.739126,2.12716 -0.437427,0.86427 -0.779607,1.84143 -1.023014,2.93499 -0.246935,1.07946 -0.423317,2.16597 -0.532674,3.25954 -0.09525,1.09357 -0.151688,2.12011 -0.162271,3.0761 -0.01411,0.95952 -0.02117,1.74265 -0.02117,2.34941 4.504793,0.25751 9.013113,0.5115 13.517906,0.76902 m 23.451732,10.6711 c -0.08114,0 -0.246934,-0.007 -0.490341,-0.0212 -0.243407,-0.0141 -0.38804,-0.0212 -0.430372,-0.0212 -0.723166,0 -1.467497,0.0811 -2.232994,0.24341 -0.751387,0.16227 -1.495719,0.3316 -2.232995,0.50445 -0.737276,0.17638 -1.488663,0.34924 -2.25416,0.52562 -0.751387,0.16227 -1.523939,0.24341 -2.31413,0.24341 -1.079457,0 -2.056612,-0.18344 -2.927939,-0.54679 -0.860743,-0.37745 -1.59802,-0.89249 -2.211828,-1.53805 -0.613809,-0.66319 -1.093568,-1.43927 -1.432221,-2.32824 -0.32807,-0.90307 -0.490342,-1.89081 -0.490342,-2.95616 0,-1.12179 0.23988,-2.19419 0.716111,-3.22073 0.490341,-1.04065 1.146482,-2.01781 1.964894,-2.93499 0.818411,-0.9313 1.760291,-1.78146 2.825637,-2.55049 1.065346,-0.78313 2.169497,-1.45691 3.319507,-2.02486 1.160592,-0.56795 2.31413,-1.01949 3.460612,-1.35814 1.146482,-0.34924 2.218883,-0.575 3.217205,-0.66672 0.518562,-0.0529 1.008904,-0.007 1.474552,0.1411 0.476231,0.13405 0.881909,0.3316 1.20998,0.58559 0.342185,0.24341 0.613815,0.56089 0.818415,0.95246 0.2046,0.39157 0.3069,0.84311 0.3069,1.35814 -0.35629,0 -0.702,-0.0388 -1.04418,-0.11994 -0.32807,-0.0952 -0.663195,-0.19402 -1.001849,-0.30337 -0.32807,-0.11994 -0.670251,-0.21519 -1.023014,-0.28221 -0.356292,-0.0811 -0.709055,-0.11994 -1.065347,-0.11994 -0.927768,0 -1.904924,0.13405 -2.927939,0.40567 -1.023014,0.25752 -2.028391,0.64203 -3.009074,1.15354 -0.984211,0.50093 -1.919035,1.10062 -2.804472,1.80262 -0.888964,0.68789 -1.6721,1.44986 -2.356461,2.28944 -0.670252,0.83605 -1.202925,1.7356 -1.59802,2.69159 -0.395095,0.95951 -0.592643,1.94373 -0.592643,2.95616 0,0.71611 0.176382,1.35108 0.532673,1.90492 0.356291,0.55384 0.797246,1.01949 1.329919,1.39695 0.546784,0.36334 1.139427,0.64203 1.781457,0.82899 0.64203,0.19049 1.269949,0.28221 1.883758,0.28221 1.118261,0 2.271799,-0.0282 3.460612,-0.0811 1.202925,-0.067 2.285909,-0.25752 3.25601,-0.56795 0.9701,-0.32455 1.760291,-0.829 2.374099,-1.51689 0.613809,-0.68789 0.920714,-1.6474 0.920714,-2.87502 0,-0.16227 -0.02822,-0.40568 -0.08114,-0.73022 -0.01411,-0.32455 -0.123467,-0.58559 -0.32807,-0.79019 h -7.044692 c -0.204603,0 -0.38804,-0.0459 -0.553839,-0.14111 -0.162271,-0.10936 -0.321015,-0.24341 -0.472703,-0.40568 -0.151688,-0.17638 -0.264573,-0.35629 -0.349236,-0.54678 -0.08466,-0.19049 -0.123467,-0.3704 -0.123467,-0.54678 0,-0.20108 0.02822,-0.41274 0.08113,-0.62792 0.05292,-0.21519 0.204603,-0.32455 0.451538,-0.32455 0.261045,0 0.518562,0.0459 0.779608,0.14111 0.261045,0.0811 0.511507,0.16933 0.758442,0.26457 0.261045,0.0811 0.518562,0.16933 0.779607,0.26457 0.261046,0.0811 0.525618,0.11994 0.797246,0.11994 0.899548,0 1.788512,-0.0741 2.663366,-0.22224 0.874854,-0.14816 1.767347,-0.22224 2.684532,-0.22224 0.204603,0 0.423317,0.06 0.656141,0.18344 0.232824,0.10936 0.437424,0.24341 0.613814,0.40568 0.17638,0.16227 0.32807,0.35629 0.45153,0.58558 0.13758,0.2293 0.20461,0.44449 0.20461,0.64909 v 9.4964 c 0.0529,0.0529 0.14463,0.12699 0.26457,0.22224 0.12347,0.10936 0.24693,0.21519 0.3704,0.32454 0.13758,0.10936 0.26457,0.21519 0.38804,0.32455 0.13758,0.11994 0.23283,0.20813 0.28574,0.26457 0.0423,0.17638 0.0141,0.34571 -0.0811,0.50798 -0.0811,0.17638 -0.19755,0.3316 -0.34924,0.46565 -0.15169,0.13405 -0.32102,0.2434 -0.51151,0.32454 -0.19049,0.0953 -0.3704,0.1411 -0.53267,0.1411 -0.53267,0 -0.948938,-0.16227 -1.248787,-0.48681 -0.285739,-0.32454 -0.511508,-0.71611 -0.677307,-1.1747 -0.151688,-0.4586 -0.239879,-0.9313 -0.264572,-1.41811 -0.01411,-0.50093 -0.02117,-0.92424 -0.02117,-1.27701 m 4.730556,-8.88964 c -0.0529,-1.12179 0.0882,-2.15892 0.43037,-3.11843 0.35629,-0.95952 0.84664,-1.80968 1.47456,-2.55049 0.64203,-0.75491 1.42516,-1.36166 2.35646,-1.82378 0.91366,-0.40568 1.92609,-0.65615 3.03024,-0.74786 1.92609,0.28221 3.76046,0.76902 5.51017,1.45691 1.74618,0.67378 3.29128,1.54511 4.62826,2.61045 1.35108,1.05124 2.4517,2.28944 3.29834,3.70402 0.84663,1.41811 1.32286,3.01613 1.43222,4.79759 -0.26105,1.30875 -0.78666,2.3494 -1.57686,3.11843 -0.79019,0.75491 -1.72854,1.34403 -2.80447,1.76029 -1.07945,0.40568 -2.23299,0.70905 -3.46061,0.91013 -1.22762,0.19049 -2.35646,0.35629 -3.37948,0.50445 -1.5839,0 -3.0514,-0.25752 -4.40249,-0.76902 -1.33697,-0.52562 -2.49051,-1.24173 -3.46061,-2.14481 -0.95599,-0.91718 -1.70738,-2.03192 -2.25416,-3.34067 -0.54678,-1.32286 -0.81841,-2.77978 -0.81841,-4.37427 m 1.80262,-0.20107 c -0.0282,1.1747 0.21872,2.26827 0.73728,3.2807 0.53267,1.01243 1.22056,1.89787 2.06719,2.65278 0.84664,0.75492 1.78852,1.38989 2.82564,1.90493 1.05124,0.50092 2.10247,0.82194 3.15371,0.97362 0.35629,0 0.82547,-0.0282 1.41458,-0.0811 0.5997,-0.067 1.24173,-0.16933 1.92609,-0.30338 0.69495,-0.14816 1.39342,-0.33865 2.08836,-0.56795 0.70906,-0.24341 1.35109,-0.53267 1.92609,-0.87132 0.57501,-0.34924 1.04418,-0.75492 1.41458,-1.21351 0.38099,-0.47271 0.57501,-1.01243 0.57501,-1.61919 -0.17638,-1.26995 -0.56795,-2.39526 -1.16765,-3.383 -0.5997,-0.98421 -1.33697,-1.85554 -2.21183,-2.61045 -0.87485,-0.76903 -1.82379,-1.41811 -2.8468,-1.94373 -1.02302,-0.52562 -2.03545,-0.94541 -3.03024,-1.25584 -0.99832,-0.32454 -1.93315,-0.53973 -2.80447,-0.64909 -0.87486,-0.0952 -1.59097,-0.0952 -2.15186,0 -0.79019,0.28222 -1.43928,0.65615 -1.94726,1.11474 -0.49034,0.44448 -0.88896,0.93129 -1.18881,1.45691 -0.28574,0.51151 -0.49034,1.04066 -0.61381,1.58038 -0.10936,0.52562 -0.16227,1.04066 -0.16227,1.53805 m 22.16062,8.48397 c 0,-1.20292 0.0423,-2.39526 0.12346,-3.58408 0.0811,-1.18881 0.17639,-2.37057 0.28574,-3.54175 0.12347,-1.1747 0.21872,-2.34235 0.28574,-3.50294 0.0811,-1.20292 0.12347,-2.38115 0.12347,-3.54175 0,-0.66319 -0.0741,-1.29464 -0.22577,-1.90492 -0.13758,-0.60676 -0.2046,-1.22056 -0.2046,-1.84143 v -0.20107 c 0.0529,-0.0282 0.15168,-0.0529 0.28573,-0.0811 0.15169,-0.0388 0.29985,-0.0741 0.45154,-0.1023 0.15169,-0.0282 0.29985,-0.067 0.45154,-0.11994 0.13758,-0.0529 0.22577,-0.0811 0.26457,-0.0811 h 0.38804 c 0.20461,0.91719 0.47623,2.01076 0.81841,3.28071 0.3563,1.25584 0.77256,2.54342 1.24879,3.86629 0.49034,1.30875 1.0724,2.6175 1.73912,3.92978 0.67025,1.30876 1.43222,2.47641 2.29297,3.50295 0.87485,1.01243 1.84848,1.83084 2.92794,2.45171 1.07945,0.62086 2.27885,0.91718 3.60524,0.89249 0.79019,0 1.48866,-0.127 2.08836,-0.38451 0.5997,-0.27163 1.09357,-0.63498 1.47456,-1.09357 0.39509,-0.4727 0.68788,-1.02654 0.8819,-1.66152 0.1905,-0.63497 0.28574,-1.32992 0.28574,-2.08483 0,-0.98421 -0.19754,-1.90493 -0.59264,-2.75509 -0.3951,-0.85016 -0.82547,-1.66857 -1.29112,-2.4517 -0.46564,-0.78314 -0.89602,-1.56628 -1.29111,-2.34941 -0.3951,-0.79725 -0.59264,-1.64741 -0.59264,-2.55048 0,-0.34924 0.0353,-0.62792 0.1023,-0.829 0.0811,-0.20107 0.29985,-0.30337 0.65614,-0.30337 0.4092,0 0.82547,0.22929 1.24878,0.68789 0.42332,0.44448 0.82547,1.02654 1.20998,1.74265 0.3951,0.702 0.75844,1.49219 1.08651,2.37057 0.32807,0.87838 0.62087,1.74971 0.88191,2.61045 0.26105,0.85016 0.4586,1.64741 0.59265,2.38821 0.13757,0.73022 0.2046,1.30876 0.2046,1.74265 0,1.07946 -0.17638,2.07073 -0.53267,2.97733 -0.3563,0.89249 -0.86075,1.6721 -1.51689,2.34941 -0.65614,0.67378 -1.43927,1.19587 -2.35646,1.55921 -0.89955,0.36335 -1.89787,0.54679 -2.99144,0.54679 -1.2135,0 -2.30002,-0.22224 -3.25601,-0.66673 -0.95598,-0.45859 -1.81673,-1.04771 -2.58223,-1.76029 -0.75138,-0.73022 -1.41458,-1.49924 -1.98606,-2.30707 -0.575,-0.81136 -1.06534,-1.57333 -1.47455,-2.28944 -0.4092,-0.73022 -0.76549,-1.32286 -1.06534,-1.78146 -0.28574,-0.45859 -0.51857,-0.68789 -0.69495,-0.68789 -0.34218,0 -0.58559,0.11642 -0.73727,0.34571 -0.15169,0.2293 -0.26105,0.50093 -0.32808,0.81136 -0.067,0.29632 -0.1023,0.62086 -0.1023,0.97363 v 0.76902 c 0,0.81136 0.0741,1.56627 0.22577,2.26827 0.16227,0.68789 0.24694,1.42517 0.24694,2.2083 0,0.17639 -0.0212,0.40568 -0.06,0.68789 -0.0423,0.28221 -0.10936,0.56795 -0.20461,0.85016 -0.0811,0.27163 -0.21165,0.50798 -0.38804,0.70906 -0.17638,0.20107 -0.4092,0.30338 -0.69494,0.30338 -0.26105,0 -0.4727,-0.0952 -0.63498,-0.28222 -0.16227,-0.19049 -0.29984,-0.40567 -0.4092,-0.64908 -0.0953,-0.24341 -0.16227,-0.49387 -0.2046,-0.74786 -0.0423,-0.27163 -0.06,-0.49387 -0.06,-0.66672 m 42.88548,-3.84866 c 0.0423,-0.87838 0.0952,-1.8767 0.16227,-2.99849 0.067,-1.13237 0.15169,-2.26121 0.24694,-3.383 0.10935,-1.13237 0.22577,-2.22594 0.34923,-3.2807 0.13758,-1.05124 0.2928,-1.97195 0.47271,-2.75509 0.17638,-0.78313 0.3704,-1.38989 0.575,-1.82379 0.26105,-0.43037 0.51151,-0.575 0.75844,-0.42684 0.37041,0.0529 0.5997,0.33865 0.69495,0.85016 0.10936,0.50092 0.14463,1.16765 0.1023,2.0037 -0.0423,0.83605 -0.14463,1.78851 -0.3069,2.85386 -0.15169,1.05123 -0.2928,2.14127 -0.43038,3.25953 -0.13757,1.10768 -0.26104,2.21536 -0.3704,3.31951 -0.0952,1.10768 -0.11641,2.11305 -0.06,3.01613 0,0.25752 0.0423,0.53267 0.12347,0.82899 0.0953,0.28222 0.21871,0.55384 0.3704,0.81136 0.15169,0.24341 0.34218,0.46565 0.57501,0.66672 0.26104,0.20108 0.52561,0.30338 0.79724,0.30338 2.57518,0.2293 5.14682,0.45859 7.722,0.68789 0.23282,0.0282 0.3704,0.15522 0.40921,0.38451 0.0423,0.2293 0.06,0.40568 0.06,0.52562 0,0.45859 -0.14464,0.76197 -0.43038,0.91013 -0.27162,0.14816 -0.64203,0.27516 -1.10767,0.38451 -0.10936,0 -0.29985,0.007 -0.57501,0.0212 -0.26104,0.0141 -0.53973,0.0282 -0.83958,0.0388 -0.28574,0.0141 -0.56089,0.0212 -0.81841,0.0212 h -0.53267 c -1.17471,0 -2.26122,-0.0882 -3.25601,-0.26457 -0.98421,-0.1905 -1.82379,-0.51151 -2.51873,-0.97363 -0.68437,-0.4727 -1.21351,-1.10768 -1.59802,-1.90493 -0.38099,-0.79724 -0.57501,-1.83084 -0.57501,-3.09726"
       id="path18118"
       style="fill:#010101;stroke-width:0.352764" /><path
       class="d"
       d="m 156.94138,166.46493 c -0.44801,-0.41273 -0.37392,-0.79372 -0.28221,-1.06182 0.0847,-0.35982 0.0917,-0.702 -0.11994,-1.29464 -0.19754,-0.70906 -0.16932,-0.51857 -0.19049,-0.97363 -0.0564,-0.45507 -0.0882,-1.06887 -0.0494,-1.52747 -0.0106,-0.28221 -0.11993,-0.6773 -0.42684,-1.3793 -0.14816,-1.12179 -0.0811,-1.98254 0.127,-2.57871 -0.51151,-0.49739 -0.57148,-0.52914 -0.62087,-0.55736 0.15169,-1.89082 0.127,-1.87671 -0.35982,-1.35814 -0.37393,1.57332 -1.01948,2.26474 -1.63329,2.85738 -0.73022,0.44096 -1.7991,0.83605 -2.59634,0.79372 -0.64203,-0.11994 -0.83253,-0.25752 -1.00538,-0.39157 -0.11641,-0.15169 -0.3316,-0.66672 0.75491,-1.56274 -0.0212,-0.17638 0.15169,-0.34924 0.14816,-0.53267 0.2293,-0.0388 0.35277,-0.0282 0.41274,0 -0.0423,-0.51151 0.32454,-0.50446 0.47976,-0.51504 -0.0847,0.0847 0.84663,-0.51503 1.03007,-0.94893 1.26289,-0.91366 1.26642,-0.9701 1.23467,-0.99127 1.28759,-0.95246 1.22762,-0.48328 1.52394,-1.0724 -0.71964,-1.38636 -0.79019,-2.41996 -0.28927,-3.62288 -0.62086,-0.97716 -1.06534,-1.66152 -1.37578,-2.37763 0.88191,-2.19419 0.51504,-1.74971 0.15875,-1.59449 -1.35814,0.90307 -1.404,0.81488 -2.0672,1.14295 -0.23282,0.067 -0.38098,0.0988 -1.19939,0.70553 -0.10936,-0.0141 -0.83605,0.0247 -1.74266,0 -0.42331,-0.21519 -0.77961,-0.49034 -1.27347,-0.91013 0.26457,0.22577 -0.21872,-0.0882 0.55031,-0.0988 -0.0847,0 -0.2293,0.0388 -0.42685,0.0388 -0.0388,0 -0.0564,-0.11641 -0.15874,-0.11289 -0.06,-0.0353 -0.15874,-0.007 -0.15874,-0.0988 -0.0635,-0.0494 -0.11642,-0.0882 -0.10936,-0.12699 -0.0141,-0.0317 -0.0423,-0.0494 -0.0423,-0.0847 -0.11994,-0.18344 -0.14816,-0.17638 -0.1658,-0.21871 -0.14816,-0.0106 -0.35277,0.0459 -0.41626,-0.17991 -0.0247,-0.13405 -0.11641,-0.30691 -0.19755,-0.41626 0.007,-0.15875 -0.0353,-0.51856 -0.0423,-0.68789 0.72669,-0.54679 1.80968,-0.35629 2.7833,0.18696 0.67731,0.0776 2.1695,0.41626 5.31615,0.0917 -3.09726,-1.49572 -1.65799,-3.71107 1.85554,-3.28776 1.14295,3.97565 0.12699,3.14666 3.02671,3.2031 1.85907,-0.38804 3.637,-0.46918 5.06216,-0.64203 1.53452,-0.0952 2.81153,-0.28927 4.14498,-0.38451 1.28758,-0.11289 2.52931,-0.20108 3.96859,0.0741 0.79019,0.29985 1.18528,0.75844 1.38283,1.1359 -0.50798,0.31748 -1.35108,0.81135 -2.03897,0.93835 -1.0971,0.42331 -2.32119,0.60675 -3.32656,0.76549 -0.79725,0.20461 -1.97195,0.45154 -3.16782,0.58206 -0.93835,-0.32454 -1.95784,-0.27868 -3.12196,-0.38098 -0.3951,-0.0635 -1.05829,-0.19755 -1.52041,-0.35982 -0.57854,-0.0953 -1.12885,-0.32807 -1.76382,-0.41979 -0.59265,-0.17285 -2.65279,-0.65614 -2.83975,-0.73727 -0.11994,-0.0141 0.29632,0.64555 0.25752,0.58558 -0.0564,-0.0106 -0.21872,0.0106 -0.59617,0.21519 1.17117,-0.67378 0.85016,-0.31749 1.19587,0.67731 0.22576,0.60675 0.25399,0.98421 -0.81489,2.38821 -0.0141,0.0635 0.39862,1.04065 0.6385,2.06366 -0.0847,0.92777 -0.33865,1.98959 -0.38098,2.42702 -0.0212,0.62086 0.2046,0.4974 -0.32102,0.37393 0.0564,-0.0282 0.11289,-0.06 -0.004,0.0106 0.0529,-0.0459 0.25751,-0.20813 0.66319,-0.43743 0.57501,-0.14463 1.18529,-0.0353 1.82026,0.22224 0.40921,0.0811 0.56442,0.13758 0.90308,0.26811 1.47455,0.2681 2.90677,0.47975 4.09911,0.82193 0.9701,0.20461 1.51689,0.3316 2.05309,0.7902 0.4092,0.25399 0.58559,0.49739 0.51856,0.72669 -0.0988,0.2046 -0.50798,0.46212 -1.04418,0.58206 -0.59617,0.34924 -1.63682,0.52562 -3.19957,0.74786 -1.34755,0.11288 -2.98085,0.0952 -5.03041,-2.61045 -0.15169,2.48345 0.0459,3.59113 0.49387,4.68117 -0.18344,1.12532 -0.26104,1.531 -0.11288,1.96842 0.23988,0.52562 0.41979,1.05124 0.50092,1.32639 -0.007,0.18344 -0.0176,0.40921 -0.1658,1.11474 0.1658,0.38804 0.33866,0.92424 0.34571,1.29111 -0.0564,0.32455 0.40215,1.51689 1.09004,6.97767 -1.70385,-4.58593 -1.93314,-4.72703 -1.94373,-4.63884 -0.0212,0.2046 0.1023,-0.67025 0.11641,-1.06888 -0.0564,-0.57853 -0.15168,-0.59264 -0.22576,-0.53973 -0.067,0.0494 -0.0953,0.0459 -0.11289,-0.007"
       id="path18120"
       style="fill:#010101;stroke-width:0.352764" /><path
       class="d"
       d="m 190.95839,167.44486 c 0.18344,-0.10583 0.17991,-0.66673 0.0776,-1.21704 0.0106,-0.23635 0.0564,-0.34218 0.11288,-0.49034 0.0141,0.0882 0.0459,0.34923 -0.0176,0.0106 -0.0494,-0.34571 -0.0388,-0.62792 0.0811,-0.92071 0.51856,-0.89955 0.95952,-1.59449 1.14648,-2.0672 -0.10583,-0.702 -0.0882,-1.43575 0.0423,-2.2083 0.32102,-0.93482 0.44449,-1.76734 1.09357,-3.05493 0.15522,-0.57148 0.25752,-1.28759 0.42332,-2.25769 -0.15875,-0.50092 -0.25046,-0.86074 -0.0353,-1.09004 0.0317,-0.33513 0.06,-0.44801 0.0212,-0.48681 0.0247,-0.0494 -0.0635,-0.06 -0.32807,-0.0318 -1.17471,0.11288 -1.53453,-0.27163 -2.31061,-0.6385 -0.82546,-0.3316 -1.59096,-0.81489 -2.61397,-1.35109 -0.87839,-0.68789 -1.54158,-1.48161 -2.15892,-2.27885 -0.54678,-0.87486 -1.0724,-1.67563 -1.5698,-2.41643 -0.69847,-0.77961 -1.32286,-1.78499 -1.47102,-3.52059 0.0317,-0.007 0.13052,-0.0459 0.69142,-0.28221 0.20107,-0.007 0.58911,0.0529 0.71258,0.0353 0.06,0.0988 0.3704,-0.007 0.37746,0.25752 0.067,-0.0353 0.11993,0.21518 0.20107,0.0847 0.61028,0.25752 0.702,0.44801 1.00538,0.75491 0.49739,0.52915 1.10415,1.06888 1.70385,1.59802 0.56089,0.58206 1.0477,1.18176 1.66151,1.76382 0.54326,0.69495 1.01596,1.31934 1.49925,1.76029 0.67378,0.50093 1.33345,1.29465 1.76382,1.76382 0.53973,0.94188 0.62086,0.98421 0.81135,0.94541 -0.33159,-1.51689 -0.24693,-2.22947 0.32455,-3.18899 0.11288,-0.25399 1.80967,-1.24525 1.92609,-1.39694 0.26457,-0.31043 0.66672,-0.65614 0.51856,-0.007 0.0176,0.9313 -0.0635,0.64203 -1.55569,-0.34218 -0.32101,-0.95246 -0.21871,-1.12884 0.0141,-1.54863 0.32807,-0.43037 0.39157,-0.51856 1.55569,-0.82194 0.11994,-0.24693 -0.0847,-0.69494 0.41626,-1.42869 -0.25046,0.85016 -0.22577,1.04418 -0.19755,1.1112 -0.0705,1.21704 0.17638,1.50631 0.37393,1.64036 0.54679,-0.64203 0.89249,-0.64556 1.66858,0.0353 0.17285,1.6721 0.13052,1.84496 -1.83438,2.08836 0.81136,1.77088 0.702,2.55754 0.50446,3.73224 -0.53268,1.42517 -2.13422,2.48346 -2.61046,3.51 -0.25399,1.18176 -0.51503,2.14128 -0.83252,3.60525 -0.10935,1.68268 -0.59264,2.99143 -1.06534,4.02856 -0.0494,1.43222 -0.46565,2.681 -0.67731,3.5735 -0.0635,0.0988 -0.47623,0.34218 -0.70906,0.64203 0.21166,0.80782 -0.0106,1.38636 -1.31228,3.29834 -0.32807,-0.39863 -0.19754,-0.89602 -0.34923,-1.60508 0.39862,-0.82899 0.70552,-1.09709 0.92777,-1.58038"
       id="path18122"
       style="fill:#010101;stroke-width:0.352764" /></g></svg>
