<?xml version="1.0" encoding="UTF-8" standalone="no"?>
<svg
   version="1.1"
   width="600"
   height="300"
   id="svg30778"
   sodipodi:docname="intro4.svg"
   xml:space="preserve"
   inkscape:version="1.2.2 (732a01da63, 2022-12-09)"
   xmlns:inkscape="http://www.inkscape.org/namespaces/inkscape"
   xmlns:sodipodi="http://sodipodi.sourceforge.net/DTD/sodipodi-0.dtd"
   xmlns="http://www.w3.org/2000/svg"
   xmlns:svg="http://www.w3.org/2000/svg"><sodipodi:namedview
     id="namedview30780"
     pagecolor="#ffffff"
     bordercolor="#000000"
     borderopacity="0.25"
     inkscape:showpageshadow="2"
     inkscape:pageopacity="0.0"
     inkscape:pagecheckerboard="0"
     inkscape:deskcolor="#d1d1d1"
     showgrid="false"
     inkscape:zoom="1.7116667"
     inkscape:cx="113.04771"
     inkscape:cy="300.29211"
     inkscape:window-width="2560"
     inkscape:window-height="1377"
     inkscape:window-x="-8"
     inkscape:window-y="-8"
     inkscape:window-maximized="1"
     inkscape:current-layer="svg30778" /><defs
     id="defs30772" /><path
     class="f"
     d="m 258.45199,100.04062 c -3.28531,6.85843 -3.45497,12.06138 -1.85088,16.18935 0.0539,1.21116 1.14909,7.1021 -6.01535,14.28303 5.36755,1.36166 2.99996,1.31149 -1.64266,0.79549 -1.58866,-0.0573 -2.18249,2.50831 -6.12331,3.35397 -3.87142,1.34015 -6.30841,1.44049 -13.19523,-0.47299 -0.51669,0.0502 5.3907,-2.35782 -0.50898,10.69256 -3.57837,2.71615 -4.3033,3.49014 -5.2056,5.26745 -1.65808,3.22497 -2.03596,4.82312 -2.26732,6.23494 -0.1851,1.94215 -0.0463,2.75915 0.94086,4.88763 -1.72748,-3.15331 0.53212,-1.42616 5.22102,1.26848 1.41129,1.06066 3.77117,6.43561 3.91768,6.51444 4.09508,15.73785 -5.10533,18.53999 4.76602,17.92366 10.21839,-7.30992 11.29035,-6.77243 5.10534,-20.82613 0.0386,0.55182 0.12337,0.74532 2.66064,-2.31481 4.51151,-1.99232 4.22617,0.129 7.28011,-0.87433 -0.43958,2.32198 1.09511,2.65164 2.63751,2.97414 -1.83546,1.56949 1.60409,0.77399 1.41901,3.33963 -0.14654,0.59483 -0.1157,0.67367 0.82518,4.08496 0.59382,2.66598 1.75061,3.37548 -2.73776,13.08622 -2.20563,0.70232 -2.29817,1.65549 -2.11308,3.64063 -1.32647,0.85999 -3.31616,1.90631 -3.67091,2.10699 -0.0232,0.86715 0,3.35396 -6.39325,4.12079 -0.10029,0 -4.50379,1.60532 -5.95365,2.45814 -1.57324,1.03916 -4.09507,2.42947 -12.71707,2.48681 -0.34704,-0.22217 -1.18765,-0.40133 -2.39844,-0.57333 -6.40094,0.41567 -7.21842,0.0573 -14.27489,-2.03532 -4.67347,-1.61248 -7.69658,-3.96312 -10.59628,-7.03043 -2.5681,-2.82363 -5.27501,-7.65393 -7.40352,-14.6557 -0.76348,-2.37213 -1.95113,-6.37827 -2.52182,-8.52825 -0.5861,-2.3793 -0.94085,-5.37494 -1.06425,-8.51392 0.17738,-6.04861 0.48586,-8.66442 1.34959,-12.37671 1.03342,-3.36114 2.16708,-5.66878 3.96398,-9.13025 2.46783,-3.46863 3.347,-4.94496 5.00508,-6.9731 2.8303,-2.86664 3.87913,-4.06346 10.21839,-6.9946 0.88688,-0.57333 3.12336,-1.69132 9.50888,-4.06347 2.81488,-3.92013 3.04624,-4.13512 5.07449,-6.65777 3.69405,-15.250519 3.76345,-15.250519 5.95366,-14.906519 11.08213,7.367259 11.51401,7.395929 12.30063,7.424599 2.25961,-0.473 2.8303,-0.59483 5.5989,-1.10366 3.78659,-1.93499 8.15928,-4.58663 14.89957,-5.08829 m 93.61587,95.88193 c -2.96911,0.35833 -5.93824,0.7095 -8.91506,1.06783 -2.96912,0.35833 -5.93823,0.70949 -8.91506,1.06782 -2.96912,0.35833 -5.93823,0.7095 -8.91507,1.06783 -2.96912,0.35832 -5.93823,0.70949 -8.91506,1.06781 -0.71722,-2.51547 -1.43443,-5.02378 -2.14393,-7.53926 -0.71722,-2.51547 -1.43443,-5.02378 -2.14394,-7.53926 h -16.40341 c -0.60153,2.51548 -1.20307,5.02379 -1.8046,7.53926 -0.60154,2.51548 -1.20307,5.02379 -1.8046,7.53926 -3.05396,-0.27949 -6.1079,-0.55898 -9.16185,-0.83849 -3.05395,-0.27949 -6.1079,-0.55899 -9.16186,-0.83848 -3.05393,-0.27951 -6.10789,-0.559 -9.16183,-0.8385 l -9.16185,-0.83849 c 1.19536,-3.69796 2.383,-7.39593 3.57836,-11.10107 1.19536,-3.69795 2.38301,-7.39592 3.57837,-11.10105 1.19536,-3.69797 2.383,-7.39593 3.57836,-11.10107 1.19536,-3.69796 2.38301,-7.39593 3.57837,-11.10106 1.19536,-3.69796 2.383,-7.39593 3.57836,-11.10106 1.19536,-3.69797 2.38301,-7.39593 3.57837,-11.10106 1.19535,-3.69797 2.383,-7.39594 3.57836,-11.10106 1.19536,-3.69798 2.38301,-7.39594 3.57837,-11.10107 3.33158,-0.15766 6.65543,-0.32249 9.98702,-0.48016 3.33158,-0.15767 6.65545,-0.3225 9.98703,-0.48016 3.33158,-0.15766 6.65545,-0.3225 9.98703,-0.48017 3.33158,-0.15766 6.65545,-0.32249 9.98703,-0.48016 0.58612,1.87048 1.17223,3.74096 1.75062,5.61145 0.58611,1.87048 1.17223,3.74096 1.75063,5.61145 0.5861,1.87048 1.17222,3.74096 1.75062,5.61144 0.58612,1.87048 1.17222,3.74097 1.75062,5.61145 0.58611,1.87049 1.17223,3.74097 1.75062,5.61145 0.58612,1.87049 1.17223,3.74096 1.75062,5.61144 0.58612,1.87049 1.17223,3.74097 1.75063,5.61146 0.57839,1.87048 1.17222,3.74096 1.75062,5.61145 0.58612,1.87048 1.17222,3.74095 1.75062,5.61143 0.58612,1.87049 1.17223,3.74097 1.75062,5.61146 0.58611,1.87048 1.17223,3.74097 1.75062,5.61145 0.58612,1.87048 1.17223,3.74096 1.75063,5.61144 0.5861,1.87048 1.17222,3.74097 1.75062,5.61145 0.58612,1.87048 1.17222,3.74097 1.75062,5.61145 0.57841,1.87048 1.17223,3.74096 1.75062,5.61144 0.58611,1.87048 1.17223,3.74097 1.75062,5.61145 m -42.55476,-31.16038 c -0.45502,-1.93497 -0.91002,-3.87712 -1.35732,-5.81211 -0.45501,-1.93498 -0.91001,-3.87713 -1.3573,-5.81211 -0.4473,-1.93498 -0.91002,-3.87713 -1.35732,-5.81211 -0.45501,-1.93498 -0.91001,-3.87713 -1.35731,-5.81212 -0.4473,1.93499 -0.89459,3.87714 -1.34189,5.81212 -0.44729,1.93498 -0.89459,3.87713 -1.34189,5.81211 -0.44729,1.93498 -0.89458,3.87713 -1.34188,5.81211 -0.4473,1.93499 -0.8946,3.87714 -1.34189,5.81211 h 10.81222 m 121.13998,-58.47945 c -0.0616,2.35782 -0.13116,4.71563 -0.19281,7.0806 -0.0616,2.35781 -0.13117,4.71563 -0.19281,7.08061 l -0.19281,7.0806 -0.19282,7.08059 -5.34441,0.19351 c -1.78146,0.0645 -3.56293,0.12899 -5.34441,0.1935 -1.78146,0.0645 -3.56294,0.12899 -5.34441,0.19349 -1.78146,0.0645 -3.56295,0.12901 -5.34442,0.1935 -0.22364,2.63731 -0.45499,5.26745 -0.67865,7.90476 -0.22364,2.63731 -0.45502,5.26745 -0.67865,7.90476 l -0.67865,7.90476 c -0.22367,2.63731 -0.45501,5.26745 -0.67866,7.90476 -0.22365,2.6373 -0.45501,5.26745 -0.67866,7.90476 -0.22365,2.63731 -0.455,5.26745 -0.67866,7.90475 -0.22363,2.63731 -0.45501,5.26745 -0.67865,7.90476 -0.22366,2.63731 -0.45501,5.26746 -0.67866,7.90476 -2.52952,0.12184 -5.05906,0.2365 -7.5886,0.35834 -2.52953,0.12182 -5.05907,0.23649 -7.5886,0.35833 l -7.5886,0.35832 c -2.52953,0.12183 -5.05906,0.2365 -7.5886,0.35833 l 0.0155,-7.89759 0.0155,-7.89759 0.0155,-7.89759 0.0155,-7.89759 0.0155,-7.8976 0.0155,-7.89759 0.0155,-7.8976 0.0155,-7.89758 -5.34441,0.26516 c -1.78147,0.086 -3.56294,0.17915 -5.34441,0.26516 l -5.34441,0.26516 c -1.78147,0.086 -3.56294,0.17916 -5.34441,0.26517 l 0.20822,-7.87609 0.20823,-7.87609 c 0.0694,-2.62298 0.13881,-5.25312 0.20823,-7.87609 l 0.20822,-7.8761 9.79423,-0.0144 c 1.63494,0 3.26218,0 4.89711,-0.007 1.63494,0 3.26217,0 4.89712,-0.007 1.63495,0 3.26218,0 4.89711,-0.007 1.63494,0 3.26218,0 4.89712,-0.007 1.63494,-0.007 3.26218,0 4.89711,-0.007 1.63494,0 3.26217,0 4.89712,-0.007 1.63495,-0.007 3.26218,0 4.89711,-0.007 1.63494,0 3.26218,0 4.89712,-0.007 3.26217,0 6.53206,-0.0144 9.79423,-0.0144 1.63495,0 3.26219,0 4.89711,-0.007 1.63494,0 3.26218,0 4.89712,-0.007 1.63494,0 3.26218,0 4.8971,-0.007 1.63496,0 3.26218,0 4.89714,-0.007"
     id="path17624"
     style="fill:#010101;stroke-width:0.743428" /></svg>
