<?xml version="1.0" encoding="UTF-8" standalone="no"?>
<!-- Created with Inkscape (http://www.inkscape.org/) -->

<svg
   width="600"
   height="300"
   viewBox="0 0 158.75 79.374999"
   version="1.1"
   id="svg17659"
   inkscape:export-filename="intro1.svg"
   inkscape:export-xdpi="300"
   inkscape:export-ydpi="300"
   sodipodi:docname="intro2.svg"
   inkscape:version="1.2.2 (732a01da63, 2022-12-09)"
   xmlns:inkscape="http://www.inkscape.org/namespaces/inkscape"
   xmlns:sodipodi="http://sodipodi.sourceforge.net/DTD/sodipodi-0.dtd"
   xmlns="http://www.w3.org/2000/svg"
   xmlns:svg="http://www.w3.org/2000/svg">
  <sodipodi:namedview
     id="namedview17661"
     pagecolor="#ffffff"
     bordercolor="#000000"
     borderopacity="0.25"
     inkscape:showpageshadow="2"
     inkscape:pageopacity="0.0"
     inkscape:pagecheckerboard="0"
     inkscape:deskcolor="#d1d1d1"
     inkscape:document-units="mm"
     showgrid="false"
     inkscape:zoom="1.1182368"
     inkscape:cx="219.54205"
     inkscape:cy="160.07343"
     inkscape:window-width="1280"
     inkscape:window-height="657"
     inkscape:window-x="-8"
     inkscape:window-y="-8"
     inkscape:window-maximized="1"
     inkscape:current-layer="layer1" />
  <defs
     id="defs17656" />
  <g
     inkscape:label="שכבה 1"
     inkscape:groupmode="layer"
     id="layer1"
     transform="translate(-66.4181,-134.27026)">
    <path
       class="f"
       d="m 125.89856,181.67373 c 0.0156,0.91878 -0.17136,1.71671 -0.5564,2.39378 -0.37391,0.66558 -0.88356,1.23142 -1.53344,1.69751 -0.64988,0.46802 -1.39769,0.85355 -2.2412,1.15852 -0.84352,0.30499 -1.73155,0.54476 -2.65963,0.72121 -0.91473,0.17647 -1.83836,0.29922 -2.76867,0.3702 -0.9303,0.071 -1.80052,0.10933 -2.60843,0.12084 -0.80789,0.0114 -1.63806,-0.01 -2.48824,-0.0576 -0.85019,-0.0364 -1.70037,-0.11508 -2.55279,-0.23401 -0.85241,-0.10741 -1.68923,-0.25701 -2.51494,-0.44691 -0.8257,-0.18989 -1.60467,-0.44116 -2.33467,-0.74998 -0.12909,-7.11227 -0.26041,-14.22455 -0.38949,-21.33684 0.70774,-0.26852 1.46445,-0.50636 2.27014,-0.71735 0.80566,-0.211 1.62469,-0.3913 2.45706,-0.54284 0.84797,-0.15152 1.68703,-0.26852 2.52163,-0.34908 0.83461,-0.0805 1.64252,-0.1266 2.42371,-0.13619 0.91696,-0.0115 1.84281,0.0307 2.77758,0.12467 0.93253,0.0824 1.82722,0.23786 2.67964,0.46226 0.86577,0.21292 1.67366,0.50446 2.41925,0.87274 0.75894,0.35676 1.4244,0.80176 1.99415,1.33691 0.56977,0.53513 1.01934,1.16045 1.3465,1.8759 0.32718,0.71543 0.49855,1.54406 0.51412,2.48775 0.009,0.61379 -0.0824,1.19113 -0.28041,1.73587 -0.19586,0.54474 -0.48964,1.0377 -0.88135,1.47885 -0.37613,0.42966 -0.83684,0.79985 -1.37988,1.1125 -0.54307,0.31265 -1.16179,0.54474 -1.8584,0.69435 0.83905,0.17838 1.60467,0.44691 2.29461,0.80368 0.68995,0.35676 1.27974,0.79217 1.76938,1.3043 0.50076,0.51213 0.88801,1.09139 1.15953,1.73587 0.27154,0.64447 0.41174,1.33883 0.42511,2.08113 m -9.9374,-9.32193 c -0.004,-0.3184 -0.0913,-0.58885 -0.2604,-0.80943 -0.15357,-0.23401 -0.34275,-0.42006 -0.56309,-0.55816 -0.22255,-0.1381 -0.46961,-0.23593 -0.74558,-0.29155 -0.2604,-0.0671 -0.49409,-0.0998 -0.70107,-0.0979 -0.2604,0.004 -0.51412,0.0422 -0.75893,0.11509 -0.23146,0.0614 -0.46294,0.13619 -0.6944,0.22058 -0.02,1.22565 -0.0423,2.45324 -0.0624,3.6789 0.30047,-0.004 0.67214,-0.025 1.10837,-0.0671 0.43844,-0.0517 0.85464,-0.15154 1.24856,-0.29731 0.40951,-0.15728 0.74782,-0.38554 1.01711,-0.68476 0.28265,-0.2973 0.42065,-0.7001 0.41174,-1.20648 m -2.64626,5.42436 c -0.36945,0.004 -0.73224,0.0441 -1.08833,0.11892 -0.007,1.26211 -0.0134,2.52229 -0.02,3.78439 0.20698,0.0326 0.39839,0.0595 0.57643,0.0805 0.1914,0.0211 0.37836,0.0307 0.55641,0.0288 0.27375,-0.004 0.56752,-0.0307 0.88356,-0.0805 0.31383,-0.0519 0.61428,-0.14962 0.89917,-0.29347 0.28487,-0.15728 0.51411,-0.36636 0.68771,-0.62722 0.18695,-0.26086 0.27819,-0.59844 0.27152,-1.01083 -0.007,-0.41239 -0.10906,-0.76532 -0.30491,-1.02234 -0.1825,-0.26853 -0.41174,-0.47185 -0.68772,-0.60994 -0.27598,-0.14962 -0.57866,-0.24552 -0.90805,-0.28965 -0.31604,-0.0557 -0.60537,-0.0805 -0.86354,-0.0786 m 36.66711,-8.93256 c 0.0134,0.82477 -0.02,1.73395 -0.1001,2.72368 -0.0668,0.98014 -0.19364,1.99482 -0.38281,3.04593 -0.18919,1.05112 -0.43845,2.12141 -0.75005,3.20897 -0.31157,1.07604 -0.70551,2.11181 -1.18179,3.10922 -0.46292,0.99549 -1.01711,1.93344 -1.66032,2.81385 -0.62985,0.8804 -1.3643,1.64955 -2.20335,2.30745 -0.82571,0.6464 -1.75602,1.15853 -2.79094,1.53638 -1.02155,0.38939 -2.16997,0.59271 -3.44302,0.60805 -1.4934,0.0172 -2.79093,-0.17263 -3.89484,-0.57159 -1.10169,-0.39896 -2.05648,-0.94178 -2.86215,-1.62653 -0.79232,-0.69819 -1.44888,-1.50955 -1.9719,-2.43408 -0.50967,-0.93602 -0.91474,-1.92191 -1.21964,-2.95576 -0.29156,-1.04537 -0.50076,-2.10992 -0.62763,-3.19363 -0.12685,-1.09523 -0.2003,-2.14251 -0.21588,-3.14567 -0.0245,-1.54406 0.0378,-3.08813 0.19141,-4.6341 0.15356,-1.54597 0.38726,-3.08813 0.70551,-4.6226 3.00237,0.0633 6.00473,0.12851 9.00709,0.1918 -0.31381,1.73587 -0.58755,3.48518 -0.81903,5.24407 -0.21811,1.74738 -0.31381,3.50435 -0.28488,5.27282 0.002,0.18798 0.0156,0.47185 0.0333,0.8478 0.0334,0.36445 0.0801,0.77683 0.14243,1.23526 0.0624,0.45842 0.14466,0.93027 0.24927,1.41171 0.10461,0.46993 0.24038,0.90534 0.41175,1.3043 0.17137,0.39896 0.3739,0.72696 0.61202,0.98207 0.25151,0.24359 0.53417,0.36443 0.84799,0.36059 0.38279,-0.004 0.71663,-0.16112 0.9993,-0.47184 0.29601,-0.31074 0.54973,-0.71929 0.76116,-1.2295 0.21144,-0.51021 0.39394,-1.09523 0.5475,-1.75697 0.16692,-0.66174 0.30046,-1.35417 0.39839,-2.07345 0.11128,-0.72121 0.19585,-1.44048 0.25148,-2.15978 0.0578,-0.71927 0.10021,-1.38677 0.13132,-2.00056 0.0445,-0.62531 0.0624,-1.17388 0.0556,-1.64574 0.007,-0.48334 0.007,-0.83627 0.002,-1.0607 -0.0134,-0.87272 -0.0422,-1.73202 -0.0823,-2.57982 -0.0422,-0.8593 -0.10236,-1.71477 -0.18473,-2.56256 l 9.02266,-0.10935 c 0.17583,1.51914 0.27598,3.06127 0.30269,4.62835 m 19.03351,8.76952 -0.17137,1.84137 c -0.0579,0.61378 -0.11351,1.22757 -0.17138,1.84135 l -0.17137,1.84137 -0.17137,1.84136 c -0.67659,0.0538 -1.35096,0.10741 -2.02755,0.16113 -0.67659,0.0538 -1.35096,0.10741 -2.02753,0.16112 -1.35096,0.10741 -2.70192,0.21482 -4.0551,0.32416 -0.67658,0.0538 -1.35094,0.1074 -2.02752,0.16111 -0.6766,0.0538 -1.35096,0.10741 -2.02756,0.16112 -0.67659,0.0538 -1.35095,0.10742 -2.02753,0.16112 -0.6766,0.0538 -1.35096,0.10742 -2.02754,0.16112 0.004,-0.96287 0.0111,-1.92577 0.0156,-2.88673 0.007,-0.96095 0.0111,-1.92001 0.0178,-2.87714 0.007,-0.95711 0.0134,-1.91424 0.0223,-2.86947 0.009,-0.95518 0.0156,-1.9085 0.0245,-2.85985 0.009,-0.95523 0.0177,-1.91043 0.0289,-2.86947 0.0111,-0.95713 0.0223,-1.9181 0.0356,-2.87904 0.0133,-0.96098 0.0289,-1.92387 0.0445,-2.88674 0.0156,-0.9648 0.0334,-1.92962 0.0512,-2.89632 l 2.50826,-0.0307 2.50828,-0.0307 2.50828,-0.0307 2.50827,-0.0307 c -0.0645,0.60802 -0.12908,1.21606 -0.19362,1.82218 -0.0645,0.60803 -0.12687,1.21414 -0.18919,1.82026 -0.0624,0.60612 -0.1224,1.21223 -0.1825,1.81836 -0.0601,0.60612 -0.12018,1.21031 -0.17805,1.81642 -0.0556,0.6023 -0.10683,1.20457 -0.15357,1.81069 -0.0468,0.60612 -0.089,1.21223 -0.12685,1.82218 -0.0379,0.60994 -0.0712,1.21991 -0.10011,1.83177 -0.029,0.61187 -0.0534,1.22757 -0.0757,1.84328 0.60313,0.004 1.1996,0.004 1.78717,-0.004 l 1.80941,-0.0212 2.09656,-0.025 c 0.69884,-0.0211 1.41104,-0.0345 2.13659,-0.0441 m 19.3117,0.45075 c -0.26928,0.27812 -0.55418,0.52555 -0.59645,0.65982 -0.0868,0.26087 -0.22703,0.94179 -0.44959,1.98521 -0.22924,1.64766 -0.31381,1.663 -0.52302,2.82151 -0.12018,0.66366 -0.25149,1.21223 -0.44957,2.16746 -1.12616,-0.23784 -1.48449,-0.28389 -1.77827,-0.31458 -1.21519,-0.007 -1.27973,0.35486 -1.96745,0.47569 -0.26708,0.0115 -0.3383,0.025 -2.23674,1.01659 -1.43331,-0.15728 -1.74489,-0.15345 -4.08848,-1.24101 -0.52747,-0.0518 -0.83461,-0.0498 -1.05272,-0.0288 -0.33828,0.10359 -0.71887,0.1899 -0.90805,0.24361 -0.32717,0.0901 -0.51412,0.16879 -0.64765,0.27046 -0.44291,0.53897 -0.77452,1.03767 -1.93629,2.91742 -0.50299,-2.59901 -0.81235,-3.59066 -1.25747,-4.82783 -0.44513,-0.84206 -0.66547,-1.5134 -0.868,-3.43531 -0.004,-1.3043 -0.0222,-2.20965 -0.007,-3.59259 0.58313,-2.04085 0.98372,-3.02674 0.99486,-3.23007 0.0111,-0.26853 0.21811,-1.48844 0.26484,-2.63928 0.20254,-1.69752 0.40507,-2.98456 0.20477,-3.57724 -0.61205,1.45967 -3.89929,0.24743 -3.98609,-0.84398 0.50077,-1.58047 3.52537,-0.75187 4.80955,-1.84517 -3.15592,-0.60039 -2.81762,-2.10992 -0.58309,-5.5222 -0.19141,3.78439 -0.0556,3.45639 0.76561,3.35091 1.56015,0.22057 1.69148,-0.37212 2.50382,-0.22442 2.2835,-0.14001 4.4824,0.36445 5.06106,0.38362 1.52901,-0.10168 1.63806,0.54474 3.38963,-4.15075 0.0156,4.7933 0.0512,4.82401 -1.42663,5.8521 -0.004,0.0729 -2.3102,0.39323 -2.20558,0.37785 -0.2515,1.13168 1.36431,0.59273 1.7115,1.22566 0.0934,0.91113 0.10236,1.0358 -1.31313,2.04277 -0.50299,1.3676 -0.56085,1.85096 -0.62315,2.47625 -0.0668,1.1125 -0.0689,1.68793 -0.0512,2.12333 0.37836,1.40597 0.35164,1.60929 0.10682,2.25569 -1.04603,1.30238 -1.09277,1.51527 -1.07943,1.75889 2.08097,0.35869 2.17222,0.35677 3.3696,0.33567 1.40882,0.0863 0.86355,0.0959 2.43927,0.0902 1.27973,-0.18604 2.11879,-0.26469 2.74197,-0.23207 0.79232,0.37785 1.32202,0.6272 1.67812,0.87083"
       id="path17621"
       style="fill:#010101;stroke-width:0.206614" />
  </g>
</svg>
