<?xml version="1.0" encoding="UTF-8" standalone="no"?>
<svg
   version="1.1"
   width="600"
   height="300"
   id="svg30778"
   sodipodi:docname="intro3.svg"
   xml:space="preserve"
   inkscape:version="1.2.2 (732a01da63, 2022-12-09)"
   xmlns:inkscape="http://www.inkscape.org/namespaces/inkscape"
   xmlns:sodipodi="http://sodipodi.sourceforge.net/DTD/sodipodi-0.dtd"
   xmlns="http://www.w3.org/2000/svg"
   xmlns:svg="http://www.w3.org/2000/svg"><sodipodi:namedview
     id="namedview30780"
     pagecolor="#ffffff"
     bordercolor="#000000"
     borderopacity="0.25"
     inkscape:showpageshadow="2"
     inkscape:pageopacity="0.0"
     inkscape:pagecheckerboard="0"
     inkscape:deskcolor="#d1d1d1"
     showgrid="false"
     inkscape:zoom="1.7116667"
     inkscape:cx="-38.851022"
     inkscape:cy="300.29211"
     inkscape:window-width="2560"
     inkscape:window-height="1377"
     inkscape:window-x="-8"
     inkscape:window-y="-8"
     inkscape:window-maximized="1"
     inkscape:current-layer="svg30778" /><defs
     id="defs30772" /><path
     class="f"
     d="m 29.163748,140.54852 c 3.09052,-0.091 6.174609,-0.18174 9.265109,-0.27267 3.09052,-0.091 6.174621,-0.18175 9.265141,-0.27268 1.96611,0 3.514579,0.48942 4.645429,1.46825 1.169381,0.97886 1.754061,2.27931 1.754061,3.90839 0,3.42594 -2.13316,5.13194 -6.40592,5.13194 -3.09051,-0.07 -6.174601,-0.13993 -9.26512,-0.21674 -3.09052,-0.07 -6.174611,-0.13993 -9.26513,-0.21675 -3.17405,0 -5.58991,0.042 -7.254041,0.11892 0,5.11094 0.0257,9.72549 0.0707,13.82965 0.045,4.10414 0.11565,7.70488 0.21204,10.80222 0.22488,6.19467 0.34053,9.59266 0.34053,10.20792 0,5.54447 -1.85045,8.31319 -5.551371,8.31319 -3.700909,0 -5.551369,-2.76872 -5.551369,-8.31319 0,-0.60827 0.0386,-2.44709 0.11566,-5.50248 0.18633,-4.58656 0.32769,-9.29202 0.42407,-14.1373 0.045,-2.41912 0.0835,-4.87322 0.10922,-7.35531 0.0257,-2.48205 0.0386,-4.99907 0.0386,-7.54406 -4.8703001,0 -7.3118702,-1.71298 -7.3118702,-5.13194 0,-1.78988 0.68107,-3.13928 2.0367799,-4.03422 1.4007001,-0.89494 3.1547701,-1.34241 5.2686603,-1.34241 -0.0386,-3.65668 -0.0835,-6.94978 -0.13492,-9.87933 -0.0514,-2.92953 -0.10923,-5.49549 -0.17991,-7.69091 -0.13493,-4.39779 -0.29556,-7.34132 -0.48189,-8.83056 -0.8674,-1.5102 -1.30431,-3.07636 -1.30431,-4.70544 0,-3.5448 2.24881,-5.32068 6.74644,-5.32068 3.36039,0.10484 6.72719,0.20275 10.087549,0.30762 3.360391,0.10485 6.727191,0.20276 10.087561,0.30763 l 8.69973,-0.36355 c 2.89774,-0.11893 5.801939,-0.24474 8.699689,-0.3636 1.96611,0 3.533851,0.48943 4.703261,1.46828 1.207919,0.97884 1.811891,2.34224 1.811891,4.09716 0,1.75493 -0.603972,3.05538 -1.811891,4.03421 -1.16941,0.97885 -2.737151,1.46829 -4.703261,1.46829 -2.89775,-0.11893 -5.801939,-0.24472 -8.699689,-0.36358 l -8.69973,-0.36357 c -2.833511,0 -5.499961,0.0489 -8.00579,0.15381 -2.50582,0.10483 -4.838161,0.25169 -7.009881,0.46144 v 26.03719 c 1.362141,0.0838 3.778,0.11894 7.254041,0.11894 m 46.916769,45.29244 c 0.0194,-1.59412 0.0321,-3.18824 0.0513,-4.78236 0.0194,-1.5941 0.0321,-3.18823 0.0514,-4.78236 l 0.0964,-9.56466 c 0.01941,-1.59412 0.03209,-3.18824 0.0513,-4.78235 0.0194,-1.59413 0.03209,-3.18825 0.0514,-4.78235 0.01941,-1.59412 0.0321,-3.18824 0.0513,-4.78233 0.0194,-1.59413 0.0321,-3.18824 0.0514,-4.78237 0,-2.55897 -0.008,-4.99909 -0.0194,-7.33433 -0.0128,-2.33524 -0.03859,-4.55161 -0.0643,-6.6631 -0.0257,-2.11153 -0.0643,-4.10415 -0.10928,-5.99194 -0.045,-1.88776 -0.09001,-3.65667 -0.14771,-5.32071 -0.0963,-3.34203 -0.16702,-5.92198 -0.212011,-7.74683 -0.045,-1.82485 -0.0706,-2.88758 -0.0706,-3.19522 0,-2.76874 0.46261,-4.85227 1.38785,-6.23663 0.92522,-1.38436 2.313069,-2.07654 4.16351,-2.07654 1.85046,0 3.23832,0.69218 4.16353,2.07654 0.92524,1.38436 1.38785,3.46092 1.38785,6.23663 0,0.60829 -0.0386,2.60791 -0.11565,5.99193 -0.0964,2.48206 -0.179949,4.92217 -0.25058,7.29934 -0.0706,2.38419 -0.12859,4.71244 -0.17995,6.98475 -0.045,2.27931 -0.0836,4.50268 -0.10928,6.67012 -0.0257,2.17444 -0.0386,4.29293 -0.0386,6.36247 0,2.06955 0,4.00626 0.008,5.8381 0.008,1.83183 0.01281,3.5518 0.0194,5.16689 0.0194,3.21621 0.045,5.99192 0.0836,8.31317 0.0386,2.32126 0.0836,4.47472 0.141339,6.44638 0.0577,1.97867 0.12202,3.78253 0.199171,5.4116 0.15427,3.25814 0.22488,5.32071 0.22488,6.17371 1.734819,0.20276 3.54671,0.35657 5.42288,0.46146 1.88258,0.10484 3.82941,0.15379 5.85335,0.15379 2.023925,0 4.054285,-0.0349 6.033265,-0.10484 1.98538,-0.07 3.93864,-0.17481 5.86619,-0.3216 3.85512,-0.28668 6.36736,-0.42652 7.53674,-0.42652 1.1694,0 2.39662,0.48943 3.57241,1.46826 1.20796,0.97886 1.81191,2.34225 1.81191,4.09716 0,1.75494 -0.60395,3.0554 -1.81191,4.03425 -1.16939,0.97883 -2.73714,1.46823 -4.70323,1.46823 -2.69857,-0.10483 -5.40358,-0.20273 -8.10216,-0.30762 -2.6986,-0.10484 -5.40358,-0.20274 -8.1022,-0.30763 -2.936305,0.10484 -5.872605,0.20276 -8.808915,0.30763 -2.93633,0.10485 -5.87264,0.20278 -8.808949,0.30762 -2.190982,0 -3.855112,-0.4894 -4.985951,-1.46823 -1.09871,-0.97885 -1.64485,-2.81069 -1.64485,-5.5025 M 180.62618,163.92199 c -4.68398,-0.10484 -9.36793,-0.20276 -14.05191,-0.30764 -6.95205,0 -12.03439,0.063 -15.24055,0.18175 -0.7903,2.6079 -1.92757,6.66312 -3.39895,12.16561 -1.47136,5.50249 -2.67929,9.78144 -3.62378,12.83681 -0.94451,3.0554 -2.62791,4.58659 -5.0438,4.58659 -1.36214,0 -2.45443,-0.46844 -3.28969,-1.40534 -0.82885,-0.93689 -1.24649,-1.97867 -1.24649,-3.11832 0,-1.13964 0.0386,-2.05557 0.11565,-2.74775 0.11567,-0.69218 0.3791,-1.73395 0.7903,-3.11831 0.41764,-1.4263 0.82885,-2.76872 1.2465,-4.03422 2.11388,-6.72606 3.64308,-11.65524 4.58758,-14.78752 -2.11389,0 -3.77803,-0.48942 -4.98594,-1.46827 -1.16938,-0.97884 -1.75409,-2.27931 -1.75409,-3.90838 0,-3.67067 2.67931,-5.50249 8.04434,-5.50249 h 1.92756 c 6.99061,-20.98219 10.99351,-32.98701 12.0151,-36.00043 1.06017,-3.01345 1.66414,-4.74738 1.81192,-5.19487 0.15426,-0.48941 0.37909,-1.18159 0.68106,-2.07653 0.34054,-0.89495 0.64253,-1.54518 0.90595,-1.95769 0.26344,-0.44748 0.56543,-0.97885 0.90597,-1.58713 0.37908,-0.65022 0.71963,-1.13965 1.0216,-1.46827 0.34053,-0.36355 0.73889,-0.71314 1.18866,-1.04176 0.94449,-0.60829 1.92756,-0.91591 2.94917,-0.91591 1.0216,0 1.90827,0.11891 2.55081,0.36355 0.68106,0.20278 1.3043,0.62928 1.86971,1.2865 0.60397,0.60827 1.09872,1.28648 1.47138,2.01361 0.41762,0.69217 0.88667,1.78989 1.41353,3.3001 0.56543,1.46826 1.06016,2.81068 1.47138,4.03422 3.47603,11.52938 7.81946,24.61092 13.03029,39.23761 1.32361,-0.0421 2.64717,-0.0838 3.96433,-0.11892 1.88903,0 3.41823,0.55235 4.58761,1.65005 1.20792,1.06276 1.8119,2.42615 1.8119,4.09716 0,3.42595 -2.3966,5.25779 -7.19622,5.50249 0.71962,2.48207 1.70268,5.64234 2.94918,9.4738 2.83351,8.31318 4.24704,13.12348 4.24704,14.42396 0,1.30046 -0.41764,2.42613 -1.24648,3.48188 -0.82886,1.06273 -1.98541,1.58714 -3.45676,1.58714 -2.60863,0 -4.49763,-1.53121 -5.66704,-4.58659 -1.20794,-3.83149 -3.66234,-12.12367 -7.36968,-24.87659 M 154.0387,153.71397 c 4.64543,0.16073 9.1238,0.24469 13.42866,0.24469 4.30491,0 7.81949,-0.0838 10.42811,-0.24469 -7.63314,-23.63207 -11.52039,-35.4481 -11.67457,-35.4481 -0.41766,0 -3.53385,8.84454 -9.34866,26.52664 -0.94451,2.97148 -1.88901,5.94997 -2.83354,8.92146 m 74.23028,32.88211 c 0,2.03459 -0.50759,3.68465 -1.52919,4.95015 -1.02162,1.22354 -2.34519,1.83183 -3.96435,1.83183 -1.61916,0 -2.94916,-0.60829 -3.96434,-1.83183 -1.02161,-1.2655 -1.52919,-2.56598 -1.52919,-3.90839 0,-1.34239 0.0386,-3.89438 0.11565,-7.64197 0.30198,-8.76062 0.45619,-18.19249 0.45619,-28.29554 0,-10.10305 -0.0964,-19.49993 -0.28271,-28.05082 -0.18634,-8.55789 -0.28273,-12.9557 -0.28273,-13.20041 0,-2.2793 0.52689,-4.07618 1.58705,-5.37663 1.06015,-1.34242 2.34519,-2.01363 3.8551,-2.01363 2.30665,0 4.11856,1.5312 5.44216,4.58657 8.08288,18.72388 16.16577,37.44774 24.2551,56.17161 6.68862,-15.1581 14.05189,-32.43465 22.10265,-51.82973 1.58702,-3.83147 2.81425,-6.27158 3.68165,-7.33432 0.8674,-1.06275 2.11388,-1.58712 3.73945,-1.58712 1.62557,0 3.00057,0.65023 4.02217,1.95769 1.06016,1.2655 1.58703,3.07636 1.58703,5.43955 -0.34054,2.0346 -0.50759,10.92108 -0.50759,26.64551 0,15.72441 0.0964,27.84806 0.28271,36.364 0.22488,8.51593 0.34054,12.89274 0.34054,13.13746 0,2.0346 -0.5076,3.68464 -1.52921,4.95015 -1.02161,1.22355 -2.34517,1.83183 -3.96434,1.83183 -1.61914,0 -2.94917,-0.60828 -3.96435,-1.83183 -1.02159,-1.26551 -1.52918,-2.56596 -1.52918,-3.90838 0,-1.34241 0.0386,-3.92936 0.11564,-7.64196 0.45618,-13.68982 0.68108,-24.16344 0.68108,-31.41387 v -17.96876 c -6.57297,14.91337 -13.14595,29.82675 -19.71892,44.74011 -1.20796,2.72678 -2.87207,4.09716 -4.98596,4.09716 -2.11389,0 -3.81656,-1.44729 -5.1016,-4.34187 -6.68863,-14.82947 -13.37081,-29.66593 -20.05946,-44.4954 V 148.596 c 0,8.06847 0.11566,16.36066 0.34055,24.8766 0.22486,8.51593 0.34052,12.89274 0.34052,13.13746 m 111.68915,-71.93794 -8.89889,-0.48944 c -0.30198,7.57905 -0.45619,18.47917 -0.45619,32.70034 0,14.2212 0.18633,26.0582 0.56543,35.62988 l 8.78323,-0.48942 c 1.9661,0 3.53386,0.48942 4.70325,1.46827 1.20792,0.97884 1.81188,2.32126 1.81188,4.03422 0,1.71298 -0.60396,2.99248 -1.81188,3.9713 -1.16939,0.97886 -2.73715,1.46826 -4.70325,1.46826 -4.74179,-0.2447 -9.48359,-0.4894 -14.22538,-0.73412 -4.76107,0.24472 -9.52214,0.48942 -14.27678,0.73412 -1.9661,0 -3.55314,-0.4894 -4.76108,-1.46826 -1.16938,-0.97882 -1.75406,-2.30027 -1.75406,-3.9713 0,-1.67101 0.58468,-3.05538 1.75406,-4.03422 1.20794,-0.97885 2.79498,-1.46827 4.76108,-1.46827 2.94917,0.20277 5.89192,0.40554 8.84106,0.60829 0.34053,-9.57867 0.50761,-21.47162 0.50761,-35.69282 0,-14.22116 -0.15428,-25.18422 -0.45619,-32.76325 -2.96845,0.16073 -5.93046,0.32862 -8.89891,0.48943 -1.96609,0 -3.55314,-0.5104 -4.76107,-1.5312 -1.16937,-1.02078 -1.75408,-2.38418 -1.75408,-4.09715 0,-1.71298 0.58471,-3.11832 1.75408,-4.09717 1.20793,-0.97884 2.79498,-1.46824 4.76107,-1.46824 4.76107,0.24471 9.52214,0.4894 14.27678,0.73412 4.7418,-0.24472 9.48359,-0.48941 14.22537,-0.73412 1.96613,0 3.53388,0.4894 4.70326,1.46824 1.20793,0.97885 1.8119,2.34224 1.8119,4.09717 0,1.75493 -0.60397,3.07637 -1.8119,4.09715 -1.16938,1.0208 -2.73713,1.5312 -4.70326,1.5312 m 81.10524,31.16215 c 2.20384,7.31336 3.22545,15.9062 3.34753,24.46408 -0.77745,6.35549 -4.14425,10.7393 -4.13784,10.87911 -2.705,4.34888 -6.26455,2.99947 -8.6226,4.99912 -0.12842,-0.43348 -0.25701,-0.79707 -0.73247,-0.98585 -6.76572,-2.42614 -7.09984,-3.89438 -10.57588,-9.25005 -1.24648,-6.06183 -1.29146,-11.13084 -1.69625,-14.44494 -0.57826,-2.77571 -1.13082,-5.38361 -1.90186,-7.53009 -1.06015,-2.88757 -2.22311,-4.88721 -3.93865,-6.96375 -2.13957,-1.5312 -3.05194,-2.25135 -4.22774,-2.84566 -6.38024,-1.96467 -11.25053,-5.95694 -11.78385,-19.82155 2.42232,4.24397 5.75057,9.22209 8.3592,16.63334 -6.75932,4.94315 -8.33349,7.20848 -10.13254,9.94924 -1.59344,2.98546 -3.05196,5.55143 -4.46549,7.83773 -1.21437,3.41197 -0.95094,2.75473 -0.47548,7.09659 4.78677,10.10305 6.03326,13.54999 6.54084,14.99029 3.01985,7.44621 7.17052,11.2567 4.60044,20.69553 -4.45265,-8.2223 -4.72893,-8.29219 -9.47072,-7.29938 -0.0963,-0.32161 -0.15426,-0.55933 -0.17357,-0.65023 3.88081,-3.66366 4.78031,-6.07579 2.15243,-12.36837 -0.7132,-1.37038 -1.85046,-3.94333 -2.15886,-6.06183 -3.72664,-7.43222 -3.98363,-8.24325 -6.23245,-12.74593 -0.032,-2.02761 1.52922,-4.6495 3.12265,-7.13157 1.47779,-2.09752 2.90419,-4.34886 4.19564,-6.66312 1.90185,-3.4749 3.72663,-5.89404 3.64952,-7.40426 -4.56188,-4.01325 -7.61386,-9.31996 -9.11092,-16.1509 -2.91062,-7.73285 -3.68165,-12.02577 -3.48245,-16.78014 0.81599,-8.292201 2.24879,-10.158991 4.67752,-9.753471 1.58703,6.285571 6.47018,8.613811 6.97134,9.082261 2.6536,2.98547 5.6349,5.49549 10.26104,9.17316 4.13782,5.83809 4.38841,6.01986 8.26281,8.33414 3.41178,3.85244 6.04609,8.64178 7.61387,13.63388 0.95733,4.51666 1.97252,7.99855 2.3516,11.70417 1.5292,5.92197 2.90421,10.41767 4.04145,14.43791 1.20793,3.67766 1.47779,3.99929 6.24528,7.34832 3.46962,-6.62816 3.19974,-11.41751 2.35163,-17.98974 -0.8417,-5.10395 -2.04322,-9.21511 -3.20618,-13.28428 -5.54494,-10.02615 -6.38664,-20.85634 -4.86388,-25.15626 1.75409,-2.1255 1.92757,-2.48906 2.17814,-3.36302 3.17406,-5.72623 5.69273,-4.11815 8.49411,-5.06901 3.06482,-0.17481 4.88317,1.21655 10.17753,11.94187 -0.23774,1.17461 -0.41122,4.02724 -1.9854,7.69093 -14.39887,-14.3121 -14.945,-9.90031 -13.46721,0.13971 3.87441,8.40406 5.5064,13.30528 7.25406,18.70988 m 69.62983,-0.30063 c 4.56831,-0.24472 9.14301,-0.48942 13.71135,-0.73413 1.96608,0 3.53388,0.51039 4.70324,1.53118 1.20796,1.0208 1.81193,2.50304 1.81193,4.46073 0,3.32805 -0.19277,6.48831 -0.57829,9.46681 -0.38551,2.98547 -0.97019,5.78915 -1.74123,8.42503 -1.54845,5.26477 -3.87441,9.83737 -6.97134,13.7038 -3.09695,3.87342 -6.68863,6.775 -10.76862,8.71169 -4.08,1.93671 -8.64832,2.90158 -13.71136,2.90158 -5.06305,0 -9.72132,-1.11867 -13.98122,-3.34904 -4.25991,-2.23035 -8.11502,-5.57941 -11.57178,-10.04013 -3.43748,-4.46072 -6.014,-9.40389 -7.73593,-14.82247 -0.86099,-2.7128 -1.50351,-5.53745 -1.934,-8.48796 -0.43049,-2.95052 -0.6425,-6.0199 -0.6425,-9.20811 0,-3.18825 0.22488,-6.25761 0.66819,-9.20113 0.44335,-2.94353 1.11159,-5.76819 1.99827,-8.46698 1.77333,-5.39762 4.43979,-10.30584 7.99293,-14.73159 3.57241,-4.41878 7.60741,-7.73985 12.1115,-9.94924 4.50405,-2.20939 9.47714,-3.3141 14.9193,-3.3141 3.36036,0 6.57939,0.3636 9.64418,1.08375 3.07127,0.72013 5.99471,1.81083 8.77041,3.25113 5.55137,2.89459 8.32708,6.03388 8.32708,9.41088 0,1.46827 -0.41764,2.64988 -1.24653,3.5448 -0.82885,0.853 -2.0753,1.28649 -3.73943,1.28649 -1.66417,0 -3.81659,-1.06275 -6.57297,-3.18124 -4.42055,-3.46089 -9.4836,-5.19486 -15.18919,-5.19486 -3.92578,0 -7.51747,0.87396 -10.76861,2.61493 -3.25115,1.74092 -6.15534,4.35582 -8.72542,7.83771 -2.57007,3.48189 -4.49763,7.29239 -5.78267,11.43149 -1.28503,4.1391 -1.92756,8.59983 -1.92756,13.38218 0,4.78234 0.61682,9.27804 1.84405,13.45908 1.22721,4.18805 3.07122,8.07545 5.52564,11.65522 2.47372,3.58677 5.26224,6.27161 8.3592,8.06846 3.09692,1.78989 6.50871,2.69181 10.2289,2.69181 3.09693,0 5.93688,-0.61526 8.51339,-1.84581 2.57648,-1.23054 4.89598,-3.08335 6.95847,-5.54443 2.07533,-2.4681 3.66881,-5.44656 4.77393,-8.95642 1.10513,-3.50284 1.72195,-7.5301 1.85688,-12.06773 -2.37732,-0.24471 -5.42288,-0.36357 -9.12377,-0.36357 -4.88959,0.20276 -9.78559,0.40552 -14.67514,0.60828 -1.96612,0 -3.49532,-0.46846 -4.5876,-1.40534 -1.09872,-0.93688 -1.64485,-2.20239 -1.64485,-3.78952 0,-1.58713 0.54613,-2.95751 1.64485,-3.9713 1.0987,-1.02078 2.6279,-1.5312 4.5876,-1.5312 4.88955,0.20277 9.78555,0.40553 14.67514,0.60828 m 71.0562,38.25876 c 3.79727,0 7.27332,-0.90192 10.42807,-2.70579 3.15481,-1.80386 5.9883,-4.50967 8.50055,-8.11041 2.53153,-3.60773 4.42696,-7.49514 5.69275,-11.65521 1.26575,-4.16708 1.89542,-8.61383 1.89542,-13.34023 0,-4.72642 -0.62967,-9.15916 -1.8826,-13.2913 -1.25292,-4.13909 -3.1419,-7.97756 -5.65415,-11.52238 -2.49298,-3.54481 -5.32006,-6.20164 -8.48768,-7.97756 -3.16122,-1.77589 -6.66296,-2.65685 -10.49878,-2.65685 -3.83586,0 -7.33758,0.88796 -10.51163,2.65685 -3.17403,1.77592 -6.01397,4.43275 -8.52623,7.97756 -2.51224,3.54482 -4.39482,7.38329 -5.65414,11.52238 -1.25933,4.13911 -1.88262,8.56488 -1.88262,13.2913 0,4.7264 0.62969,9.14517 1.89543,13.30526 1.26579,4.16707 3.16121,8.06147 5.69276,11.69018 2.53147,3.60773 5.37787,6.31354 8.54549,8.11041 3.16765,1.79686 6.64364,2.70579 10.44094,2.70579 m 26.40757,-68.08548 c 3.51453,4.41877 6.1489,9.33395 7.90298,14.73157 0.88023,2.69881 1.53562,5.52349 1.97895,8.467 0.43689,2.94352 0.66179,6.01287 0.66179,9.20111 0,3.18823 -0.2249,6.25762 -0.66819,9.20812 -0.44339,2.9505 -1.11159,5.77516 -1.99828,8.48796 -1.77334,5.41859 -4.43981,10.36175 -7.99291,14.82247 -3.53387,4.46073 -7.49821,7.80978 -11.89948,10.04013 -4.40123,2.23037 -9.23945,3.34903 -14.50807,3.34903 -5.26868,0 -10.10684,-1.11866 -14.50813,-3.34903 -4.40121,-2.23035 -8.36556,-5.5794 -11.89943,-10.04013 -3.51459,-4.46072 -6.1489,-9.40388 -7.90299,-14.82247 -0.88022,-2.7128 -1.5356,-5.53746 -1.97896,-8.48796 -0.43693,-2.9505 -0.66177,-6.01989 -0.66177,-9.20812 0,-3.18824 0.22484,-6.25759 0.6682,-9.20111 0.44333,-2.94351 1.11156,-5.76819 1.99825,-8.467 1.77333,-5.39762 4.43978,-10.30581 7.99293,-14.73157 3.57242,-4.41878 7.56244,-7.73986 11.983,-9.94925 4.42049,-2.20938 9.2651,-3.31407 14.5338,-3.31407 5.26862,0 10.09393,1.10469 14.47592,3.31407 4.382,2.20939 8.32066,5.52348 11.81591,9.94925"
     id="path17615"
     style="fill:#010101;stroke-width:0.670247" /></svg>
