<?xml version="1.0" encoding="UTF-8" standalone="no"?>
<!-- Created with Inkscape (http://www.inkscape.org/) -->

<svg
   width="193.89229mm"
   height="47.61412mm"
   viewBox="0 0 193.89229 47.61412"
   version="1.1"
   id="svg17659"
   inkscape:export-filename="intro6.svg"
   inkscape:export-xdpi="300"
   inkscape:export-ydpi="300"
   xmlns:inkscape="http://www.inkscape.org/namespaces/inkscape"
   xmlns:sodipodi="http://sodipodi.sourceforge.net/DTD/sodipodi-0.dtd"
   xmlns="http://www.w3.org/2000/svg"
   xmlns:svg="http://www.w3.org/2000/svg">
  <sodipodi:namedview
     id="namedview17661"
     pagecolor="#ffffff"
     bordercolor="#000000"
     borderopacity="0.25"
     inkscape:showpageshadow="2"
     inkscape:pageopacity="0.0"
     inkscape:pagecheckerboard="0"
     inkscape:deskcolor="#d1d1d1"
     inkscape:document-units="mm"
     showgrid="false" />
  <defs
     id="defs17656" />
  <g
     inkscape:label="שכבה 1"
     inkscape:groupmode="layer"
     id="layer1"
     transform="translate(-95.500696,-193.91636)">
    <path
       class="f"
       d="m 112.09522,240.84961 c -1.5628,0 -3.27728,-0.0423 -5.14699,-0.13053 -1.84854,-0.067 -3.65122,-0.16228 -5.41157,-0.2928 -1.760349,-0.13053 -3.354893,-0.28222 -4.783632,-0.45861 v -4.57549 c 1.516933,0.13052 3.111477,0.26105 4.783632,0.39158 1.67215,0.13052 3.29845,0.23988 4.88241,0.32808 1.58396,0.067 2.9245,0.0988 4.02516,0.0988 2.24365,0 4.03575,-0.0882 5.37982,-0.26105 1.34055,-0.19755 2.48707,-0.56797 3.4325,-1.11124 0.61736,-0.37041 1.06538,-0.87135 1.35113,-1.50282 0.30692,-0.63147 0.49389,-1.36171 0.56091,-2.19074 0.067,-0.85018 0.0988,-1.75329 0.0988,-2.71284 0,-1.41815 -0.0423,-2.56114 -0.13053,-3.4325 -0.0882,-0.89252 -0.30691,-1.58043 -0.65969,-2.06021 -0.35277,-0.47977 -0.93485,-0.82902 -1.74976,-1.04774 -0.79022,-0.23988 -1.86971,-0.42333 -3.23495,-0.55738 -3.60889,-0.39158 -7.21425,-0.78316 -10.82314,-1.17827 -2.02493,-0.26105 -3.65122,-0.68791 -4.882406,-1.27352 -1.210019,-0.6103 -2.123706,-1.38288 -2.737535,-2.32126 -0.617356,-0.95955 -1.033631,-2.09196 -1.252352,-3.40075 -0.197554,-1.32996 -0.296331,-2.81162 -0.296331,-4.44497 0,-2.63523 0.342192,-4.75188 1.023048,-6.34289 0.70555,-1.59102 1.72507,-2.80104 3.069144,-3.63006 1.365242,-0.82902 3.002112,-1.3723 4.917682,-1.63335 1.93674,-0.28222 4.14511,-0.42333 6.63218,-0.42333 1.60512,0 3.24553,0.0423 4.91768,0.13053 1.69332,0.067 3.28786,0.17286 4.78363,0.32808 1.51693,0.15169 2.76223,0.32808 3.72883,0.52211 v 4.47671 c -1.10065,-0.17286 -2.37417,-0.3175 -3.82761,-0.42333 -1.42874,-0.13053 -2.89275,-0.2293 -4.38852,-0.2928 -1.49577,-0.067 -2.91392,-0.0988 -4.25799,-0.0988 -2.33185,0 -4.21214,0.10936 -5.64088,0.32808 -1.42874,0.19756 -2.57526,0.56797 -3.4325,1.11124 -0.92427,0.54328 -1.50635,1.3088 -1.74976,2.28951 -0.21873,0.98072 -0.33161,2.15899 -0.33161,3.53128 0,1.63335 0.10936,2.9104 0.33161,3.82409 0.24341,0.89252 0.74788,1.52398 1.51693,1.8944 0.79021,0.34925 1.96848,0.59972 3.53128,0.75141 3.53128,0.40216 7.06255,0.80785 10.59031,1.21002 1.51693,0.10936 2.85042,0.30338 3.99341,0.58913 1.16416,0.26106 2.16604,0.70908 3.00212,1.34055 0.85724,0.63146 1.49576,1.5381 1.91204,2.71284 0.26458,0.58913 0.45155,1.24177 0.56091,1.96143 0.13053,0.69849 0.2293,1.48165 0.29633,2.35301 0.067,0.85019 0.0988,1.79915 0.0988,2.84337 0,2.37417 -0.22931,4.34618 -0.69144,5.91603 -0.46214,1.56985 -1.12183,2.8222 -1.97907,3.76059 -0.83608,0.91368 -1.86971,1.6016 -3.10089,2.0602 -1.21002,0.45861 -2.57526,0.74083 -4.09219,0.85019 -1.49577,0.13053 -3.1009,0.19756 -4.81891,0.19756 m 34.91062,-0.49036 V 201.95263 H 133.2794 v -4.77304 h 32.99506 v 4.77304 H 152.4492 v 38.41016 h -5.44332 m 22.11548,-0.64911 c 0.45155,-1.19943 0.83607,-1.90851 0.98777,-2.30362 0.26458,-1.11124 0.70202,-2.09196 1.36876,-2.89981 0.381,-0.51153 0.71614,-1.19591 1.11477,-2.37418 0.58208,-1.63687 1.11477,-2.26481 1.40758,-2.61053 0.21519,-0.59267 0.28574,-0.74083 0.89957,-1.82738 0.33161,-0.91369 0.87136,-1.77093 0.97013,-2.04609 0.58208,-1.25588 1.01247,-2.25777 1.41463,-3.21379 0.74083,-1.23118 1.09008,-1.76387 1.60866,-2.85042 0.40922,-0.93133 0.44097,-1.55574 0.40569,-2.14134 -0.0494,-0.17992 -0.0811,-0.51153 -0.71261,-1.6898 -0.44449,-0.7373 -2.9492,-3.16439 -3.5595,-5.91251 1.60866,-2.47648 5.53504,-2.53998 7.02023,-2.39534 0.61383,-0.0106 0.78669,-0.15522 1.42521,-0.72319 0.42686,-1.16769 1.05832,-2.82573 1.68979,-4.02164 0.55033,-1.12182 0.7373,-1.90145 0.88194,-2.50823 0.26458,-0.74435 0.19755,-2.41298 1.62982,-3.0127 -0.0706,-2.42003 1.23118,-3.21731 1.40052,-3.26669 0.28222,-0.0106 2.04256,1.3476 1.26293,2.90334 2.03199,2.50823 2.39887,4.22624 2.82926,5.72201 0.6491,1.46401 1.4746,3.0515 2.32126,4.9706 0.42686,1.00188 0.74435,1.49929 1.01599,1.91557 0.66322,0.39158 1.26999,0.80785 2.22601,1.37229 1.15358,0.63147 2.65287,1.78152 4.06044,3.97578 -0.68438,2.31773 -2.42003,4.10983 -2.76223,4.87888 -0.06,0.23283 -0.0282,0.89252 0.0141,2.57526 1.01599,1.88029 1.66509,3.23142 2.23659,4.67074 0.11642,0.32455 0.45861,0.91721 0.7373,1.65451 0.29986,0.66322 0.57855,1.36524 0.75847,1.77094 0.18697,0.3316 0.30338,0.50446 0.7761,1.52398 0.53975,0.65969 1.13594,1.89793 1.54163,3.17851 0.82902,1.6404 1.68274,3.28081 2.99153,6.50164 -2.59995,-2.00376 -3.44308,-2.2507 -4.65663,-3.7253 0.16228,-0.34572 -1.22766,-0.508 -1.31232,-0.84313 -0.49036,-0.68792 -0.9278,-1.17475 -1.63688,-1.62983 -1.95085,-0.83607 -2.44473,-1.50282 -2.98448,-2.38828 -0.58208,-0.9913 -0.6491,-1.20297 -0.82196,-1.59102 -1.78857,-0.74788 -3.45367,-1.90851 -4.91063,-3.2667 -1.29822,-0.91016 -2.27893,-1.62629 -2.38829,-1.64746 -1.49577,0.88547 -3.09737,2.16252 -4.56844,3.37606 -1.34407,0.68439 -2.67756,1.00541 -4.03927,1.25235 -0.29633,0.49036 -0.89605,1.45344 -1.50283,2.51176 -3.12911,0.96308 -3.29844,1.08302 -4.0428,1.63688 -1.1183,0.84666 -1.9579,1.43932 -2.75517,2.02493 -0.254,0.32808 -1.09008,1.25588 -1.19238,1.40404 -0.381,-0.0423 -1.59455,0.42686 -3.14676,1.06538 m 13.72648,-14.49905 c 0.16581,-0.0247 0.30339,-0.0776 0.88547,-0.51505 1.53457,-0.8008 3.38311,-1.69333 6.52987,-2.91746 1.72154,0.42333 3.35136,1.68274 4.47319,2.51529 1.09007,1.04422 1.90851,1.54163 2.61759,1.7921 -1.7533,-5.33749 -2.35301,-8.72766 1.57337,-10.99247 0.0282,-0.56092 -1.81679,-1.47108 -3.94755,-2.51529 -1.65099,-1.29821 -2.50823,-3.31609 -3.43956,-5.16463 -1.0301,-1.5134 -1.96495,-3.14675 -2.93509,-5.15757 -0.19402,-0.0212 2.69873,0.0847 2.36712,0.18697 -1.10418,2.8222 -2.44825,5.41157 -4.57902,8.39958 -3.85936,1.00893 -5.42568,1.34407 -5.42921,1.37935 0.9278,1.27704 3.5842,3.66533 3.3937,5.60912 -0.65263,3.14323 -0.9666,6.17004 -1.5134,7.38358 m 35.10112,15.14817 v -43.1832 h 20.03057 c 2.74812,0 4.92827,0.32808 6.5334,0.98071 1.62629,0.65263 2.82573,1.58043 3.5983,2.77987 0.79022,1.17827 1.3088,2.56115 1.55221,4.15216 0.26459,1.59102 0.39511,3.28081 0.39511,5.06585 0,1.56985 -0.14464,3.18203 -0.43038,4.83655 -0.26459,1.63335 -0.86783,3.12559 -1.81327,4.47672 -0.94544,1.32996 -2.43062,2.31067 -4.45555,2.94214 1.22766,2.99153 2.45179,5.98307 3.67945,8.9746 1.22765,2.99153 2.45178,5.98307 3.67944,8.9746 h -5.84195 c -1.20297,-3.02328 -2.40946,-6.04657 -3.61242,-9.06985 -1.20297,-3.02328 -2.40946,-6.04657 -3.61242,-9.06985 0.50447,0.25047 1.01247,0.50094 1.51693,0.75141 -0.28574,0.0882 -0.6491,0.1517 -1.09007,0.19756 -0.41628,0.0423 -0.97719,0.067 -1.68274,0.067 h -12.99976 v 17.13076 h -5.44332 m 5.44332,-21.83678 h 12.24129 c 2.11313,0 3.76059,-0.16227 4.94944,-0.49035 1.21002,-0.34925 2.09901,-0.87136 2.67404,-1.56985 0.57149,-0.71966 0.93485,-1.59102 1.09007,-2.61407 0.17639,-1.02304 0.26458,-2.25423 0.26458,-3.69355 0,-1.43932 -0.0776,-2.63523 -0.2293,-3.66181 -0.13053,-1.02305 -0.46214,-1.87323 -0.9913,-2.55056 -0.52916,-0.6985 -1.37582,-1.2206 -2.53998,-1.56985 -1.16416,-0.37042 -2.76223,-0.55739 -4.78363,-0.55739 h -12.6717 v 16.70391 m 51.31114,22.32713 c -1.5628,0 -3.27728,-0.0423 -5.14699,-0.13052 -1.84854,-0.067 -3.65122,-0.16228 -5.41157,-0.29281 -1.76035,-0.13052 -3.35489,-0.28222 -4.78363,-0.4586 v -4.5755 c 1.51693,0.13053 3.11147,0.26106 4.78363,0.39158 1.67215,0.13053 3.29845,0.23989 4.88241,0.32808 1.58396,0.067 2.9245,0.0988 4.02516,0.0988 2.24365,0 4.03575,-0.0882 5.37982,-0.26105 1.34055,-0.19756 2.48706,-0.56797 3.4325,-1.11124 0.61736,-0.37042 1.06538,-0.87136 1.35113,-1.50283 0.30692,-0.63146 0.49389,-1.36171 0.56091,-2.19073 0.067,-0.85019 0.0988,-1.75329 0.0988,-2.71284 0,-1.41816 -0.0423,-2.56115 -0.13053,-3.4325 -0.0882,-0.89252 -0.30691,-1.58044 -0.65969,-2.06021 -0.35277,-0.47977 -0.93485,-0.82902 -1.74976,-1.04774 -0.79022,-0.23989 -1.86971,-0.42333 -3.23495,-0.55739 -3.60889,-0.39158 -7.21425,-0.78316 -10.82314,-1.17827 -2.02493,-0.26105 -3.65122,-0.68791 -4.88241,-1.27351 -1.21002,-0.6103 -2.1237,-1.38288 -2.73753,-2.32126 -0.61736,-0.95955 -1.03363,-2.09196 -1.25235,-3.40076 -0.19756,-1.32996 -0.29633,-2.81161 -0.29633,-4.44496 0,-2.63523 0.34219,-4.75188 1.02304,-6.3429 0.70555,-1.59101 1.72507,-2.80103 3.06915,-3.63006 1.36524,-0.82902 3.00211,-1.37229 4.91768,-1.63334 1.93674,-0.28222 4.14511,-0.42333 6.63217,-0.42333 1.60513,0 3.24554,0.0423 4.91769,0.13052 1.69332,0.067 3.28786,0.17286 4.78363,0.32808 1.51693,0.1517 2.76223,0.32808 3.72883,0.52211 v 4.47672 c -1.10066,-0.17286 -2.37417,-0.3175 -3.82761,-0.42333 -1.42874,-0.13053 -2.89275,-0.22931 -4.38852,-0.29281 -1.49577,-0.067 -2.91392,-0.0988 -4.25799,-0.0988 -2.33185,0 -4.21214,0.10936 -5.64088,0.32808 -1.42874,0.19755 -2.57526,0.56797 -3.4325,1.11124 -0.92427,0.54327 -1.50635,1.30879 -1.74977,2.28951 -0.21872,0.98071 -0.3316,2.15898 -0.3316,3.53128 0,1.63335 0.10936,2.91039 0.3316,3.82408 0.24342,0.89252 0.74789,1.52399 1.51694,1.8944 0.79021,0.34925 1.96848,0.59972 3.53128,0.75141 3.53128,0.40217 7.06255,0.80786 10.59031,1.21002 1.51693,0.10936 2.85042,0.30339 3.99341,0.58914 1.16416,0.26105 2.16604,0.70908 3.00212,1.34054 0.85724,0.63147 1.49576,1.5381 1.91204,2.71284 0.26458,0.58914 0.45155,1.24177 0.56091,1.96143 0.13053,0.6985 0.2293,1.48166 0.29633,2.35301 0.067,0.85019 0.0988,1.79916 0.0988,2.84337 0,2.37418 -0.22931,4.34619 -0.69144,5.91604 -0.46214,1.56985 -1.12183,2.8222 -1.97907,3.76058 -0.83608,0.91369 -1.86971,1.6016 -3.10089,2.06021 -1.21002,0.45861 -2.57526,0.74083 -4.09219,0.85019 -1.49577,0.13052 -3.1009,0.19755 -4.81891,0.19755"
       id="path17607"
       style="fill:#010101;stroke-width:0.352775" />
  </g>
</svg>
