<?xml version="1.0" encoding="UTF-8" standalone="no"?>
<svg
   version="1.1"
   width="600"
   height="300"
   id="svg30778"
   sodipodi:docname="intro7.svg"
   xml:space="preserve"
   inkscape:version="1.2.2 (732a01da63, 2022-12-09)"
   xmlns:inkscape="http://www.inkscape.org/namespaces/inkscape"
   xmlns:sodipodi="http://sodipodi.sourceforge.net/DTD/sodipodi-0.dtd"
   xmlns="http://www.w3.org/2000/svg"
   xmlns:svg="http://www.w3.org/2000/svg"><sodipodi:namedview
     id="namedview30780"
     pagecolor="#ffffff"
     bordercolor="#000000"
     borderopacity="0.25"
     inkscape:showpageshadow="2"
     inkscape:pageopacity="0.0"
     inkscape:pagecheckerboard="0"
     inkscape:deskcolor="#d1d1d1"
     showgrid="false"
     inkscape:zoom="1.7116667"
     inkscape:cx="115.38461"
     inkscape:cy="300.87633"
     inkscape:window-width="2560"
     inkscape:window-height="1377"
     inkscape:window-x="-8"
     inkscape:window-y="-8"
     inkscape:window-maximized="1"
     inkscape:current-layer="svg30778"
     showguides="true"><sodipodi:guide
       position="595.32618,-221.71372"
       orientation="1,0"
       id="guide30846"
       inkscape:locked="false" /></sodipodi:namedview><defs
     id="defs30772" /><path
     class="f"
     d="m 113.57411,134.66327 c -1.55034,-14.94188 -2.24611,-17.6186 -2.70743,-20.15648 0.0302,-3.46355 0.24201,-6.64169 0.121,-6.8114 -1.86798,-0.63254 -5.6493,-0.53997 -10.47428,-0.37799 -4.80985,-0.3934 -11.3213,-1.15708 -17.71174,-1.90533 -7.653411,-0.0386 -14.868183,-2.56102 -19.972981,-4.08838 -1.905787,1.14166 -1.981412,1.42708 -0.393253,9.54984 -2.714994,7.71393 -4.620786,14.4019 -6.398011,20.75046 -1.399092,3.39412 -2.662056,6.91938 -3.554448,10.23637 -1.141963,3.13186 -2.389799,6.96567 -3.244377,10.15924 -2.004106,4.44322 -2.888938,7.40537 -2.47299,9.94325 0.695766,3.23213 1.807473,6.62626 3.493945,9.77354 1.610848,2.939 4.106526,5.28404 7.154275,7.04281 2.881371,2.20619 5.573676,3.73354 9.96002,4.96005 4.900598,2.29876 7.933225,6.04001 8.341606,6.27914 3.735954,0.30084 8.160104,0.26227 12.017064,2.23704 -5.5888,-1.24965 -0.76383,-1.79735 2.97968,-1.41165 3.69059,0.51684 9.98272,-1.1648 12.28933,-2.64588 2.77549,-1.37308 4.8401,-3.2167 7.23745,-5.63887 2.11755,-2.69987 3.44101,-5.43832 4.74179,-8.57017 1.17221,0.57083 1.89823,0.7791 2.85869,1.09538 -0.52183,3.7721 -2.27636,7.0428 -4.2124,9.7504 -1.78479,2.27561 -3.84939,4.39693 -6.29969,6.02457 -4.42416,2.69987 -13.19684,5.56945 -18.27895,4.6515 -2.96456,0.50911 -5.9745,7.49022 -6.26944,7.45165 -2.835997,0 -5.263611,0.1697 -13.43884,1.17251 -1.694039,-9.48041 -2.881371,-10.19009 -5.203111,-12.03372 -2.321734,-1.43479 -5.27117,-2.36045 -8.099604,-3.63326 -2.374671,-1.26508 -4.651034,-2.83872 -7.08621,-4.74406 -2.0041,-1.94391 -4.046021,-4.07295 -5.664428,-6.37942 -1.573032,-2.83872 -2.873811,-5.30717 -4.310713,-7.89134 -0.899959,-2.83101 -1.799913,-5.2069 -2.215861,-7.92991 -1.104146,-4.61293 -1.036082,-6.67256 -0.40082,-10.49094 0.665512,-2.92357 1.625968,-5.90887 3.289758,-9.18728 1.05121,-3.02386 2.389799,-5.5926 3.81914,-8.3619 1.157084,-2.92357 2.306607,-5.55403 3.463697,-8.32333 1.16465,-3.06242 2.336861,-5.69287 3.335134,-8.55473 1.20246,-3.04701 2.072165,-6.33314 3.274625,-10.04353 -0.28738,-2.53789 -0.703327,-5.94744 0.960463,-8.138204 4.083831,-2.63045 8.432359,-2.73844 12.546445,-2.44531 4.431714,-0.24685 9.19619,-0.0617 14.868175,1.34222 7.3131,1.20338 14.28587,2.14447 20.79732,3.532984 4.59809,0.71739 8.95418,1.6045 11.78262,4.86748 -0.35545,-0.10027 -1.04365,0.0617 -1.89824,0.23142 -0.12856,-0.8331 -0.32519,-1.54278 -0.43106,-2.55331 1.09658,0.0926 2.71499,0.47826 3.91745,1.40394 0.83945,1.3268 0.93021,3.54069 -1.14952,7.49022 -0.19663,3.45584 0.23444,6.88854 2.4503,23.40405 -0.82433,0.1697 -2.64693,-0.76368 -3.83427,-1.03367 m 21.78045,63.30046 v -4.6515 c 3.55445,-0.20055 5.96693,-1.03366 7.2299,-2.51473 1.3159,-1.48108 2.04192,-3.49441 2.19318,-6.05543 0.14369,-2.60731 0.21931,-5.59259 0.21931,-8.94044 v -61.24084 c 0,-1.87449 0.0453,-3.67183 0.1437,-5.39204 0.0983,-1.7742 0.19662,-3.37099 0.29494,-4.79806 l -5.11236,0.29313 c -1.65622,0.10028 -3.31244,0.16971 -4.96867,0.2237 v -6.201994 h 31.55897 v 4.651494 c -3.45613,0.10029 -5.86862,0.91024 -7.22989,2.43761 -1.36128,1.52735 -2.11755,3.57154 -2.26124,6.13257 -0.1437,2.51473 -0.21932,5.49231 -0.21932,8.94043 v 23.4889 h 50.18578 V 114.5685 c 0,-1.87448 0.0453,-3.67183 0.1437,-5.39204 0.0983,-1.77419 0.19662,-3.37098 0.29494,-4.79806 -1.65622,0.10028 -3.33514,0.20057 -5.03673,0.29314 -1.65622,0.10028 -3.33513,0.16969 -5.03673,0.2237 v -6.202004 h 31.55897 v 4.651504 c -3.45614,0.10028 -5.86862,0.91024 -7.2299,2.43759 -1.36128,1.52737 -2.11755,3.57156 -2.26124,6.13257 -0.0983,2.51474 -0.1437,5.49232 -0.1437,8.94045 v 60.2766 c 0,2.51474 -0.0227,4.7055 -0.0756,6.57226 -0.0453,1.8205 -0.17395,3.34785 -0.36302,4.58207 l 4.96867,-0.29313 c 1.7016,-0.10027 3.41076,-0.1697 5.11236,-0.22369 v 6.20198 h -31.55896 v -4.65149 c 3.55445,-0.20055 5.98963,-1.03367 7.30553,-2.51474 1.3159,-1.48107 2.01922,-3.4944 2.11754,-6.05542 0.1437,-2.60732 0.21932,-5.5926 0.21932,-8.94045 v -25.77993 c -16.7286,0.20056 -33.45719,0.39341 -50.18578,0.59397 v 30.50857 c 0,2.51474 -0.0227,4.7055 -0.0756,6.57226 -0.0453,1.8205 -0.17396,3.34785 -0.36301,4.58207 1.70159,-0.10027 3.38806,-0.20055 5.03673,-0.29313 1.70159,-0.10027 3.41075,-0.1697 5.11234,-0.22369 v 6.20198 h -31.559 m 156.3201,-36.71827 c 0,-4.18867 -0.55964,-7.16624 -1.67891,-8.94044 -1.11926,-1.82048 -2.8965,-2.90815 -5.33166,-3.24756 -2.43519,-0.39341 -5.67199,-0.49369 -9.71802,-0.29313 -3.41076,0.14657 -6.81397,0.29313 -10.22471,0.43969 v 32.42934 c 0,2.56102 -0.0228,4.75178 -0.0757,6.57226 -0.0454,1.77421 -0.17386,3.27842 -0.363,4.50494 8.93905,-0.14658 17.87056,-0.29314 26.80962,-0.4397 4.13677,-0.10028 7.69121,-0.78682 10.66335,-2.06733 2.97211,-1.28051 5.30898,-3.51755 7.01056,-6.71883 1.70161,-3.20127 2.55618,-7.58278 2.55618,-13.15224 h 4.74936 c -0.29494,9.21043 -0.58233,18.42086 -0.87727,27.63127 h -72.3141 v -4.65149 c 3.55445,-0.20055 5.96694,-1.03367 7.2299,-2.51474 1.3159,-1.48107 2.04192,-3.4944 2.19317,-6.05542 0.14362,-2.60732 0.21932,-5.5926 0.21932,-8.94045 V 114.5685 c 0,-1.87448 0.0454,-3.67183 0.14364,-5.39204 0.0984,-1.77419 0.19658,-3.37098 0.29496,-4.79806 l -5.11237,0.29314 c -1.65622,0.10028 -3.31244,0.16969 -4.96867,0.2237 v -6.202004 h 67.4211 c 0.24199,8.277054 0.48399,16.546374 0.73357,24.823404 h -4.67372 c 0,-5.56173 -0.85459,-9.77353 -2.55618,-12.6354 -1.65622,-2.90815 -3.91746,-4.85206 -6.79126,-5.83944 -2.82087,-1.03366 -6.01233,-1.50422 -9.56677,-1.40393 l -12.05487,0.29312 c -3.45615,0.10029 -5.94426,0.76369 -7.44922,1.99791 -1.45961,1.23423 -2.35956,3.05472 -2.69988,5.46917 -0.34032,2.41447 -0.51424,5.56174 -0.51424,9.45728 v 22.67893 c 8.78779,0.0463 17.58317,0.10028 26.37097,0.14657 -0.31763,-4.06523 -0.63527,-8.12276 -0.95288,-12.188 h 6.1333 v 29.76803 h -4.60566 m 88.82341,0 c 0,-4.18865 -0.55963,-7.16623 -1.67892,-8.94043 -1.11927,-1.82049 -2.89649,-2.90815 -5.33166,-3.24756 -2.43517,-0.39341 -5.672,-0.49369 -9.718,-0.29313 -3.41078,0.14657 -6.82154,0.29313 -10.22472,0.4397 v 32.42933 c 0,2.56103 -0.0228,4.75178 -0.0757,6.57227 -0.0454,1.7742 -0.17385,3.27841 -0.363,4.50493 8.93907,-0.14657 17.87055,-0.29313 26.8096,-0.4397 4.13678,-0.10027 7.69125,-0.78682 10.66335,-2.06733 2.97214,-1.28051 5.30901,-3.51755 7.01059,-6.71883 1.7016,-3.20128 2.55619,-7.58278 2.55619,-13.15224 h 4.74934 c -0.29496,9.21043 -0.58232,18.42085 -0.87727,27.63128 H 331.6961 v -4.6515 c 3.55444,-0.20056 5.96694,-1.03366 7.2299,-2.51474 1.3159,-1.48107 2.04191,-3.49441 2.19317,-6.05543 0.14363,-2.6073 0.21931,-5.59259 0.21931,-8.94043 v -61.24086 c 0,-1.87448 0.0454,-3.67182 0.14363,-5.39203 0.0984,-1.77421 0.19658,-3.37099 0.29493,-4.79806 l -5.11234,0.29313 c -1.65621,0.10028 -3.31244,0.16971 -4.96867,0.2237 v -6.201994 h 67.42109 c 0.242,8.277034 0.48402,16.546364 0.73357,24.823414 h -4.67372 c 0,-5.56174 -0.85457,-9.77355 -2.55618,-12.63541 -1.65621,-2.90816 -3.91745,-4.85206 -6.79127,-5.83944 -2.82087,-1.03367 -6.01231,-1.50422 -9.56675,-1.40394 l -12.05488,0.29313 c -3.45613,0.10028 -5.94424,0.76368 -7.44921,1.99791 -1.45959,1.23423 -2.35955,3.05471 -2.69987,5.46917 -0.34033,2.41445 -0.51426,5.56174 -0.51426,9.45727 V 143.542 c 8.78781,0.0463 17.58318,0.10027 26.37098,0.14657 -0.31762,-4.06525 -0.63527,-8.12277 -0.95288,-12.188 h 6.1333 v 29.76803 h -4.60566 m 40.02915,36.71828 v -4.65149 c 3.55444,-0.20056 5.96692,-1.03367 7.2299,-2.51474 1.3159,-1.48108 2.04191,-3.49441 2.19317,-6.05543 0.14364,-2.60731 0.21931,-5.5926 0.21931,-8.94044 v -61.24085 c 0,-1.87449 0.0454,-3.67183 0.14363,-5.39204 0.0984,-1.77419 0.19658,-3.37098 0.29495,-4.79806 -1.70159,0.10028 -3.41076,0.20056 -5.11237,0.29313 -1.65622,0.10028 -3.31243,0.1697 -4.96865,0.22371 v -6.202004 c 5.21066,-0.10028 10.49697,-0.20056 15.85134,-0.29313 5.40729,-0.10029 10.81458,-0.0463 16.21431,0.14656 9.10545,0.10029 16.43367,1.18023 21.98466,3.247564 5.55099,2.02105 9.64237,4.89835 12.27419,8.6396 2.63179,3.69497 3.94769,8.19991 3.94769,13.52251 0.0454,3.69497 -0.65794,7.45936 -2.11754,11.3009 -1.41422,3.79525 -4.01576,7.21252 -7.81978,10.26723 -3.79645,3.00072 -9.24912,5.26861 -16.36561,6.79597 1.89825,1.3268 3.53177,3.03157 4.89305,5.09891 1.41422,2.06732 3.0175,4.48178 4.81742,7.23565 3.19144,5.04491 6.38288,10.09753 9.56675,15.14245 1.55792,2.56101 3.09313,4.87519 4.60566,6.94252 1.51254,2.02105 3.23683,3.61783 5.188,4.79806 1.95115,1.18024 4.38634,1.7742 7.30552,1.7742 v 4.6515 H 483.1911 c -2.73012,-2.46074 -5.01404,-4.92148 -6.8669,-7.38994 -1.7999,-2.46074 -3.67543,-5.24546 -5.6266,-8.34646 -3.1385,-5.07576 -6.28456,-10.14381 -9.42307,-15.21958 -1.21759,-1.96705 -2.6091,-4.23494 -4.16703,-6.79596 -1.51252,-2.60731 -3.23682,-4.82892 -5.18798,-6.64941 -1.51254,0.10028 -3.09312,0.14657 -4.74935,0.14657 -1.65621,0 -3.21412,-0.0463 -4.8174,-0.14657 v 27.55414 c 0,2.51474 -0.0228,4.7055 -0.0757,6.57226 -0.0454,1.8205 -0.17386,3.34785 -0.363,4.58207 1.11926,-0.10027 2.23853,-0.1697 3.35782,-0.2237 1.11927,-0.0463 2.23854,-0.10028 3.35781,-0.14657 1.17221,-0.10028 2.31417,-0.14657 3.43345,-0.14657 v 6.202 H 420.5043 m 30.53043,-49.63911 c 5.16532,-0.20056 9.6651,-1.03366 13.51449,-2.51473 3.89476,-1.52737 6.96522,-3.94182 9.20376,-7.23566 2.23853,-3.34785 3.35781,-7.70622 3.35781,-13.07511 0,-3.59469 -0.48402,-6.74968 -1.45959,-9.45727 -0.97558,-2.70759 -2.5108,-4.95234 -4.60567,-6.71883 -2.04191,-1.7742 -4.65102,-3.10099 -7.81977,-3.98809 -3.16876,-0.93339 -6.88958,-1.40394 -11.17762,-1.40394 -3.45614,0 -5.86862,0.71739 -7.2299,2.14447 -1.36126,1.42707 -2.11755,3.40184 -2.26122,5.90887 -0.14363,2.46074 -0.21933,5.41517 -0.21933,8.86329 v 27.18387 c 1.51254,0.10029 2.94943,0.20056 4.31072,0.29313 1.36127,0.10028 2.82087,0.10028 4.38632,0 m 113.3718,-19.57794 c -0.29494,-4.52807 -1.36127,-8.81701 -3.21412,-12.8514 -1.85285,-4.08837 -4.55272,-7.41307 -8.10717,-9.9741 -3.55445,-2.56102 -8.10717,-3.84154 -13.65816,-3.84154 -5.551,0 -10.22471,1.65079 -13.29515,4.95234 -3.07044,3.30156 -4.60566,7.18938 -4.60566,11.67118 0,3.9418 1.11927,7.26651 3.35783,9.9741 2.23854,2.70759 5.16529,5.07576 8.76512,7.08909 3.60739,2.02106 7.40383,3.98811 11.39691,5.90888 3.55444,1.57363 7.1089,3.30155 10.66336,5.16832 3.55444,1.82049 6.76857,3.91868 9.64237,6.27914 2.91919,2.36046 5.23337,5.19918 6.94253,8.49302 1.75454,3.24757 2.63181,7.1431 2.63181,11.67117 0,5.22233 -1.29322,9.87382 -3.87208,13.96221 -2.5335,4.04209 -6.23163,7.21252 -11.10199,9.52669 -4.87034,2.31418 -10.81461,3.47126 -17.82518,3.47126 -4.23509,0 -8.59875,-0.6171 -13.07582,-1.84362 -4.4771,-1.23423 -8.44749,-3.03157 -11.90363,-5.39204 0.24199,2.02106 0.48399,4.0421 0.73358,6.05544 h -7.30553 c -0.29494,-10.07438 -0.58233,-20.14105 -0.87727,-30.21545 h 5.47536 c 0.48402,8.32333 3.33512,14.64875 8.5458,18.98398 5.25606,4.28122 11.59354,6.4257 18.98982,6.4257 3.6074,0 6.94253,-0.68654 10.00541,-2.06734 3.1158,-1.38079 5.57367,-3.37098 7.38114,-5.986 1.85285,-2.66131 2.77551,-5.88573 2.77551,-9.68098 0,-4.23494 -1.11929,-7.78335 -3.35782,-10.6375 -2.23856,-2.85415 -5.13503,-5.3226 -8.6895,-7.38994 -3.55444,-2.06733 -7.35089,-4.0421 -11.39692,-5.90887 -3.55444,-1.62763 -7.06352,-3.32469 -10.51965,-5.09891 -3.45613,-1.82047 -6.62489,-3.88781 -9.49871,-6.20199 -2.82086,-2.31417 -5.11235,-5.07576 -6.86688,-8.27703 -1.7016,-3.24756 -2.55617,-7.1431 -2.55617,-11.67117 0,-2.46075 0.41593,-5.0989 1.24027,-7.90678 0.87726,-2.85415 2.35955,-5.59259 4.4544,-8.1999 2.09486,-2.6073 4.99135,-4.72863 8.6895,-6.356274 3.69814,-1.67392 8.4021,-2.51474 14.09679,-2.51474 3.55445,0 7.54752,0.51683 11.97923,1.5505 4.43174,0.98738 8.56851,2.877294 12.41789,5.685164 -0.19659,-2.02105 -0.39326,-4.042104 -0.58231,-6.055434 h 7.16184 v 31.171984 h -5.03675"
     id="path17627"
     style="fill:#010101;stroke-width:0.76379" /></svg>
