<?xml version="1.0" encoding="UTF-8" standalone="no"?>
<!-- Created with Inkscape (http://www.inkscape.org/) -->

<svg
   width="100.16632mm"
   height="28.177902mm"
   viewBox="0 0 100.16632 28.177902"
   version="1.1"
   id="svg17659"
   inkscape:export-filename="intro9.svg"
   inkscape:export-xdpi="300"
   inkscape:export-ydpi="300"
   xmlns:inkscape="http://www.inkscape.org/namespaces/inkscape"
   xmlns:sodipodi="http://sodipodi.sourceforge.net/DTD/sodipodi-0.dtd"
   xmlns="http://www.w3.org/2000/svg"
   xmlns:svg="http://www.w3.org/2000/svg">
  <sodipodi:namedview
     id="namedview17661"
     pagecolor="#ffffff"
     bordercolor="#000000"
     borderopacity="0.25"
     inkscape:showpageshadow="2"
     inkscape:pageopacity="0.0"
     inkscape:pagecheckerboard="0"
     inkscape:deskcolor="#d1d1d1"
     inkscape:document-units="mm"
     showgrid="false" />
  <defs
     id="defs17656" />
  <g
     inkscape:label="שכבה 1"
     inkscape:groupmode="layer"
     id="layer1"
     transform="translate(-48.172593,-168.75883)">
    <path
       class="d"
       d="m 57.30564,193.64135 c -0.155216,-0.70553 -0.275156,-1.3017 -0.359819,-1.78146 -0.08466,-0.47976 -0.148161,-0.91365 -0.190492,-1.29464 -0.02822,-0.38098 -0.04233,-0.73022 -0.04233,-1.04065 0,-0.31043 -0.0071,-0.67025 -0.02117,-1.04066 -0.01411,-0.38098 -0.04939,-0.81488 -0.105829,-1.29464 -0.05644,-0.49387 -0.13405,-1.10415 -0.232824,-1.82379 -0.08466,-0.52209 -0.275156,-0.88543 -0.575005,-1.08298 -0.282211,-0.19755 -0.617336,-0.30338 -0.998321,-0.31749 -0.380985,-0.0141 -0.786663,0.0141 -1.213507,0.0847 -0.412734,0.0565 -0.793719,0.0847 -1.146483,0.0847 -0.352763,0 -0.638502,-0.0776 -0.85016,-0.23283 -0.239879,-0.21165 -0.359819,-0.55736 -0.359819,-1.04065 0,-0.0564 0.05644,-0.12699 0.169326,-0.21166 0.126995,-0.0988 0.218714,-0.14816 0.275156,-0.14816 0.469176,-0.0423 0.927769,-0.0705 1.382834,-0.0847 0.455065,-0.0141 0.857216,-0.0847 1.213507,-0.21166 0.366874,-0.14111 0.673779,-0.37393 0.913658,-0.69847 0.211658,-0.36688 0.317488,-0.87133 0.317488,-1.5063 -0.211659,-1.3017 -0.310433,-2.41996 -0.296322,-3.35126 0.02822,-0.94893 -0.0071,-1.72501 -0.105829,-2.33529 -0.08466,-0.60676 -0.310432,-1.01949 -0.680834,-1.23115 -0.395095,-0.23988 -1.075929,-0.29632 -2.042502,-0.16933 H 51.82369 c -0.25399,0 -0.525618,0.007 -0.807829,0.0212 -0.268101,0.0141 -0.532673,0.0212 -0.786663,0.0212 h -0.532671 c -0.05644,0.0564 -0.183438,0.12699 -0.380985,0.21165 -0.197548,0.0706 -0.324543,0.11994 -0.380985,0.14816 h -0.126995 c -0.04233,0.0282 -0.07761,0.0423 -0.105829,0.0423 l -0.08466,-0.0423 h -0.08466 c -0.05644,-0.0564 -0.119939,-0.17638 -0.190492,-0.35981 -0.08466,-0.18344 -0.141106,-0.31044 -0.169327,-0.38099 v -0.21166 c 0.380985,-0.36687 1.033598,-0.69141 1.954311,-0.97715 0.934824,-0.29632 2.042502,-0.55031 3.315979,-0.7655 1.277005,-0.21166 2.670422,-0.36687 4.187306,-0.46565 1.516884,-0.11288 3.033768,-0.16227 4.550652,-0.14816 1.530994,0.0141 3.026712,0.11994 4.487154,0.31749 1.474552,0.19755 2.776251,0.4727 3.91215,0.82899 1.146482,0.35277 2.091889,0.829 2.829165,1.42164 0.751387,0.60675 1.160592,1.30875 1.234673,2.09894 -0.850161,0 -1.679156,-0.10582 -2.486984,-0.31748 -0.807829,-0.21166 -1.622714,-0.45154 -2.444653,-0.72317 -0.821939,-0.27163 -1.650934,-0.50798 -2.486984,-0.72316 -0.83605,-0.21166 -1.707377,-0.31749 -2.613979,-0.31749 H 63.67656 c -0.412734,-0.0141 -0.885437,-0.0282 -1.425166,-0.0423 -0.525618,-0.0141 -1.068874,0 -1.636823,0.0423 -0.553839,0.0282 -1.068874,0.10583 -1.552161,0.23282 -0.469175,0.11289 -0.85016,0.28221 -1.146482,0.50798 -0.296321,0.22577 -0.44801,0.52209 -0.44801,0.89249 0,0.3951 -0.02822,0.94188 -0.08466,1.6333 -0.04233,0.69142 -0.04939,1.40753 -0.02117,2.14128 0.02822,0.72316 0.11994,1.40047 0.275156,2.03544 0.155216,0.63498 0.44801,1.10415 0.871326,1.40048 h 1.509829 c 1.996643,-0.16933 3.6123,-0.21166 4.846973,-0.127 1.234674,0.0847 2.113055,0.24694 2.635145,0.48681 0.539729,0.22577 0.737277,0.49387 0.596171,0.80783 -0.141105,0.31044 -0.596171,0.5997 -1.361668,0.87133 -0.751387,0.25399 -1.80615,0.46565 -3.167818,0.63497 -1.347557,0.16933 -2.970271,0.23283 -4.868139,0.1905 0.05644,1.18881 0.112884,2.12011 0.169326,2.80094 0.05644,0.67731 0.112885,1.20998 0.169327,1.59097 0.07055,0.38098 0.13405,0.68436 0.190492,0.91365 0.05644,0.2293 0.11994,0.49387 0.190493,0.80783 0.08466,0.29632 0.14816,0.70553 0.190492,1.23115 0.05644,0.50798 0.112884,1.26642 0.169327,2.2718 -0.366875,-0.0423 -0.716111,-0.0706 -1.040653,-0.0847 -0.310432,-0.0141 -0.58206,-0.0212 -0.807829,-0.0212 -0.225769,0 -0.405679,-0.0141 -0.532673,-0.0423 -0.112885,-0.0282 -0.141106,-0.0706 -0.08466,-0.127 m 20.55907,-8.06418 c 0.183437,1.18882 0.405678,2.28591 0.659668,3.28776 0.25399,0.99127 0.44801,1.85906 0.575005,2.61045 0.141105,0.73728 0.183437,1.32992 0.126995,1.78146 -0.05644,0.43742 -0.317488,0.71258 -0.786663,0.82899 -0.05644,0.15522 -0.169327,0.0635 -0.338653,-0.27515 -0.155217,-0.35277 -0.338654,-0.87838 -0.55384,-1.5698 -0.211658,-0.70553 -0.440954,-1.54863 -0.680833,-2.52579 -0.225769,-0.99127 -0.455066,-2.02839 -0.680834,-3.11843 -0.225769,-1.10415 -0.440955,-2.23652 -0.638503,-3.39359 -0.183437,-1.1747 -0.331598,-2.29296 -0.44801,-3.35125 -0.112884,-1.06182 -0.169326,-2.0284 -0.169326,-2.90678 0,-0.87838 0.07761,-1.60507 0.232824,-2.18713 0.310432,-0.23988 0.59617,-0.29632 0.85016,-0.16933 0.25399,0.11289 0.455066,0.30338 0.596171,0.57148 0.155216,0.25399 0.25399,0.55737 0.296322,0.91366 0,0.33865 -0.02117,0.65614 -0.0635,0.95599 0.01411,0.0988 0.05644,0.29632 0.126995,0.59264 0.07055,0.28221 0.141105,0.59264 0.211658,0.93482 0.08466,0.32455 0.162272,0.63498 0.232824,0.93483 0.08466,0.28221 0.155216,0.47976 0.211659,0.59264 0.366874,-0.0564 0.913658,-0.12699 1.636823,-0.21166 0.737276,-0.0988 1.530995,-0.23282 2.381155,-0.40215 0.850161,-0.16933 1.721487,-0.37393 2.613979,-0.61381 0.892493,-0.23988 1.693266,-0.51503 2.402321,-0.82899 0.723166,-0.32454 1.319337,-0.69847 1.784985,-1.12532 0.469176,-0.42331 0.702,-0.9066 0.702,-1.4428 0,-0.0423 -0.01411,-0.10583 -0.04233,-0.19049 v -0.127 c -0.737276,-0.85016 -1.495718,-1.53452 -2.275326,-2.05661 -0.765497,-0.5362 -1.580381,-0.92777 -2.444653,-1.16765 -0.864271,-0.25399 -1.777929,-0.41626 -2.740974,-0.48681 -0.948934,-0.0847 -1.968421,-0.127 -3.061989,-0.127 -0.793718,0 -1.629768,0.007 -2.50815,0.0212 -0.878382,0 -1.68621,0.10583 -2.423487,0.31748 -0.723165,0.21166 -1.326391,0.5997 -1.80615,1.16765 -0.483286,0.55031 -0.723165,1.35814 -0.723165,2.41996 -0.225769,0 -0.440955,-0.0776 -0.638503,-0.23282 -0.183437,-0.15522 -0.345708,-0.34571 -0.490341,-0.57148 -0.126995,-0.22577 -0.225769,-0.46565 -0.296322,-0.72317 -0.08466,-0.25399 -0.126995,-0.4727 -0.126995,-0.65614 0,-0.36687 0.08466,-0.71258 0.25399,-1.04065 0.155216,-0.33865 0.359819,-0.64203 0.617337,-0.91366 0.2681,-0.2681 0.560894,-0.50798 0.871326,-0.72316 0.324543,-0.22577 0.652613,-0.42332 0.977155,-0.59265 0.850161,-0.15521 1.601548,-0.28221 2.254161,-0.38098 0.652612,-0.11288 1.269949,-0.19755 1.848481,-0.25399 0.582061,-0.0705 1.167648,-0.11288 1.763819,-0.127 0.610281,-0.0141 1.28406,-0.0212 2.021336,-0.0212 0.737276,0 1.53805,0.0635 2.359989,0.19049 0.82194,0.11289 1.65799,0.28927 2.508151,0.52915 0.85016,0.22577 1.650934,0.5362 2.40232,0.93482 0.765498,0.38099 1.446332,0.85016 2.042502,1.40047 0.596171,0.5362 1.061819,1.1606 1.404,1.86612 0.352764,0.69142 0.532673,1.47808 0.532673,2.35646 0,0.7655 -0.239879,1.44281 -0.723165,2.03545 -0.483287,0.57853 -1.118261,1.08299 -1.91198,1.5063 -0.793718,0.42332 -1.679155,0.78667 -2.656311,1.08299 -0.963045,0.28221 -1.933145,0.5362 -2.913828,0.76549 -0.963045,0.22577 -1.869648,0.41627 -2.719808,0.57148 -0.850161,0.21166 -1.53805,0.3951 -2.063668,0.55031 1.319336,1.8379 2.62809,3.39359 3.933316,4.66707 1.305225,1.27347 2.52226,2.3494 3.658159,3.22426 1.146482,0.87838 2.190663,1.58391 3.125487,2.12011 0.934824,0.5362 1.693266,0.99832 2.275326,1.3793 0.58206,0.36688 0.948934,0.65614 1.10415,0.87133 0.169327,0.21166 0.04939,0.45154 -0.359819,0.72317 -0.282211,0.36687 -0.758442,0.45859 -1.425165,0.27515 -0.666724,-0.18344 -1.432221,-0.55031 -2.296492,-1.10415 -0.864271,-0.5362 -1.79204,-1.20998 -2.783306,-2.01428 -0.977155,-0.82194 -1.947255,-1.66152 -2.913828,-2.52579 -0.948934,-0.87838 -1.855537,-1.73912 -2.719808,-2.58928 -0.850161,-0.85016 -1.573326,-1.59097 -2.169497,-2.22947 m 16.008417,-2.2718 c -0.05644,-1.1747 0.09172,-2.26474 0.44801,-3.26659 0.366875,-1.00538 0.878382,-1.89434 1.530995,-2.67395 0.666723,-0.79372 1.481608,-1.42869 2.444653,-1.90845 0.948934,-0.42332 1.99664,-0.68436 3.14665,-0.78667 1.99665,0.29633 3.9051,0.80783 5.7183,1.52747 1.81321,0.70553 3.41476,1.61919 4.80465,2.73745 1.404,1.10415 2.54342,2.39879 3.4218,3.88393 0.87839,1.48513 1.37578,3.16076 1.48867,5.02688 -0.2681,1.37225 -0.81489,2.46229 -1.63683,3.26659 -0.82194,0.79372 -1.79204,1.40753 -2.91382,1.84496 -1.11827,0.42331 -2.31766,0.74433 -3.59114,0.95599 -1.277,0.19754 -2.44465,0.37393 -3.50647,0.52914 -1.64388,0 -3.16782,-0.2681 -4.57182,-0.80783 -1.38989,-0.55031 -2.585759,-1.3017 -3.591136,-2.25063 -0.991266,-0.96305 -1.770874,-2.12717 -2.338823,-3.49942 -0.56795,-1.38636 -0.850161,-2.91382 -0.850161,-4.5824 m 1.869648,-0.21166 c -0.02822,1.23115 0.225769,2.37763 0.765497,3.43592 0.553839,1.06182 1.269949,1.98606 2.148331,2.77978 0.878382,0.79372 1.855534,1.45692 2.934994,1.99312 1.09004,0.52209 2.18361,0.86427 3.27365,1.01948 0.36687,0 0.85722,-0.0282 1.4675,-0.0847 0.62439,-0.0705 1.29111,-0.17638 1.99664,-0.31749 0.72317,-0.15521 1.44633,-0.35276 2.1695,-0.59264 0.73727,-0.25399 1.404,-0.55737 1.99664,-0.91366 0.59617,-0.36687 1.08298,-0.79372 1.4675,-1.27347 0.39509,-0.49387 0.59617,-1.06182 0.59617,-1.6968 -0.18344,-1.32992 -0.58912,-2.51168 -1.21351,-3.54175 -0.62439,-1.03359 -1.38989,-1.94372 -2.29649,-2.73744 -0.9066,-0.80783 -1.89081,-1.48514 -2.95616,-2.03545 -1.06182,-0.55031 -2.11306,-0.99127 -3.14665,-1.31581 -1.0336,-0.33865 -2.0037,-0.56442 -2.91384,-0.6773 -0.9066,-0.0988 -1.65093,-0.0988 -2.232989,0 -0.82194,0.29632 -1.495719,0.68436 -2.021337,1.16764 -0.511507,0.46565 -0.920713,0.97716 -1.234673,1.52747 -0.296321,0.5362 -0.511507,1.09004 -0.638502,1.65446 -0.112884,0.55031 -0.169326,1.09004 -0.169326,1.61213 m 45.706597,6.48075 c -0.21518,0.16933 -0.26104,0.19755 -0.50445,0.24341 -0.25752,0.15874 -0.59264,0.34571 -0.79725,0.44801 -0.52561,0.28221 -1.24172,0.72317 -2.2083,1.23467 -0.8431,0.11289 -1.91198,0.06 -2.8468,-0.17638 -0.47976,0.0282 -1.22409,0.12347 -1.85554,0.22224 -0.84663,0.31043 -2.03897,0.38804 -2.86091,0.27163 -0.95599,0.25752 -2.46229,0.81136 -4.99513,0.70553 -1.5945,-0.99127 -1.77793,-1.51689 0.66319,-3.11138 -0.77608,-0.62792 -1.42869,-1.40047 -2.12364,-2.26827 -0.71611,-0.81841 -1.36519,-1.71443 -2.06014,-3.43239 -0.79371,-2.15891 0.93483,-3.24543 4.14498,-2.39174 0.0952,-0.36687 -0.0564,-1.3017 0.23635,-2.75155 0.57853,-1.65799 1.7356,-3.19252 3.41828,-3.92274 1.57333,-0.74433 2.93147,-1.24173 4.16967,-1.68974 1.06182,-0.44095 1.90139,-0.86779 2.59634,-1.46396 0.18696,-2.41644 0.77255,-2.808 2.27532,-2.72687 1.33698,0.27869 0.74786,0.29985 2.03545,3.11491 0.18344,0.0141 2.66689,-1.10415 1.99664,-1.14649 1.64035,0 1.84496,0.2293 2.26827,1.04418 0.1658,0.2293 0.73728,1.0336 0.34924,2.11659 -0.65261,-0.15522 -0.58912,1.49219 -1.84848,1.59449 -1.34756,-1.31228 -1.40047,-1.32639 -1.50983,-1.36167 0.46565,0.17638 -1.1994,-1.92962 -1.3652,-1.90845 -0.93482,-0.0635 -1.20292,-0.0494 -1.49924,0.0176 -0.47976,0.2681 -0.7655,0.45859 -2.13422,0.99126 -0.98774,0.31043 -1.93315,0.70553 -3.0761,1.05829 -0.96305,0.64203 -2.37763,1.28054 -3.83454,1.87318 -1.07946,0.71964 -1.85907,1.79204 -2.55754,3.09374 -0.56442,1.13942 -0.7408,1.97195 -0.94541,4.60356 -2.81505,-0.96304 -2.86797,-0.87838 -2.40937,-0.2681 1.09709,0.77961 1.70384,1.64035 2.31765,2.32824 0.67731,0.78667 1.41106,1.66152 1.99312,3.03377 0.0247,0.0529 0.0459,0.0882 0.20107,0.21872 0.67731,0.25046 1.49219,0.51856 2.29297,0.81488 1.31933,0.21519 2.7057,0.39157 3.86629,0.702 1.33697,-0.0705 2.49757,-0.23282 3.4853,-0.67025 0.77608,-0.55737 1.4287,-1.32287 2.64926,-2.95263 0.94893,-1.22057 1.43222,-1.67563 1.59096,-2.37058 0.0141,-0.22576 -0.0141,-0.79371 0.0106,-1.14295 0.15521,-0.59617 0.14463,-0.65967 0,-0.71964 -2.78331,1.05476 -5.87705,0.51504 -8.10299,-1.03007 -0.1023,-0.0494 -0.32454,-0.19049 -0.48681,-0.25399 -0.28927,-0.0811 -0.60323,-0.34218 -0.76902,-0.5997 -0.13405,-0.11641 -0.31044,-0.28221 -0.25399,-0.26457 -0.19755,-0.13758 -0.24694,-0.24341 -0.35277,-0.58912 -0.0917,-0.0882 -0.16227,-0.16579 -0.2046,-0.26457 -0.28221,-0.25752 -0.22577,-0.58911 0.0494,-0.89249 0.33159,-0.15874 0.51856,-0.2293 1.08298,-0.0106 0.56089,0.16932 1.25584,0.65261 1.6333,0.83605 0.32101,0.13405 0.55384,0.25046 0.89602,0.49739 0.51856,0.33866 0.68083,0.42332 1.04065,0.55032 0.96304,0.37745 1.9402,0.42684 3.16076,0.33159 0.56442,-0.0952 1.27701,-0.29632 2.04603,-0.56442 0.36688,-0.0388 0.84311,-0.26457 1.23467,-0.30338 -0.4727,-0.24693 0.0776,-0.13405 0.35982,-0.007 0.23636,0.12699 0.49387,0.32454 0.95247,0.89602 -0.0247,0.49034 -0.0529,0.98774 0.0988,1.3405 0.53973,3.79221 -0.97716,6.5473 -2.2083,9.6234 -0.71611,-0.59265 -0.57501,-0.58206 0.41979,-0.52562 0.99479,0.31043 2.25416,0.79019 2.42701,0.90307 0.1023,0.0564 0.20108,0.1023 2.24711,-0.0811 -0.0882,-0.0494 0.39862,0.51503 0.48681,1.34403 -0.72316,0.55031 -0.82899,0.63144 -4.17672,-0.73375 -0.61734,0.72316 2.00017,2.69159 2.25769,2.81505 -0.31749,0.64909 -0.13405,0.76197 -0.5997,1.06182 -0.64909,0.0811 -1.05477,-0.0459 -1.25231,-0.25046 -0.1023,-1.26995 -0.35982,-1.60155 -1.75324,-2.58223 -1.12179,0.31749 -1.84495,0.13052 -2.19066,-0.42332 -0.60676,-1.02301 -0.61381,-1.75323 0.37746,-2.74803 0.2434,-0.61028 0.32807,-0.77255 0.43742,-1.32286"
       id="path18110"
       style="fill:#010101;stroke-width:0.352764"
       sodipodi:nodetypes="cscsccccscscsccccccccccscsccccccccccccccccccsscsccccssccsccccccccccsccccscccccccccccccsccccccccccssccscccccscccccccscccccccscccccscsccccscscccsccccccccccccscccccccccccsccccccccccccccccccccccccccccccccccccccccccccccccccccccccccccccccccccccccccccccccccccccccc" />
  </g>
</svg>
