<?xml version="1.0" encoding="UTF-8" standalone="no"?>
<svg
   width="342.4mm"
   height="232.28mm"
   viewBox="0 0 970.6 658.43"
   version="1.1"
   id="svg41"
   sodipodi:docname="yoga_fonts_2.svg"
   inkscape:version="1.2 (dc2aedaf03, 2022-05-15)"
   xmlns:inkscape="http://www.inkscape.org/namespaces/inkscape"
   xmlns:sodipodi="http://sodipodi.sourceforge.net/DTD/sodipodi-0.dtd"
   xmlns="http://www.w3.org/2000/svg"
   xmlns:svg="http://www.w3.org/2000/svg">
  <sodipodi:namedview
     id="namedview43"
     pagecolor="#ffffff"
     bordercolor="#666666"
     borderopacity="1.0"
     inkscape:showpageshadow="2"
     inkscape:pageopacity="0.0"
     inkscape:pagecheckerboard="0"
     inkscape:deskcolor="#d1d1d1"
     inkscape:document-units="mm"
     showgrid="false"
     inkscape:zoom="0.66127001"
     inkscape:cx="759.14527"
     inkscape:cy="178.44451"
     inkscape:window-width="2880"
     inkscape:window-height="1526"
     inkscape:window-x="-11"
     inkscape:window-y="-11"
     inkscape:window-maximized="1"
     inkscape:current-layer="svg41" />
  <defs
     id="defs4">
    <style
       id="style2">.d{fill:#010101;}.e{fill:#fff;}</style>
  </defs>
  <g
     id="a" />
  <path
     class="d"
     d="M 607.44918,412.76618 C 611.14394,408.69056 614.64316,404.48824 617.95713,400.15922 C 621.2711,395.83019 624.37923,391.37447 627.3124,386.79204 C 630.26615,382.20961 633.10669,377.34209 635.83403,372.16838 C 637.20284,369.58153 638.54078,366.92076 639.84784,364.18609 C 641.1549,361.45141 642.44138,358.64282 643.69698,355.76033 C 646.25964,356.07709 648.72968,356.78451 651.08651,357.89316 C 653.44334,359.00182 655.31645,360.25829 656.70584,361.6837 C 653.98881,364.97798 651.39526,368.11388 648.93552,371.10197 C 646.47577,374.09005 644.13953,376.91975 641.92679,379.61219 C 639.74492,382.29408 637.65568,384.90205 635.65907,387.42555 C 633.66245,389.94906 631.74817,392.39865 629.92652,394.76378 C 626.28321,399.50458 622.8972,404.02366 619.76849,408.34213 C 616.69123,412.66059 613.68602,417.00017 610.76314,421.37143 C 609.27083,426.48179 607.89173,431.61327 606.60525,436.76586 C 605.31877,441.91846 604.19696,446.87044 603.21924,451.61125 C 602.24151,456.35205 601.46963,460.74443 600.91387,464.79893 C 600.34782,468.80064 600.06994,472.24274 600.06994,475.14635 C 598.9893,475.14635 597.27056,474.91406 594.91374,474.43893 C 592.55691,474.01658 590.13833,473.48865 587.67858,472.85514 C 585.21884,472.27441 582.95464,471.69369 580.90656,471.11297 C 578.90995,470.53225 577.72639,470.03599 577.36618,469.61365 C 578.90995,466.93177 580.44343,463.63748 581.98721,459.74136 C 583.53098,455.79245 585.04388,451.66404 586.5259,447.34557 C 588.01822,442.97432 589.42819,438.58194 590.75584,434.15789 C 592.14524,429.73384 593.42142,425.62655 594.60498,421.84657 C 593.36996,417.95045 592.16582,414.18103 590.97197,410.53831 C 589.77812,406.8956 588.60485,403.36903 587.45216,399.97972 C 586.29948,396.55874 585.16738,393.30669 584.04557,390.21302 C 582.92376,387.11935 581.83283,384.19462 580.75219,381.42827 C 578.6012,375.90613 576.52225,371.16532 574.51534,367.2164 C 572.57019,363.2147 570.69707,360.16326 568.89601,358.0621 C 569.87373,357.63976 571.35575,357.21741 573.36266,356.79507 C 575.41073,356.31993 577.64406,355.87647 580.06264,355.45413 C 582.47092,354.97899 584.94096,354.60944 587.45216,354.34548 C 589.96337,354.02872 592.22757,353.87034 594.22418,353.87034 C 594.22418,356.39384 594.43002,359.47695 594.84169,363.10911 C 595.30483,366.68847 595.89146,370.5318 596.61189,374.63909 C 597.38377,378.74639 598.25858,382.90647 599.22601,387.10879 C 600.19344,391.31111 601.17117,395.18612 602.14889,398.71269 C 603.12661,402.18647 604.07346,405.21678 604.99972,407.79308 C 605.97745,410.31658 606.7905,411.97428 607.45947,412.76618 M 709.74993,355.60195 C 711.64362,356.39384 713.56819,357.38635 715.52364,358.60059 C 717.46879,359.81483 719.29045,361.05018 720.9886,362.30666 C 722.68675,363.57369 724.09673,364.80904 725.21854,366.01272 C 726.34035,367.2164 726.96815,368.21947 727.06077,369.01136 C 725.36262,368.53623 723.67476,368.21947 721.97661,368.06109 C 720.32992,367.90271 718.81702,367.8288 717.43792,367.8288 C 712.97127,367.8288 708.56637,368.90578 704.20263,371.07029 C 699.8389,373.17145 695.681,376.07506 691.73924,379.74945 C 687.78717,383.38161 684.12329,387.6684 680.73728,392.62038 C 677.40272,397.57236 674.53131,402.83054 672.11273,408.40548 C 669.70445,413.98042 667.80045,419.77708 666.42135,425.77437 C 665.08341,431.77165 664.42473,437.6739 664.42473,443.46001 C 664.42473,450.98829 665.68033,456.5949 668.19154,460.27985 C 670.75421,463.9648 674.50043,465.802 679.43021,465.802 C 681.8385,465.802 684.41146,465.35854 687.1285,464.46105 C 689.897,463.51078 692.69637,462.22263 695.51633,460.59661 C 698.38775,458.96003 701.20771,456.99613 703.98651,454.67324 C 706.75501,452.36091 709.31767,449.80573 711.68479,447.01826 C 715.12226,442.96376 718.23039,438.36021 720.99889,433.19706 C 723.76739,427.99167 726.10363,422.49064 728.00762,416.69398 C 729.95278,410.90787 731.44509,404.95282 732.47427,398.84995 C 733.50345,392.69429 734.01805,386.69701 734.01805,380.84755 C 734.01805,378.53522 733.96659,376.58188 733.86367,375.00865 C 733.76075,373.37206 733.63725,372.01 733.48287,370.90135 C 733.32849,369.7927 733.20499,368.90578 733.10207,368.21947 C 732.99916,367.53316 732.92711,366.95244 732.87565,366.48786 C 734.05921,367.06858 735.3354,367.77601 736.7248,368.6207 C 738.16565,369.46538 739.4933,370.70074 740.72831,372.32676 C 741.96333,373.96334 742.98222,376.08562 743.80557,378.72527 C 744.68038,381.35436 745.11263,384.80702 745.11263,389.07269 C 745.11263,395.91466 744.28929,402.65104 742.65289,409.28184 C 741.05765,415.91264 738.80374,422.22668 735.88087,428.23452 C 732.95799,434.2318 729.52052,439.83841 725.56846,445.05436 C 721.66786,450.25975 717.43792,454.84218 712.86835,458.79109 C 706.97113,463.99648 700.65195,468.02986 693.93139,470.87012 C 687.26229,473.71038 680.81961,475.13579 674.61364,475.13579 C 665.53625,475.13579 658.60984,472.26386 653.83442,466.53054 C 649.05902,460.79722 646.68161,452.31867 646.68161,441.10544 C 646.68161,435.16096 647.35058,428.84692 648.67822,422.15277 C 650.01616,415.46918 651.88927,408.89117 654.29756,402.41876 C 656.70584,395.94634 659.58756,389.79068 662.92212,383.94122 C 666.30814,378.10231 669.98232,372.97084 673.92409,368.54679 C 677.92761,364.06994 682.20901,360.52225 686.77858,357.89316 C 691.3996,355.21128 696.11326,353.87034 700.94013,353.87034 C 702.53536,353.87034 703.9968,353.99704 705.32444,354.26101 C 706.71384,354.47218 708.19586,354.91564 709.79109,355.60195 M 831.93445,415.28968 C 834.49712,415.28968 836.50402,416.20828 837.93459,418.05603 C 839.4269,419.89323 840.16791,422.48008 840.16791,425.79548 C 840.16791,426.58738 840.11645,427.43207 840.01354,428.31899 C 839.91062,429.16367 839.75624,429.90278 839.5504,430.52573 C 837.50233,429.94501 835.23813,429.65993 832.77838,429.65993 C 832.21233,434.08398 830.64798,438.74032 828.08531,443.62895 C 825.52265,448.51758 822.41452,453.10001 818.77121,457.36568 C 815.12791,461.63135 811.12439,465.36909 806.76065,468.57891 C 802.44838,471.84151 798.16698,474.02714 793.90617,475.13579 C 780.72234,475.13579 771.09949,471.8204 765.04789,465.1896 C 758.9963,458.5588 755.97051,448.21138 755.97051,434.15789 C 755.97051,423.89494 757.84362,413.94874 761.58984,404.3193 C 765.33606,394.68986 770.31731,386.1374 776.52328,378.66192 C 782.72925,371.18643 789.8409,365.18915 797.83764,360.65952 C 805.89614,356.12988 814.23252,353.87034 822.84677,353.87034 C 829.67025,353.87034 834.98083,355.31687 838.77852,358.20992 C 842.5762,361.05018 844.4699,365.08357 844.4699,370.28895 C 844.4699,373.70994 843.64655,376.91975 842.01015,379.91839 C 840.36346,382.86424 837.67729,386.05293 833.93107,389.47392 C 831.67716,388.78761 829.70113,387.60505 828.00298,385.92623 C 826.35629,384.19462 825.3374,382.22017 824.92572,380.00286 C 828.31173,377.53215 830.66856,375.26205 832.0065,373.21368 C 833.39589,371.11252 834.08545,368.61014 834.08545,365.71708 C 834.08545,361.18745 831.38899,358.92791 826.00636,358.92791 C 821.53971,358.92791 816.7746,360.61728 811.69044,363.98547 C 806.65774,367.30087 801.58387,372.09447 796.44825,378.35572 C 789.16164,387.19326 783.83047,396.32645 780.44446,405.75527 C 777.10991,415.12074 775.44264,425.67934 775.44264,437.40994 C 775.44264,441.83399 775.87489,445.83569 776.7497,449.41506 C 777.67596,452.99442 778.84923,456.13032 780.29008,458.81221 C 781.7824,461.49409 783.52172,463.62693 785.52862,465.21072 C 787.5767,466.7945 789.78944,467.68143 792.14627,467.8926 C 795.32644,467.1535 798.48603,465.4958 801.61474,462.9195 C 804.74346,460.3432 807.61488,457.29177 810.23929,453.7652 C 812.85341,450.23863 815.06616,446.47977 816.85693,442.47806 C 818.69917,438.47635 819.83127,434.63303 820.24294,430.94808 C 817.47444,431.58159 814.82944,432.18343 812.31824,432.76416 C 809.80703,433.29209 807.41933,433.55605 805.16542,433.55605 C 802.19108,433.55605 799.59755,432.79583 797.3951,431.26483 C 795.19264,429.73384 793.70033,427.66435 792.92844,425.02471 C 794.67805,423.96885 797.24072,422.89187 800.62673,421.78322 C 804.0642,420.67457 807.7075,419.62926 811.55664,418.6262 C 815.40579,417.62313 819.17259,416.8418 822.86736,416.26107 C 826.56212,415.62756 829.58792,415.3108 831.94475,415.3108 M 875.08807,472.23218 C 850.5112,471.11297 847.97941,472.46447 845.08741,471.97877 C 843.74947,471.10241 843.44071,470.58504 843.11138,469.0646 C 843.25546,469.56086 843.57451,465.65418 845.32412,461.61023 C 846.27096,458.49545 846.67235,455.41234 847.95882,451.11499 C 849.01888,446.60647 849.81135,440.03903 852.07555,434.13677 C 855.33806,429.01585 859.27983,423.92661 862.85109,419.71373 C 858.90932,419.43921 855.88353,418.78458 854.83376,418.73178 C 852.98123,419.82988 849.06005,423.35645 845.80783,425.05638 C 846.34301,420.98076 849.27618,416.40889 853.80458,413.39969 C 858.36386,413.85371 863.11868,414.2655 868.1308,414.36053 C 870.2715,407.6347 872.96796,402.68272 875.46887,394.66875 C 876.64214,385.67283 879.27684,378.73583 886.48112,375.04032 C 895.74376,371.34481 902.94804,369.63432 908.83496,366.67791 C 917.39776,363.61592 919.15766,361.46197 919.40466,361.0713 C 919.8575,359.81483 919.93984,359.82539 920.02217,360.00488 C 920.06334,360.48002 920.19713,360.34276 919.92955,361.45141 C 923.1303,361.34582 925.31217,359.18131 926.50602,359.90986 C 928.47176,358.15713 931.4461,358.33663 933.5868,358.94902 C 933.8338,359.07573 935.83041,360.22661 935.53195,360.53281 C 935.82012,360.56449 936.21121,360.91292 936.51997,361.02907 C 937.26098,369.80326 932.27973,379.76001 927.00003,393.75015 C 919.65167,403.66467 917.83001,411.55194 923.87131,422.96578 C 913.16782,436.26961 913.14723,437.37826 923.09943,448.7921 C 925.3945,457.91473 923.78898,463.46855 918.4784,469.72979 C 920.4853,461.43074 919.00328,460.98728 919.32233,463.15179 C 919.41495,463.62693 920.75289,467.13238 922.11141,472.08436 C 920.95873,472.95016 920.15597,472.60173 919.51787,472.83402 C 917.89176,472.48559 916.47149,471.90486 915.07181,471.23967 C 914.18671,470.95459 913.63095,473.75262 911.8093,473.71038 C 909.52451,473.25636 908.06307,473.19301 905.6342,472.70732 C 906.68397,468.09321 906.59134,467.93483 906.21055,467.05847 C 905.61362,466.42495 904.65648,466.41439 903.97722,466.51998 C 902.73191,465.85479 901.68214,464.24988 900.61179,461.76861 C 899.07831,457.70355 899.11948,457.39736 899.16065,457.32345 C 899.35619,456.65825 899.5929,455.63407 899.73699,449.19333 C 908.71146,436.68139 908.61883,435.80503 901.72331,428.11837 C 897.07141,423.79991 895.28063,423.36701 896.74207,421.46646 C 894.26174,421.9416 891.18448,421.65651 889.16729,421.82545 C 887.6441,421.69875 886.53258,421.57205 885.2461,422.16333 C 882.14826,421.90992 879.82231,421.50869 874.93369,421.26585 C 871.35214,426.89358 867.66767,430.54685 864.58012,434.04175 C 861.78074,438.413 859.41362,442.66812 856.85096,446.71206 C 854.39121,451.83298 852.42548,457.27065 850.2539,462.83503 C 850.61411,466.44607 851.28308,467.32243 875.10865,472.21106 M 913.72358,385.2716 C 915.19531,383.59278 916.56412,382.12514 918.40636,380.52023 C 921.80266,376.21233 923.32585,374.44904 925.05487,371.08085 C 918.56073,375.82166 914.25875,379.62275 909.48334,383.37105 C 903.85372,386.26411 897.89475,387.27773 895.85697,388.1541 C 895.59968,388.36527 893.78831,391.82849 891.75053,398.63878 C 889.53779,404.79444 886.80017,410.52776 882.61139,414.45555 C 886.49141,413.2202 891.77112,412.67115 900.03545,410.78116 C 900.91026,404.70997 903.66846,399.57849 906.60163,395.26003 C 908.907,391.22665 911.39762,388.34415 913.73387,385.2716"
     id="path7"
     style="stroke-width:1.04244" />
  <path
     class="d"
     d="M 600.34948,636.57385 V 626.91184 C 600.34948,621.64364 600.6034,616.98751 601.11123,612.95439 C 601.68253,608.85568 602.41254,604.85535 603.30124,600.95339 C 604.18994,597.05142 605.26907,593.05108 606.52806,588.95238 C 607.86111,584.85368 609.25764,580.23035 610.70707,575.0933 V 573.82544 C 610.77055,573.11499 610.80228,572.62316 610.80228,572.36083 C 611.0562,572.22968 610.0088,571.65039 607.67068,570.60113 C 605.38545,569.49721 602.57123,567.93424 599.20687,565.91221 C 595.91656,563.89018 592.29829,561.35445 588.3732,558.29409 C 584.44811,555.23372 580.82983,551.69244 577.53952,547.65932 C 574.3127,543.62619 571.71008,539.13401 569.74224,534.19371 C 567.7744,529.18783 567.0444,523.61359 567.55223,517.50379 C 567.67919,517.50379 567.99658,517.471 568.50441,517.40542 C 569.07572,517.33984 569.67876,517.27427 570.31355,517.20869 C 570.94833,517.14311 571.58312,517.04474 572.2179,516.91358 H 573.2653 C 574.09052,519.38373 575.2014,522.14899 576.58735,525.20935 C 578.04735,528.20414 579.81417,531.29729 581.90896,534.47789 C 584.00376,537.66942 586.27841,540.76256 588.75407,543.74642 C 591.22973,546.7412 593.85351,549.44089 596.64657,551.84546 C 599.43962,554.18445 602.34906,556.07532 605.38545,557.50713 C 608.42184,558.87337 611.56403,559.56195 614.79085,559.56195 C 616.88565,554.6763 618.55725,550.80712 619.82682,547.94349 C 621.09639,545.07986 622.08031,542.87203 622.76799,541.30906 C 623.46626,539.68051 623.94234,538.47822 624.19626,537.7022 C 624.45017,536.92618 624.64061,536.07365 624.76757,535.16647 C 624.89452,534.25929 624.98974,533.14444 625.05322,531.84378 C 625.18018,530.54313 625.49757,528.55389 626.0054,525.88701 C 626.0054,525.42795 626.48149,524.94704 627.43367,524.4224 C 628.38584,523.83219 629.36976,523.48243 630.37484,523.35127 C 631.39049,523.22012 632.34267,523.35127 633.23137,523.74475 C 634.12007,524.07265 634.56442,524.78309 634.56442,525.88701 C 634.56442,532.58702 633.83442,538.97006 632.37441,545.01428 C 630.97788,551.06944 629.21106,556.96064 627.05279,562.67697 C 624.89452,568.40422 622.61988,574.09869 620.20769,579.76036 C 617.85898,585.42203 615.80651,591.24766 614.02911,597.23723 C 612.25171,603.2268 610.99272,609.46776 610.23098,615.98196 C 609.46924,622.41966 609.62793,629.29455 610.70707,636.57385 C 609.94532,637.94009 609.21532,638.88006 608.51706,639.40468 C 607.81879,639.9949 606.86661,640.27907 605.66052,640.27907 C 604.45443,640.27907 603.43877,639.98397 602.62413,639.40468 C 601.79891,638.88006 601.03717,637.94009 600.3389,636.57385 M 640.73242,586.30736 C 640.47851,580.90799 641.14503,575.89118 642.732,571.27878 C 644.38244,566.65544 646.65709,562.55674 649.5771,558.98267 C 652.55001,555.34302 656.20004,552.41382 660.50601,550.19505 C 664.7485,548.2386 669.43534,547.03632 674.5771,546.58819 C 683.50642,547.95442 692.0337,550.29342 700.14838,553.6161 C 708.26305,556.8732 715.41497,561.07027 721.62529,566.20731 C 727.89909,571.27878 732.99853,577.23556 736.92362,584.06673 C 740.8487,590.8979 743.07046,598.61439 743.57828,607.20528 C 742.37219,613.52274 739.93885,618.52862 736.25709,622.23386 C 732.58592,625.8735 728.23764,628.70434 723.23341,630.72636 C 718.22918,632.68282 712.87582,634.14741 707.17333,635.12018 C 701.47084,636.02736 696.24444,636.8471 691.49414,637.55753 C 684.1412,637.55753 677.32784,636.32246 671.06462,633.85231 C 664.8543,631.31658 659.50093,627.86274 655.00452,623.50172 C 650.5716,619.07512 647.08028,613.70855 644.55171,607.39109 C 642.01257,601.01897 640.75358,593.99105 640.75358,586.30736 M 649.12217,585.3346 C 648.99521,590.99627 650.13783,596.26447 652.53944,601.15012 C 655.0151,606.03578 658.21019,610.29843 662.13529,613.93808 C 666.06039,617.57773 670.44041,620.63809 675.2542,623.10825 C 680.13147,625.51282 685.00875,627.07579 689.88601,627.79716 C 691.53645,627.79716 693.71588,627.666 696.44546,627.40368 C 699.23852,627.07579 702.21143,626.59487 705.37478,625.93908 C 708.6016,625.22863 711.839,624.31053 715.06583,623.20661 C 718.35614,622.03712 721.33963,620.63809 723.99515,619.00954 C 726.66126,617.31541 728.84068,615.36989 730.5546,613.15113 C 732.332,610.87771 733.2207,608.26547 733.2207,605.34719 C 732.39548,599.22647 730.58634,593.79432 727.80387,589.05075 C 725.01081,584.29626 721.59355,580.09918 717.54149,576.45954 C 713.48945,572.75431 709.0777,569.62837 704.32738,567.09264 C 699.57707,564.55691 694.89024,562.53488 690.25631,561.03748 C 685.63295,559.47451 681.29525,558.43617 677.23262,557.91154 C 673.18057,557.45249 669.84794,557.45249 667.25591,557.91154 C 663.58472,559.27777 660.56949,561.07027 658.23135,563.27811 C 655.94612,565.42036 654.11582,567.77028 652.71929,570.30601 C 651.38624,572.77617 650.43406,575.3119 649.86275,577.92414 C 649.35492,580.45987 649.10101,582.93002 649.10101,585.34552 M 839.17699,627.96111 C 835.93958,629.92849 835.5587,630.12522 833.71782,631.51331 C 831.35854,632.40957 829.8139,633.12001 827.68736,634.38787 C 824.98953,634.58461 824.02676,634.98901 819.91124,636.78152 C 811.83889,637.54661 806.35857,636.83616 803.74537,636.83616 C 800.10593,636.68315 795.12287,637.21872 790.8169,637.26243 C 787.29384,637.95101 785.13557,638.18054 781.59135,638.50844 C 777.22191,639.08772 772.28117,640.29001 766.84317,639.95118 C 761.78605,636.67222 759.40561,631.49146 757.67052,626.32162 C 755.58631,622.11363 753.91471,617.55586 752.80383,611.82861 C 751.24861,607.16155 750.38107,602.13382 749.09034,597.84931 C 745.22873,591.17115 746.21264,584.76625 750.93122,580.14291 C 755.53342,577.13719 758.43226,573.3008 763.85969,569.49721 C 768.43013,565.2127 772.15421,561.57304 776.36496,555.39767 C 781.26338,549.91087 789.4098,547.7249 798.28622,546.92701 C 804.97262,544.1071 811.89179,542.60971 818.33486,541.42929 C 820.08052,540.75164 821.14908,527.61392 823.94213,526.78326 C 826.81983,538.6531 827.42288,539.28703 828.84056,541.00302 C 830.28998,541.66974 830.93535,541.84462 831.89811,542.81738 C 833.81305,542.88296 835.1461,542.98133 836.5003,543.06877 C 837.50538,543.2655 838.07669,543.75735 838.40466,544.50058 C 837.97089,544.71918 837.5477,544.89405 837.14567,545.0908 C 836.19349,545.67008 834.7758,546.33681 832.49057,546.04169 C 829.97259,546.03077 827.45461,545.01428 825.01069,543.7027 C 822.52444,542.0523 826.46011,541.64789 825.01069,542.29275 C 823.3285,542.72994 820.51429,544.73011 815.73224,547.02539 C 810.8867,549.23322 804.80335,552.28266 797.20708,554.85118 C 789.45211,556.19555 783.866,557.92247 780.67092,560.76424 C 778.03655,566.14173 773.89988,570.97274 770.13348,575.44306 C 766.28244,580.72219 761.43692,585.34552 756.19994,588.79936 C 753.97819,591.0072 753.63963,593.61944 755.98835,598.34114 C 758.27356,602.84425 760.32605,607.35829 762.46316,611.76303 C 764.18766,616.70334 765.96505,621.70922 767.75303,626.61673 C 769.1813,629.36014 769.91131,629.90663 771.18087,630.24545 C 774.09031,629.92849 778.40685,629.10874 781.90875,627.95017 C 787.17747,626.52929 793.10213,626.40906 799.85202,625.6549 C 806.83466,623.30498 812.54773,622.97709 815.41485,621.84038 C 819.59385,613.95993 819.85834,613.73041 835.10377,613.80692 C 838.05552,609.19451 838.05552,608.62616 834.83929,603.40168 C 830.02549,599.37948 830.04666,599.32484 830.60738,600.52712 C 832.99841,602.45078 832.56463,601.9808 827.15838,598.22091 C 818.03863,591.55369 813.38354,594.46104 801.14275,597.20444 C 797.33404,595.42287 796.25491,593.13853 795.09113,591.99089 C 794.59388,591.82694 793.83214,590.65745 792.84821,588.06706 C 792.73185,587.71731 792.37213,587.23639 792.01242,586.35107 C 791.9172,586.1762 792.19227,584.26346 792.42503,582.4491 C 792.23459,581.60751 792.50966,580.28499 795.02765,578.00065 C 795.90577,576.91859 797.20708,576.92952 799.03738,577.93507 C 799.78854,576.13165 799.0797,571.20227 803.65015,570.20765 C 805.89306,571.77062 807.78684,573.55219 808.29467,573.86915 C 818.91674,571.70504 819.24472,571.90177 809.37381,588.35124 C 811.88121,590.65745 812.25149,590.75581 812.81223,590.79953 C 813.75382,590.4935 815.42543,589.00703 817.20282,586.48223 C 825.82533,582.06656 827.10547,582.43818 831.51724,582.84258 C 832.77623,582.94095 835.89725,584.31811 838.15075,583.71697 C 838.57394,584.06673 839.16641,584.48206 839.86466,584.94112 C 842.52018,585.97945 842.83757,586.23084 843.87439,587.10523 C 844.45628,588.27474 845.50368,590.04537 846.80499,591.23672 C 852.21124,601.96986 850.59254,620.74739 846.37121,641.94042 C 846.9531,645.28496 846.92137,648.71694 844.81599,647.00095 C 845.51426,647.96278 846.44528,649.38366 846.56166,649.61319 C 851.72458,650.71711 851.75631,650.89199 851.38603,651.01221 C 852.87776,650.15968 855.23706,649.44924 859.09867,652.29101 C 866.72667,651.06686 867.80581,652.2145 869.40336,654.66279 C 851.25907,654.61908 850.46559,655.15464 849.0479,655.18743 C 846.90021,655.25301 846.61455,655.26393 845.53542,654.88139 C 844.45628,655.0672 842.92222,655.19835 842.30859,654.95789 C 841.01786,654.24746 840.56293,653.72282 840.15032,652.57518 C 840.20322,648.23603 840.19264,645.89703 839.79061,644.50894 C 839.26162,643.13178 839.16641,640.21349 839.10292,639.13144 C 838.94423,637.20778 839.16641,634.81414 839.14524,627.93925 M 933.91872,633.1528 C 933.91872,631.06519 934.10916,628.95573 934.49002,626.80254 C 934.8709,624.64936 935.28351,622.53989 935.72785,620.45228 C 936.23569,618.31002 936.64829,616.12406 936.96569,613.91622 C 937.34656,611.70838 937.537,609.48962 937.537,607.28178 C 937.537,603.89353 937.41004,600.25387 937.15613,596.35191 C 936.90221,592.44994 936.29916,588.73378 935.34699,585.22529 C 932.05669,585.93574 928.62884,586.19805 925.08462,586.00132 C 921.60388,585.80458 918.11256,585.47668 914.63182,585.02856 C 911.15108,584.50392 907.59628,584.02301 903.98859,583.56395 C 900.44437,583.03932 896.88957,582.78793 893.34535,582.78793 H 888.21416 C 885.92894,582.78793 883.55907,582.85351 881.0834,582.98468 C 878.67122,583.11583 876.46005,583.31257 874.42874,583.57488 C 872.52438,583.77163 871.3606,584.13231 870.91625,584.64602 C 870.31321,585.20344 869.71017,585.74993 869.10712,586.30736 C 869.10712,586.43851 869.07537,586.73362 869.0119,587.18175 C 868.94843,587.57522 868.91668,588.08893 868.91668,588.74472 C 868.91668,589.33493 868.88494,589.91421 868.82147,590.50443 C 868.75798,591.09464 868.72625,591.57555 868.72625,591.96903 C 868.72625,595.48845 868.98016,599.06251 869.48799,602.70217 C 870.0593,606.27624 870.66235,609.79565 871.29713,613.2495 C 871.99539,616.63776 872.63017,620.01509 873.20148,623.40335 C 873.77279,626.8572 874.05845,630.26732 874.05845,633.65557 V 635.51365 C 872.28104,637.27336 870.67293,637.88543 869.21291,637.37173 C 867.81639,636.78152 866.54682,635.41528 865.41479,633.27303 C 864.33565,631.13077 863.38347,628.38737 862.55825,625.07562 C 861.7965,621.68736 861.19346,618.01492 860.7491,614.04737 C 860.36824,610.07983 860.14607,606.01391 860.08258,601.84963 C 860.01911,597.68535 860.1778,593.65223 860.55867,589.75027 C 860.30476,589.55353 859.82868,589.06169 859.13041,588.28566 C 858.43214,587.44406 857.70214,586.55874 856.9404,585.65156 C 856.24213,584.74438 855.54387,583.85907 854.8456,583.01747 C 854.33778,582.17586 853.98865,581.48728 853.7982,580.96265 L 853.60777,580.66754 V 580.27406 C 853.60777,579.43246 853.7982,578.84225 854.17908,578.51436 C 854.62343,578.12088 855.13126,577.82577 855.70257,577.63997 C 856.33735,577.44323 856.9404,577.2137 857.5117,576.95138 C 858.08301,576.68906 858.5591,576.2628 858.93997,575.68351 V 570.71042 C 859.38432,565.63896 859.76519,560.19588 860.08258,554.41398 C 860.39998,548.62115 860.93955,542.95947 861.70129,537.42896 C 862.46303,531.83286 863.63738,526.46629 865.21376,521.31832 C 866.86421,516.18128 869.10712,511.65631 871.96365,507.75435 C 874.82019,503.85238 878.42789,500.75922 882.79732,498.4858 C 887.23024,496.14682 892.77404,494.96639 899.42871,494.96639 C 904.62337,494.96639 909.3102,496.26705 913.49978,498.86836 C 917.74227,501.40409 921.4875,504.85793 924.71433,509.21894 C 928.00463,513.51439 930.86117,518.48748 933.27335,524.14916 C 935.74902,529.81083 937.80149,535.83319 939.45194,542.20531 C 941.16586,548.52277 942.55181,554.92768 943.63094,561.43096 C 944.77355,567.86866 945.63052,574.02217 946.20182,579.88058 C 946.8366,585.73901 947.28095,591.10557 947.53487,595.99122 C 947.78879,600.87687 947.91574,604.91 947.91574,608.0906 V 614.34249 C 947.91574,616.16777 947.82052,617.94934 947.63009,619.70905 C 947.43965,621.46876 947.24921,623.31591 947.05878,625.27236 C 946.86835,627.2288 946.55096,629.50222 946.1066,632.10353 C 945.15442,633.40419 943.91659,634.63926 942.40369,635.80876 C 940.94368,636.97825 939.33556,637.56847 937.55815,637.56847 C 935.97119,637.56847 934.95553,637.17499 934.52177,636.39897 C 934.14089,635.55738 933.95046,634.47531 933.95046,633.17465 M 929.67623,577.72741 C 930.05711,577.72741 930.50146,577.69462 931.00929,577.62903 C 931.5806,577.56345 932.02494,577.26835 932.34233,576.75465 C 932.72321,576.16443 933.07234,575.25725 933.38973,574.02217 C 933.77061,572.7871 934.088,571.09297 934.34191,568.95071 C 934.34191,565.37664 933.99278,561.2998 933.29452,556.75297 C 932.65972,552.19522 931.67581,547.48444 930.35335,542.59878 C 929.08377,537.71313 927.41216,532.96956 925.31738,528.34623 C 923.28606,523.65731 920.85272,519.49303 917.99618,515.85338 C 915.13965,512.21373 911.8176,509.28453 908.01947,507.06577 C 904.28482,504.85793 900.09523,503.74307 895.47188,503.74307 C 890.59461,503.74307 886.47908,505.07652 883.11471,507.74341 C 879.82441,510.34472 877.12658,513.76578 875.03178,517.99564 C 873.00047,522.15992 871.42409,526.88163 870.28147,532.14982 C 869.13886,537.35244 868.31364,542.59878 867.80581,547.86698 C 867.36146,553.13519 867.10755,558.08642 867.04406,562.69882 C 866.98059,567.32216 866.94885,571.09297 866.94885,574.02217 C 887.85445,575.25725 908.77064,576.49233 929.67623,577.72741"
     id="path11"
     style="stroke-width:1.07534" />
  <path
     class="d"
     d="M 581.46562,127.81336 C 583.70562,124.67336 580.96562,122.72336 580.72562,118.44336 C 579.96562,115.96336 577.85562,112.59336 577.29562,109.06336 C 577.47562,110.27336 577.59562,108.91336 577.32562,106.60336 C 577.35562,105.62336 577.80562,102.95336 577.98562,100.69336 C 578.21562,98.413359 578.65562,96.193361 579.23562,94.393361 C 579.59562,92.703361 579.70562,91.833361 579.38562,90.613361 C 579.14562,88.233361 578.90562,85.973361 578.71562,84.203361 C 578.27562,80.553361 577.80562,77.043361 577.52562,73.033361 C 577.95562,73.093361 577.06562,71.533361 576.94562,71.443361 C 576.17562,70.513361 575.84562,70.243361 570.79562,67.363361 C 567.95562,65.493361 564.88562,63.223361 561.98562,60.613361 C 559.55562,58.013361 557.08562,55.773361 555.14562,52.593361 C 554.09562,50.413361 553.38562,47.173361 553.08562,44.053361 C 554.60562,40.893361 554.98562,39.043361 555.35562,37.273361 C 556.61562,32.743361 557.22562,29.573361 556.34562,26.713361 C 555.16562,24.543361 554.38562,23.513361 550.73562,21.983361 C 550.33562,21.543361 549.82562,21.063361 549.39562,20.403361 C 549.93562,20.423361 550.35562,20.333361 551.02562,20.133361 C 558.75562,16.223361 555.92562,8.2233612 560.95562,11.183361 C 558.33562,19.223361 558.39562,19.393361 559.39562,21.553361 C 560.03562,22.753361 561.77562,25.203361 563.10562,27.883361 C 564.66562,32.933361 564.45562,37.473361 564.03562,41.093361 C 563.81562,44.553361 563.85562,45.303361 564.52562,47.183361 C 565.40562,48.793361 566.14562,49.643361 567.55562,50.973361 C 568.42562,51.343361 570.12562,52.283361 572.92562,53.103361 C 576.30562,54.163361 576.56562,54.313361 582.43562,55.183361 C 587.86562,56.143361 588.37562,56.513361 589.15562,57.193361 C 585.23562,60.543361 582.25562,64.473361 580.70562,68.223361 C 583.17562,62.343361 585.80562,58.713361 588.22562,56.283361 C 592.76562,54.943361 593.83562,54.243361 594.05562,53.883361 C 594.07562,53.733361 594.14562,53.433361 596.65562,47.823361 C 597.31562,45.183361 599.06562,42.713361 602.23562,40.803361 C 603.86562,39.243361 603.95562,39.143361 601.23562,31.013361 C 602.81562,29.263361 604.09562,28.093361 604.89562,27.213361 C 613.84562,28.033361 614.74562,27.193361 616.13562,25.073361 C 616.90562,23.833361 616.95562,23.443361 621.17562,19.863361 C 618.93562,14.813361 616.65562,17.393361 617.11562,17.213361 C 618.43562,16.113361 619.53562,14.363361 619.39562,4.8133612 C 622.19562,13.253361 623.07562,15.393361 623.55562,17.953361 C 623.89562,19.493361 624.19562,21.463361 623.68562,23.123361 C 623.40562,24.843361 621.91562,27.293361 621.19562,28.473361 C 620.33562,29.453361 619.62562,30.703361 618.74562,32.193361 C 616.86562,34.113361 616.73562,34.323361 615.59562,36.453361 C 614.57562,37.493361 613.70562,38.273361 612.82562,39.203361 C 611.17562,40.333361 610.91562,40.623361 608.85562,42.953361 C 607.70562,44.043361 606.71562,45.063361 606.01562,46.083361 C 605.68562,46.733361 605.27562,47.583361 605.19562,47.913361 C 605.25562,45.803361 606.15562,48.533361 606.28562,48.843361 C 610.41562,55.023361 610.25562,55.813361 608.48562,59.633361 C 607.30562,61.543361 602.33562,64.863361 601.36562,65.553361 C 597.56562,67.383361 597.10562,67.733361 596.33562,68.433361 C 595.53562,69.113361 592.88562,71.153361 592.53562,71.483361 C 592.39562,72.023361 592.29562,72.493361 592.23562,73.093361 C 592.21562,73.603361 593.08562,77.703361 592.46562,74.943361 C 592.57562,76.073361 592.19562,79.083361 591.70562,83.573361 C 590.86562,87.583361 590.98562,86.793361 591.11562,88.643361 C 590.66562,91.843361 589.21562,95.503361 588.53562,97.413361 C 588.05562,98.883359 587.56562,100.42336 587.23562,102.60336 C 586.79562,104.12336 586.72562,105.42336 586.98562,107.76336 C 587.00562,108.80336 586.90562,110.77336 586.70562,111.76336 C 587.55562,108.25336 587.72562,108.37336 586.33562,114.01336 C 586.38562,118.24336 585.58562,123.43336 587.12562,123.03336 C 588.24562,125.86336 598.30562,125.97336 597.96562,128.68336 C 589.45562,129.32336 584.39562,129.96336 581.45562,127.79336 M 684.82565,130.10336 C 676.69565,130.10336 669.94565,129.68336 664.57565,128.84336 C 659.20565,128.00336 654.95565,126.47336 651.82565,124.26336 C 648.74565,121.99336 646.48565,118.89336 645.04564,114.94336 C 643.61564,110.94336 642.68564,105.83336 642.25564,99.613359 C 641.88563,93.343361 641.69563,85.733361 641.69563,76.773361 C 641.69563,67.813361 641.88563,60.153361 642.25564,53.933361 C 642.68564,47.663361 643.61564,42.553361 645.04564,38.603361 C 646.47565,34.603361 648.73565,31.493361 651.82565,29.283361 C 654.96565,27.013361 659.21565,25.463361 664.57565,24.623361 C 669.94565,23.783361 676.69565,23.363361 684.82565,23.363361 C 692.95565,23.363361 699.78565,23.783361 705.15565,24.623361 C 710.52565,25.463361 714.74565,27.023361 717.82565,29.283361 C 720.96565,31.493361 723.21565,34.603361 724.60565,38.603361 C 726.03565,42.553361 726.96565,47.663361 727.39565,53.933361 C 727.82565,60.153361 728.03565,67.763361 728.03565,76.773361 C 728.03565,85.783361 727.82565,93.343361 727.39565,99.613359 C 726.96565,105.83336 726.03565,110.94336 724.60565,114.94336 C 723.22565,118.89336 720.96565,122.00336 717.82565,124.26336 C 714.74565,126.47336 710.51565,128.00336 705.15565,128.84336 C 699.79565,129.68336 693.01565,130.10336 684.82565,130.10336 M 684.82565,118.88336 C 690.45565,118.88336 695.10565,118.72336 698.77565,118.41336 C 702.44565,118.04336 705.33565,117.20336 707.46565,115.88336 C 709.64565,114.56336 711.29565,112.43336 712.40565,109.48336 C 713.52565,106.48336 714.21565,102.34336 714.47565,97.073361 C 714.74565,91.803361 714.87565,85.033361 714.87565,76.763361 C 714.87565,68.493361 714.74565,61.643361 714.47565,56.373361 C 714.20565,51.103361 713.51565,46.993361 712.40565,44.043361 C 711.28565,41.043361 709.64565,38.883361 707.46565,37.563361 C 705.33565,36.243361 702.44565,35.433361 698.77565,35.113361 C 695.10565,34.743361 690.45565,34.563361 684.82565,34.563361 C 679.19565,34.563361 674.62565,34.743361 670.95565,35.113361 C 667.34565,35.433361 664.44565,36.243361 662.26565,37.563361 C 660.08565,38.883361 658.46565,41.043361 657.40565,44.043361 C 656.34565,46.993361 655.65565,51.103361 655.33565,56.373361 C 655.01565,61.643361 654.85565,68.433361 654.85565,76.763361 C 654.85565,85.093361 655.01565,91.803361 655.33565,97.073361 C 655.65565,102.34336 656.34565,106.47336 657.40565,109.48336 C 658.46565,112.43336 660.08565,114.56336 662.26565,115.88336 C 664.44565,117.20336 667.34565,118.04336 670.95565,118.41336 C 674.62565,118.73336 679.24565,118.88336 684.82565,118.88336 M 798.65565,130.10336 C 791.16565,130.10336 784.81565,129.68336 779.60565,128.84336 C 774.45565,128.00336 770.19565,126.47336 766.85565,124.26336 C 763.56565,121.99336 760.95565,118.89336 759.04565,114.94336 C 757.18565,110.94336 755.85565,105.83336 755.05565,99.613359 C 754.31565,93.343361 753.93565,85.733361 753.93565,76.773361 C 753.93565,67.813361 754.30565,60.153361 755.05565,53.933361 C 755.85565,47.663361 757.20565,42.553361 759.12565,38.603361 C 761.09565,34.603361 763.74565,31.493361 767.09565,29.283361 C 770.44565,27.013361 774.69565,25.463361 779.84565,24.623361 C 784.99565,23.783361 791.27565,23.363361 798.65565,23.363361 C 802.10565,23.363361 805.82565,23.523361 809.81565,23.833361 C 813.80565,24.093361 817.70565,24.443361 821.53565,24.863361 C 825.36565,25.283361 828.78565,25.783361 831.81565,26.363361 V 36.953361 C 828.57565,36.483361 825.25565,36.053361 821.85565,35.693361 C 818.50565,35.323361 815.37565,35.063361 812.44565,34.903361 C 809.57565,34.693361 807.10565,34.583361 805.03565,34.583361 C 798.71565,34.583361 793.31565,34.743361 788.85565,35.053361 C 784.44565,35.313361 780.80565,36.103361 777.93565,37.423361 C 775.11565,38.743361 772.93565,40.903361 771.39565,43.903361 C 769.85565,46.853361 768.73565,50.963361 768.04565,56.233361 C 767.40565,61.503361 767.08565,68.353361 767.08565,76.773361 C 767.08565,84.153361 767.27565,90.333361 767.64565,95.343361 C 768.07565,100.34336 768.92565,104.43336 770.19565,107.59336 C 771.47565,110.70336 773.25565,113.12336 775.53565,114.86336 C 777.87565,116.55336 780.95565,117.68336 784.78565,118.26336 C 788.61565,118.79336 793.31565,119.05336 798.89565,119.05336 C 801.07565,119.05336 803.43565,119.00336 805.98565,118.89336 C 808.53565,118.78336 811.03565,118.65336 813.47565,118.49336 C 815.91565,118.28336 817.96565,118.07336 819.61565,117.86336 V 83.883361 H 795.70565 V 72.823361 H 832.29565 V 127.11336 C 828.94565,127.69336 825.25565,128.22336 821.21565,128.69336 C 817.17565,129.16336 813.19565,129.51336 809.25565,129.72336 C 805.32565,129.98336 801.78565,130.12336 798.65565,130.12336 M 848.63565,128.93336 C 850.29565,124.58336 851.94565,120.23336 853.60565,115.88336 C 855.26565,111.53336 856.91565,107.18336 858.57565,102.83336 C 859.40565,100.66336 860.23565,98.483359 861.06565,96.313361 C 861.89565,94.143361 862.72565,91.963361 863.55565,89.793361 C 864.38565,87.623361 865.21565,85.443361 866.04565,83.273361 C 866.87565,81.103361 867.70565,78.923361 868.53565,76.753361 C 869.36565,74.583361 870.19565,72.403361 871.02565,70.233361 C 871.85565,68.063361 872.68565,65.883361 873.51565,63.713361 C 874.34565,61.543361 875.17565,59.363361 876.00565,57.193361 C 876.83565,55.023361 877.66565,52.843361 878.49565,50.673361 C 879.32565,48.503361 880.15565,46.323361 880.98565,44.153361 C 881.81565,41.983361 882.64565,39.803361 883.47565,37.633361 C 884.30565,35.463361 885.13565,33.283361 885.96565,31.113361 C 886.79565,28.943361 887.62565,26.763361 888.45565,24.593361 H 904.95565 C 906.60565,28.943361 908.26565,33.293361 909.91565,37.643361 C 911.56565,41.993361 913.22565,46.343361 914.87565,50.693361 C 916.52565,55.043361 918.18565,59.393361 919.83565,63.743361 C 921.48565,68.093361 923.14565,72.443361 924.79565,76.793361 C 926.44565,81.143361 928.10565,85.493361 929.75565,89.843361 C 931.40565,94.193361 933.06565,98.543359 934.71565,102.89336 C 936.36565,107.24336 938.02565,111.59336 939.67565,115.94336 C 941.32565,120.29336 942.98565,124.64336 944.63565,128.99336 H 931.00565 C 930.09565,126.61336 929.18565,124.24336 928.27565,121.86336 C 927.36565,119.48336 926.45565,117.11336 925.54565,114.73336 C 924.63565,112.35336 923.72565,109.98336 922.81565,107.60336 C 921.90565,105.22336 920.99565,102.85336 920.08565,100.47336 H 872.81565 C 871.91565,102.85336 871.00565,105.22336 870.10565,107.60336 C 869.20565,109.98336 868.29565,112.35336 867.39565,114.73336 C 866.49565,117.11336 865.58565,119.48336 864.68565,121.86336 C 863.78565,124.24336 862.87565,126.61336 861.97565,128.99336 H 848.66565 M 876.80565,89.093361 H 916.10565 C 914.50565,84.833361 912.90565,80.573361 911.30565,76.313361 C 909.70565,72.053361 908.10565,67.793361 906.50565,63.533361 C 904.90565,59.273361 903.30565,55.013361 901.70565,50.753361 C 900.10565,46.493361 898.50565,42.233361 896.90565,37.973361 H 896.10565 C 894.49565,42.233361 892.88565,46.493361 891.28565,50.753361 L 886.46565,63.533361 C 884.85565,67.793361 883.24565,72.053361 881.64565,76.313361 L 876.82565,89.093361"
     id="path15" />
  <path
     class="d"
     d="M 625.96562,186.22969 C 627.05562,186.22969 627.84562,186.60969 628.33562,187.36969 C 628.88562,188.06969 629.15562,188.69969 629.15562,189.23969 C 629.15562,189.61969 629.10562,189.96969 628.99562,190.29969 C 628.88562,190.61969 628.72562,190.94969 628.50562,191.26969 C 626.95562,193.35969 625.40562,195.44969 623.84562,197.53969 C 622.29562,199.62969 620.74562,201.71969 619.18562,203.80969 C 617.62562,205.89969 616.08562,207.98969 614.52562,210.07969 L 609.86562,216.34969 C 608.31562,218.43969 606.76562,220.52969 605.20562,222.61969 L 600.54562,228.88969 C 598.99562,230.97969 597.44562,233.06969 595.88562,235.15969 C 594.33562,237.24969 592.78562,239.33969 591.22562,241.42969 C 591.68562,239.91969 592.15562,238.39969 592.61562,236.87969 V 292.87969 C 592.61562,293.68969 592.28562,294.41969 591.63562,295.06969 C 591.03562,295.66969 590.27562,295.95969 589.34562,295.95969 C 588.30562,295.95969 587.48562,295.65969 586.88562,295.06969 C 586.33562,294.41969 586.06562,293.68969 586.06562,292.87969 V 238.01969 C 586.31562,239.09969 586.55562,240.17969 586.80562,241.26969 C 583.74562,237.09969 580.67562,232.93969 577.61562,228.76969 C 574.55562,224.59969 571.48562,220.43969 568.42562,216.26969 C 565.36562,212.09969 562.29562,207.93969 559.23562,203.76969 C 556.17562,199.59969 553.10562,195.43969 550.04562,191.26969 C 549.82562,190.94969 549.66562,190.61969 549.55562,190.29969 C 549.44562,189.97969 549.39562,189.61969 549.39562,189.23969 C 549.39562,188.36969 549.74562,187.66969 550.45562,187.12969 C 551.21562,186.52969 551.98562,186.23969 552.74562,186.23969 C 553.89562,186.23969 554.76562,186.72969 555.36562,187.69969 C 558.27562,191.62969 561.19562,195.55969 564.10562,199.48969 C 567.01562,203.41969 569.93562,207.34969 572.84562,211.27969 C 575.75562,215.20969 578.67562,219.13969 581.58562,223.06969 C 584.49562,226.99969 587.41562,230.92969 590.32562,234.85969 C 589.77562,234.77969 589.23562,234.69969 588.68562,234.61969 C 591.57562,230.70969 594.45562,226.79969 597.34562,222.88969 C 600.23562,218.97969 603.11562,215.06969 606.00562,211.15969 C 608.89562,207.24969 611.77562,203.33969 614.66562,199.42969 C 617.55562,195.51969 620.43562,191.60969 623.32562,187.69969 C 623.92562,186.72969 624.79562,186.23969 625.94562,186.23969 M 743.04565,241.42969 C 743.04565,245.59969 742.71565,249.57969 742.06565,253.37969 C 741.40565,257.17969 740.42565,260.79969 739.11565,264.23969 C 737.83565,267.64969 736.28565,270.82969 734.46565,273.77969 C 732.64565,276.72969 730.56565,279.44969 728.22565,281.93969 C 725.87565,284.42969 723.31565,286.62969 720.52565,288.54969 C 717.73565,290.46969 714.73565,292.10969 711.51565,293.45969 C 708.32565,294.80969 704.97565,295.82969 701.46565,296.49969 C 697.95565,297.17969 694.29565,297.50969 690.47565,297.50969 C 686.65565,297.50969 682.98565,297.16969 679.48565,296.49969 C 675.97565,295.81969 672.62565,294.80969 669.43565,293.45969 C 666.24565,292.10969 663.25565,290.46969 660.46565,288.54969 C 657.68565,286.62969 655.10565,284.41969 652.72565,281.93969 C 650.37565,279.44969 648.29564,276.72969 646.48564,273.77969 C 644.66563,270.82969 643.12563,267.64969 641.83563,264.23969 C 640.55563,260.79969 639.59563,257.18969 638.94563,253.37969 C 638.30563,249.57969 637.98563,245.59969 637.98563,241.42969 C 637.98563,237.25969 638.30563,233.28969 638.94563,229.49969 C 639.58563,225.70969 640.54563,222.10969 641.83563,218.70969 C 643.11563,215.26969 644.66563,212.07969 646.48564,209.10969 C 648.30564,206.14969 650.38565,203.41969 652.72565,200.92969 C 655.09565,198.43969 657.67565,196.23969 660.46565,194.31969 C 663.24565,192.39969 666.23565,190.75969 669.43565,189.40969 C 672.62565,188.05969 675.97565,187.03969 679.48565,186.36969 C 682.99565,185.68969 686.65565,185.35969 690.47565,185.35969 C 694.29565,185.35969 697.96565,185.69969 701.46565,186.36969 C 704.97565,187.04969 708.32565,188.05969 711.51565,189.40969 C 714.73565,190.75969 717.73565,192.39969 720.52565,194.31969 C 723.30565,196.23969 725.87565,198.44969 728.22565,200.92969 C 730.57565,203.41969 732.65565,206.13969 734.46565,209.10969 C 736.28565,212.06969 737.82565,215.26969 739.11565,218.70969 C 740.42565,222.11969 741.40565,225.71969 742.06565,229.49969 C 742.72565,233.27969 743.04565,237.25969 743.04565,241.42969 M 736.41565,241.42969 C 736.41565,238.93969 736.29565,236.52969 736.04565,234.19969 C 735.79565,231.86969 735.43565,229.60969 734.93565,227.42969 C 733.95565,223.06969 732.47565,219.02969 730.51565,215.29969 C 728.54565,211.53969 726.21565,208.20969 723.51565,205.29969 C 720.81565,202.38969 717.74565,199.90969 714.30565,197.84969 C 710.86565,195.76969 707.16565,194.19969 703.18565,193.15969 C 699.21565,192.11969 694.97565,191.59969 690.47565,191.59969 C 685.97565,191.59969 681.82565,192.11969 677.86565,193.15969 C 673.90565,194.19969 670.19565,195.75969 666.72565,197.84969 C 663.28565,199.90969 660.21565,202.38969 657.51565,205.29969 C 654.81565,208.20969 652.47565,211.53969 650.51565,215.29969 C 648.54564,219.02969 647.07564,223.07969 646.09564,227.42969 C 645.60564,229.60969 645.23564,231.85969 644.98564,234.19969 C 644.73563,236.52969 644.61563,238.93969 644.61563,241.42969 C 644.61563,243.91969 644.73563,246.32969 644.98564,248.66969 C 645.23564,251.00969 645.59564,253.26969 646.09564,255.44969 C 647.07564,259.81969 648.55564,263.87969 650.51565,267.63969 C 652.48565,271.36969 654.81565,274.68969 657.51565,277.59969 C 660.21565,280.50969 663.28565,282.99969 666.72565,285.08969 C 670.19565,287.14969 673.90565,288.68969 677.86565,289.71969 C 681.82565,290.74969 686.02565,291.25969 690.47565,291.25969 C 694.92565,291.25969 699.21565,290.74969 703.18565,289.71969 C 707.15565,288.68969 710.86565,287.14969 714.30565,285.08969 C 717.74565,283.00969 720.81565,280.50969 723.51565,277.59969 C 726.21565,274.68969 728.55565,271.36969 730.51565,267.63969 C 732.48565,263.87969 733.95565,259.80969 734.93565,255.44969 C 735.42565,253.26969 735.79565,250.99969 736.04565,248.66969 C 736.29565,246.32969 736.41565,243.91969 736.41565,241.42969 M 814.94565,297.50969 C 806.81565,297.50969 799.30565,296.12969 792.42565,293.36969 C 785.54565,290.60969 779.56565,286.70969 774.49565,281.67969 C 769.41565,276.64969 765.48565,270.71969 762.70565,263.90969 C 759.92565,257.03969 758.52565,249.53969 758.52565,241.42969 C 758.52565,233.31969 759.91565,225.84969 762.70565,219.02969 C 765.48565,212.15969 769.41565,206.20969 774.49565,201.16969 C 779.57565,196.13969 785.54565,192.23969 792.42565,189.47969 C 799.30565,186.71969 806.80565,185.33969 814.94565,185.33969 C 820.73565,185.33969 826.29565,186.03969 831.64565,187.44969 C 836.99565,188.85969 841.77565,190.93969 845.97565,193.69969 C 846.46565,194.01969 846.82565,194.42969 847.03565,194.91969 C 847.25565,195.40969 847.36565,195.88969 847.36565,196.37969 C 847.36565,197.40969 846.98565,198.18969 846.21565,198.72969 C 845.50565,199.26969 844.87565,199.53969 844.33565,199.53969 C 843.95565,199.53969 843.59565,199.45969 843.27565,199.29969 C 842.94565,199.13969 842.61565,198.99969 842.29565,198.88969 C 838.41565,196.72969 834.16565,194.96969 829.52565,193.60969 C 824.93565,192.25969 820.08565,191.57969 814.94565,191.57969 C 805.22565,191.57969 796.60565,193.73969 789.06565,198.06969 C 781.58565,202.33969 775.71565,208.21969 771.45565,215.67969 C 767.25565,223.14969 765.14565,231.71969 765.14565,241.40969 C 765.14565,251.09969 767.24565,259.69969 771.45565,267.21969 C 775.71565,274.73969 781.58565,280.63969 789.06565,284.90969 C 796.59565,289.12969 805.22565,291.23969 814.94565,291.23969 C 820.18565,291.23969 825.34565,290.45969 830.42565,288.88969 C 835.55565,287.26969 840.06565,285.15969 843.93565,282.55969 L 843.27565,285.31969 V 246.35969 C 844.01565,247.03969 844.74565,247.70969 845.48565,248.38969 H 814.94565 C 814.12565,248.38969 813.38565,248.08969 812.73565,247.49969 C 812.13565,246.84969 811.83565,246.11969 811.83565,245.30969 C 811.83565,244.38969 812.13565,243.65969 812.73565,243.11969 C 813.39565,242.51969 814.12565,242.22969 814.94565,242.22969 H 846.38565 C 847.36565,242.22969 848.13565,242.54969 848.67565,243.19969 C 849.27565,243.79969 849.57565,244.49969 849.57565,245.30969 V 284.42969 C 849.57565,284.85969 849.46565,285.34969 849.24565,285.88969 C 849.02565,286.37969 848.64565,286.80969 848.09565,287.18969 C 843.50565,290.32969 838.35565,292.83969 832.61565,294.73969 C 826.93565,296.57969 821.04565,297.49969 814.92565,297.49969 M 916.94565,193.27969 C 911.53565,200.70969 908.22565,209.54969 903.85565,219.13969 C 903.05565,226.88969 909.59565,235.98969 905.47565,251.87969 C 894.99565,260.45969 885.14565,252.56969 888.72565,267.96969 C 887.92565,280.17969 885.12565,288.40969 881.26565,297.18969 C 879.69565,295.58969 877.50565,294.57969 875.42565,295.01969 C 874.03565,295.49969 872.46565,295.42969 870.55565,297.23969 C 869.58565,296.02969 869.17565,294.96969 869.42565,293.96969 C 869.90565,293.20969 870.56565,292.67969 871.51565,292.50969 C 872.38565,292.09969 873.55565,292.20969 875.88565,290.65969 C 876.66565,289.65969 877.35565,286.49969 877.65565,281.42969 C 878.49565,277.64969 878.82565,273.11969 877.99565,267.62969 C 876.76565,261.27969 880.80565,254.79969 887.82565,252.81969 C 895.89565,252.29969 902.97565,249.73969 901.92565,251.51969 C 902.44565,240.61969 900.65565,235.98969 897.77565,230.33969 C 896.34565,224.70969 897.52565,218.72969 898.89565,212.78969 C 901.52565,207.60969 904.22565,202.81969 907.46565,198.46969 C 910.49565,195.71969 914.45565,192.28969 915.17565,189.14969 C 915.26565,188.27969 915.07565,187.56969 914.89565,187.27969 C 916.60565,183.72969 915.54565,179.41969 917.51565,176.17969 C 919.03565,182.31969 918.31565,184.93969 919.14565,186.68969 C 919.42565,187.23969 919.34565,187.75969 919.40565,189.31969 C 920.09565,191.69969 922.46565,194.38969 925.15565,196.93969 C 929.93565,202.42969 932.06565,207.20969 933.58565,214.41969 C 934.77565,219.95969 933.13565,227.90969 931.25565,233.63969 C 930.88565,239.08969 931.81565,242.99969 934.46565,246.83969 C 936.88565,249.71969 940.39565,251.58969 947.31565,253.54969 C 953.46565,255.48969 957.60565,260.84969 957.88565,266.09969 C 957.95565,271.78969 958.18565,274.45969 959.97565,278.65969 C 962.07565,284.42969 963.04565,289.20969 964.36565,291.01969 C 964.81565,291.92969 966.03565,292.64969 968.88565,293.05969 C 969.08565,293.17969 970.06565,293.74969 970.59565,294.78969 C 970.63565,295.92969 970.39565,296.54969 970.01565,297.27969 C 967.31565,295.40969 965.65565,295.55969 964.98565,295.39969 C 962.79565,296.03969 961.09565,295.93969 958.79565,297.91969 C 952.42565,287.68969 946.92565,276.84969 949.47565,266.55969 C 951.87565,256.57969 938.01565,258.47969 931.27565,250.17969 C 923.19565,241.79969 924.00565,229.38969 928.68565,217.31969 C 925.15565,206.99969 921.25565,198.00969 916.44565,192.89969 C 916.50565,192.96969 916.68565,193.04969 916.97565,193.29969 M 884.62565,275.81969 C 884.85565,275.59969 885.70565,275.25969 886.76565,275.01969 C 892.02565,272.37969 893.99565,274.40969 911.76565,275.23969 C 924.28565,273.68969 926.68565,272.53969 937.54565,275.14969 C 938.50565,275.40969 939.51565,275.72969 939.97565,275.96969 C 945.48565,279.24969 932.24565,278.47969 923.30565,277.95969 C 916.69565,277.47969 913.74565,276.97969 912.15565,276.64969 C 912.35565,276.24969 908.23565,276.67969 899.67565,276.51969 C 896.95565,276.40969 891.65565,276.95969 884.62565,275.82969"
     id="path17" />
  <path
     class="d"
     d="M 52.11035,424.28864 C 52.11035,428.13864 52.15035,431.99864 52.22035,435.86864 C 52.30035,439.73864 52.41035,443.60864 52.56035,447.48864 L 52.86035,459.19864 C 52.86035,462.59864 52.24035,465.14864 51.00032,466.85864 C 49.76029,468.55864 47.90026,469.40864 45.4302,469.40864 C 42.96017,469.40864 41.10011,468.55864 39.86008,466.85864 C 38.62008,465.15864 38.00005,462.60864 38.00005,459.19864 L 38.30005,447.26864 C 38.45008,443.26864 38.57008,439.33864 38.64008,435.48864 C 38.72008,431.63864 38.75008,427.85864 38.75008,424.15864 C 37.54005,422.10864 36.37002,420.11864 35.24001,418.17864 C 34.10001,416.24864 33.00001,414.36864 31.94001,412.55864 C 29.81001,408.92864 27.82001,405.52864 25.97001,402.37864 C 24.12001,399.21864 22.41001,396.29864 20.84001,393.60864 C 19.27001,390.91864 17.85001,388.46864 16.56001,386.25864 C 13.99001,381.82864 11.98001,378.34864 10.54001,375.80864 C 9.10001,373.26864 8.22001,371.67864 7.90001,371.01864 C 6.64001,368.41864 6.00001,366.31864 6.00001,364.70864 C 6.00001,363.09864 6.58001,361.60864 7.74001,360.35864 C 8.90001,359.10864 10.57001,358.47864 12.74001,358.47864 C 14.91001,358.47864 16.78001,359.50864 18.35001,361.55864 C 19.13001,362.58864 20.43001,364.72864 22.24001,367.97864 C 23.14001,369.60864 24.17001,371.50864 25.33001,373.68864 C 26.49001,375.86864 27.78001,378.32864 29.19001,381.06864 C 30.61001,383.80864 32.02001,386.46864 33.44001,389.04864 C 34.86001,391.62864 36.27002,394.13864 37.69005,396.56864 C 39.11008,398.99864 40.52011,401.34864 41.94014,403.61864 C 43.36017,405.88864 44.7702,408.07864 46.19023,410.19864 C 47.35023,408.46864 48.96029,405.82864 51.00032,402.27864 C 52.02035,400.49864 53.16035,398.49864 54.40038,396.26864 C 55.64041,394.03864 57.00044,391.57864 58.47047,388.88864 C 59.9405,386.19864 61.25053,383.79864 62.40053,381.67864 C 63.56056,379.56864 64.56059,377.73864 65.40059,376.19864 C 67.09065,373.11864 68.17065,371.19864 68.62068,370.41864 C 69.53068,368.81864 70.19071,367.66864 70.59071,366.96864 C 70.99071,366.21864 71.55074,365.26864 72.26074,364.11864 C 73.02077,362.96864 73.60077,362.13864 74.00077,361.63864 C 74.4508,361.08864 74.9608,360.50864 75.5208,359.90864 C 76.53083,358.95864 77.90086,358.47864 79.61089,358.47864 C 81.32092,358.47864 82.82095,359.05864 83.93098,360.20864 C 85.04101,361.35864 85.60101,362.75864 85.60101,364.40864 C 85.60101,366.05864 84.89098,368.13864 83.48098,370.78864 C 82.77095,372.11864 81.65092,374.10864 80.13089,376.75864 C 78.61086,379.40864 76.66083,382.72864 74.31077,386.70864 C 71.96074,390.68864 70.03071,393.95864 68.51068,396.51864 C 66.99065,399.07864 65.89062,400.93864 65.21059,402.08864 C 63.85056,404.33864 61.92053,407.61864 59.4505,411.91864 C 58.21047,414.04864 56.98044,416.13864 55.75041,418.20864 C 54.52038,420.26864 53.30035,422.30864 52.09035,424.30864 M 148.98227,457.63864 C 154.06239,457.63864 158.71248,456.52864 162.93257,454.31864 C 167.15263,452.10864 170.94272,448.77864 174.30278,444.35864 C 177.69284,439.92864 180.2329,435.15864 181.92293,430.03864 C 183.61296,424.91864 184.46299,419.45864 184.46299,413.65864 C 184.46299,407.85864 183.62296,402.40864 181.94293,397.32864 C 180.2629,392.24864 177.74284,387.52864 174.38278,383.17864 C 171.04272,378.82864 167.26263,375.55864 163.03257,373.37864 C 158.80248,371.19864 154.12239,370.10864 148.98227,370.10864 C 143.84218,370.10864 139.16209,371.19864 134.922,373.37864 C 130.67191,375.55864 126.87182,378.81864 123.51176,383.17864 C 120.1517,387.52864 117.63164,392.24864 115.95161,397.32864 C 114.27158,402.40864 113.43158,407.84864 113.43158,413.65864 C 113.43158,419.46864 114.28158,424.88864 115.97161,429.99864 C 117.66164,435.10864 120.2017,439.89864 123.59176,444.35864 C 126.98185,448.78864 130.79191,452.10864 135.022,454.31864 C 139.25209,456.52864 143.91218,457.63864 148.99227,457.63864 M 184.33299,373.99864 C 189.03308,379.42864 192.56314,385.45864 194.9132,392.08864 C 196.09323,395.40864 196.97323,398.86864 197.55326,402.48864 C 198.14326,406.10864 198.43326,409.86864 198.43326,413.78864 C 198.43326,417.70864 198.13326,421.46864 197.54326,425.09864 C 196.95323,428.71864 196.06323,432.19864 194.8732,435.51864 C 192.49314,442.17864 188.93308,448.23864 184.18299,453.71864 C 179.4529,459.19864 174.15278,463.30864 168.26266,466.04864 C 162.37254,468.78864 155.90242,470.15864 148.85227,470.15864 C 141.80212,470.15864 135.332,468.78864 129.44188,466.04864 C 123.55176,463.30864 118.24167,459.19864 113.52158,453.71864 C 108.82146,448.23864 105.2914,442.16864 102.94137,435.51864 C 101.76134,432.18864 100.88131,428.71864 100.30131,425.09864 C 99.71128,421.47864 99.42128,417.70864 99.42128,413.78864 C 99.42128,409.86864 99.72128,406.10864 100.31131,402.48864 C 100.90131,398.86864 101.79134,395.40864 102.98137,392.08864 C 105.3614,385.45864 108.92149,379.42864 113.67158,373.99864 C 118.45167,368.56864 123.79176,364.49864 129.71188,361.77864 C 135.622,359.06864 142.11215,357.70864 149.16227,357.70864 C 156.21242,357.70864 162.67254,359.06864 168.53266,361.77864 C 174.39278,364.48864 179.6629,368.56864 184.34299,373.99864 M 286.84503,410.62864 C 292.96515,410.32864 299.07527,410.02864 305.19539,409.72864 C 307.82545,409.72864 309.92551,410.35864 311.48554,411.60864 C 313.10557,412.85864 313.91557,414.68864 313.91557,417.08864 C 313.91557,421.17864 313.65557,425.05864 313.13557,428.71864 C 312.61554,432.37864 311.83554,435.82864 310.80551,439.05864 C 308.73548,445.52864 305.62542,451.13864 301.47533,455.88864 C 297.33524,460.63864 292.52515,464.20864 287.06503,466.58864 C 281.60494,468.96864 275.49482,470.15864 268.71467,470.15864 C 261.93455,470.15864 255.7044,468.78864 250.00431,466.04864 C 244.30419,463.30864 239.14407,459.19864 234.51398,453.71864 C 229.91389,448.23864 226.46383,442.16864 224.16377,435.51864 C 223.01377,432.18864 222.15374,428.71864 221.57374,425.09864 C 220.99371,421.47864 220.71371,417.70864 220.71371,413.78864 C 220.71371,409.86864 221.01371,406.10864 221.60374,402.48864 C 222.19374,398.86864 223.08377,395.40864 224.27377,392.08864 C 226.65383,385.45864 230.21389,379.42864 234.96401,373.99864 C 239.7441,368.56864 245.14419,364.49864 251.17431,361.77864 C 257.20443,359.05864 263.85458,357.70864 271.13473,357.70864 C 275.63482,357.70864 279.93491,358.14864 284.04497,359.03864 C 288.15506,359.92864 292.06515,361.25864 295.77521,363.03864 C 303.20536,366.58864 306.92545,370.44864 306.92545,374.59864 C 306.92545,376.39864 306.36542,377.84864 305.25539,378.94864 C 304.14539,379.99864 302.47536,380.52864 300.2553,380.52864 C 298.03527,380.52864 295.14521,379.22864 291.46512,376.62864 C 285.555,372.37864 278.77488,370.24864 271.14473,370.24864 C 265.88461,370.24864 261.08452,371.31864 256.73443,373.45864 C 252.38434,375.59864 248.49428,378.80864 245.05419,383.08864 C 241.61413,387.36864 239.04407,392.04864 237.32404,397.12864 C 235.60401,402.20864 234.74398,407.68864 234.74398,413.56864 C 234.74398,419.44864 235.56401,424.95864 237.20404,430.09864 C 238.84407,435.23864 241.31413,440.00864 244.59419,444.41864 C 247.90425,448.81864 251.63434,452.12864 255.7744,454.32864 C 259.91449,456.52864 264.48458,457.62864 269.4647,457.62864 C 273.60476,457.62864 277.40485,456.86864 280.85491,455.35864 C 284.30497,453.84864 287.40503,451.57864 290.16509,448.54864 C 292.94515,445.51864 295.07521,441.85864 296.55524,437.54864 C 298.03527,433.24864 298.86527,428.29864 299.03527,422.72864 C 295.85521,422.42864 291.78512,422.27864 286.82503,422.27864 C 280.27491,422.52864 273.73476,422.77864 267.18464,423.02864 C 264.55458,423.02864 262.50455,422.44864 261.04452,421.29864 C 259.57449,420.14864 258.84446,418.59864 258.84446,416.64864 C 258.84446,414.69864 259.57449,413.01864 261.04452,411.76864 C 262.51455,410.51864 264.55458,409.88864 267.18464,409.88864 C 273.73476,410.13864 280.27491,410.38864 286.82503,410.63864 M 393.59716,429.96864 C 385.93701,433.02864 382.04695,433.73864 374.39677,433.31864 C 362.08653,433.56864 352.98635,428.02864 354.57638,428.76864 C 352.81635,433.33864 350.12629,439.34864 345.6062,447.97864 C 342.24614,454.36864 339.72608,460.32864 336.33602,466.04864 C 335.73602,469.82864 334.61599,471.16864 332.12593,471.47864 C 330.6259,471.26864 329.9059,470.82864 329.13587,470.45864 C 328.78587,469.39864 329.00587,468.53864 328.81587,467.49864 C 329.15587,465.76864 329.5459,464.09864 329.9059,462.76864 C 330.4359,461.31864 330.8959,460.63864 331.32593,458.54864 C 331.79593,456.81864 332.66596,454.60864 333.64596,450.71864 C 336.37602,442.47864 337.97605,436.52864 338.37605,430.17864 C 344.09617,431.19864 342.94617,431.26864 341.89614,431.63864 C 340.43611,431.11864 339.66608,430.41864 338.45608,430.67864 C 340.71611,423.33864 337.71605,419.20864 340.66611,415.85864 C 340.81611,415.82864 338.04605,415.39864 339.25608,415.02864 C 345.1962,389.38864 360.2465,379.20864 363.87656,374.28864 C 365.52662,371.92864 365.96662,370.99864 366.07662,370.78864 C 366.30662,370.35864 366.48662,369.94864 366.76662,369.33864 C 367.58665,368.49864 368.20665,367.83864 368.53668,367.10864 C 363.04656,366.32864 362.29653,363.57864 365.95662,366.93864 C 368.17665,366.66864 369.64668,366.53864 370.91671,365.42864 C 371.49674,364.74864 372.08674,364.03864 372.48674,362.34864 C 373.28677,360.76864 374.4768,356.85864 373.85677,353.25864 C 374.4268,353.13864 374.9868,352.65864 375.5468,352.25864 C 376.29683,351.95864 376.77683,351.67864 377.23683,351.59864 C 378.60686,358.10864 379.32689,359.65864 380.12689,360.93864 C 380.41692,361.44864 380.68692,361.90864 379.67689,370.75864 C 380.12689,371.60864 380.40689,372.56864 380.86692,374.19864 C 383.48698,392.18864 386.96704,407.62864 396.84722,422.60864 C 398.62728,422.00864 399.32728,421.68864 405.0074,418.20864 C 411.04752,417.46864 411.81752,417.73864 413.88758,418.18864 C 414.27758,418.45864 414.98761,423.75864 418.58767,428.58864 C 417.08764,435.82864 412.91755,437.65864 406.66743,435.35864 C 405.4574,441.11864 404.10737,446.57864 404.06737,449.07864 C 406.41743,460.60864 408.03746,463.24864 408.13746,464.86864 C 412.15755,468.05864 419.04767,468.32864 420.4977,469.85864 C 414.78758,471.67864 408.89746,469.66864 406.59743,471.27864 C 404.6074,470.67864 403.67737,469.24864 403.72737,464.89864 C 402.33734,461.78864 393.78716,449.56864 393.63716,429.98864 M 358.96647,410.76864 C 368.97668,418.57864 372.44674,420.30864 373.10677,420.33864 C 378.62686,417.79864 383.11695,416.90864 384.42698,416.76864 C 374.11677,394.52864 374.4168,375.61864 375.8868,368.08864 C 370.14671,375.06864 364.58659,385.57864 355.88641,403.79864 C 355.79641,404.19864 355.69641,404.23864 358.95647,410.77864"
     id="path9" />
  <path
     class="d"
     d="M 112.48155,525.53806 C 111.55152,526.82806 110.61152,528.12806 109.68149,529.41806 C 108.75146,530.70806 107.81146,532.00806 106.88143,533.29806 C 105.95143,534.58806 105.0114,535.88806 104.08137,537.17806 C 103.15137,538.46806 102.21134,539.76806 101.28131,541.05806 C 100.35131,542.34806 99.41128,543.64806 98.48128,544.93806 C 97.55125,546.22806 96.61122,547.52806 95.68122,548.81806 C 94.75119,550.10806 93.81116,551.40806 92.88116,552.69806 C 91.95113,553.98806 91.01113,555.28806 90.0811,556.57806 C 89.15107,557.86806 88.21107,559.16806 87.28104,560.45806 C 86.35101,561.74806 85.41101,563.04806 84.48098,564.33806 C 83.55098,565.62806 82.61095,566.92806 81.68092,568.21806 L 78.88086,572.09806 C 77.95086,573.38806 77.01083,574.68806 76.08083,575.97806 C 75.1508,577.26806 74.21077,578.56806 73.28077,579.85806 C 72.35074,581.14806 71.41074,582.44806 70.48071,583.73806 C 69.55068,585.02806 68.61068,586.32806 67.68065,587.61806 L 67.42065,593.94806 L 67.16065,600.27806 C 67.07065,602.38806 66.99065,604.49806 66.90062,606.60806 L 66.64062,612.93806 C 66.55062,615.04806 66.47062,617.15806 66.38062,619.26806 C 66.29062,621.37806 66.21062,623.48806 66.12062,625.59806 L 65.86062,631.92806 C 65.77062,634.03806 65.69062,636.14806 65.60062,638.25806 H 26.81998 C 26.85998,636.15806 26.89998,634.05806 26.93998,631.95806 C 26.97998,629.85806 27.01998,627.75806 27.05998,625.65806 C 27.09998,623.55806 27.13998,621.45806 27.17998,619.35806 C 27.21998,617.25806 27.25998,615.15806 27.29998,613.05806 C 27.33998,610.95806 27.37998,608.85806 27.41998,606.75806 C 27.45998,604.65806 27.49998,602.55806 27.53998,600.45806 C 27.57998,598.35806 27.61998,596.25806 27.65998,594.15806 C 27.69998,592.05806 27.73998,589.95806 27.77998,587.85806 C 26.80998,585.35806 25.83998,582.85806 24.86998,580.36806 L 21.95998,572.87806 C 20.98998,570.37806 20.01998,567.87806 19.04998,565.38806 C 18.07998,562.89806 17.10998,560.38806 16.13998,557.89806 C 15.16998,555.39806 14.19998,552.89806 13.22998,550.40806 C 12.25998,547.90806 11.28998,545.40806 10.31998,542.91806 C 9.34998,540.41806 8.37998,537.91806 7.40998,535.42806 C 6.43998,532.92806 5.46998,530.42806 4.49998,527.93806 C 6.22998,527.71806 7.95998,527.50806 9.69998,527.28806 C 11.42998,527.06806 13.15998,526.85806 14.89998,526.63806 C 16.62998,526.41806 18.35998,526.20806 20.09998,525.98806 C 21.82998,525.76806 23.55998,525.55806 25.29998,525.33806 C 27.02998,525.11806 28.75998,524.90806 30.49998,524.68806 L 35.70002,524.03806 C 37.43005,523.81806 39.16008,523.60806 40.90011,523.38806 L 46.10023,522.73806 C 46.64023,525.64806 47.19023,528.55806 47.73026,531.46806 C 48.00026,532.92806 48.27026,534.37806 48.55026,535.83806 C 48.82026,537.29806 49.09029,538.74806 49.37029,540.20806 C 49.91029,543.11806 50.46032,546.02806 51.00032,548.93806 C 51.54032,551.84806 52.09035,554.75806 52.63035,557.66806 C 53.50038,556.20806 54.36038,554.75806 55.23041,553.29806 C 56.10041,551.83806 56.96044,550.38806 57.83044,548.92806 L 60.4305,544.55806 C 61.30053,543.09806 62.16053,541.64806 63.03056,540.18806 C 63.90056,538.72806 64.76059,537.27806 65.63062,535.81806 C 66.50062,534.35806 67.36065,532.90806 68.23065,531.44806 C 69.10068,529.98806 69.96071,528.53806 70.83071,527.07806 C 71.70074,525.61806 72.56074,524.16806 73.43077,522.70806 C 75.0608,522.82806 76.69083,522.93806 78.32086,523.04806 C 79.95089,523.16806 81.58092,523.27806 83.21095,523.38806 C 84.84098,523.50806 86.47104,523.61806 88.10107,523.72806 C 89.7311,523.84806 91.36113,523.95806 92.99116,524.06806 C 94.62119,524.17806 96.25122,524.29806 97.88125,524.40806 C 99.51128,524.51806 101.14131,524.63806 102.77134,524.74806 L 107.66146,525.09806 C 109.29149,525.20806 110.92152,525.32806 112.55155,525.43806 M 208.73347,577.78806 C 208.73347,582.67806 208.15347,587.41806 206.99344,592.01806 C 205.83341,596.55806 204.18338,600.84806 202.03335,604.86806 C 199.88329,608.83806 197.28323,612.48806 194.20317,615.81806 C 191.13311,619.09806 187.68305,621.90806 183.85296,624.26806 C 180.0229,626.62806 175.85281,628.46806 171.33272,629.78806 C 166.81263,631.10806 162.02254,631.76806 156.98245,631.76806 C 151.94233,631.76806 147.44224,631.16806 142.98215,629.95806 C 138.57206,628.69806 134.432,626.93806 130.54191,624.69806 C 126.71182,622.45806 123.24176,619.77806 120.1017,616.67806 C 116.97164,613.51806 114.30158,610.00806 112.10155,606.15806 C 109.90149,602.30806 108.19146,598.16806 106.97143,593.73806 C 105.7514,589.30806 105.1414,584.67806 105.1414,579.84806 C 105.1414,575.01806 105.6914,570.61806 106.79143,566.13806 C 107.95146,561.59806 109.60149,557.33806 111.75152,553.37806 C 113.90158,549.40806 116.48164,545.75806 119.4917,542.42806 C 122.56176,539.03806 125.98182,536.12806 129.75188,533.71806 C 133.58197,531.30806 137.69206,529.43806 142.10215,528.10806 C 146.51224,526.72806 151.14233,526.03806 156.01242,526.03806 C 163.89257,526.03806 171.08272,527.24806 177.58284,529.65806 C 184.07299,532.06806 189.61308,535.54806 194.19317,540.09806 C 198.77326,544.57806 202.34335,550.01806 204.89338,556.39806 C 207.44344,562.77806 208.72347,569.90806 208.72347,577.78806 M 172.46275,579.85806 C 172.46275,577.55806 172.11275,575.31806 171.42272,573.12806 C 170.78272,570.94806 169.80269,569.01806 168.46266,567.34806 C 167.18263,565.62806 165.5626,564.24806 163.59257,563.20806 C 161.68254,562.17806 159.47248,561.65806 156.98245,561.65806 C 154.49239,561.65806 152.14233,562.11806 150.1123,563.03806 C 148.14227,563.89806 146.43224,565.13806 144.98221,566.74806 C 143.53218,568.35806 142.43215,570.22806 141.68212,572.35806 C 140.93212,574.48806 140.55212,576.72806 140.55212,579.08806 C 140.55212,581.44806 140.87212,583.59806 141.51212,585.89806 C 142.15215,588.13806 143.10215,590.17806 144.38218,592.01806 C 145.71221,593.85806 147.34224,595.34806 149.25227,596.49806 C 151.22233,597.58806 153.48236,598.13806 156.03242,598.13806 C 158.58248,598.13806 160.87251,597.64806 162.90254,596.66806 C 164.9326,595.68806 166.64263,594.36806 168.03266,592.69806 C 169.48269,590.97806 170.58272,589.01806 171.33272,586.83806 C 172.08275,584.59806 172.46275,582.26806 172.46275,579.84806 M 308.65548,617.09806 C 309.27548,620.25806 306.25542,624.75806 303.03536,627.44806 C 297.67524,629.23806 293.13515,630.72806 285.515,630.51806 C 277.41485,631.54806 276.09482,631.62806 273.17476,631.79806 C 268.51467,632.16806 265.70461,632.28806 261.69452,631.90806 C 252.54434,632.76806 247.61425,631.06806 242.04413,627.65806 C 238.52407,625.30806 235.07401,622.45806 230.27389,615.36806 C 229.42389,614.67806 223.61377,603.08806 221.14371,596.48806 C 218.41368,591.70806 215.19359,582.54806 218.07365,570.33806 C 218.84368,568.36806 214.68359,561.00806 214.72359,560.85806 C 215.21359,555.28806 216.17362,553.25806 222.58374,547.00806 C 226.29383,544.62806 226.57383,544.29806 233.94398,542.31806 C 236.77404,540.55806 243.84416,537.55806 247.56425,536.17806 C 254.9544,531.52806 255.99443,530.90806 261.14452,515.71806 C 263.56458,515.72806 263.84458,515.76806 268.65467,517.64806 C 272.58476,516.03806 272.73476,516.02806 277.94485,520.22806 C 285.575,519.10806 277.37485,516.86806 283.52497,516.05806 C 287.79506,518.16806 291.68512,520.39806 292.86515,521.04806 C 292.79515,522.18806 292.60515,525.18806 295.08521,524.92806 C 299.5153,531.61806 298.14527,538.41806 298.18527,540.32806 C 298.24527,540.77806 294.73518,548.86806 292.34515,550.12806 C 291.93515,548.54806 290.97512,549.93806 291.26512,550.94806 C 291.52512,552.53806 284.20497,554.15806 278.54488,554.02806 C 272.53476,552.86806 265.25461,542.94806 264.32458,543.05806 C 264.90458,542.89806 262.82455,544.36806 260.27449,558.38806 C 256.06443,563.44806 254.6244,565.32806 251.37431,569.18806 C 248.00425,573.60806 246.75422,575.67806 246.27422,576.88806 C 244.39419,581.44806 244.24419,581.93806 244.66419,582.85806 C 244.94419,583.75806 245.06419,583.89806 255.5944,586.61806 C 258.77446,590.92806 259.44449,591.49806 259.80449,591.73806 C 265.01461,601.08806 265.75461,601.40806 266.17461,601.48806 C 269.5347,601.70806 273.34476,602.02806 274.23479,602.00806 C 281.93494,604.28806 286.32503,603.70806 286.07503,603.87806 C 284.13497,597.99806 283.61497,595.31806 286.72503,580.79806 C 276.67482,590.27806 272.03473,595.31806 260.13449,600.41806 C 251.03431,585.77806 250.01431,583.93806 266.26461,574.38806 C 266.50464,574.48806 276.88482,571.49806 285.045,567.93806 C 286.47503,553.08806 296.94524,557.00806 316.63563,564.37806 C 303.30536,570.20806 298.50527,573.57806 297.78524,574.54806 C 297.41524,576.07806 298.45527,579.63806 301.18533,586.47806 C 303.68536,592.22806 305.96542,598.10806 306.74542,604.58806 C 308.40545,611.83806 309.37548,615.26806 308.64548,617.09806 M 422.21773,627.88806 C 418.84767,628.31806 415.47761,628.74806 412.10755,629.17806 C 408.73746,629.60806 405.3674,630.03806 401.99734,630.46806 L 391.88713,631.75806 L 381.77692,633.04806 C 380.96692,629.99806 380.15689,626.95806 379.34689,623.90806 C 378.53686,620.85806 377.72686,617.81806 376.91683,614.76806 H 358.30647 L 356.26641,623.90806 C 355.58641,626.95806 354.90638,629.99806 354.22638,633.04806 C 350.76632,632.70806 347.29623,632.36806 343.83617,632.03806 L 333.44596,631.02806 C 329.9859,630.68806 326.51584,630.34806 323.05575,630.01806 C 319.59569,629.67806 316.12563,629.33806 312.66554,629.00806 C 314.01557,624.52806 315.3656,620.03806 316.71563,615.55806 C 318.06566,611.07806 319.41569,606.58806 320.76572,602.10806 C 322.11575,597.62806 323.46578,593.13806 324.81578,588.65806 C 326.16581,584.17806 327.51584,579.68806 328.86587,575.20806 C 330.2159,570.72806 331.56593,566.23806 332.91596,561.75806 C 334.26599,557.27806 335.61602,552.78806 336.96605,548.30806 C 338.31605,543.82806 339.66608,539.33806 341.01611,534.85806 C 342.36614,530.37806 343.71617,525.88806 345.0662,521.40806 L 356.39641,520.82806 L 367.72665,520.24806 L 379.05689,519.66806 C 382.83695,519.47806 386.60704,519.27806 390.3871,519.08806 C 391.04713,521.35806 391.71713,523.62806 392.37713,525.88806 C 393.03716,528.15806 393.70716,530.42806 394.36719,532.68806 C 395.02719,534.95806 395.69722,537.22806 396.35722,539.48806 C 397.01725,541.75806 397.68725,544.02806 398.34725,546.28806 C 399.00728,548.55806 399.67728,550.82806 400.33731,553.08806 C 400.99731,555.35806 401.66734,557.62806 402.32734,559.88806 C 402.98737,562.15806 403.65737,564.42806 404.31737,566.68806 C 404.9774,568.95806 405.6474,571.22806 406.30743,573.48806 C 406.96743,575.75806 407.63746,578.02806 408.29746,580.28806 C 408.95749,582.55806 409.62749,584.82806 410.28749,587.08806 C 410.94752,589.35806 411.61752,591.62806 412.27755,593.88806 C 412.93755,596.15806 413.60758,598.42806 414.26758,600.68806 C 414.92761,602.95806 415.59761,605.22806 416.25761,607.48806 C 416.91764,609.75806 417.58764,612.02806 418.24767,614.28806 C 418.90767,616.55806 419.5777,618.82806 420.2377,621.08806 C 420.8977,623.35806 421.56773,625.62806 422.22773,627.88806 M 373.96677,590.10806 C 373.45677,587.75806 372.93677,585.40806 372.42674,583.05806 C 371.91674,580.70806 371.39671,578.35806 370.88671,576.00806 C 370.37671,573.65806 369.85668,571.30806 369.34668,568.95806 C 368.83668,566.60806 368.31665,564.25806 367.80665,561.90806 C 367.29665,564.25806 366.79662,566.60806 366.28662,568.95806 C 365.77662,571.30806 365.27659,573.65806 364.76659,576.00806 C 364.25659,578.35806 363.75656,580.70806 363.24656,583.05806 C 362.73656,585.40806 362.23653,587.75806 361.72653,590.10806 H 373.98677"
     id="path13" />
  <g
     id="g459"
     transform="translate(-495.30987,16.455936)">
    <path
       class="d"
       d="M 559.04,118.73 H 524.59 C 524.49,117.97 524.36,117.07 524.21,116.01 C 524.06,114.9 523.98,113.59 523.98,112.08 C 523.98,107.8 524.61,103.57 525.87,99.39 C 527.13,95.21 528.62,91.41 530.33,87.98 C 532.09,84.56 533.63,81.86 534.94,79.9 C 531.16,76.98 527.23,73.65 523.15,69.93 C 519.12,66.15 515.29,61.52 511.67,56.03 C 508.09,50.54 505.22,43.87 503.06,36.01 C 500.89,28.15 499.81,18.66 499.81,7.53 H 528.82 V 26.18 C 528.82,34.94 530.71,42.6 534.49,49.15 C 538.32,55.7 543.08,60.86 548.77,64.64 C 551.54,61.62 553.96,57.69 556.02,52.85 C 558.09,48.01 559.7,42.88 560.86,37.44 C 562.07,31.95 562.67,26.84 562.67,22.1 C 562.67,19.03 562.62,16.48 562.52,14.47 C 562.42,12.4 562.27,10.09 562.07,7.52 H 586.55 C 586.65,8.23 586.73,8.98 586.78,9.79 C 586.83,10.55 586.86,11.55 586.86,12.81 C 586.86,20.57 586.05,27.47 584.44,33.51 C 582.83,39.55 580.79,45.07 578.32,50.06 C 575.9,55 573.36,59.78 570.69,64.41 C 568.47,68.39 566.38,72.42 564.42,76.5 C 562.46,80.53 560.87,84.81 559.66,89.34 C 558.45,93.87 557.85,98.93 557.85,104.53 C 557.85,106.7 557.95,108.89 558.15,111.1 C 558.4,113.27 558.7,115.81 559.06,118.73"
       id="path25" />
    <path
       class="d"
       d="M 696.03,71.16 C 694.9,74.4 694.22,76.77 693.38,79.84 C 693.29,80.62 690.21,85.73 690.07,86.98 C 686.86,91.3 686.78,91.59 684.58,94.5 C 698.06,99.23 697.83,100.53 695.13,109.29 C 693.51,112.65 692.33,113.73 684.34,115.74 C 682.08,116.52 678.1,116.89 674.4,116.8 C 671.13,116.37 667.92,116.32 662.91,115 C 656.51,115.96 656.13,115.98 650.92,118.73 C 647.51,118.14 642.93,117.6 640.67,116.54 C 637.19,115.86 636.4,115.63 632.75,115.87 C 627.9,114.71 626.15,114.16 623.25,112.97 C 617.88,110.81 615.78,109.14 614.17,107.1 C 612.63,104.66 612.38,104.15 611.09,100.18 C 615.28,90.98 617.2,95.11 614.61,88.35 C 614.61,89.01 612.74,84.92 610.91,81.07 C 608.34,75.97 608.3,75.66 607.46,72.98 C 606.61,70.88 606.33,69.31 606.74,66.3 C 606.6,63.97 606.35,61.97 606.22,58.39 C 606.82,54.41 607.56,49.77 609.18,44.52 C 610.06,41.45 611.22,39.08 613.12,35.17 C 616.69,29.11 616.95,28.78 619.85,25.86 C 621.35,24.58 622.89,22.92 623.97,21.64 C 628.56,18.09 629.72,16.91 633.87,15.73 C 635.8,14.37 640.37,12.19 643.2,10.73 C 645.51,8.71 647.86,7.72 650.89,7.53 C 655.76,7.4 658.64,8.72 660.98,11.62 C 665.13,14.29 667.85,15.74 668.46,16.55 C 674.78,18.65 674.91,18.81 679.39,22.87 C 679.72,23.16 681.38,24.65 681.99,25.39 C 682.38,25.72 686.08,29.38 689.3,36.4 C 691.03,39.81 691.96,41.44 693.45,46.03 C 695.32,50.16 696.53,54.56 696.76,59.43 C 696.82,60.65 696.99,63.21 696.95,66.02 C 696.92,67.26 696.39,69.43 696.06,71.16 M 653.7,101.25 C 655.53,101.84 659.96,102.7 665.52,102.06 C 671.9,100.01 674.49,98.84 675.36,98.2 C 675.94,97.34 677.12,89.39 676.87,85.43 C 676.62,80.19 676.54,78.59 676.72,76.98 C 676.8,73.22 676.78,71.75 676.11,67.71 C 676.15,64.6 676.11,61.72 675.91,59.07 C 674.99,56.65 674.17,55.04 671.92,52.2 C 670.98,51.04 670.8,50.82 668.57,49.48 C 660.33,47.66 659.35,47.05 655.94,41.84 C 662.31,28.31 661.8,27.22 659.34,23.65 C 657.08,19.97 654.23,18.37 652.2,18.82 C 649.26,19.28 646.16,20.74 644,23.65 C 641.11,26.73 640.92,26.96 647.53,41.17 C 644.38,45.75 641.8,47.79 641.54,48.07 C 632.69,50.66 632.58,50.8 630.91,52.77 C 628.88,55.2 628.42,56.51 628.07,57.88 C 627.31,61.57 627.38,66.44 627.44,68.71 C 627.74,70.38 627.76,75 627.59,77.5 C 627.18,81.48 627.23,84.2 628.63,87.97 C 628.86,89.65 631.72,93.19 632.09,93.52 C 635.23,94.35 634.93,94.28 646.43,94.52 C 649.54,98.77 651.55,100.42 653.7,101.27"
       id="path27" />
    <path
       class="d"
       d="M 776.48,47.86 C 776.53,46.75 776.56,45.74 776.56,44.84 V 42.12 C 776.56,37.28 775.63,33.23 773.76,29.96 C 771.9,26.69 768.02,25.05 762.13,25.05 C 757.19,25.05 752.74,26.76 748.76,30.19 C 744.78,33.61 741.58,38.58 739.17,45.07 C 736.8,51.52 735.62,59.27 735.62,68.34 C 735.62,76.6 736.73,83.12 738.94,87.91 C 741.15,92.7 744.33,96.12 748.46,98.18 C 752.59,100.19 757.55,101.2 763.34,101.2 C 769.13,101.2 773.59,100.07 776.71,97.8 C 779.83,95.53 781.39,92.89 781.39,89.87 C 781.39,87.15 780.38,84.13 778.37,80.8 C 776.36,77.48 773.41,73.9 769.53,70.07 C 775.57,68.51 781.09,66.87 786.08,65.16 C 791.12,63.45 796.51,61.33 802.25,58.81 V 65.61 C 802.25,69.14 802.6,72.94 803.31,77.02 C 804.07,81.05 804.44,85.18 804.44,89.41 C 804.44,98.48 800.84,105.63 793.64,110.87 C 786.49,116.11 775.89,118.73 761.83,118.73 C 745.56,118.73 733.27,114.7 724.96,106.64 C 716.7,98.53 712.57,87.25 712.57,72.79 C 712.57,63.82 713.68,55.41 715.89,47.56 C 718.16,39.7 721.51,32.75 725.94,26.71 C 730.42,20.67 735.99,15.96 742.64,12.58 C 749.29,9.21 756.99,7.52 765.76,7.52 C 773.47,7.52 779.81,8.75 784.8,11.22 C 789.79,13.69 793.49,16.89 795.91,20.81 C 798.38,24.69 799.61,28.97 799.61,33.65 V 36.75 C 799.61,37.51 799.56,38.44 799.46,39.55 C 795.53,40.61 791.63,41.84 787.75,43.25 C 783.87,44.66 780.12,46.2 776.49,47.86"
       id="path29" />
    <path
       class="d"
       d="M 849.54,118.73 H 824.68 C 824.08,115.1 823.77,110.92 823.77,106.19 V 93.72 C 823.77,85.51 824.4,77.12 825.66,68.56 C 826.97,59.95 829.31,51.61 832.69,43.55 C 836.11,35.49 840.82,28.14 846.82,21.49 C 852.86,14.79 860.57,9.2 869.94,4.72 C 878.3,8.9 885.33,14.11 891.02,20.36 C 896.71,26.56 901.29,33.53 904.77,41.29 C 908.25,49.05 910.74,57.36 912.25,66.22 C 913.76,75.08 914.52,84.23 914.52,93.64 V 104.67 C 914.52,108.6 914.12,113.43 913.31,119.18 C 910.99,118.88 908.25,118.73 905.08,118.73 H 895.79 C 892.77,118.73 890.2,118.88 888.08,119.18 C 888.94,116.41 889.72,113.61 890.42,110.79 C 891.13,107.92 891.48,104.62 891.48,100.89 C 891.48,96.21 890.15,92.88 887.48,90.92 C 884.81,88.91 880.53,87.9 874.64,87.9 C 869.65,87.9 865.05,88.48 860.81,89.64 C 856.63,90.8 853.25,92.61 850.69,95.08 C 848.12,97.55 846.84,100.7 846.84,104.52 C 846.84,106.94 847.07,109.3 847.52,111.62 C 848.02,113.94 848.7,116.3 849.56,118.72 M 846.84,75.43 C 850.52,74.12 854.62,72.96 859.15,71.95 C 863.68,70.89 869.25,70.36 875.85,70.36 C 878.32,70.36 880.94,70.46 883.71,70.66 C 886.48,70.86 889.07,71.24 891.49,71.79 C 891.49,62.42 889.5,53.99 885.52,46.48 C 881.59,38.98 876.35,33.08 869.81,28.8 C 864.52,32.48 860.16,37.09 856.74,42.63 C 853.37,48.12 850.87,53.76 849.26,59.55 C 847.65,65.34 846.84,70.63 846.84,75.42"
       id="path31" />
  </g>
  <g
     id="g467"
     transform="matrix(0.92660197,0,0,1,-442.44499,19.45599)">
    <path
       class="d"
       d="M 587.88196,237.9333 C 586.90196,232.5533 588.58196,227.2233 588.34196,220.3833 C 589.67196,217.0933 594.16196,214.3333 600.61196,212.0533 C 599.72196,200.5333 599.85196,200.4233 606.94196,195.3933 C 617.57196,198.1733 618.26196,197.7833 619.94196,195.9333 C 621.94196,193.4533 627.53196,187.7033 632.70196,184.6933 C 635.58196,181.1333 638.50196,176.1433 643.50196,174.5533 C 651.66196,177.9333 659.15196,181.1733 663.99196,185.8833 C 668.83196,189.6833 673.25196,191.6033 679.65196,194.8533 C 686.41196,198.7933 693.79196,204.0233 695.61196,212.4633 C 695.73196,220.1133 694.96196,221.7933 693.69196,224.4533 C 692.37196,229.7533 689.67196,238.4533 685.55196,245.7733 C 681.91196,254.0733 679.75196,260.1833 676.85196,270.1933 C 671.84196,278.7033 682.29196,288.1633 685.31196,283.5933 C 684.37196,289.5933 668.79196,285.1533 667.99196,285.0733 C 657.90196,288.0133 650.18196,284.8933 640.87196,285.8933 C 631.43196,285.4333 623.47196,286.2133 617.41196,286.7633 C 611.61196,281.3733 607.02196,276.2433 602.94196,271.4133 C 599.15196,265.7033 595.30196,258.7733 593.84196,251.6333 C 593.51196,250.4933 593.45196,250.0933 591.99196,247.9933 C 590.16196,244.7933 589.04196,242.7933 587.88196,237.9433"
       id="path19" />
    <path
       class="e"
       d="M 599.94196,233.3833 C 600.30196,235.6333 601.26196,237.0633 609.30196,242.5433 C 613.95196,248.5733 612.05196,254.4633 612.00196,255.3633 C 613.08196,259.2033 615.19196,262.9233 617.49196,267.0033 C 619.30196,271.9533 621.23196,275.8433 623.32196,277.6033 C 624.72196,278.3133 633.81196,274.6533 644.20196,277.9733 C 651.59196,280.4033 659.78196,281.0533 667.82196,284.1233 C 668.60196,284.0333 669.85196,280.0333 670.47196,278.9733 C 668.68196,267.5433 669.26196,255.3333 675.16196,248.2333 C 676.59196,240.3133 678.39196,232.3233 675.63196,224.6333 C 674.82196,218.3133 678.19196,212.9433 678.48196,211.3833 C 677.86196,209.4733 674.75196,206.5933 665.67196,203.3833 C 661.17196,197.2533 659.53196,190.9733 656.56196,188.8533 C 649.66196,186.2433 645.81196,180.0933 642.92196,179.0533 C 639.22196,183.8333 634.56196,192.0333 625.56196,199.1033 C 623.25196,202.7233 619.84196,212.4233 617.67196,215.3533 C 603.81196,222.2133 601.87196,225.5333 599.93196,233.3733"
       id="path21" />
    <path
       class="d"
       d="M 539.46196,229.2533 C 542.55196,225.9633 547.27196,220.0533 553.63196,211.5333 C 560.05196,202.9533 563.82196,197.6333 564.95196,195.5733 C 566.08196,193.5133 566.64196,191.9033 566.64196,190.7233 C 566.64196,188.6033 565.48196,186.9333 563.16196,185.6933 C 560.84196,184.4033 558.50196,183.7533 556.12196,183.7533 C 554.22196,183.7533 553.27196,182.8433 553.27196,181.0233 C 553.27196,179.0833 554.84196,178.1133 557.99196,178.1133 H 589.54196 C 592.45196,178.1133 593.91196,179.1733 593.91196,181.2833 C 593.91196,182.9833 593.26196,183.8433 591.95196,183.8433 C 588.68196,183.8433 585.53196,184.5533 582.50196,185.9633 C 579.47196,187.3133 575.78196,190.4333 571.45196,195.3133 C 566.61196,201.3933 561.76196,207.4833 556.92196,213.5633 C 549.25196,223.1433 545.12196,228.7633 544.53196,230.4033 C 543.64196,232.8133 543.19196,239.2833 543.19196,249.8033 C 543.19196,263.6733 543.81196,271.9033 545.06196,274.4933 C 546.31196,277.0833 550.35196,278.6633 557.18196,279.2533 C 558.96196,279.5433 559.85196,280.5433 559.85196,282.2533 C 559.85196,284.3133 558.87196,285.3433 556.91196,285.3433 H 515.91196 C 513.77196,285.3433 512.70196,284.3133 512.70196,282.2533 C 512.70196,280.6633 513.47196,279.8133 515.02196,279.6933 C 520.37196,279.4533 523.93196,277.6033 525.72196,274.1333 C 527.50196,270.6033 528.39196,265.3733 528.39196,258.4333 C 528.39196,250.8533 527.88196,244.7333 526.87196,240.0933 C 526.63196,238.9133 524.23196,234.6833 519.65196,227.3933 C 515.07196,220.1033 509.49196,212.0533 502.89196,203.2333 C 496.29196,194.3533 491.57196,188.9733 488.72196,187.0933 C 485.93196,185.1533 483.19196,184.0633 480.52196,183.8333 C 478.50196,183.5433 477.49196,182.5433 477.49196,180.8333 C 477.49196,179.7133 477.76196,178.9833 478.29196,178.6333 C 478.82196,178.2833 480.40196,178.1033 483.01196,178.1033 H 519.56196 C 522.06196,178.1033 523.54196,178.2533 524.02196,178.5433 C 524.55196,178.8333 524.82196,179.6633 524.82196,181.0133 C 524.82196,182.6633 524.11196,183.5733 522.68196,183.7433 C 515.67196,184.2733 512.16196,186.2433 512.16196,189.6533 C 512.16196,191.4133 513.44196,194.2433 515.99196,198.1233 C 518.55196,201.9433 526.36196,212.3233 539.43196,229.2533"
       id="path23" />
    <path
       class="d"
       d="M 817.77196,211.4133 C 817.03196,211.4133 816.27196,210.5033 815.47196,208.6833 C 810.75196,198.5533 804.53196,191.6433 796.80196,187.9433 C 789.08196,184.1833 780.83196,182.3033 772.06196,182.3033 C 764.89196,182.3033 757.93196,184.2733 751.19196,188.2133 C 744.51196,192.1533 739.02196,198.2233 734.73196,206.4033 C 730.50196,214.5933 728.38196,223.3233 728.38196,232.6033 C 728.38196,245.8233 732.73196,257.2533 741.44196,266.8933 C 750.21196,276.4733 761.15196,281.2633 774.27196,281.2633 C 778.93196,281.2633 782.88196,280.6533 786.13196,279.4433 C 789.44196,278.2333 792.54196,276.4733 795.42196,274.1633 C 798.30196,271.8633 800.05196,270.1633 800.66196,269.0733 C 801.27196,267.9233 801.58196,264.9533 801.58196,260.1633 C 801.58196,252.0933 800.32196,246.8233 797.81196,244.3333 C 795.30196,241.7833 791.28196,240.5133 785.76196,240.5133 H 783.09196 C 781.43196,240.5133 780.61196,239.6333 780.61196,237.8733 C 780.61196,235.7533 781.53196,234.6933 783.37196,234.6933 C 784.90196,234.7533 786.44196,234.8133 787.97196,234.8733 C 794.47196,234.8133 800.97196,234.7533 807.47196,234.6933 H 831.29196 C 832.64196,234.6933 833.31196,235.6333 833.31196,237.5133 C 833.31196,239.3933 832.57196,240.3333 831.10196,240.5133 C 827.54196,240.8133 824.63196,241.5133 822.36196,242.6033 C 820.15196,243.6333 818.77196,244.8433 818.22196,246.2433 C 817.73196,247.6333 817.48196,249.9433 817.48196,253.1533 C 817.48196,265.1033 817.14196,271.6533 816.47196,272.8033 C 815.86196,273.9533 810.52196,276.6233 800.47196,280.8133 C 790.42196,284.9933 780.30196,287.0933 770.12196,287.0933 C 753.26196,287.0933 738.85196,282.0033 726.90196,271.8133 C 714.95196,261.6233 708.97196,248.7033 708.97196,233.0633 C 708.97196,222.3333 711.79196,212.6233 717.43196,203.9533 C 723.13196,195.2233 730.89196,188.4633 740.70196,183.6633 C 750.51196,178.8733 760.50196,176.4733 770.68196,176.4733 C 780.24196,176.4733 790.54196,179.5033 801.58196,185.5733 C 804.71196,187.2733 806.88196,188.1233 808.11196,188.1233 C 809.89196,188.1233 811.27196,187.0633 812.25196,184.9433 C 813.11196,183.1833 813.91196,182.3033 814.64196,182.3033 C 815.93196,182.3033 816.69196,183.7933 816.94196,186.7633 C 817.31196,191.4333 818.14196,198.5633 819.42196,208.1433 C 819.54196,208.6933 819.60196,209.1733 819.60196,209.6033 C 819.60196,210.8133 818.99196,211.4233 817.76196,211.4233"
       id="path33" />
    <path
       class="d"
       d="M 885.51196,175.7633 H 889.49196 C 892.73196,182.0833 896.59196,190.6533 901.06196,201.4733 C 903.30196,206.8833 905.69196,212.8533 908.23196,219.3933 C 910.77196,225.9333 913.47196,233.0233 916.33196,240.6833 C 920.00196,250.5133 923.09196,258.3233 925.61196,264.1233 C 928.12196,269.9233 930.06196,273.7033 931.42196,275.4733 C 934.14196,278.9533 938.49196,280.8733 944.47196,281.2433 C 946.38196,281.5533 947.34196,282.7733 947.34196,284.9033 C 947.34196,286.3633 946.85196,287.1033 945.86196,287.1033 H 900.04196 C 898.25196,287.1033 897.36196,286.0633 897.36196,283.9933 C 897.36196,282.5333 898.04196,281.6133 899.40196,281.2433 C 904.34196,280.9333 907.73196,280.3533 909.58196,279.5033 C 911.49196,278.6533 912.45196,277.3033 912.45196,275.4733 C 912.45196,273.7633 910.69196,268.4233 907.17196,259.4533 C 905.44196,254.9933 903.71196,250.5433 901.99196,246.0833 C 900.48196,246.0833 896.36196,246.1233 889.63196,246.1933 C 882.90196,246.2733 873.57196,246.3833 861.63196,246.5333 C 855.64196,260.6333 852.65196,269.3633 852.65196,272.7233 C 852.65196,275.5333 854.13196,277.6333 857.09196,279.0433 C 860.05196,280.3833 862.98196,281.1233 865.88196,281.2433 C 868.04196,281.5533 869.12196,282.7433 869.12196,284.8133 C 869.12196,285.6033 868.78196,286.3733 868.10196,287.1033 H 831.73196 C 829.88196,287.1033 828.95196,286.0633 828.95196,283.9933 C 828.95196,282.1633 829.75196,281.1533 831.36196,280.9733 C 838.02196,280.1833 843.11196,276.2733 846.63196,269.2533 C 848.39196,265.7433 850.64196,260.5933 853.39196,253.8033 C 856.14196,247.0133 859.38196,238.5833 863.11196,228.5133 C 866.53196,219.3233 870.11196,210.3433 873.85196,201.5533 C 877.59196,192.7633 881.47196,184.1733 885.51196,175.7833"
       id="path35" />
    <path
       class="e"
       d="M 881.99196,191.2333 C 879.31196,196.8533 876.40196,203.7433 873.27196,211.9033 C 870.14196,220.0633 866.78196,229.5033 863.20196,240.2133 C 869.19196,239.9033 873.47196,239.7533 876.07196,239.7533 L 900.41196,240.2133 C 898.25196,234.0533 895.23196,225.8733 891.34196,215.6733 C 886.59196,203.5833 883.47196,195.4433 881.99196,191.2233"
       id="path37" />
  </g>
</svg>
