<?xml version="1.0" encoding="UTF-8"?><svg xmlns="http://www.w3.org/2000/svg" width="194.82mm" height="55.68mm" viewBox="0 0 552.24 157.82"><defs><style>.d{fill:#010101;}</style></defs><g id="a"/><g id="b"><g id="c"><path class="d" d="M522.62,95.06c1.14,1.25,1.39,2.36,.75,3.52-1.7-.54-1.5-1.08-4.82,.6-3.03-1.09-1.78-5.09-2.5-6.31,1.38,.41,.41,.26-.57,.07-.5-.09-.68-.2-.65-.39-.19-.14-.14-.4,.25-.64,1.19-.94,3.95-2.62,5.12-1.88,1.9,.51,3.31,2.21,2.43,5.03m-25.99,7.73c-1.06-2.79-2.73-1.09-3.68,.19-.74,.92-.94,1.27-1.11,2.94-.11-.05-.47-.18-1.6-2.71-.75-2.07-1.23-4.29-1.94-5.88-.6-1.75-.4-2.42,0-2.64,.38-.16,1,.14,1.98,1.1,2.17,1.7,3.39,2.78,4.56,4.06,1.27,1.26,1.5,1.57,1.79,2.93m-6.03,13.83c-.31,1.56-.93,2.77-1.61,3.26-.51-.21-.9-.05-1.87-.86-.15-.13-.58-.55-.89-.95-1.38-.79-2.43-1.79-3.59-2.93-1.05-.9-2.07-1.83-3.2-3.04-.64-.66-.89-1.21-.79-1.61,.2-.34,.93-.32,2.53,.49,2.63,1.08,4.34,1.86,5.77,2.83,2.11,.5,3.3,1.65,3.65,2.82m59.22,32.47c-3.38-.6-5.96-1.26-8.08-1.64-1.83-.71-2.85-.86-3.83-1.08-.96-.35-1.77-.57-2.26-.67-.75-.2-1.3-.43-2.16-.79-1.08-.66-2.69-1.5-4.98-2.24-3.55-2-6.52-3.56-9.17-5.35-2.51-1.79-4.86-3.63-7.2-5.27-2.47-1.3-3.37-2.07-3.27-5.65-1.06,4.84,2.82,9.26-.86,13.51-1.91,1.89-2.2,3.06,1.49,6.65-1.81,2.19,1.6,1.2,2.55,.76,2.22-.53,2.53-.71,2.53-.74,2.19-2.28,1.65-2.97,1.6-3.08-.31-.46-.38-.75-.32-.83,.06-.09,.39-.02,.95,.35-1.93,4.21-4.37,6.12-5.39,8.23-2.24,.95-3.96,2.99-7.18,3.84-2.89,1.07-4.46,1.46-5.14,.94-.35-.46-.08-1.92,1.88-4.72-1.05,1.23-.17,.58,.19,.05,.08-.33,.32-.86,.33-1.36,.5-.48,1.24-1.79,1.43-2.57,.54-1.28,.94-2.12,1.23-2.77-.1-.56,.54-2.02,.73-2.75,.31-1.21,.8-3.83,2.29-7.41,.36-2.98,.26-3.28,.75-8.48,.04-2.92,.15-5.74-2.34-15.19,.95-.73,2.36-3.61-4.19,2.38,.14-5.5,2.65-6.22,4.07-6.74-1.53-1.62-2.44-3.01-3.09-3.19,.44,.23,.83,.7,2.98,3.17,4.76-2.19,6.22-3.59,8.91-5.22,.67-.03,3.06-.37,3.97-1.02,1.86-1.05,3.21-2.13,4.29-3.14,1.27-1.05,3.08-.48,4.34,.59,.9,.57,1.43,1.14,1.92,1.62-.32,.49,1.2,1.35,.76,1.78-.06,1.59,.53,2.11,.68,2.7,.3,.24,1.07,.08,.19,.99-.03,.04-.18,.21,.04,.33-.08-.62-.12-.59-.32-.09-.08,.26-.25,1.6-.66,4.23-.16,.87-.46,1.83-.93,2.8-.61,.74-.67,.98-.65,2.04,.27,3.2-1.79,5.28-4.6,7.36-1.15,1.01-1.25,1.1-1.78,1.42-.62,.7-1.23,1.03-2.23,1.14-.54,.07-.88,.07-1.68-.19-.66,.21-1.42,.24-2.83-.01-1.41,.08-3.42,.64-5.49,1.6,.67,.98,2.4,1.58,3.57,2.52,2.33,1.14,5.48,2.69,9.23,4.5,2.17-2.43,3-5.34,4.28-7.48,2.59-1.25,4.28-1.67,5.27-2.26,.45-.57,.42-1.49,.04-2.38-.16-.79-.05-1.22,.36-1.71,.61-.55,1.74-.65,2.83-.64,1.15,.92,1.06,2.22,1.34,2.73-.47,.14-.62,.65-1.6,.7,.38,.77,1.52,1,1.35,1.17-.28,.24-1.45,1.04-2.18,1.81-1.24,1.92-3.3,2.58-5.59,2.34-1.06,1.51-2.3,4.11-4.52,6.69,2.37,1.23,4.93,2.49,7.3,3.54,2.73,1.83,5.53,2.99,8.97,4.78,2.57,1.21,5.63,3.15,9.65,5.04,1.59,.33,1.96,1.11,2.58,1.21,.11,.47-.62,.93-2.42,1.19m-54.75-25.22c-.31,1.08-.91,2.61-2.03,4.61-.89,1.73-.92,4.2-1.77,6.81-.53,1.77-1.03,3.27-1.52,6.39-.12,2.69-.43,4.76-.6,6.16,.59,5.03,.17,5.73-.38,5.51-2.53-1.8-3.35-4.04-4.74-6.94-.66-1.96-1.05-3.36-1.28-3.66-.49-.8,.11-1.43,.19-2.11-.46-1.64-1.16-2.24-.36-5.11,.13-.17,5.29,1.2,4.6,1.67,.26-.13,.91-.73,1.73-1.49,.43-.37,.84-1,1.01-1.33-.05-.62-.64-2.32-.86-4.7,.88-2.21,2.08-3.4,3.84-4.02,.5-.77,.82-1.32,1.13-1.8-.05-4.47,2.73-7.22,4.7-6.86,.25,.17-2.01,3.19-3.65,6.86m25.56-19.57c.78-3.02-.06-1.45,4.1-2.09-1.02-.49-2.01-.19-3.7,.62-.92,.26-1.66,.62-2.17,.85-1.5,0-2.86,.05-4.53,.46-.31-.11,.31,.3-.77,.99-1.66,1.18-1.62,1.26-4.21,2.21-3.4,.43-3.17,.68-3.03,4.61,.82-.31,3.88-.94,2.65-.41,1.48-.03,2.76-.58,3.7-1.14,1.71-.47,2.9-.94,3.64-.98,1.67-.29,2.39-.3,2.8-.13,1.83,.55,2.71,1.24,2.8,2.34,.17,1.11-.78,1.99-2.75,2.63-1.99-.13-4.1-.24-5.12,.1-2.27,.31-4.63,.25-6.46-1.13-.8,.28,.59-1.3,.82,6.75,.08,.11,.17,.33,.53,2.85,2.44-.89,4.61-2.02,6.12-2.32,1.37,.04,2.5,.34,3.58,.78,.16,.02-1.13,.04-.69-.94,.71-1.81,1.18-2.2,2.13-3.82,1.74-1.86,1.48,1.93-1.07-2.41-.28-1.37,3.62-5.16,3.99-5.78,.02-.09,.02-.13-2.36-4.04"/><path class="d" d="M427.01,110.19c-.04,.41-.51,1.6-1.02,1.93-.3,.52-1.29,1.01-1.7,1.62-.29-.05-.66-.19-.94-.42-.85-.72-1.53-1.63-1.81-2.33-.52-1.03-1.17-2.37-1.73-3.47-.47-.79-.99-1.62-1.27-2.17-.13-.35,.01-.52,.03-.65,.2,.05,.42-.05,.76,.22,1.78,1.26,3.64,2.14,4.97,2.74,2.52,.99,2.75,1.66,2.7,2.53m43.14,6.6c-1.36,.97-2.57,1.84-3.14,2.31-.35,.36-1.36,.94-3.5,2.1-2.77,.97-2.99,1.24-3.08,1.45,.46-.58-.47-.94-.12-.86,.12,.27,.3,.41,.52,.43-.13,.15-.15,.44-.57,.67-1.49,.89-2.69,.99-4.07,1.34-1.93,.64-3.53,1.26-4.43,2.4,.34,1.71-.9,4.54-1.42,6.32-.39,1.39-.72,3.16-1.56,5.45,.28,1.26,1.55,3.45,2.18,5.7-.27,3.18-.43,5.56-.74,7.15,.01,1.83,.35,4.69-.74,5.77-6.56,1.99-5.48-.75-6.74,.43-1.55,.6-2.61-1.6,2.45-2.94,2.24-.78,2.53-1.18,2.8-2.19-.29-1.04-.31-2.56-.44-4.34-.36-2.04-1.02-4.02-2.76-7.09-.88-1.58-.7-3.86-1.41-6.6-.2-3.66,.89-6.18,.93-6.49-1.28-.24-2.3-.2-3.46,.4-1.35,.32-2.64,.29-3.67,.18,.04,.3-.24,.62-.29,1.08-.15-.21-.5-.18-1.18,.25-.52-.22-1.19-.16-1.71-.55-.46-1.09-.48-2.05,.78-3.85-.1-1.65-.32-2.23-.73-2.88-.39-.66-.83-1.45-1.11-1.97-.4-.87-1.1-2.15-1.45-2.79-.02-1.18-.36-1.94-.89-2.51-.28-.42-.31-.81-.12-1.17,.16-.25,.57-.32,1.3-.12,.9,.52,1.66,1.14,2.4,1.72,1.09-.16,2.42-.54,4.05-1.41,1.98-.75,4.7-1.1,6-2.42-.64-2.33,.52-.66-.22-3.14,2.8-3.91,2.77-3.68,1.51-4.92-2.69-1.21-2.75-1.49-3.28-3.46,.73-4.06,1.51-3.26,1.46-3.29-1.31-.39-1.93-1.08-1.46-2.34,.19-.34,2.24-.98,5.56-.01,.84,.83,1.69,1.5,1.83,2.16-.02,.59,.18,1.07-.26,2.12-.09,1.92-1.17,.35,0,3.49,2.25,1.91,5.1,4.46,3.84,8.54,.6-.12,1.36-.12,2.07,.02,.5-.2,1.21-.35,1.84-.36,.42,.01,.96-.05,1.6-.19,.57-.2,.79-.23,1.28,.02,.56,.13,1.04,.38,1.58,.35,.34,.32-.06-.69,.84-.12,6.33,.8,8.46,1.04,10.28,2.32-.58,2.23-2.6,3.56-2.55,3.84m-40.43,1.46c.13,.11,.26,.62,.19,1.21-.68,.49-2,1.06-2.57,1.8,1.34,4.04,1.39,7.48-.65,9.54-1.44,2.36-2,3.04-3.17,4.73-1.69,2.36-4.16,4.47-4.58,5.06-1.21,1.14-2.01,1.41-2.64,1.11-.46-.37-.61-1.98-.29-4.18-.05-.14-.02-.19,.03-.24,.21-.14,.2-1.25,.63-1.9,0-.16-.03-.3,.13-.38,.29-.21,.03-.76,.43-1.04,.68-.84,.82-.98,1.74-2.71,.93-1.27,1.9-2.73,3.96-3.73,2.84,.06,2.87,0,.08-3.49,3.27-4.15,4.86-5.06,5.55-5.32,.59-.36,.92-.51,1.17-.46m29.32-3.22c-.39,.39-.37,.19-.54-.94,.16-1.25,.11-1.41-.16-1.56-.27-.07-.96-.06-1.88-.15-.79,.07-2.08,.3-3.82,.45-.07,1.28,.01,3.02-.26,5.59-1.72,2.43-2.48,3.92-2.75,5.33,2.34-.41,3.56-.79,4.61-1.02,1-.26,1.91-.5,2.79-.82,.54-.2,1.38-.63,2.08-.97-.18,.47,.11,.08,.37-.54-.96-4.14-.54-5.09-.44-5.37m-10.33-1.55c-5.43,.87-7.7,1.58-9.17,2.35-1.42,.25-2.66,.88-3.8,1.45,.47,.77,.89,1.64,2.16,3.06,.89,1.81,.9,3.94-.34,6.18,1.01-.12,2.13-.26,3.39-.46,1.12-.36,2.56-.64,5.98-1.63,.71-1.99,1.12-3.62,1.41-5.69,.72-1.81,.52-3.16,.37-5.24"/><path class="d" d="M155.44,118.21c-2.62,1.47-4.04,2.17-4.32,2.44-1.86,.84-2.34,1.76-2.18,2.11,.15,.55,.05,.87,.1,1.02-.13,.19-.42,.23-.94,.09-.63-.1-1.65,.48-3.15,2.03-1.21,3.09-4.06,4.56-7.25,6.5-2,3.47-6.2,5.65-8.83,8.09-2.56,4.88-4.85,8.12-8.92,8.62-6.33,.7-9.77,1.76-11.69,3.27-.19,.36-.4,.49-.49,.48-.07-.03-.13-.29,.02-.7,3.78-5.03,12.44-5.15,15.19-7.55,2.4-7.14,6.53-10.85,8.35-14.49-1.09-.55-2.01-1.08-3.29-1.6-.99-.17-2.32-.25-3.13-.23,.03,.28-.02,.43-.17,.47-.19-.01-.32-.09-.57-.38-2.95-1.18-4.41-2.48-3.91-4.58-2.01-1.48-2.25-3.61-2.1-4.73,.92-2.61,1.51-3.26,2.06-3.3,.92-.16,1.85,.77,2.79,2.39-.07,.49,.97-.93,4.1-.91,2.4-2.49,3.25-2.56,10.75-2.94-.31-3.59,.23-7.3,3.38-9.37,2.59-.91,3.4-1.3,5.76-4.72-3.76,1.23-4.08,1.44-5.31,3.16-2.14,1.86-4.13,3.04-5.35,3.7-1.05,.95-2.28,1.22-4.24,.97-.63,.5-2.04,1.08-3.37,1.35-.91,.4-1.96,.86-2.9,1.35-.85,.85-1.43,1.75-2.07,2.67-.84,2.93-1.8,4.45-3.06,4.19-1.2-.72-.97-2.01,.23-3.46,1.9-4.61,5.63-6.05,7.89-7,1.06-1.38,1.87-3.62,1.55-6.77,.49-3.35,.45-6.02,1.03-5.99-.42-.93,.34-1.16,.55-1.95,1.13-.67,.11-1.99,2.99-2.11,1.34,.12,2.58,2.81,2.32,5.86-.19,.4-.35,.57-.55,.62,.89,.36,.66,.68,.14,3.36-.42,1.91-1.22,3.82-2.74,6.01,.62-.32,1.72-1.4,3.03-2.51,1.45-1.43,3.21-2.61,4.55-3.28,.76-.48,1.43-.94,1.65-1.2,.76-.09,1.36-.38,1.97-.96,1.21,.02,2.99-.72,2.5-.23,3.1-1.14,5.34-.66,5.76-.08,.75,2.3-.66,4.08-1.68,4.69,.39,.13-1.12,2.92-3.43,4.83-3.54,2.1-6.24,2.65-7.99,2.99-.17,.16-.74,1.01-.76,1.14,2.13-.67,4.69-.25,6.8,.55,1.66,.22,2.54,.9,2.8,1,.04-.28,.56-.03,1,.12,.48,.27,1.01,.37,2.89,1.15,2.42,1.29,5.27,2.21,8,5.17,.36,.59,.23,.98-5.78-1.37m1.31,19.68c1.32,2.11,1.48,3.4,.81,4.65-.97,.78-2.04,.6-2.96-.62-1.59-1.37-2.73-2.23-5.63-3.31-1.14-1.41-1.63-3.57-1.01-6.58,.65-.97,1.2-1.28,1.66-1.03,.39,.15,.69,.62,.81,.8,1.68,1.36,2.24,1.75,2.95,2.41,2.1,.89,2.34,2.38,3.38,3.67m16.38,9.2c1.62,1.85,2.04,2.83,1.9,4.24-1.02,1.59-3.21,2.49-6.5,3.21-2.36,.16-4.13,.46-6.5,.74-2.53,1.03-5.62,.86-10.62,.88-6.44,.55-11.47,1.35-10.93-3.77-4.16-.24-7-4.46-4.46-10.95,4.82-2.24,4.66-1.86,3.22-5.11-1.49-3.1-2.2-4.94-3.01-6.41-.47-.88-.46-1.53,.04-1.96,.69-.09,1.2-.62,2.1-.45,2.65,.29,4.02,.73,4.53,1.37,.32,1.03-.28,3.79-.66,5.06,.09,.42,.54,1.62,1.32,3.78,2.23,3.61,.59,5.01-3.32,5.22-1.34,.88-1.82,1.52-2.52,3.14-.03,1.62,.54,2.96,2.75,4.03,1.18,.83,2.86,1.99,1.52,.97,2.8-.82,6.25-1.25,10.72,.49,4.24,1.65,6.69,1.44,9.14,.63,2.57-.98,5.09-2.35,5.79-4.51,1.13-2.49,.66-4.29,1.96-8.72-1.88-5.9-1.23-8.11-.6-8.17,1.32,.61,1.49,2.51,2.15,8.01,.46,3.78-.64,6.78-1.72,7.86,3.33,.48,3.47,1.07,3.69,.42m-25.6-30.8c.09-.12-.43,.22-.69-.57-.12-1.14,.84-1.19-.03-1.46-.69-.11-2.26-.33-4.06-.56-1.72-.83-3.02-1.08-4.97-1.07,.48,.18-.6,4.8-.24,6.27,.24,.39,.71,.65,.9,1.14-.16-.43-.62-1.7-3.42,1.87,.45,5.35,.69,5.49,.86,5.36,4.13-.68,5.41-1.27,6.35-1.77,1.08-1.34,1.62-2.03,1.88-2.39,.3-.21,.71-.87,1.05-1.65,.34-.28,.51-.49,.64-2.73,.97-1.21,1.41-1.92,1.73-2.44m-17.01-.97c-.51-.07-.96-.03-3.78,1.51,.39-.25-2.19,1.23-3.19,2.13,.47,1.34,.63,1.73-2.45,5,.3,.74,.76,1.47,3.64,2.79,1.27-.28,2.83-.62,4.68-.21,1.41,.41,2.67,.83,3.89,1.19,2.23-.83,2.54-.85,1.52-5.86-7.65-.9-7.69-1.09-4.31-6.54"/><path class="d" d="M50.62,143.44c-3.24,.43-5.19,.41-7.48,.29-1.77-.09-3.72-.11-5.76,.11-2.32,.01-4.35-.2-6.17-.31-1.56,0-3.74-.04-5.74-.2-2.19,.19-4.42,.02-6.31-.22-1.57-.12-3.25,.06-5.25,.19-1.94,.25-4.5,.07-6.87,.11-2.11-.04-4.21-.25-6.46-.62,.07-1.47-.04-2.73-.26-4.58,2.59-.27,4.94-.14,7.22,.1,1.94,.15,3.89-.04,5.93-.24,2.09,.03,4.09,.08,6.13,.05,1.97,.04,3.85,.09,5.87,.19,2.31-.06,4.24,.03,5.9,.2,2.2-.01,4.07,.28,5.77,.33,2.22-.06,4.33-.06,6.23,.17,1.79,0,3.97-.2,6.08,.57,1.07,1.13,.92,1,1.16,3.83m12.69-15.68c-.51-.5-.08-.06-.35-.03-.88-.36,.14,.17,.84,.63,.33,1.11,.13,1.55-.36,2.39-3.1,3.25-2.97,4.97-2.28,8.03,.37,3.08,.55,5.62,.59,7.87,.06,1.6,.22,3.22,.2,5.46,.13,2.72-.4,4.29-.81,4.79-1.12,.67-2.91,1.14-5.08,.82-.68-.04-1.05-.1-1.7-.17-.86,.03-2.04,.03-3.81-.03-2.31,0-4.33,.27-6.81-.07,.02-.74-.15-1.22-.45-2.03-.11-1.37-.28-1.85-.52-2.2,1.02,.1,2.43-.02,4.34-.51,2.31-.1,3.71-.22,4.68-.19,1.03,.02,.82,.07,1.76,0,1.13-.07,1.69-.18,2.43-.33,.09-.02,.1-.06,.25-1.38-.1-1.18-.25-2.94-.15-4.78-.09-1.59-.09-3.73-.33-6.11-.2-2.46-.46-5.17,.5-8.31-3.37-.05-8.6,.24-10.72-.17-3.73-.72-8.04-.1-11.36,.95-4.83-2.31-8.55-2.31-13.45-1.63-4.89-.14-8.64-.4-11.51-.35,0-2.28-.07-5.13-.08-7.83,.42-2.47,.66-5.1,.99-7.86,.24-3.21,.86-5.83,1.44-8.32,.21-2.78-.23-5.53-.58-7.66,2.3-.19,4.54-.34,7.66-.52,3.4,.21,6.62,.08,10,.46,.12-.32,.16-.55,.19-1.94,.22-3.37,.19-3.95,.15-4.43,.98-.14,2.73-.93,4.73-1.45-.02,.74-.02,1.5,.02,2.32,.14,1.01,.26,2.9,.14,5.55,3.88,.11,7.79,.42,11.52,.36,3.89,.08,7.53,.22,10.91,1.18,.1-.43,.06-.25,0-.04,0,.18,0,.32-.02,.46-.03,.22-.06,.69-.14,1.37-.97,2.62-1.18,4.37-1.28,6.33-.03,2.12-.16,3.85-.36,5.69,.07,1.46,.02,2.51,.23,3.53,.02,1-.07,2.1-.32,2.65-.46,1.66-1.29,2.81-2.02,3.26-1.78,.04-3.38-.7-4.44-1.42-.56-.32-1.59-.76-2.79-1.13-1.42-.12-2.87-1.41-3.45-.71-.44-.21-1.3-.55-1.33-.72-.16-1.18-.41-2.14-.78-2.89,1.25,.18,2.39,.31,3.35,.38,1.15,.38,2.3,.89,3.08,1.16,.59,.28,1.34,.59,1.76,.8,.88,.32,1.93,.62,1.95,.59,.31-1.2-.2-3.82-.33-6.47,.02-2.25,.2-5.14,.37-8.89-2.46-.1-4.99-.02-7.75-.11-2.96,0-5.97,.15-8.86-.18-1.93-.09-3.78-.29-6.4-.58-3.21,.28-6.78,.23-10.1-.33,.01,4.56-.7,8.37-1.4,12.33-.33,3.68-.8,7.14-1.18,10.26,4.97-.5,10.07-.33,14.56-.09,2.04,.19,4.27,.42,5.58,.19,1.45-.51,3.94-.44,6.58,0,1.73,.24,2.67,.97,4.15,.79,3.12-.24,5.34-.14,9.59,.23,3.08,.17,6.8-.3,8.74,1.04m-27.62-6.48c-.04,.92-1.95,0-5.35-.86-1.39-1.13-2.45-1.96-3.58-3.5-1.17-2.69-1.21-2.74-2.58-6.02-.61-.54-1.41-1.04-3.89-1.89,2.63-1.37,3.46-2.04,4.7-2.22,.26-.81,3.88-.94,5.5,.92,.82,.68,1.98,3.02,2.19,3.26,.5,.26,1.4,.79,3.65,1.5,2.07,1.11,4.5,2.39,7.04,4.73-3.77,3.28-3.88,3.46-7.68,4.08"/><path class="d" d="M245.67,130.25c0,.17,.14-1.22,.51,.1,1.3,.03,3.39,.13,5.14,.21,.05-.67-.02,.28-.01,.08-2.75,.35-2.18,.23-5.64-.39m19.81,.18c-3.66,.31-5.16,.45-5.48,.47-.07-1.03,.03-.29,0-.01,1.29-.14,3.86-.25,5.27-.36,.08-.61,.23,.17,.21-.1m.26,13.63c.01-.14,1.83-3.16,1.9-3.63-3.24,.29-4.66,.51-6.73,1.16-1.63,2.99-1.04,1.27-.9,4.32,1.38,.22,1.91,.22,5.73-1.86m-19.11-.26c3.28,2.33,3.51,2.37,6.44,2.1,.23-1.73-1.41-4.91-1.4-4.98-2.5-.13-4.08-.06-6.29-.16,.2,1.06,.21,1.11,1.25,3.03m-8.95-27.35c1.54-1.37,4.12,.61,6.41,2.25,2.79,1.59,2.98,1.68,5.01,2.76-1.63,.5-.53,.59,1.27,.01,1.94-.4,3.27-.63,5.36-.21,1.8,.06,3.38,.29,3.66,.28,.63-.04,3.68,.92,4.09,.88,.79-.33,1.12-.5,4.94-3.47,.66-.35,2.5-1.71,5.1-2.8,1.3,4.17,.46,9.71-.07,13.62-.35,2.82-.72,5.01-.28,7.87,1.99,4.57,3.28,7.37,3.61,11.21-.88,3.26-2.67,6.3-4.74,7.32-.51-.86-1.02,.4-4.22-.07-1.22-.38-1.85-.42-2.37-.71,.2-.28-.06-.27-.07-.51-1.14-.02-4.32-.03-6.85-.44-1.49-.51-2.94-1.07-2.14-.3-.66-.01-1.96,.14-3.72,.31-3.1,.78-6.1,.71-6.56,.66-.32,.01-.19,.2,.03,.53-.97,.64-5.06,.59-5.79,.78-.3-.67-4.39-4.61-4.12-7.17-.3-1.52,.28-5.82,2.64-10.7,.66-4.15,.44-6.19-.5-8.61-.3-3.32-1.01-6.92-.69-13.52m37.3-10.69c2.59,.28,3.32,1.47,3.79,5.22-3.02,1.94-5.82,2.2-11.72,1.85-.04,.96-.61,2.84-.67,3.89-.52-.02-4.05,1.75-4.81,1.76-.59,.11-1.53-1.46-2.14-.42-2.57-.97-3.62-3.7-3.49-6.02-.63-.14-2.67-.72-5.35-1.29,.33,2.03,.7,2.09,1.41,4.33-1.51,.57-3.45,1.25-4.46,1.86-1.22,.15-1.66-1.49-2.35-.64-2.55-1.52-2.86-2.51-3.65-4.75-3,.14-6.08-.62-5.34-1.39-1.96-2.65-2.05-2.65-.31-6.33-1.78-.18-1.81-.15-4.55,.28-.36,.39-.47,.51-2.07,3.56,.8,3.91,1.12,4.95,2.26,6.91,.17,.37,1.82,2.96,2.41,4.88,.55,1.81,.97,2.93,1.83,5.38,.25,4.34,0,5.61-.11,6.85-.31,1.15-.26,1.54-.49,6.41-.2-2.26,.24,1.92-.27,5.06-.78,2.26-1.39,3.83-2.2,5.58-1.39,1.78-1.99,2.72-2.39,3.24-.39,.48-.95,.99-1.51,1.45-1.37,1.17-1.6,1.26-1.87,1.33-1.42,1.07-2.76,1.6-4.49,2.21-1.88,.42-4.12-.71-4.79-1.1,.24-.55,.23-1-.24-2.12,1.63-3.4,1.92-3.65,2.08-3.89,.09,.27,.22,.5,.48,.11,1.09,.23,.95-1.18,2.1-1.27,.67-.08,2.02-1.1,2.71-1.98,1.5-1.54,1.79-2.9,1.74-5.39-.27-1.56-1.53-3.45-3.49-6.2,.3-.1-.58,.71-1.42,1.61-.68,1.07-2.63,1.03-3.14,1.1,.02-.45-.83,.77-2.66-.7-1.21-1.85-1.5-1.97-2.02-1.97,.16-.46,.31-2.95,1.82-4.95,.87-.73,2.18-1.74,3.91-2.6,1.94-.38,2.56-.62,3.18-.99,.74-.7,1.47-3.33,1.77-4.81-.1-.68-.32-1.27-.82-1.93-1.42-1.97-1.46-2.11-2.25-3.6-.44,.16-.47,.18-.56,.07-.29,.18-.69,.66-1.74,.34,.01-.14-.45,.25-.86-.08-2.1-.97-2.57-1.55-2.91-1.95-.26-.24-.42-.37,.45-1.15-.74-.06-1.38-.1-1.73-.07,.21-1.3,.6-3.02,1.86-4.26,1.57-1.18,3.67-1.61,5.19-1.68-1.77-1.21-2.99-2.19-4.03-3.36-.8-3.19-.36-5.29-.46-5.53,1.29-.6,2.68-.97,3.29-2.14,2.62,.32,4.71,1.55,6.43,3.2,1.66-1.75,1.71-1.79,1.82-2.15,.39,.15,1.2-.1,.7-.38,.8-1.48,3.78-1.81,6.6-.48,1.9,2.09,2.29,3.15,1.2,5.76-1.01-.31-.14,1.17-.71,1.34,1.6,.32,2.97,.37,7.2,.99,1.06-6.08,.74-6.68,1.39-10.14,.96,.03-.44-1.64,2.05-4.89,2.82,3.74,2.91,3.77,2.74,3.92,2.25,4.36,3.2,4.49,4.02,6.41,3.12-.06,3.64,.06,7.2-.3-.18,.4,2.39-.09,2.35-2.34,.9-.13,.33-.95,2.71-4,.07,.02,.83-1.3,2.62-3.57,1.42,3.51,1.81,7.99,3.12,13.57-.83,1.95,2.85,4.39,3.6,2.34"/><path class="d" d="M335.24,94.36c-.89,3.9-2.19,4.67-3.66,6.09-1.18,1.07-2.42,2.04-3.86,2.96,1.49,3.84,1.75,6.32,2.07,8.5,.41,1.92,.94,3.9,1.56,6.21,.61,2.07,.9,3.46,1.36,5.55,.49,1.75,.73,3.08,1,5.12,.89,2.65,1.12,5.43,.82,8.42,.11,1.91,.22,4.43-.53,6.98-.61,2.04-1.69,3.93-2.79,5.32-.82,1.14-1.63,2.18-2.01,2.62-.64,.91-1.67,1.58-2.47,1.79-1.03,.63-2.25,1.17-4.26,2.16-2.37,.74-3.5,1.16-6.07,1.04-.14-1.6-.27-2.03,.28-3.57,2.42-1.7,2.66-1.96,2.8-2.24,.29,.37,.56,.74,.73,.84-.12-1.21,1.63-1.56,2.97-2.22,1.01-.44,2.13-1.31,3.01-2.37,.77-.47,1.48-1.37,1.94-2.26,.13-.68,.43-1.83,.84-3.4,0-1.54,.4-3.24,.33-4.25,.13-2.06-.21-4.06-.55-5.96-.17-1.1-.24-1.41-.31-1.65-3.04,1.65-4.82,2.86-6.21,4.14-.9,2.81-2.63,5.19-5.27,6.21-.37-1.26-.84-2.43-1.11-2.39,.34-.14,.13-.22-.1-.26,.25-.34,.89-2.81,1.73-4.2,.84-1.74,1.96-3.78,3.54-5.52,2.58-1.45,4.63-2.66,6.07-3.66,.2-.3,.23-.27-.56-3.44-.47-2.6-1.04-4.69-1.49-6.56-.19-1.62-.53-3.52-.99-5.94-.67,.86-1.52,2.06-2.83,3.9-1.57,2.34-3.34,2.87-4.87,2.79-.03-.6-.12-1.12-.29-1.41-.28-.89-.52-1.31-.08-1.03,.33-1.09,.85-1.41,1.61-3.36,1-2.51,2.44-4.72,4.78-7,.28,.25-1.58-1.64-3.02-3.34-1.15-2.43-2.47-5.06-2.77-5.3,.29-.24,.97-.96,1.74-2.42,1.85,.67,3.62,2.49,5.1,4.42,.83,1.26,1.74,2.24,3.27,3.49,1.49-.82,2.61-1.65,3.74-2.48,1.92-1.38,3.25-1.81,4.08-2.09,.24,1.3,.46,2.06,.75-.24m6.69,28.57c-1.28,2.43-2.06,4.11-2.42,5.41-.35,1.5-.23,2.47,.37,4.71,2.89-.8,5.65-.83,8.32-.59,2.49,.61,4.87,1.53,2.7,2.26,.31-2.23,.7-3.89,1.25-5.48,.6-1.55,.99-2.35,1.22-3.02-2.42,.04-4.47-.56-6.4-1.19-1.71-.63-3.55-1.38-5.05-2.1m27.24,2.53c-1.21,.28-2.62,.76-4.49,1.4-2.02,.42-4.02,.6-6.08,.24-.51,1.4-1.45,2.76-1.99,3.92-.42,1.15-.6,2.21-.42,3.89,1.93-.49,4.29-1.02,7.15-1.04,2.39,.12,4.29,.29,6.74,.97,.4-1.65,.46-3.26,.33-5.17-.13-1.28-.71-2.6-1.24-4.22m-3.62,22.3c.43-2.14,1.22-3.54,1.97-4.69,.89-1.05,1.06-1.43,1.25-2.06-1.27-.04-3.42,0-5.64-.25-2.32-.08-4.77-.11-6.44-.08,.02-1.37,.67-.3,1.17,1.13,.78,1.77,1.22,3.58,1.35,5.75,1.7,.37,2.47,.36,3.57,.36,1.44-.06,2.29-.15,2.77-.17m-18.66-.7c.33,.03,1.28,.48,2.48,.52,1.14,.11,2.69-.19,4.56-.13,.49-1.87,.29-2.93,0-3.79-.46-1.06-1.01-1.87-1.83-3.17-1.39-.46-3.02-.77-4.57-1.17-2.27,.01-4.6-.26-5.89-.2,.22,.51,.82,1.28,1.61,2.19,.9,.85,2.77,2.44,3.63,5.77m-8.67-27.06c1.52-2.8,2.05-4.22,3.48-3.81,2.58,1.54,4.14,2.27,5.65,2.68,3.37,1.18,6.12,1.83,9.12,1.95,1.15,0,3.03-.22,4.17-.16,1.29-.24,3.07-.38,4.83-.77,3.69-.29,1.88-.44,5.57-1.62,1.7,3.85,2.77,7.19,3.49,10.41,1.08,3.57,1.2,7.59,.26,12.06-.96,3.18-2.8,5.4-4.12,7.19-.04,.39,2.81,4.26,2.47,7.93-2.84,.48-3.45,.49-5.4-1.02-.4,.5-.4-.54-.33-2.36-1.59,.31-3.38,.49-5.36,.6-2.28-.14-4.21-.17-5.92-.37-1.68-.2-3.44-.23-5.73,0-1.98-.05-3.85-.22-4.58-.26-2.08,2.71-2.17,3.17-2.16,3.39-3.35,1.39-3.63,1.22-6.17-.38,1.51-3.73,4.86-6.91,4.79-7.62-3.83-1.68-5.92-3.98-7.27-7.06-1.33-4.92-1.52-9.49-.36-13.86,1.8-3.49,2.19-5.73,3.58-6.9m37.23-13.82c4.12-1.26,3.99-.75,4.05,.21-6.32,1.22-7.12,1.34-11.85,2.88-1.47-5.51,.23-4.94,1.16-2.79,.78,2.39,1.41,5.08,2.04,8.64-4.07-.27-5.33-1.96-7.29-1.76,0-1.53-4.32-1.01-5.14-4.06-.27-.63,5.4,1.58,5.48-3.05-6.54-2.11-5.66-.97-8.04,4.9-3.77-3.5-2.2-5.76-8.76-5.69-1.31,4.96,2.77,3.43,5.66,3.07-1.45,4.53-2.89,4.94-6.61,4.4-.98,.77-.42,.45,.31,.28-.98,.21-2.85-.36-5.24,.16-.38-4.04,.11-8.12,1.77-7.06-2.49,.1-5.06-.9-9.66-.87-1.98,.33-1.45-1.84,.15-1.27,7.02,.29,9.59,.81,8.85,.91,.31-5.98,1.89-7.13,1.81-8.98-.06-2.01,.93-4.31,1.67-5.58,1.2,.77,1.22,.74,1.77,1.77-.53,.4,1.83,2.01,2.33,3.79,.39,1.27,3.09,3.77,1.29,2.75-.96-.16,1.6-.2,3.43-.02,3.74,.27,7.55,.2,6.71,.17-.33,3.1-.69,1.46-.75-.23,.67-3.02,3.44-3.91,2.7-4.53,1.39-2.14,1.41-2.11,2.9-3.23,.79,1.89,1.3,5.29,1.28,6.86,.16,1.12,.61,2.66,1.62,8.8-2.21,2.3,3.87-.32,6.37-.46"/><path class="d" d="M160.13,25.27c-3.07,2.16-5.1,3.92-6.08,5.26-.99,1.32-1.31,2.12-.97,2.4,.93,.81,1.34,1.45,1.22,1.89-.11,.45-.69,.7-1.73,.76-1.35,.06-3.39,.21-6.12,.46-2.73,.22-5.59,.56-8.57,1.01-1.63,4.58-3.94,8.8-6.92,12.68s-6.4,7.12-10.26,9.73c-3.86,2.58-7.92,4.25-12.2,5.01-.99,.14-1.53,.06-1.65-.25-.08-.28,.3-.6,1.14-.97,6.5-3.28,11.87-7.1,16.09-11.45,4.25-4.38,7.4-9.08,9.46-14.11-1.13,.17-2.25,.32-3.38,.46-1.1,.14-2.15,.28-3.17,.42-.34,.93-.72,1.29-1.14,1.09-.42-.22-.77-.77-1.06-1.64-.87-3.14-1.75-5.67-2.62-7.58-.84-1.91-1.7-3.3-2.58-4.17-.7-.73-.82-1.39-.34-1.98,.51-.59,1.79-.59,3.84,0,1.77-.14,3.98-.36,6.63-.67,2.65-.34,5.32-.73,8.02-1.18,2.65-3.28,4.73-6.36,6.25-9.22,.42-.9,.58-1.46,.46-1.68-.08-.22-.68-.2-1.77,.08-2.53,.53-4.42,.84-5.66,.93-1.24,.08-2.48-.06-3.72-.42-.87,1.01-1.93,2.11-3.17,3.28-1.21,1.15-2.43,2.2-3.67,3.16-1.24,.93-2.34,1.63-3.29,2.11-1.75,.93-2.77,1.24-3.08,.93-.28-.34-.01-.88,.8-1.64,3.01-2.58,5.43-5.17,7.26-7.75,1.86-2.61,3.18-4.87,3.97-6.78s1.01-3.13,.68-3.66c-.42-.81-.3-1.35,.38-1.6,.68-.28,1.63-.21,2.87,.21,2.42,.93,3.8,1.77,4.14,2.53,.37,.76,.2,1.46-.51,2.11-.59,.53-1.32,1.29-2.2,2.27-.84,.95-1.7,1.97-2.58,3.03,1.27-.11,2.62-.34,4.05-.67,1.46-.36,2.77-.74,3.93-1.14s1.96-.76,2.41-1.09c.9-.65,1.79-.94,2.66-.88,.87,.06,2.01,.46,3.42,1.22,2.05,1.07,3.19,1.91,3.42,2.53,.25,.62-.17,1.15-1.27,1.6-1.13,.48-2.48,1.29-4.05,2.44-1.55,1.12-3.07,2.37-4.56,3.75-1.49,1.38-2.74,2.65-3.76,3.83,2.84-.53,5.32-1,7.43-1.39,2.11-.42,3.41-.72,3.88-.88,.93-.31,1.69-.42,2.28-.34,.59,.06,1.67,.55,3.25,1.47,2.22,1.29,3.38,2.2,3.46,2.74,.11,.51-.34,1.09-1.35,1.77m-.38,21.22c.28,1.4,.07,2.47-.63,3.2-.7,.73-1.49,.83-2.36,.29-1.04-.67-2.17-1.66-3.38-2.95-1.21-1.29-2.43-2.74-3.67-4.34-.39-.53-.48-.93-.25-1.18,.23-.25,.69-.32,1.39-.21,2.7,.28,4.8,.88,6.29,1.81,1.52,.9,2.39,2.02,2.62,3.37m16.13,11.45c.45,1.35,.52,2.44,.21,3.28-.28,.81-1.38,1.68-3.29,2.61-1.63,.84-3.73,1.49-6.29,1.94-2.56,.48-6.07,.66-10.51,.55-5.69-.17-9.81-1.33-12.37-3.5-2.56-2.19-3.73-5.46-3.5-9.81,.17-3.34,.25-6.15,.25-8.42s-.14-3.97-.42-5.1c-.17-.65-.06-1.08,.34-1.31,.39-.25,.91-.22,1.56,.08,1.83,.81,2.87,1.59,3.12,2.32,.28,.73,.07,1.85-.63,3.37-.25,.65-.49,1.68-.72,3.12-.23,1.43-.38,2.89-.46,4.38-.06,1.46-.03,2.57,.08,3.33,.37,1.71,.96,3.05,1.77,4,.84,.95,2.18,1.61,4.01,1.98,1.86,.34,4.46,.53,7.81,.59,3.74,0,6.66-.35,8.74-1.05,2.11-.7,3.73-1.99,4.86-3.87,1.15-1.91,2.14-4.62,2.96-8.13,.37-1.6,.77-2.37,1.22-2.32,.48,.06,.69,.86,.63,2.4-.06,2.27,0,4.3,.17,6.06,.17,1.74,.32,2.91,.46,3.5m-24.19-32.17c.28-.93,.28-1.59,0-1.98-.25-.39-.96-.62-2.11-.67-.84,0-2.2,.08-4.05,.25-1.83,.14-3.87,.35-6.12,.63,1.18,.65,1.89,1.24,2.11,1.77,.25,.53,.24,1.15-.04,1.85-.2,.53-.61,1.56-1.22,3.07-.62,1.49-1.15,2.85-1.6,4.08,2.17-.31,4.12-.62,5.87-.93,1.77-.31,2.84-.49,3.21-.55,.53-.14,.99-.39,1.35-.76,.39-.39,.77-1.11,1.14-2.15,.39-1.04,.89-2.58,1.48-4.63m-15.88-1.22c-1.66,.22-3.39,.51-5.19,.84-1.77,.31-3.45,.6-5.02,.88,.42,1.01,.76,2.22,1.01,3.62,.25,1.38,.44,3.54,.55,6.48,.9-.08,1.98-.21,3.25-.38,1.27-.17,2.58-.34,3.93-.51,.87-2.25,1.42-4.25,1.65-6.02,.23-1.77,.17-3.41-.17-4.93"/><path class="d" d="M428.29,19.12c.1,1.03-.1,1.77-.58,2.23-.46,.44-1.01,.65-1.64,.62-.63-.02-1.18-.22-1.64-.59-.46-.34-1.1-.92-1.9-1.72-.78-.83-1.6-1.72-2.45-2.67-.83-.98-1.53-1.82-2.12-2.53-.46-.61-.6-1.07-.4-1.39s.73-.41,1.61-.29c3.14,.46,5.42,1.24,6.83,2.34,1.44,1.07,2.2,2.4,2.3,3.99m40.73,4.91c-.68,.44-1.38,.96-2.08,1.57-.71,.61-1.67,1.53-2.89,2.75-.85,.88-1.27,1.51-1.24,1.9,.02,.37,.39,.83,1.1,1.39,.51,.41,.69,.84,.55,1.28-.12,.41-.63,.67-1.53,.77-1.58,.17-3.41,.4-5.48,.7-2.05,.27-4.12,.57-6.21,.92,.01,1.93,.01,3.75,0,5.47s-.04,3.33-.09,4.84c-.09,3.01-.23,5.61-.42,7.78s-.4,4.03-.63,5.58c-.23,1.55-.47,2.79-.72,3.72-.61,2.49-1.14,3.76-1.61,3.81-.46,.05-.75-1.2-.88-3.73-.05-.88-.09-1.84-.11-2.89-.02-1.03-.02-2.43,0-4.21,.02-1.81,.05-4.3,.07-7.47,.02-1.59,.06-3.41,.11-5.48,.05-2.07,.11-4.38,.18-6.93-1.58,.2-3.09,.39-4.53,.59-1.41,.17-2.7,.31-3.87,.4-.1,.46-.29,.76-.58,.88-.27,.12-.52,.18-.77,.18-.32,0-.65-.26-.99-.77-.32-.51-.55-1.1-.69-1.76-.56-2.44-.97-4.13-1.24-5.05-.24-.95-.44-1.64-.58-2.05-.32-1-.63-1.77-.95-2.31-.29-.54-.69-1.16-1.21-1.87-.46-.63-.6-1.18-.4-1.65,.22-.49,.86-.63,1.94-.44,.93,.2,1.77,.43,2.52,.7,1.51-.15,3.18-.35,5-.62,1.85-.29,3.99-.65,6.43-1.06,0-1.94-.02-3.68-.05-5.21s-.08-2.86-.14-3.98c-.1-2.27-.28-3.98-.55-5.13s-.63-1.95-1.1-2.42c-1.07-1.07-1.3-1.9-.69-2.49,.61-.59,2-.41,4.16,.51,2.14,.81,3.37,1.57,3.69,2.31,.34,.71,.32,1.64-.07,2.78-.46,1.24-.8,2.9-1.02,4.98-.19,2.05-.27,4.67-.22,7.87,1.63-.34,2.95-.63,3.95-.88,1-.27,1.91-.54,2.74-.81,.83-.29,1.73-.62,2.7-.99,.66-.24,1.21-.39,1.64-.44,.44-.07,.91-.02,1.42,.15,.54,.15,1.27,.5,2.19,1.06,2.53,1.42,3.93,2.59,4.2,3.51,.29,.9-.06,1.65-1.06,2.23m-38.14,3.04c.22,.15,.28,.4,.18,.77-.1,.34-.46,1.26-1.1,2.75-1.22,2.58-2.31,4.9-3.29,6.98-.97,2.08-1.83,3.91-2.56,5.5-1.44,3.15-2.33,5.22-2.67,6.22-.41,1.39-1.01,2.06-1.79,2.01-.75-.07-1.63-1.38-2.63-3.92-.51-1.46-.85-2.51-1.02-3.15-.15-.66-.12-1.11,.07-1.35,.22-.27,.61-.48,1.17-.62,.51-.15,1.04-.38,1.57-.7,.54-.34,1.17-.9,1.9-1.68,.73-.81,1.63-1.94,2.7-3.41,1.07-1.49,2.4-3.45,3.98-5.89,1.17-1.78,1.98-2.83,2.45-3.15,.49-.34,.83-.46,1.02-.37m30.58-3.26c.24-.81,.34-1.42,.29-1.83-.05-.41-.39-.68-1.02-.81-.63-.12-1.7-.07-3.21,.15-1.49,.2-3.58,.55-6.28,1.06v10.47c1.78-.27,3.14-.54,4.09-.81,.95-.29,1.72-.68,2.3-1.17s1.16-1.18,1.72-2.09c.39-.51,.78-1.27,1.17-2.27,.39-1.03,.71-1.93,.95-2.71m-14.25-.59c-2.29,.49-4.09,.82-5.41,.99-1.29,.17-2.69,.35-4.2,.55,.37,1.27,.66,2.82,.88,4.65,.22,1.83,.35,3.56,.4,5.2,1.29-.17,2.63-.35,4.02-.55,1.39-.22,2.8-.41,4.24-.59,.05-1.83,.07-3.64,.07-5.42v-4.83"/><path class="d" d="M518.9,5.96c.16,.99-.13,1.68-.89,2.05-.72,.38-1.38,.44-1.97,.2-.91-.43-1.88-1.02-2.9-1.77-.99-.78-2.08-1.71-3.26-2.78-.56-.59-.85-1.06-.85-1.41s.43-.55,1.29-.6c2.58-.11,4.58,.13,6,.73,1.42,.59,2.28,1.79,2.58,3.59m-23.31,8.5c.05,1.18-.24,1.97-.89,2.38-.62,.38-1.3,.36-2.05-.04-.89-.56-1.79-1.33-2.7-2.3-.89-.99-1.8-2.11-2.74-3.34-.62-.89-.83-1.5-.64-1.85,.19-.38,.79-.54,1.81-.48,2.28,.11,4.04,.67,5.27,1.69,1.23,.99,1.88,2.31,1.93,3.95m-7.05,12.93c-.05,1.45-.32,2.4-.81,2.86-.46,.43-1.19,.36-2.21-.2-.21-.16-.68-.55-1.41-1.17-.7-.62-1.48-1.37-2.34-2.26-.86-.89-1.62-1.76-2.3-2.62-.35-.56-.46-1.01-.32-1.33,.16-.35,.85-.46,2.05-.32,2.25,.27,4.05,.89,5.4,1.85,1.34,.94,1.99,2,1.93,3.18m56.13,26.75c-2.52,.43-4.7,.81-6.52,1.13-1.8,.3-3.32,.51-4.55,.64-1.07,.16-2.03,.17-2.86,.04-.81-.16-1.73-.58-2.78-1.25-1.02-.67-2.42-1.73-4.19-3.18-2.98-2.47-5.5-4.58-7.57-6.32-2.07-1.77-3.89-3.37-5.48-4.79-1.56-1.45-3.07-2.93-4.55-4.43-.11,3.6-.19,7.1-.24,10.51s-.13,6.97-.24,10.68c1.07-.73,2.25-1.46,3.54-2.22,1.29-.78,2.42-1.45,3.38-2.01,.99-.59,1.6-.93,1.81-1.01,.72-.38,1.17-.47,1.33-.28,.16,.19-.09,.59-.77,1.21-2.74,2.52-4.91,4.75-6.52,6.69-1.58,1.93-2.74,3.55-3.46,4.83-.94,1.53-1.62,2.28-2.05,2.26-.43-.03-1.11-.78-2.05-2.26-.83-1.34-1.28-2.34-1.33-2.98-.03-.64,.19-1.25,.64-1.81s.81-1.14,1.05-1.73c.27-.62,.5-1.42,.68-2.42,.19-.99,.38-2.4,.56-4.23,.32-2.69,.52-5.29,.6-7.82,.08-2.52,.12-5.21,.12-8.06s-.03-6.08-.08-9.63c-.05-1.8-.19-3.67-.4-5.6-.19-1.93-.58-3.4-1.17-4.39-.46-.78-.52-1.34-.2-1.69,.35-.38,1.42-.2,3.22,.52,1.96-.16,3.96-.47,6-.93s3.88-.98,5.52-1.57c1.66-.59,2.91-1.14,3.74-1.65,1.53-.94,2.82-1.24,3.87-.89,.56,.21,1.15,.48,1.77,.81,.62,.3,1.32,.73,2.09,1.29,.86,.51,1.33,1.01,1.41,1.49,.08,.46-.39,1.05-1.41,1.77-.38,.27-.68,.55-.93,.85-.21,.27-.47,.73-.77,1.37l-1.21,2.9c-.19,.51-.42,1.15-.68,1.93-.24,.75-.63,1.84-1.17,3.26-.51,1.42-1.28,3.42-2.3,6-.51,1.29-1.13,2.08-1.85,2.38-.72,.27-1.4,.23-2.01-.12-.32-.21-.81-.34-1.45-.36-.64-.03-1.66,.03-3.06,.16-1.37,.13-3.34,.4-5.92,.81,1.64,1.24,3.29,2.47,4.95,3.71,1.69,1.24,3.88,2.78,6.56,4.63,2.58-2.58,4.54-4.62,5.88-6.12,1.37-1.53,2.34-2.75,2.9-3.67,.59-.94,.89-1.8,.89-2.58,.05-.78,.35-1.29,.89-1.53,.54-.27,1.6-.01,3.18,.77,1.61,.78,2.5,1.41,2.66,1.89,.19,.48-.2,1.01-1.17,1.57-.32,.21-.71,.5-1.17,.85-.46,.32-1.17,.83-2.13,1.53-.94,.7-2.28,1.69-4.03,2.98-1.72,1.29-3.99,2.99-6.81,5.12,2.52,1.69,4.99,3.1,7.41,4.23,2.42,1.13,5.06,2.08,7.93,2.86,2.9,.78,6.28,1.5,10.15,2.18,1.05,.21,1.57,.52,1.57,.93,.03,.38-.39,.63-1.25,.77m-49.37-19.86c-.51,1.24-1.19,2.81-2.05,4.71-.83,1.91-1.68,3.92-2.54,6.04-.86,2.12-1.62,4.12-2.3,6-.64,1.88-1.1,3.41-1.37,4.59-.4,2.18-.99,3.17-1.77,2.98-.78-.19-1.61-1.69-2.5-4.51-.4-1.56-.67-2.7-.81-3.42-.13-.73-.12-1.22,.04-1.49,.16-.3,.42-.54,.77-.73,.56-.27,1.09-.6,1.57-1.01,.51-.43,1.13-1.21,1.85-2.34,.35-.56,.85-1.34,1.49-2.34,.64-1.02,1.37-2.09,2.17-3.22,.81-1.15,1.56-2.24,2.25-3.26,.7-1.02,1.25-1.84,1.65-2.46,1.5-2.12,2.39-3.14,2.66-3.06,.3,.08-.08,1.25-1.13,3.5m25.49-17.89c.13-1.18,.01-1.93-.36-2.26-.38-.35-1.32-.36-2.82-.04-.62,.11-1.33,.24-2.13,.4-.81,.13-1.88,.4-3.22,.81-.62,.21-1.42,.42-2.42,.6-.97,.19-1.96,.32-2.98,.4,0,1.1-.01,2.16-.04,3.18-.03,.99-.09,2.31-.2,3.95,2.12-.67,3.73-1.15,4.83-1.45,1.1-.32,1.92-.51,2.46-.56,.56-.05,1.05,0,1.45,.16,.94,.27,1.44,.67,1.49,1.21,.08,.54-.36,.98-1.33,1.33-1.13,.35-2.52,.62-4.19,.81-1.64,.16-3.23,.15-4.79-.04-.05,.97-.09,2.08-.12,3.34-.03,1.24-.05,2.61-.08,4.11,2.87-.67,4.94-1.07,6.2-1.21s2.34-.09,3.22,.12c.56,.11,.97,.05,1.21-.16,.27-.24,.59-.97,.97-2.18,.56-1.96,1.02-3.6,1.37-4.91,.38-1.32,.67-2.55,.89-3.71,.24-1.15,.44-2.46,.6-3.91"/><path class="d" d="M249.05,38.06v2.35h5.18v-2.35h-5.18m19.77,0h-5.51v2.35h5.51v-2.35m0,16.44v-4.7h-5.51v4.7h5.51m-19.77,0h5.18v-4.7h-5.18v4.7m-9.22-25.83h38.72v37.58h-9.74v-2.35h-19.77v2.35h-9.22V28.66m40.71-18.79v9.39h-7.75v7.27h-9.96v-7.27h-7.97v7.27h-9.81v-7.27h-7.13V10.31c-.71,1.03-1.46,2.02-2.24,2.97-.76,.93-1.57,1.86-2.42,2.79,.89,1.82,1.63,3.67,2.2,5.55,.57,1.88,.98,3.78,1.22,5.72,.26,1.93,.45,3.9,.58,5.89,.13,1.99,.19,4.02,.19,6.07,0,2.32-.06,4.64-.18,6.94-.12,2.28-.34,4.44-.66,6.5-.29,2.05-.71,3.93-1.25,5.61-.54,1.69-1.22,3.09-2.06,4.22-.61,.78-1.31,1.42-2.09,1.91-.78,.49-1.62,.84-2.5,1.06-1.42,.37-2.9,.59-4.45,.66-1.52,.1-3.15,.11-4.89,.04,0-1.59-.21-3.2-.62-4.84-.42-1.66-1.05-3.18-1.91-4.55,1.64,.02,3.04,.05,4.19,.07s2.06,0,2.72-.07c.96-.15,1.67-.59,2.13-1.32,.56-.73,.97-2.26,1.21-4.59,.27-2.35,.45-5.14,.55-8.37-1.22,1.47-2.46,2.84-3.71,4.11-1.25,1.25-2.49,2.37-3.71,3.38-.78-1.22-1.81-2.54-3.09-3.96-1.27-1.44-2.52-2.64-3.75-3.6,1.22-.73,2.47-1.6,3.75-2.61,1.27-1.03,2.5-2.14,3.67-3.34,1.2-1.2,2.34-2.46,3.42-3.78,1.1-1.32,2.07-2.63,2.9-3.93-.12-1.05-.29-2.07-.51-3.05-.22-1-.49-1.98-.81-2.94-1.03,.81-2.06,1.58-3.09,2.31-1,.71-2.02,1.38-3.05,2.02-.34-.54-.78-1.11-1.32-1.72-.54-.61-1.1-1.24-1.69-1.87-.59-.64-1.19-1.25-1.8-1.83-.61-.59-1.18-1.1-1.69-1.54,1.37-.88,2.74-1.81,4.11-2.79,1.4-1,2.73-2.09,4-3.27-.81-1.15-1.73-2.28-2.76-3.38-1.03-1.1-2.2-2.19-3.53-3.27l7.13-5.36c2.16,1.83,3.98,3.62,5.47,5.36,.71-.83,1.37-1.66,1.98-2.5,.61-.86,1.2-1.71,1.76-2.57l3.82,3.14,3.82,3.14-.77,1.14h6.83V1.18h9.81V9.87h7.97V1.18h9.96V9.87h7.75"/><path class="d" d="M48.52,51.9H0v-4.84H48.52v4.84m14.49-16.94c0,.33-.03,.66-.08,.98,0,.33-.01,.63-.04,.91-.03,.28-.04,.53-.04,.76-.3,4.34-.6,8.04-.91,11.12-.3,3.05-.65,5.61-1.06,7.68-.38,2.07-.8,3.71-1.28,4.92-.45,1.21-.97,2.12-1.55,2.72-.7,.83-1.5,1.41-2.38,1.74-.88,.33-1.9,.54-3.06,.64-1.06,.05-2.41,.09-4.07,.11-1.66,.03-3.43-.01-5.32-.11-.05-.73-.25-1.56-.6-2.5-.33-.91-.75-1.69-1.28-2.34h8.49c.58,0,1.07-.05,1.47-.15s.78-.35,1.13-.76c.38-.38,.73-1.05,1.06-2,.35-.98,.67-2.29,.94-3.93,.3-1.66,.58-3.72,.83-6.16,.28-2.47,.54-5.39,.79-8.77H9.13V8.34H25.35c.48-1.11,.91-2.27,1.28-3.48,.4-1.21,.7-2.31,.91-3.29l7.96,.79c-.5,1.03-1.01,2.05-1.51,3.06-.5,1.01-1.02,1.98-1.55,2.91h22.9c0,.28-.03,.54-.08,.79,0,.28-.01,.54-.04,.79-.03,.23-.04,.45-.04,.68-.2,2.77-.43,5.17-.68,7.18-.23,1.99-.48,3.69-.75,5.1-.25,1.39-.55,2.51-.91,3.37-.33,.83-.7,1.5-1.13,2-.58,.61-1.19,1.05-1.85,1.32-.65,.25-1.46,.43-2.41,.53-.73,0-1.71,.01-2.94,.04-1.23,.03-2.55,.01-3.96-.04-.1-.78-.29-1.61-.57-2.5-.25-.91-.62-1.69-1.09-2.34h5.43c.48,0,.88-.04,1.21-.11,.35-.08,.65-.25,.91-.53,.43-.55,.82-1.69,1.17-3.4,.38-1.71,.73-4.4,1.06-8.05H15.69v21.78H63m-28.82-6.69c-.78-.58-1.72-1.22-2.83-1.93s-2.31-1.44-3.62-2.19c-1.31-.76-2.63-1.49-3.96-2.19-1.31-.73-2.57-1.39-3.77-1.97l3.62-4.08c1.16,.53,2.4,1.12,3.73,1.78,1.36,.66,2.69,1.34,4,2.04,1.31,.71,2.54,1.39,3.7,2.04,1.16,.66,2.15,1.27,2.98,1.85-1.28,1.55-2.57,3.1-3.85,4.65"/><path class="d" d="M338.61,6.85c-.93,1.47-1.91,2.92-2.94,4.35-1.01,1.4-2.12,2.77-3.35,4.13,.97,1.92,1.76,3.86,2.38,5.83,.62,1.97,1.06,3.97,1.33,5.99,.27,2.03,.47,4.09,.61,6.19s.2,4.24,.2,6.41c0,2.5-.06,4.95-.18,7.33-.12,2.36-.33,4.57-.63,6.63-.27,2.06-.64,3.92-1.1,5.56-.47,1.62-1.05,2.93-1.77,3.94-1.03,1.35-2.41,2.19-4.16,2.5-1.23,.29-2.53,.47-3.9,.52-1.35,.05-2.77,.02-4.27-.07,0-1.15-.17-2.37-.51-3.65-.32-1.28-.76-2.42-1.32-3.43,1.64,.05,3.08,.09,4.3,.11,1.23,.02,2.18-.01,2.87-.11,1.05-.12,1.79-.49,2.21-1.1,.42-.44,.75-1.18,.99-2.21,.27-1.03,.5-2.26,.7-3.68,.2-1.42,.32-3.04,.37-4.86,.07-1.84,.11-3.86,.11-6.04v-1.25c-1.54,2.21-3.2,4.25-4.96,6.11-1.77,1.84-3.52,3.35-5.26,4.53-.51-.69-1.19-1.44-2.02-2.25-.81-.83-1.62-1.51-2.43-2.03,1.27-.93,2.56-2.06,3.86-3.39,1.32-1.33,2.6-2.75,3.82-4.27,1.23-1.52,2.38-3.12,3.46-4.79,1.1-1.67,2.05-3.31,2.83-4.94-.22-1.55-.5-3.06-.85-4.53-.32-1.5-.74-3-1.25-4.49-1.23,1.35-2.51,2.57-3.86,3.65-1.35,1.08-2.7,2.1-4.05,3.06-.49-.66-1.14-1.45-1.95-2.36-.78-.93-1.53-1.66-2.24-2.17,1.61-1.13,3.17-2.34,4.69-3.62s3-2.64,4.43-4.08c-.87-1.33-1.88-2.65-3.03-3.96-1.15-1.31-2.45-2.62-3.88-3.92l4.52-3.54c1.32,1.15,2.51,2.28,3.57,3.39,1.05,1.1,2,2.25,2.83,3.43,.96-1.13,1.83-2.26,2.61-3.39,.81-1.13,1.54-2.28,2.21-3.46l5,3.94m8.35,28.65v9.43h9.23v-9.43h-9.23m24.49,0h-9.38v9.43h9.38v-9.43m0,23.57v-9.43h-9.38v9.43h9.38m-24.49,0h9.23v-9.43h-9.23v9.43m-5.99-28.29h36.77v35.36h-6.29v-2.36h-24.49v3.46h-5.99V30.79m39.09-18.86v4.71h-8.9v9.43h-6.4v-9.43h-11.11v9.43h-6.29v-9.43h-9.08v-4.71c3.03-.05,6.06-.1,9.08-.15V2.32h6.29V11.93l5.55-.07c1.85-.02,3.7-.05,5.55-.07V2.32h6.4V11.78c2.97,.05,5.93,.1,8.9,.15"/></g></g></svg>