<?xml version="1.0" encoding="UTF-8" standalone="no"?>
<!-- Created with Inkscape (http://www.inkscape.org/) -->

<svg
   width="40.130295mm"
   height="47.540192mm"
   viewBox="0 0 40.130295 47.540192"
   version="1.1"
   id="svg17460"
   inkscape:export-filename="icon4.svg"
   inkscape:export-xdpi="300"
   inkscape:export-ydpi="300"
   xmlns:inkscape="http://www.inkscape.org/namespaces/inkscape"
   xmlns:sodipodi="http://sodipodi.sourceforge.net/DTD/sodipodi-0.dtd"
   xmlns="http://www.w3.org/2000/svg"
   xmlns:svg="http://www.w3.org/2000/svg">
  <sodipodi:namedview
     id="namedview17462"
     pagecolor="#ffffff"
     bordercolor="#000000"
     borderopacity="0.25"
     inkscape:showpageshadow="2"
     inkscape:pageopacity="0.0"
     inkscape:pagecheckerboard="0"
     inkscape:deskcolor="#d1d1d1"
     inkscape:document-units="mm"
     showgrid="false" />
  <defs
     id="defs17457" />
  <g
     inkscape:label="שכבה 1"
     inkscape:groupmode="layer"
     id="layer1"
     transform="translate(-100.57315,-124.44265)">
    <path
       class="d"
       d="m 103.46571,156.19315 c 0.17638,0.53973 0.75491,1.05829 2.12716,2.12364 1.57685,1.42163 3.90862,2.9491 5.26676,3.56291 2.21183,1.43928 0.77608,0.70906 2.10247,1.30523 1.38989,0.77608 2.67395,1.39694 3.87335,1.65446 1.75676,-0.61028 4.09559,-1.36167 7.62675,-2.24711 1.99664,0.0706 2.97027,-0.75138 2.24711,-1.61918 -1.18529,-2.21889 -1.26995,-2.28944 -4.61768,-3.23837 -2.13422,-0.77256 -3.19957,-1.64388 -3.98976,-2.50463 -0.72316,-1.47102 -0.84663,-1.53805 -1.14648,-3.34772 -1.68621,0.0635 -2.02134,-0.0459 -3.95448,0.13405 -1.0336,-0.36335 -1.1747,-0.39157 -2.6034,-0.0106 -2.62456,0.0141 -4.5189,-0.32101 -5.58777,-0.96304 -1.40753,-0.87838 -1.84849,-1.37578 -2.6422,-2.54343 -0.43743,-0.88191 -0.73023,-1.62977 -0.83605,-3.84512 -0.3951,-1.21704 -0.38452,-1.34403 -0.75139,-2.88208 -0.0741,-1.95431 0.46212,-3.49942 0.7655,-3.81338 1.05123,-1.71443 1.23114,-1.94373 1.47808,-2.37762 1.1112,-1.32287 1.90139,-1.95432 2.49756,-2.43407 1.25937,-1.00185 2.22241,-1.61213 5.34437,-2.31413 0.62792,-0.60676 0.70553,-0.69142 1.98254,-5.37612 2.43406,-1.44281 3.76751,-1.47103 7.28457,0.73022 -1.61213,6.67781 -1.5698,6.70251 -0.64909,6.93886 1.32286,0.34571 2.85739,0.0212 4.73762,-0.25399 3.77104,-1.69327 6.39913,-1.70385 6.41324,-1.6333 -0.0282,0.0776 -0.0212,0.11994 0.96657,1.74266 -2.38115,1.20292 -3.78515,1.59802 -1.10415,4.70234 0.0988,-0.47623 -0.702,-0.32807 -1.64387,-0.12347 -0.0247,-0.63498 -0.0811,-1.49925 -0.17991,-3.61936 -3.6123,2.07778 -2.74803,2.52932 -5.92291,3.05141 -4.25786,0.1023 -7.60206,-1.73913 -7.71847,-1.82379 -0.1023,-0.0176 2.77625,-0.97715 -0.32807,3.60172 -2.11305,1.67563 -3.22779,2.98438 -4.55418,5.65833 -0.0952,-1.79557 0.24341,-1.00185 0.34571,-0.91366 0.27868,0.0529 1.64741,0.19402 3.36184,0.40215 1.77793,0.16933 4.35663,0.71258 7.53503,2.3353 0.0917,0.0635 0.20813,0.11641 0.76903,3.41122 0.0459,0.0353 0.76197,0.81136 1.03712,1.09004 1.18882,1.16412 1.91551,1.58038 4.35311,1.91904 4.08853,0.0494 4.37427,0.34218 3.67932,-0.35982 -2.22594,4.99866 -2.16949,5.10449 -1.74265,6.49085 2.00017,2.28944 1.74618,-0.14463 11.41543,0.93482 -5.88762,4.74115 -5.98992,4.96339 -9.5987,6.17337 -0.98774,0.46565 -1.91903,0.9066 -2.55753,1.32992 -1.42164,0.42684 -1.62272,0.46917 -3.21368,0.7408 -1.7356,0.74081 -2.98791,1.43928 -4.47657,1.44986 -1.29112,0.56795 -2.04956,0.8043 -4.31078,1.24526 -1.18881,0.34923 -2.49756,0.79724 -3.36183,0.9454 -1.29112,0.24341 -3.36184,0.3951 -3.60172,0.35277 -2.75509,0.0459 -3.76752,-0.94188 -4.84698,-2.82564 -1.12531,-2.48698 -2.10247,-4.40602 -2.29296,-5.86293 -0.13758,-1.58744 -0.1658,-2.38821 -0.17638,-3.49942 0.0176,-1.0089 -0.007,-1.69326 0.25046,-2.36352 0.20813,-0.56089 0.5609,-0.95951 0.94188,-1.23467"
       id="path17186"
       sodipodi:nodetypes="cccccccccccccccccccccccccccccccccccccccccccccccccccccc"
       style="fill:#010101;stroke-width:0.352764" />
  </g>
</svg>
