<?xml version="1.0" encoding="UTF-8"?><svg xmlns="http://www.w3.org/2000/svg" width="374.6mm" height="105.24mm" viewBox="0 0 1061.85 298.33"><defs><style>.d{fill:#010101;}.e{fill:none;stroke:#000;stroke-miterlimit:10;stroke-width:2px;}</style></defs><g id="a"/><g id="b"><g id="c"><path class="d" d="M733.27,257.66c-.44-2-.78-3.69-1.02-5.05-.24-1.36-.42-2.59-.54-3.67-.08-1.08-.12-2.07-.12-2.95s-.02-1.9-.06-2.95c-.04-1.08-.14-2.31-.3-3.67-.16-1.4-.38-3.13-.66-5.17-.24-1.48-.78-2.51-1.63-3.07-.8-.56-1.75-.86-2.83-.9-1.08-.04-2.23,.04-3.44,.24-1.17,.16-2.25,.24-3.25,.24s-1.81-.22-2.41-.66c-.68-.6-1.02-1.58-1.02-2.95,0-.16,.16-.36,.48-.6,.36-.28,.62-.42,.78-.42,1.33-.12,2.63-.2,3.92-.24,1.29-.04,2.43-.24,3.44-.6,1.04-.4,1.91-1.06,2.59-1.98,.6-1.04,.9-2.47,.9-4.27-.6-3.69-.88-6.86-.84-9.5,.08-2.69-.02-4.89-.3-6.62-.24-1.72-.88-2.89-1.93-3.49-1.12-.68-3.05-.84-5.79-.48h-1.51c-.72,0-1.49,.02-2.29,.06-.76,.04-1.51,.06-2.23,.06h-1.51c-.16,.16-.52,.36-1.08,.6-.56,.2-.92,.34-1.08,.42h-.36c-.12,.08-.22,.12-.3,.12l-.24-.12h-.24c-.16-.16-.34-.5-.54-1.02-.24-.52-.4-.88-.48-1.08v-.6c1.08-1.04,2.93-1.96,5.54-2.77,2.65-.84,5.79-1.56,9.4-2.17,3.62-.6,7.57-1.04,11.87-1.32,4.3-.32,8.6-.46,12.9-.42,4.34,.04,8.58,.34,12.72,.9,4.18,.56,7.87,1.34,11.09,2.35,3.25,1,5.93,2.35,8.02,4.03,2.13,1.72,3.29,3.71,3.5,5.95-2.41,0-4.76-.3-7.05-.9-2.29-.6-4.6-1.28-6.93-2.05s-4.68-1.44-7.05-2.05c-2.37-.6-4.84-.9-7.41-.9h-2.65c-1.17-.04-2.51-.08-4.04-.12-1.49-.04-3.03,0-4.64,.12-1.57,.08-3.03,.3-4.4,.66-1.33,.32-2.41,.8-3.25,1.44-.84,.64-1.27,1.48-1.27,2.53,0,1.12-.08,2.67-.24,4.63-.12,1.96-.14,3.99-.06,6.07,.08,2.05,.34,3.97,.78,5.77,.44,1.8,1.27,3.13,2.47,3.97h4.28c5.66-.48,10.24-.6,13.74-.36,3.5,.24,5.99,.7,7.47,1.38,1.53,.64,2.09,1.4,1.69,2.29-.4,.88-1.69,1.7-3.86,2.47-2.13,.72-5.12,1.32-8.98,1.8-3.82,.48-8.42,.66-13.8,.54,.16,3.37,.32,6.01,.48,7.94,.16,1.92,.32,3.43,.48,4.51,.2,1.08,.38,1.94,.54,2.59s.34,1.4,.54,2.29c.24,.84,.42,2,.54,3.49,.16,1.44,.32,3.59,.48,6.44-1.04-.12-2.03-.2-2.95-.24-.88-.04-1.65-.06-2.29-.06s-1.15-.04-1.51-.12c-.32-.08-.4-.2-.24-.36m58.28-22.86c.52,3.37,1.15,6.48,1.87,9.32,.72,2.81,1.27,5.27,1.63,7.4,.4,2.09,.52,3.77,.36,5.05-.16,1.24-.9,2.02-2.23,2.35-.16,.44-.48,.18-.96-.78-.44-1-.96-2.49-1.57-4.45-.6-2-1.25-4.39-1.93-7.16-.64-2.81-1.29-5.75-1.93-8.84-.64-3.13-1.25-6.34-1.81-9.62-.52-3.33-.94-6.5-1.27-9.5-.32-3.01-.48-5.75-.48-8.24s.22-4.55,.66-6.2c.88-.68,1.69-.84,2.41-.48,.72,.32,1.29,.86,1.69,1.62,.44,.72,.72,1.58,.84,2.59,0,.96-.06,1.86-.18,2.71,.04,.28,.16,.84,.36,1.68,.2,.8,.4,1.68,.6,2.65,.24,.92,.46,1.8,.66,2.65,.24,.8,.44,1.36,.6,1.68,1.04-.16,2.59-.36,4.64-.6,2.09-.28,4.34-.66,6.75-1.14,2.41-.48,4.88-1.06,7.41-1.74,2.53-.68,4.8-1.46,6.81-2.35,2.05-.92,3.74-1.98,5.06-3.19,1.33-1.2,1.99-2.57,1.99-4.09,0-.12-.04-.3-.12-.54v-.36c-2.09-2.41-4.24-4.35-6.45-5.83-2.17-1.52-4.48-2.63-6.93-3.31-2.45-.72-5.04-1.18-7.77-1.38-2.69-.24-5.58-.36-8.68-.36-2.25,0-4.62,.02-7.11,.06-2.49,0-4.78,.3-6.87,.9-2.05,.6-3.76,1.7-5.12,3.31-1.37,1.56-2.05,3.85-2.05,6.86-.64,0-1.25-.22-1.81-.66-.52-.44-.98-.98-1.39-1.62-.36-.64-.64-1.32-.84-2.05-.24-.72-.36-1.34-.36-1.86,0-1.04,.24-2.02,.72-2.95,.44-.96,1.02-1.82,1.75-2.59,.76-.76,1.59-1.44,2.47-2.05,.92-.64,1.85-1.2,2.77-1.68,2.41-.44,4.54-.8,6.39-1.08,1.85-.32,3.6-.56,5.24-.72,1.65-.2,3.31-.32,5-.36,1.73-.04,3.64-.06,5.73-.06s4.36,.18,6.69,.54c2.33,.32,4.7,.82,7.11,1.5,2.41,.64,4.68,1.52,6.81,2.65,2.17,1.08,4.1,2.41,5.79,3.97,1.69,1.52,3.01,3.29,3.98,5.29,1,1.96,1.51,4.19,1.51,6.68,0,2.17-.68,4.09-2.05,5.77-1.37,1.64-3.17,3.07-5.42,4.27-2.25,1.2-4.76,2.23-7.53,3.07-2.73,.8-5.48,1.52-8.26,2.17-2.73,.64-5.3,1.18-7.71,1.62-2.41,.6-4.36,1.12-5.85,1.56,3.74,5.21,7.45,9.62,11.15,13.23s7.15,6.66,10.37,9.14c3.25,2.49,6.21,4.49,8.86,6.01,2.65,1.52,4.8,2.83,6.45,3.91,1.65,1.04,2.69,1.86,3.13,2.47,.48,.6,.14,1.28-1.02,2.05-.8,1.04-2.15,1.3-4.04,.78-1.89-.52-4.06-1.56-6.51-3.13-2.45-1.52-5.08-3.43-7.89-5.71-2.77-2.33-5.52-4.71-8.26-7.16-2.69-2.49-5.26-4.93-7.71-7.34-2.41-2.41-4.46-4.51-6.15-6.32m45.38-6.44c-.16-3.33,.26-6.42,1.27-9.26,1.04-2.85,2.49-5.37,4.34-7.58,1.89-2.25,4.2-4.05,6.93-5.41,2.69-1.2,5.66-1.94,8.92-2.23,5.66,.84,11.07,2.29,16.21,4.33,5.14,2,9.68,4.59,13.62,7.76,3.98,3.13,7.21,6.8,9.7,11.01,2.49,4.21,3.9,8.96,4.22,14.25-.76,3.89-2.31,6.98-4.64,9.26-2.33,2.25-5.08,3.99-8.26,5.23-3.17,1.2-6.57,2.11-10.18,2.71-3.62,.56-6.93,1.06-9.94,1.5-4.66,0-8.98-.76-12.96-2.29-3.94-1.56-7.33-3.69-10.18-6.38-2.81-2.73-5.02-6.03-6.63-9.92-1.61-3.93-2.41-8.26-2.41-12.99m5.3-.6c-.08,3.49,.64,6.74,2.17,9.74,1.57,3.01,3.6,5.63,6.09,7.88,2.49,2.25,5.26,4.13,8.32,5.65,3.09,1.48,6.19,2.45,9.28,2.89,1.04,0,2.43-.08,4.16-.24,1.77-.2,3.66-.5,5.66-.9,2.05-.44,4.1-1,6.15-1.68,2.09-.72,3.98-1.58,5.66-2.59,1.69-1.04,3.07-2.25,4.16-3.61,1.12-1.4,1.69-3.01,1.69-4.81-.52-3.77-1.67-7.12-3.44-10.04-1.77-2.93-3.94-5.51-6.51-7.76-2.57-2.29-5.36-4.21-8.38-5.77-3.01-1.56-5.99-2.81-8.92-3.73-2.93-.96-5.68-1.6-8.26-1.92-2.57-.28-4.68-.28-6.33,0-2.33,.84-4.24,1.94-5.73,3.31-1.45,1.32-2.61,2.77-3.5,4.33-.84,1.52-1.45,3.09-1.81,4.69-.32,1.56-.48,3.09-.48,4.57m200.07-16.13c-.61,.48-.74,.56-1.43,.69-.73,.45-1.68,.98-2.26,1.27-1.49,.8-3.52,2.05-6.26,3.5-2.39,.32-5.42,.17-8.07-.5-1.36,.08-3.47,.35-5.26,.63-2.4,.88-5.78,1.1-8.11,.77-2.71,.73-6.98,2.3-14.16,2-4.52-2.81-5.04-4.3,1.88-8.82-2.2-1.78-4.05-3.97-6.02-6.43-2.03-2.32-3.87-4.86-5.84-9.73-2.25-6.12,2.65-9.2,11.75-6.78,.27-1.04-.16-3.69,.67-7.8,1.64-4.7,4.92-9.05,9.69-11.12,4.46-2.11,8.31-3.52,11.82-4.79,3.01-1.25,5.39-2.46,7.36-4.15,.53-6.85,2.19-7.96,6.45-7.73,3.79,.79,2.12,.85,5.77,8.83,.52,.04,7.56-3.13,5.66-3.25,4.65,0,5.23,.65,6.43,2.96,.47,.65,2.09,2.93,.99,6-1.85-.44-1.67,4.23-5.24,4.52-3.82-3.72-3.97-3.76-4.28-3.86,1.32,.5-3.4-5.47-3.87-5.41-2.65-.18-3.41-.14-4.25,.05-1.36,.76-2.17,1.3-6.05,2.81-2.8,.88-5.48,2-8.72,3-2.73,1.82-6.74,3.63-10.87,5.31-3.06,2.04-5.27,5.08-7.25,8.77-1.6,3.23-2.1,5.59-2.68,13.05-7.98-2.73-8.13-2.49-6.83-.76,3.11,2.21,4.83,4.65,6.57,6.6,1.92,2.23,4,4.71,5.65,8.6,.07,.15,.13,.25,.57,.62,1.92,.71,4.23,1.47,6.5,2.31,3.74,.61,7.67,1.11,10.96,1.99,3.79-.2,7.08-.66,9.88-1.9,2.2-1.58,4.05-3.75,7.51-8.37,2.69-3.46,4.06-4.75,4.51-6.72,.04-.64-.04-2.25,.03-3.24,.44-1.69,.41-1.87,0-2.04-7.89,2.99-16.66,1.46-22.97-2.92-.29-.14-.92-.54-1.38-.72-.82-.23-1.71-.97-2.18-1.7-.38-.33-.88-.8-.72-.75-.56-.39-.7-.69-1-1.67-.26-.25-.46-.47-.58-.75-.8-.73-.64-1.67,.14-2.53,.94-.45,1.47-.65,3.07-.03,1.59,.48,3.56,1.85,4.63,2.37,.91,.38,1.57,.71,2.54,1.41,1.47,.96,1.93,1.2,2.95,1.56,2.73,1.07,5.5,1.21,8.96,.94,1.6-.27,3.62-.84,5.8-1.6,1.04-.11,2.39-.75,3.5-.86-1.34-.7,.22-.38,1.02-.02,.67,.36,1.4,.92,2.7,2.54-.07,1.39-.15,2.8,.28,3.8,1.53,10.75-2.77,18.56-6.26,27.28-2.03-1.68-1.63-1.65,1.19-1.49,2.82,.88,6.39,2.24,6.88,2.56,.29,.16,.57,.29,6.37-.23-.25-.14,1.13,1.46,1.38,3.81-2.05,1.56-2.35,1.79-11.84-2.08-1.75,2.05,5.67,7.63,6.4,7.98-.9,1.84-.38,2.16-1.7,3.01-1.84,.23-2.99-.13-3.55-.71-.29-3.6-1.02-4.54-4.97-7.32-3.18,.9-5.23,.37-6.21-1.2-1.72-2.9-1.74-4.97,1.07-7.79,.69-1.73,.93-2.19,1.24-3.75"/><path class="d" d="M621.46,46.74c8.03,3.96,8.21,3.87,13.31,6.21,7.89,2.5,9.51,2.5,13.32,3.63,4.12,.6,7.61,.85,11.3,1.28,4.45,.93,5.22,.87,9.02-.43,6.07-2.97,12.43-4.04,10.94-4.57,5.54,11.99,5.87,12.37,8.95,19.91,1.44,1.93,3.06,5.49,3.98,8.32,2.4,4.19,3.79,8,7.32,15.45,2.7,5.14,4.81,9.78,5.98,14.6-3.76,4.65-7.61,7.86-11.72,10.31-3.31,2.65-8.01,5.85-8.59,6.21-4.13,2.32-4.89,2.84-8.04,5.02-2.51,1.55-5.6,3.62-13.13,9.22-3.49,1.55-9.31,.36-9.48,.41-.1,.12-.66,3.89-4.61,16.02-16.62-10.25-15.11-9.77-11.38-4.69-.31,.5-.55-.75,.07,2.63,1.6,5.87,2.08,12.53,2.28,13.16,.3,1.15,1.75,5.21,3.18,7.68-3.78,1.12-13.49,6.05-16.31,5.45-4.77-.45-9.34-1.71-15.54-3.93,2.09-4.48,3.9-7.49,6.08-11.81-.34-2.45-1.55-7.75-2.96-13.18-1.01-4.45-1.54-6.31-2.67-11.9,.11-3.82-1.61-9.43-2.2-15.65-.83-3.8-3.01-10.19-2.89-15.38,2.03-7.4,3.16-13.25,3.75-19.04,.8-5.79,2.11-11.31,3.44-16.18,1.12-3.72,1.97-7.61,3.16-12.13,.5-3.89,1.44-8.46,3.48-16.6m13.32,90.83c1.02-.43,2.92-3.63,7.27-8.47,2.79-2.71,7.35-6.07,12.42-7.63,1.41-.52,3.43-1.39,6.19-3.43,6.21-3.42,11.38-6.52,17.65-9.06,7.4-4.75,6.43,1.87,3.23-3.88-7.04-8.74-14.78-19.03-20.58-27.68,13.51,2.22,12.32,2.05,2.48,2.31-6.84-8.87-7.21-8.98-10.52-9.13-3.31-.28-5.13-.33-6.91-.16-1.07,.16,1.55,.89-3.05,7.76-.35,.25-2.5,5.44-4.24,10.07-3.1,5.64-5.68,11.26-7.97,17.19-2.4,4.82-2.9,6-3.28,7.3-.02,2.1-.36-.84,1.55,4.33,1.68,4.86,2.37,8.83,3.61,12.51,1.95,4.62-.17,7.49,2.14,7.98m97.72-10.16c-2.22-.2-4.97-.55-7.62-.75-4.13-1.71-6.75-2.47-10.3-3.58,.73-3.09,1.57-6.57,2.41-8.49,1.03-3.8,1.42-6.14,1.27-7.23,.94-2.4,1.06-3.01,1.52-4.78,.26-1.64,.83-3.44,1.26-6.03,.15-3.15,1.27-6.29,2.42-9.77,.71-2.74,1.54-4.86,2.49-6.76,1.03-2.72,1.91-4.9,2.9-7.73,.78-2.19,1.69-4.75,3.39-7.73,.58-8.36,1.24-8.86,1-8.67,11.07,2.24,11.17,2.23,11.3,2.2,.56-.06,1.97,.8,2.54,.3,2.21,.28,2.43,.42,13.24-.8,.46,.4,.58,.5,1.1,7.25,1.7,3.41,2.34,4.73,3.46,7.36,.84,1.32,2.1,3.77,2.94,5.53,1.01,1.75,1.94,3.14,3.38,5.69,1.86,2.75,3.39,4.97,5.96,8.76-.87,4.32-1.32,6.38-1.6,8.22-.38,2.02-.61,3.89-.75,6.48-.06,3.6-.42,6.41-.5,10.19-.07,1.63,.02,3.95-.11,5.48,.05,.85,.14,2.49,.15,4.19-1.46-.17-2.76-.29-4.3-.33-1.83-.03-6.7-1.61-6.48-2.35-3.92-1.64-5.43-2.07-6.47-2.37,.83-1.07,1.59-2.77,1.74-3.97,.78-1.66,.91-2.46,1.72-5.27,1.87-5.06,1.33-7.76,3.01-8.11,.89-.34-3.9,.53-7.91,1.84-3.92,1.23-8.91,1.85-14.28,2.72-4.27-.18-8.14,.99-9.5,1.42-.48,.43-.42-.13-.26,4.64,.04,3.12,.3,5.24,.7,7.81-.23,2.2-.07,3.5,.18,4.66m-.94-25.75c3.8-1.48,7.26-2.03,10.39-2.63,2-.81,4.23-1.26,6.41-1.8,1.67-.36,3.31-.95,5.49-1.46,1.91-.84,3.17-1.25,5.03-1.45,2.19-.43,4.54-.85,6.89-.93,.49,1.38-1.21-1.42-3.99-3.97-2.13-1.81-4.22-4.03-6.36-6.57-1.34-1.7-3.41-3.79-6.15-6-2.1-2.98-2.26-3.12-2.77-3.65-.03,.03-.18,.21-.28,.31-1.19,1.94-2.13,3.51-4.11,6.38-1.27,1.85-2.5,3.76-3.73,5.55-1.77,2.22-3.12,3.99-4.25,5.74-2.29,2.22-3.08,3.35-3.21,4.11-.11,.65,.22,2.71,.61,6.36m99.8-48.85c3.31,.67,6.29,1.61,7.85,1.88,1.69,.11,4.53,.37,8.07,1.12-.27,2.35-.68,4.37-.75,5.95,0,2.14,0,3.23,.12,4.68,.12,.52,.05,2.89-.03,4.42,.31,1.2,.74,3.25,.59,5.64-.05,2.23,.11,4.99,.3,7.88,.15,1.57,.21,3.59,.74,6.04,.86,4.66,.41,8.9-.88,11.93-.52,2.28-.67,4.27-.32,6.21-.41,2.86-.64,5.03-.53,10.06,.14,2.28,.11,4.02,.16,5.79-2.27,.62-4.9,.93-8.71,.87-1.32-.17-4.18-.33-4.24-.72,.79-9.28,.7-9.25-5.86-4.56-2.31-4.28-2.35-4.34-2.34-4.88-.23-.69-1.12-2.77-2.2-5.4-1.04-2.66-2.04-4.81-2.86-7.05-1.02-2.07-2.29-4.97-3-8.04-.55-1.46-.82-1.85-2.1-2.86-2.17-2.02-3.94-4.42-5.2-6.26-1.24-1.67-2.52-3.58-4.21-5.42-1.49-1.56-2.85-3.32-3.71-4.92,.03,.87,.07,1.89-.02,4.12-.19,1.53-.68,3.66-.83,6.1-.37,2.66-.23,4.59-1.19,9.3-.61,3.78-.71,2.34-.7,3.43,.05,.36,.13,1.05,.58,2.17,.46,1.56,1.08,3.22,1.53,4.39,.74,2.26,1.46,5.29,1.8,8.38,.85,3.2,1.08,3.77,1.72,7.08,.57,1.73,.86,2.89,1.12,3.6-1.75,.26-4.02,.89-5.88,1.74-.42-.12-2.06,.21-5.84,1.14-.43-4.16-1.05-7.88-1.23-10.74-.8-3.18-1.43-5.82-1.65-8.29-.1-2.23-.3-3.26-1.3-5.91-.7-2.41-1.04-3.75,.22-7.97-.38-2.77-1.16-7.15-1.66-10.44-.08-2.43-.23-4.17-.76-6.58-.36-2.24-.64-3.52-.83-6.15-.05-3.18,.14-4.5,.27-8.18,.11,0,.25,.04-.12-1.25,.09-.79,.2-1.25,.23-1.83,2.47-.1,4.67,.07,12.19-1.39,3.72-3.05,4.71-3.21,6.38-4.32,1.21,1.34,2.39,2.93,3.44,4.78,.43,.07,1.55,2.02,2.4,3.48,.9,1.61,1.76,3.35,2.67,5.5,.68,2.1,1.61,4.11,2.68,6.75,.95,2.05,2,4.17,3.07,6.9,.61,1.77,.82,2.17,1.1,2.64,1.24,1.41,1.73,2.01,2.94,3.59,1.36,2.2,1.85,3.98,2.47,5.3,1.09,2.11,1.38,2.99,2.24,4.53,.67,1.3,1.11,2.36,1.85,4.16,.85,1.7,1.81,3.47,3.83,6.69,.51-4,1.01-6.41,2.17-9.77,.8-2.78,.79-3.19-.9-6.34-.56-2.53-1.02-4.65-1.35-6.93-.71-1.95-1.15-3.48-1.51-5.09-.91-2.41-1.21-3.91-1.65-4.84-1.2-1.84-1.79-2.78-2.17-3.38-.86-3.17-.9-4.76-.61-7.2,1.51-7.15,2.43-10.43,2.42-11.57m53.84,37.72c-1.28,2.54-1.88,4.39-2.32,6.44,.75-2.36,.91-1.37,1.71,.47,.5,1.3,1.24,3.1,1.89,5.06,.5,1.7,.65,2.43,1.18,5.03,.39,1.59,.68,3.03,1.13,5.27,.76,2.2,1.13,3.63,1.31,4.43,.73,1.95,1.2,3.44,1.6,4.33-1.76,.08-3.62,.33-5.98,1.22-2.28,.67-4.62,1.13-6.77,1.37-.4-2.2-.98-4.3-1.37-7.63-.57-2.2-1.18-4.34-1.42-5.77-.25-1.53-.77-3.24-1.2-5-.1-1.01-.19-1.66-.6-3.13-.45-1.31-.88-2.6-2.94-6.27-.71-2.95,.63-6.16,1.72-9.32,.58-2.36,1.1-4.16,1.89-6.12,.51-1.74,.81-2.53,1.49-4.02,.35-1.55,.9-2.8,1.3-3.93,.64-1.28,1.1-2.9,1.41-3.94-3.23,.33-5.12,.72-8.6,1.26-2.2,.02-5.57,.3-7.06,1-2.77,.57-3.66,.97-3.96,1.25-.13-.83-.1-2.1-.18-2.98-1.41-2.99-1.42-4.17-1.93-7.27,2.26-1,4.18-1.62,6.48-2.13,2.49-.77,4.33-1.16,6.24-1.7,2.89-.75,4.55-.98,6.49-1.65,2.35-.51,4.65-1.15,7.28-1.62,1.73-.67,3.25-1.44,7.16-3.08,4.14,1.69,6.73,3.89,7.53,4.26,.33,.15,2.02,1.26,3.09,1.94,1.91,1.16,3.35,2.04,4.89,3.07-1.37,2.11-2.32,3.68-2.86,5.18-1.67,2.77-1.82,4.15-1.97,5.6-.8-.42-2.11-.89-4.52-1.59-2.71-.7-3.12-.91-5.01-1.98-2.25-1.63,3.03-.9,2.68-.82-.77,5.32-3.47,9.05-4.12,10.68-1.08,1.9-1.14,2.1-1.61,3.27-.99,2.12-1.88,3.85-2.27,4.7-.52,1.23-1.28,2.85-1.8,4.1m36.27,5.03c2.1,2.94,3.37,4.81,3.47,4.49,.4,.33,3.92,3.82,6.57,7.82,1.73,3.88,3.02,5.54,3.44,5.77,.29,.05,2.37-.53,6.15-2.68,2.21-.89,4.82-1.85,8.29-3.47,5.24,.34,5.45,.11,3.95-2.68-.96-2.47-2.45-5.48-3.03-5.92-1.58-.2-2.88-.81-5.83-1.4-1.72-1.2-3.88-2.7-5.05-3.65-2.23-1.21-3.85-2.1-5.37-2.93-1.82-1.2-2.89-1.9-4.41-3.01-1.96-1.19-3.8-2.18-4.35-2.25-1.91-.23-2.18-.31-6.19-.59-2.13-2.23-3.57-4.2-3.87-5.84-.56-2.5-.39-3.2,1.14-6.02,.96-1.78,1.91-3.04,2.96-3.97,.19-.83,.69-1.73,1.59-2.97,.45-1.49,.57-2.12,1.25-8.14,1.71-2.01,3.26-3.25,7.14-4.74,5.81,2.29,2.97,2.51,5.87,3.19,1.46,.06,3.29,.14,4.74,.36,2.45-.36,4.88-.55,7.69-.5,1.76,.43,3.37,.78,5.46,.92,2.09,.01,4.49,.04,6.55,.65,1.38,.29,2.86,.57,4.68,.89-.52,1.67-1.02,3.21-2.08,5.25-.26,2.08-.29,4.12-.23,6.09-1.37-.26-2.71-.34-5.04-.17-2.5-.32-3.96-.59-7.36-.72-4.75-.35-8.23-1.2-11.4-1.57-2.69-.64-5.9-.98-3.76-1.5-.62,.48-3.1,4.93-5.11,10.13-.82,1.84-2.72-2.77,2.54-.39,3,2.2,4.76,3.01,6.84,4.02,2.05,1.32,4.46,2.83,6.23,3.66,1.24,.72,2.63,1.64,3.66,2.32,1.37,.83,2,1.18,4.87,3.05-1.99-.75,5.04-1.68,6.14-.68,2.87,2.33,4.14,3.92,3.87,9.94,.16,1.9,.17,2.54,.3,3.67,.7,2.24,.58,.47,1.32,3.59,2.14,5.32,1.85,5.92,.61,8.14-1.23,2.22-2.5,3.46-3.84,4.41-4.19,.37-6.38,.39-8.33,.22-1.96,.95-2.95,1.29-5.07,2.1-1.43,1.01-2.62,1.5-5.29,2.07-2.48,.97-4.39,1.57-7.58,2.93-3.36,.2-6.2-.45-8.02-1.36-2.77-2.47-4.37-4.43-6.64-7.8-1.12-1.27-2.27-2.83-3.16-4.28-1.82-2.14-4.71-5.75-4.74-6.16,.38-4.14,3.78-1.34,4.43-4.17,1.02-2.08,2.29-3.97,3.99-6.1"/><path class="d" d="M482.51,185.03c2.54-2,1.6-3.7,3.68-4.36,2.28-.12,2.03,3.03,3.83,3.4,.15,.78,.47,1.68,2.07,5.26,.69,.53,1.48,3.87,1.81,4.96,.87,3.17,1.03,5.62,1.29,7.81,.11,2.9,.09,4.67,.22,7.16-.16,3.11-.2,5.94-.12,7.44-.03,4.14-.14,2.68-.19,5.28-.16,2.93-.65,6.02-.56,7.16-.58,3.77-.92,7.2-1.45,10.05-.69,3.23-1.08,5.93-1.63,8.79-1.42,5.33-2.04,7.82-4.03,10.99-2.49-.96-3.56-1.13-6.6-12.16-5.3,1.86,.3,6.23-3.61,7.89-1.9-.41-2.45-.59-2.08-2.76-2.76-1.31-3.37-1.38-3.41-4.02,2.56-6.37,2.41-6.84,1.54-9.34-1.82-2.45-2.7-4.22-4.1-6.63-1.86-2.24-2.84-3.16-4.16-5.31-1.61-2.11-1.81-2.29-4.09-6.04-1.85-1.69-1.91-1.78-7.18-4.39-.93-2.84-1.3-3.92-2.46-5.94-1.23-1.99-2.38-5.93-3.23-8.02-.27,3.26-.3,3.66-1.05,6.24-.6,1.61-2.37,4.42-2.38,4.54-2.43,4.33-2.35,4.96-1.7,6.88,1.02,2.76,.53,.99,.83,1.61,1.7,2.73,1.76,2.98,3.67,6.6,.52,2.94,.5,3.16,.36,6.15-.21,4.18,.04,8.15,.3,11.97,.67,2.91,.69,3.89,.76,4.39,.28,1.72-.13,3.31-.44,4.49-1.71-.82-2.56-.94-4.62-1.3-2.79-1-3.05-1.13-17.37,.56,13.45-4.89,13.44-4.96,15.28-6.22,.59-3.77,.15-6.79-1.35-11.11-2.88-5.11-3.47-7.39-4.42-10.44-.28-1.04-1.17-2.55-1.73-4.42-1.06-2.99-1.11-7.11-1.78-11.3,.53-3.42,.57-5.49,.62-6.16,.39-1.75,.47-4.37,1.12-7.41,1.08-2.42,1.52-3.65,2.15-5.76,.24-1.82,.45-4.11,.86-6,1.12-.17,1.97-.12,2.5-.08,.08,.8,1.55-.43,2.4-.15,5.46-.87,7.95,.45,9.38-.92,.98,.09,5.2,.83,5.86,1.46,.62,.63,.65,.76,1.88,2.42,.8,1.49,1.3,2.44,2.31,8.47,.48,2.74,.57,2.86,.73,7.92-.03,4.72,.18,6.67,.55,7.93,2.06,1.27,2.65,1.79,2.73,1.9,1.55,1.25,1.68,1.4,2.95,2,1.75,1.06,2.3,1.65,3.59,3.16,1.32,2.01,1.78,2.52,2.69,6.63,1.02,3.41,1.27,4.97,1.7,6.8,.62,1.6,.93,2.47,3.11,4.98-.66-2.95-.99-6.32-.97-8.66-.8-3.33-.72-5.65-.96-6.86-.14-.82-.2-2.41-.07-4.91,.05-3.23,.34-5.96,.14-7.18-.25-1.93-.21-3.05-.24-5.53,.4-2.24,.38-2.67,.62-5.12,.27-2.37,1.04-6.82,1.24-6.85,.78-.22,2.62-9.09,3.2-7.92"/><path class="d" d="M93.38,253.56c.5,1.53,2.14,3,6.03,6.02,4.47,4.03,11.08,8.36,14.93,10.1,6.27,4.08,2.2,2.01,5.96,3.7,3.94,2.2,7.58,3.96,10.98,4.69,4.98-1.73,11.61-3.86,21.62-6.37,5.66,.2,8.42-2.13,6.37-4.59-3.36-6.29-3.6-6.49-13.09-9.18-6.05-2.19-9.07-4.66-11.31-7.1-2.05-4.17-2.4-4.36-3.25-9.49-4.78,.18-5.73-.13-11.21,.38-2.93-1.03-3.33-1.11-7.38-.03-7.44,.04-12.81-.91-15.84-2.73-3.99-2.49-5.24-3.9-7.49-7.21-1.24-2.5-2.07-4.62-2.37-10.9-1.12-3.45-1.09-3.81-2.13-8.17-.21-5.54,1.31-9.92,2.17-10.81,2.98-4.86,3.49-5.51,4.19-6.74,3.15-3.75,5.39-5.54,7.08-6.9,3.57-2.84,6.3-4.57,15.15-6.56,1.78-1.72,2-1.96,5.62-15.24,6.9-4.09,10.68-4.17,20.65,2.07-4.57,18.93-4.45,19-1.84,19.67,3.75,.98,8.1,.06,13.43-.72,10.69-4.8,18.14-4.83,18.18-4.63-.08,.22-.06,.34,2.74,4.94-6.75,3.41-10.73,4.53-3.13,13.33,.28-1.35-1.99-.93-4.66-.35-.07-1.8-.23-4.25-.51-10.26-10.24,5.89-7.79,7.17-16.79,8.65-12.07,.29-21.55-4.93-21.88-5.17-.29-.05,7.87-2.77-.93,10.21-5.99,4.75-9.15,8.46-12.91,16.04-.27-5.09,.69-2.84,.98-2.59,.79,.15,4.67,.55,9.53,1.14,5.04,.48,12.35,2.02,21.36,6.62,.26,.18,.59,.33,2.18,9.67,.13,.1,2.16,2.3,2.94,3.09,3.37,3.3,5.43,4.48,12.34,5.44,11.59,.14,12.4,.97,10.43-1.02-6.31,14.17-6.15,14.47-4.94,18.4,5.67,6.49,4.95-.41,32.36,2.65-16.69,13.44-16.98,14.07-27.21,17.5-2.8,1.32-5.44,2.57-7.25,3.77-4.03,1.21-4.6,1.33-9.11,2.1-4.92,2.1-8.47,4.08-12.69,4.11-3.66,1.61-5.81,2.28-12.22,3.53-3.37,.99-7.08,2.26-9.53,2.68-3.66,.69-9.53,1.12-10.21,1-7.81,.13-10.68-2.67-13.74-8.01-3.19-7.05-5.96-12.49-6.5-16.62-.39-4.5-.47-6.77-.5-9.92,.05-2.86-.02-4.8,.71-6.7,.59-1.59,1.59-2.72,2.67-3.5m136.66-70.31h15.05c.6,2.22,1.17,5.27,1.71,9.18,.27,1.93,.51,4.02,.74,6.25,.23,2.23,.43,4.61,.61,7.14,.2,2.51,.35,5.14,.45,7.87,.1,2.74,.15,5.58,.15,8.54,0,3.47-.21,6.71-.63,9.72-.42,3.01-1.04,5.79-1.88,8.33-.82,2.53-1.95,4.78-3.4,6.75-1.45,1.97-3.21,3.65-5.28,5.06-2.07,1.39-4.56,2.43-7.45,3.12-2.89,.69-6.19,1.04-9.9,1.04-4.75,0-8.9-.68-12.46-2.05-3.56-1.36-6.53-3.41-8.9-6.14s-4.15-6.17-5.34-10.32c-.59-2.07-1.04-4.33-1.34-6.76-.3-2.43-.45-5.04-.45-7.82s.05-5.4,.16-8.02c.11-2.62,.27-5.19,.49-7.7,.23-2.53,.49-4.95,.76-7.25,.28-2.31,.57-4.5,.89-6.58,.64-4.17,1.25-7.62,1.86-10.37h16c-.2,1.09-.53,2.96-1,5.6-.43,2.61-.9,5.72-1.4,9.33-.5,3.57-.92,7.44-1.25,11.61-.3,4.13-.45,8.32-.45,12.55,0,3.85,.27,7.15,.8,9.88s1.34,4.91,2.41,6.53c2.17,3.21,5.27,4.81,9.28,4.81,3.21,0,5.77-.66,7.67-1.98,1.91-1.36,3.29-3.6,4.16-6.75,.9-3.17,1.35-7.41,1.35-12.7,0-3.09-.06-6.08-.19-8.98-.13-2.89-.31-5.69-.56-8.38-.23-2.69-.48-5.19-.74-7.49-.26-2.3-.53-4.4-.81-6.3-.53-3.8-.9-6.38-1.1-7.74m92.18,73.01c-4.78,0-8.66-.58-11.63-1.74-2.94-1.16-5.4-2.83-7.37-5.01-1.97-2.18-3.88-4.83-5.72-7.94-.94-1.65-1.86-3.14-2.76-4.46-.87-1.32-1.89-2.36-3.06-3.12-1.14-.76-2.62-1.14-4.46-1.14-1.94,0-3.49,.56-4.66,1.69-1.14,1.12-1.71,2.94-1.71,5.46s.33,5.08,1,7.99c.67,2.88,1.32,5.64,1.96,8.28h-17.05c-.4-2.03-.7-4.17-.9-6.42-.2-2.25-.3-4.6-.3-7.07v-15.57c0-3.16,.08-6.42,.23-9.78,.15-3.36,.38-6.83,.68-10.4,.3-3.59,.71-7.29,1.22-11.1,.51-3.81,1.12-7.73,1.84-11.77,1.5-.2,3.33-.4,5.47-.6,2.17-.2,4.4-.3,6.67-.3h10.83c2.99,0,5.81,.15,8.46,.45,2.65,.3,5.13,.74,7.43,1.34,4.61,1.19,8.26,3.22,10.93,6.1,2.67,2.84,4.01,6.75,4.01,11.71,0,2.31-.33,4.51-.99,6.6-.66,2.08-1.65,4.05-2.97,5.9-1.32,1.84-2.98,3.68-4.98,5.53-2,1.85-4.33,3.71-7.01,5.58,2.14,4.27,4.4,7.66,6.77,10.17,2.37,2.51,5.15,3.77,8.32,3.77,.9,0,1.81-.12,2.71-.35,.25,2.76,.6,5.49,1.04,8.2s.98,5.38,1.62,8.02h-5.62m-42.53-34.92c2.49,0,4.88-.2,7.16-.61,2.28-.41,4.46-1.01,6.53-1.82,4.18-1.62,7.54-3.77,10.08-6.45,2.54-2.68,3.81-5.6,3.81-8.78s-1.39-5.54-4.16-6.89c-2.74-1.36-6.29-2.03-10.63-2.03-1.91,0-3.64,.13-5.22,.4-1.54,.26-2.62,.64-3.26,1.14-1.44,1.17-2.52,3.85-3.23,8.02-.36,2.09-.63,4.55-.81,7.39s-.27,6.05-.27,9.64m104.91-37.8c-.6,2.58-1.14,5.18-1.62,7.81-.48,2.63-.89,5.28-1.24,7.96-1.3-.46-2.98-.96-5.02-1.49-2.01-.53-4.15-.98-6.42-1.34s-4.46-.55-6.57-.55c-1.47,0-2.74,.1-3.81,.3-1.07,.17-1.92,.6-2.56,1.29-.64,.66-1.15,1.88-1.55,3.67-.37,1.79-.65,3.87-.85,6.25-.2,2.35-.3,4.78-.3,7.29,0,1.79,.35,3.01,1.05,3.67,.74,.63,1.91,.94,3.51,.94,2.67,0,6.05-.33,10.13-.99,2.04-.35,4.13-.61,6.27-.78,2.14-.17,4.33-.26,6.57-.26-.64,2.55-1.2,5.04-1.71,7.49-.47,2.45-.85,4.89-1.15,7.34-1.6-.23-3.74-.5-6.42-.79-2.67-.33-5.73-.5-9.18-.5-2.71,0-4.75,.4-6.12,1.19-1.37,.79-2.06,2.27-2.06,4.41,0,1.69,.18,3.59,.55,5.7,.4,2.12,.85,4.17,1.35,6.15s.94,3.7,1.3,5.16c.4,1.45,.6,2.38,.6,2.78h-8.83c-2.77,0-5.53,.23-8.27,.69-.52-2.02-.97-4.15-1.34-6.4-.38-2.25-.68-4.61-.92-7.09-.22-2.5-.38-5.3-.49-8.42-.11-3.12-.16-6.54-.16-10.28,0-3.24,.09-6.56,.26-9.97,.09-1.7,.2-3.43,.33-5.17,.13-1.74,.29-3.51,.46-5.29,.18-1.79,.38-3.55,.63-5.3s.52-3.48,.83-5.2c.62-3.43,1.37-6.79,2.26-10.08,1.84-.17,3.65-.29,5.44-.37,1.79-.08,3.55-.12,5.29-.12h20.76c3.34,0,6.34,.1,8.98,.3m32.6,72.72h-17.7c-.6-3.01-1.15-7.31-1.65-12.9-.47-5.62-.7-11.74-.7-18.35,0-11.54,.5-20.83,1.5-27.88,1.04-7.08,1.86-11.71,2.46-13.89h16.95c-.37,1.75-.85,4-1.45,6.75-.57,2.71-1.1,5.75-1.6,9.13-.5,3.34-.94,6.83-1.3,10.47-.33,3.6-.5,7.14-.5,10.61,0,7.44,.45,14.32,1.35,20.63,.94,6.32,1.82,11.46,2.66,15.43m137.91-46.53c.03-.73,.05-1.39,.05-1.98v-1.79c0-3.17-.62-5.84-1.86-7.99s-3.81-3.22-7.72-3.22c-3.28,0-6.24,1.12-8.88,3.37-2.64,2.25-4.76,5.51-6.37,9.77-.79,2.12-1.37,4.45-1.77,6.99-.39,2.55-.59,5.31-.59,8.28,0,2.71,.18,5.14,.55,7.28,.37,2.14,.92,4,1.65,5.57,1.47,3.14,3.58,5.39,6.32,6.75,2.74,1.32,6.03,1.98,9.88,1.98s6.8-.74,8.88-2.23c2.07-1.49,3.11-3.22,3.11-5.21,0-1.79-.67-3.77-2.01-5.95-1.34-2.18-3.29-4.53-5.87-7.04,4.01-1.03,7.67-2.1,10.98-3.22,3.34-1.12,6.92-2.51,10.73-4.17v4.46c0,2.31,.23,4.81,.7,7.49,.5,2.65,.75,5.36,.75,8.13,0,2.98-.6,5.64-1.79,7.99-1.2,2.35-2.99,4.38-5.38,6.1-2.37,1.72-5.32,3.01-8.84,3.87-3.52,.86-7.61,1.29-12.27,1.29-2.7,0-5.23-.17-7.6-.5-2.37-.33-4.57-.83-6.61-1.49-4.08-1.32-7.5-3.31-10.26-5.95-2.74-2.66-4.8-5.84-6.17-9.55-1.37-3.7-2.06-7.93-2.06-12.67,0-2.94,.18-5.8,.55-8.56,.37-2.76,.92-5.43,1.65-8.01,.75-2.58,1.68-5.01,2.8-7.29,1.11-2.28,2.4-4.41,3.87-6.4,1.49-1.98,3.16-3.75,5-5.29,1.85-1.55,3.87-2.87,6.08-3.98,2.21-1.11,4.59-1.94,7.15-2.49s5.29-.83,8.2-.83c5.12,0,9.33,.81,12.64,2.43,3.31,1.62,5.77,3.72,7.37,6.3,1.64,2.55,2.46,5.36,2.46,8.43v2.03c0,.5-.03,1.11-.1,1.84-2.61,.69-5.2,1.5-7.77,2.43-2.57,.93-5.07,1.93-7.47,3.03"/><path class="d" d="M26.37,115.75c.48,.08,1.95,.06,2.09-.9,.67-.64,1.4-.75,1.62-1.6-.07-.54,.97-.9,1.53-.75,2.66,2.22,4.13,4.14,5.47,6.35,1.26,1.24,2.44,1.94,3.24,2.24,.79,.2,1.71,.31,2.52,.11,.71-.21,1.64-.62,2.26-.69,2.83-.72,6.95-1.04,8.49-2.38,1.69-2.67,4.43-6.14,8.27-7.68,3.83-.99,5.05-2.43,5.71-7.67,3.94-3.29,6-5.71,5.78-8.64-.44-3.66-1.14-7.13-1.26-10.06-.07-.24-.45-.27-.88-7.07-1.02-1.01-5.84,1.78-8.88,.29-5.09-.61-8.2-2.08-10.5-3.07-3.13-5.37-5.46-6.54-9.78-10.77-1.37-1.68-1.38-1.72-2.25-2.1,4.44,7.55-1.93,11.85-3.07,16.03,.72,3.56,2.05,8.4,1.62,12.7,.52,3.96,1.6,6.4,3.3,9.95,.22,1.76,.57,3.84,1.04,6.05,1.29,.87,2.07,2.25,2.47,3.38-.18,.51-.38,.83-.67,1.21-.04,.24-.01,.51-.02,.89,.6,1.53,1.33,2.12,1.33,4.27-1.58-.05-2.58-1.03-3.12-4.37-1.93,.31-2.87-1.3-2.3-5.67-.48-.71-1.22-1.91-2.99-4.01-.01-1.94-.1-5.01-.2-7.2-1.82-3.5-2.18-5.74-3.32-8.53,.48-5.14,.46-7.53-.16-9.07,.09-1.62-.16-2.44-1.06-4.53-.63-5.91-.43-.58-.88-2.66-.28-1.33-.81-5.4-.4-4.05,.16-4.65,4.26-3.88,2.24-5.32-4.29,2.5-10.35,1.95-15.04,5.63-4.54-.85-7.14-.99-8.7-1.27-2.96-1.24-3.5-1.34-4.34-1.09-.04-.26-.42-.04-.47-.22-.02-.16-.32-.33-.5-.4-.72-.12-.87,.04-1.02,.07-.13,.13-.17,.25-.07,.36-.29,.03-.22-.18,.02-.44-.18-.2-.61-.52-1.31-1.07-.09-.25-.98,0-1.22-.78-.19,.06-.25-.36-.31-.63-.25,.1-.27-.2-.19-.39-.48,.4-.1-.5-.43-.34,.13-1.17,.82-2.06,3.22-2.4,2.28-.69,4.23-1.04,5.89-.82,1.16,0,2.52,.18,4.55-.02,2.35,.25,3.12,.26,3.61,.16,5.05,.74,6.57,.83,8.28,1.09,2.33-.13,3.81,.09,6.16,.81-.23-.11,2.97-12.16,7.33-4.75,4.36-1.98,7.13-.42,4.72,7.46,5.32,1.7,9.88,4.02,13.77,5.31,4.96,2.63,14.42,4.13,13.86,13.87-5.24,.57-.25-.39,6.4-.59,.91,5.18,1.31,8.44,2.63,13.1-.33,5.73-2.49,9.89-5.23,12.58-1.15,2.49-2.18,5.76-4.06,8.89-3.3,2.24-6.53,3.63-8.52,4.51-1.48,1.38-3.12,3.9-6.54,7.77-3.93,.14-6.16,.66-10.18,1.89-5.5,.53-9.34-1.38-11.82-3.65-.99-1.18-1.55-1.86-2.38-2.97-.5-.54-1.15-1.49-1.67-2.12-1.12-.96-.95-.99-1.62-1.63-.97-.68-1.61-1.39-2.04-2.63m77.35-13.83c.5,3.21,1.1,6.18,1.8,8.9,.7,2.68,1.22,5.03,1.57,7.06,.39,1.99,.5,3.6,.35,4.82-.15,1.19-.87,1.93-2.15,2.24-.15,.42-.46,.17-.93-.75-.43-.96-.93-2.37-1.51-4.25-.58-1.91-1.2-4.19-1.86-6.83-.62-2.68-1.24-5.49-1.86-8.44-.62-2.98-1.2-6.05-1.74-9.18-.5-3.18-.91-6.2-1.22-9.07s-.46-5.49-.46-7.86,.21-4.34,.64-5.91c.85-.65,1.63-.8,2.32-.46,.7,.31,1.24,.82,1.63,1.55,.43,.69,.7,1.51,.81,2.47,0,.92-.06,1.78-.17,2.58,.04,.27,.15,.8,.35,1.61,.19,.77,.39,1.61,.58,2.53,.23,.88,.45,1.72,.64,2.53,.23,.77,.43,1.3,.58,1.61,1.01-.15,2.5-.34,4.47-.57,2.01-.27,4.18-.63,6.5-1.09,2.32-.46,4.7-1.01,7.14-1.66,2.44-.65,4.63-1.4,6.56-2.24,1.97-.88,3.6-1.89,4.88-3.04,1.28-1.15,1.92-2.45,1.92-3.9,0-.11-.04-.29-.12-.52v-.34c-2.01-2.3-4.08-4.15-6.21-5.57-2.09-1.45-4.32-2.51-6.68-3.16-2.36-.69-4.86-1.13-7.49-1.32-2.59-.23-5.38-.34-8.36-.34-2.17,0-4.45,.02-6.85,.06-2.4,0-4.61,.29-6.62,.86-1.97,.57-3.62,1.63-4.93,3.16-1.32,1.49-1.97,3.67-1.97,6.54-.62,0-1.2-.21-1.74-.63-.5-.42-.95-.94-1.34-1.55-.35-.61-.62-1.26-.81-1.95-.23-.69-.35-1.28-.35-1.78,0-.99,.23-1.93,.7-2.81,.43-.92,.99-1.74,1.68-2.47,.74-.73,1.53-1.38,2.38-1.95,.89-.61,1.78-1.15,2.67-1.61,2.32-.42,4.37-.77,6.15-1.03,1.78-.31,3.46-.54,5.05-.69,1.59-.19,3.19-.31,4.82-.34,1.66-.04,3.5-.06,5.52-.06s4.2,.17,6.44,.52c2.24,.31,4.53,.78,6.85,1.43,2.32,.61,4.51,1.45,6.56,2.53,2.09,1.03,3.95,2.3,5.57,3.79,1.63,1.45,2.9,3.14,3.83,5.05,.97,1.88,1.45,4,1.45,6.37,0,2.07-.66,3.9-1.97,5.51-1.32,1.57-3.06,2.93-5.23,4.08-2.17,1.15-4.59,2.12-7.26,2.93-2.63,.77-5.28,1.45-7.95,2.07-2.63,.61-5.11,1.13-7.43,1.55-2.32,.57-4.2,1.07-5.63,1.49,3.6,4.97,7.18,9.18,10.74,12.63s6.89,6.35,9.99,8.72c3.14,2.37,5.98,4.29,8.53,5.74,2.55,1.45,4.63,2.7,6.21,3.73,1.59,.99,2.59,1.78,3.02,2.35,.46,.57,.14,1.22-.99,1.95-.77,.99-2.07,1.24-3.89,.75-1.82-.5-3.91-1.49-6.27-2.98-2.36-1.45-4.9-3.27-7.61-5.45-2.67-2.22-5.32-4.5-7.95-6.83-2.59-2.37-5.07-4.71-7.43-7-2.32-2.3-4.3-4.3-5.92-6.03m92.78,21.41c0-1.22,.12-2.47,.35-3.73,.23-1.26,.48-2.51,.75-3.73,.31-1.26,.56-2.54,.75-3.85,.23-1.3,.35-2.6,.35-3.9,0-1.99-.08-4.13-.23-6.43-.15-2.3-.52-4.48-1.1-6.54-2.01,.42-4.1,.57-6.27,.46-2.13-.11-4.26-.31-6.39-.57-2.13-.31-4.3-.59-6.5-.86-2.17-.31-4.34-.46-6.5-.46h-3.14c-1.39,0-2.84,.04-4.35,.11-1.47,.08-2.83,.19-4.06,.34-1.16,.11-1.88,.33-2.15,.63-.37,.33-.74,.65-1.1,.98,0,.08-.02,.25-.06,.52-.04,.23-.06,.54-.06,.92,0,.34-.02,.69-.06,1.03-.04,.34-.06,.63-.06,.86,0,2.07,.15,4.17,.46,6.31,.35,2.1,.72,4.17,1.1,6.2,.43,1.99,.81,3.98,1.16,5.97,.35,2.03,.52,4.04,.52,6.03v1.09c-1.08,1.03-2.07,1.4-2.96,1.09-.85-.34-1.63-1.15-2.32-2.41-.66-1.26-1.24-2.87-1.74-4.82-.46-1.99-.83-4.15-1.1-6.49-.23-2.33-.37-4.73-.41-7.17s.06-4.82,.29-7.12c-.15-.11-.45-.4-.87-.86-.43-.5-.87-1.01-1.34-1.55-.43-.54-.85-1.05-1.28-1.55-.31-.5-.52-.9-.64-1.21l-.12-.17v-.23c0-.5,.12-.84,.35-1.03,.27-.23,.58-.4,.93-.52,.39-.11,.75-.25,1.1-.4,.35-.15,.64-.4,.87-.75v-2.93c.27-2.98,.5-6.18,.7-9.59,.19-3.41,.52-6.73,.99-9.99,.46-3.29,1.18-6.45,2.15-9.47,1.01-3.02,2.38-5.68,4.12-7.98,1.74-2.3,3.95-4.11,6.62-5.45,2.71-1.38,6.1-2.07,10.16-2.07,3.17,0,6.04,.77,8.59,2.3,2.59,1.49,4.88,3.52,6.85,6.08,2.01,2.53,3.75,5.45,5.23,8.78,1.51,3.33,2.77,6.87,3.77,10.62,1.05,3.71,1.9,7.48,2.55,11.31,.7,3.79,1.22,7.4,1.57,10.85,.39,3.44,.66,6.6,.81,9.47,.15,2.87,.23,5.24,.23,7.12v3.67c0,1.07-.06,2.12-.17,3.16-.12,1.03-.23,2.12-.35,3.27-.12,1.15-.31,2.49-.58,4.02-.58,.77-1.34,1.49-2.26,2.18-.89,.69-1.88,1.03-2.96,1.03-.97,0-1.59-.23-1.86-.69-.23-.5-.35-1.13-.35-1.89m-2.61-32.6c.23,0,.5-.02,.81-.06,.35-.04,.62-.21,.81-.52,.23-.34,.45-.88,.64-1.61,.23-.73,.43-1.72,.58-2.98,0-2.1-.21-4.5-.64-7.17-.39-2.68-.99-5.45-1.8-8.32-.77-2.87-1.8-5.66-3.08-8.38-1.24-2.76-2.73-5.2-4.47-7.35-1.74-2.14-3.77-3.86-6.1-5.17-2.28-1.3-4.84-1.95-7.66-1.95-2.98,0-5.5,.78-7.55,2.35-2.01,1.53-3.66,3.54-4.93,6.03-1.24,2.45-2.21,5.22-2.9,8.32-.7,3.06-1.2,6.14-1.51,9.24-.27,3.1-.43,6.01-.46,8.72-.04,2.72-.06,4.94-.06,6.66,12.77,.73,25.55,1.45,38.32,2.18m66.48,30.25c-.23,0-.7-.02-1.39-.06s-1.1-.06-1.22-.06c-2.05,0-4.16,.23-6.33,.69-2.13,.46-4.24,.94-6.33,1.43-2.09,.5-4.22,.99-6.39,1.49-2.13,.46-4.32,.69-6.56,.69-3.06,0-5.83-.52-8.3-1.55-2.44-1.07-4.53-2.53-6.27-4.36-1.74-1.88-3.1-4.08-4.06-6.6-.93-2.56-1.39-5.36-1.39-8.38,0-3.18,.68-6.22,2.03-9.13,1.39-2.95,3.25-5.72,5.57-8.32,2.32-2.64,4.99-5.05,8.01-7.23,3.02-2.22,6.15-4.13,9.41-5.74,3.29-1.61,6.56-2.89,9.81-3.85,3.25-.99,6.29-1.63,9.12-1.89,1.47-.15,2.86-.02,4.18,.4,1.35,.38,2.5,.94,3.43,1.66,.97,.69,1.74,1.59,2.32,2.7,.58,1.11,.87,2.39,.87,3.85-1.01,0-1.99-.11-2.96-.34-.93-.27-1.88-.55-2.84-.86-.93-.34-1.9-.61-2.9-.8-1.01-.23-2.01-.34-3.02-.34-2.63,0-5.4,.38-8.3,1.15-2.9,.73-5.75,1.82-8.53,3.27-2.79,1.42-5.44,3.12-7.95,5.11-2.52,1.95-4.74,4.11-6.68,6.49-1.9,2.37-3.41,4.92-4.53,7.63-1.12,2.72-1.68,5.51-1.68,8.38,0,2.03,.5,3.83,1.51,5.4,1.01,1.57,2.26,2.89,3.77,3.96,1.55,1.03,3.23,1.82,5.05,2.35,1.82,.54,3.6,.8,5.34,.8,3.17,0,6.44-.08,9.81-.23,3.41-.19,6.48-.73,9.23-1.61,2.75-.92,4.99-2.35,6.73-4.3,1.74-1.95,2.61-4.67,2.61-8.15,0-.46-.08-1.15-.23-2.07-.04-.92-.35-1.66-.93-2.24h-19.97c-.58,0-1.1-.13-1.57-.4-.46-.31-.91-.69-1.34-1.15-.43-.5-.75-1.01-.99-1.55s-.35-1.05-.35-1.55c0-.57,.08-1.17,.23-1.78,.15-.61,.58-.92,1.28-.92,.74,0,1.47,.13,2.21,.4,.74,.23,1.45,.48,2.15,.75,.74,.23,1.47,.48,2.21,.75,.74,.23,1.49,.34,2.26,.34,2.55,0,5.07-.21,7.55-.63,2.48-.42,5.01-.63,7.61-.63,.58,0,1.2,.17,1.86,.52,.66,.31,1.24,.69,1.74,1.15s.93,1.01,1.28,1.66c.39,.65,.58,1.26,.58,1.84v26.92c.15,.15,.41,.36,.75,.63,.35,.31,.7,.61,1.05,.92,.39,.31,.75,.61,1.1,.92,.39,.34,.66,.59,.81,.75,.12,.5,.04,.98-.23,1.44-.23,.5-.56,.94-.99,1.32s-.91,.69-1.45,.92c-.54,.27-1.05,.4-1.51,.4-1.51,0-2.69-.46-3.54-1.38-.81-.92-1.45-2.03-1.92-3.33-.43-1.3-.68-2.64-.75-4.02-.04-1.42-.06-2.62-.06-3.62m13.41-25.2c-.15-3.18,.25-6.12,1.22-8.84,1.01-2.72,2.4-5.13,4.18-7.23,1.82-2.14,4.04-3.86,6.68-5.17,2.59-1.15,5.46-1.86,8.59-2.12,5.46,.8,10.66,2.18,15.62,4.13,4.95,1.91,9.33,4.38,13.12,7.4,3.83,2.98,6.95,6.49,9.35,10.5,2.4,4.02,3.75,8.55,4.06,13.6-.74,3.71-2.23,6.66-4.47,8.84-2.24,2.14-4.9,3.81-7.95,4.99-3.06,1.15-6.33,2.01-9.81,2.58-3.48,.54-6.68,1.01-9.58,1.43-4.49,0-8.65-.73-12.48-2.18-3.79-1.49-7.06-3.52-9.81-6.08-2.71-2.6-4.84-5.76-6.39-9.47-1.55-3.75-2.32-7.88-2.32-12.4m5.11-.57c-.08,3.33,.62,6.43,2.09,9.3,1.51,2.87,3.46,5.38,5.86,7.52s5.07,3.94,8.01,5.4c2.98,1.42,5.96,2.33,8.94,2.76,1.01,0,2.34-.08,4.01-.23,1.7-.19,3.52-.48,5.46-.86,1.97-.42,3.95-.96,5.92-1.61,2.01-.69,3.83-1.51,5.46-2.47,1.63-.99,2.96-2.14,4.01-3.44,1.08-1.34,1.63-2.87,1.63-4.59-.5-3.6-1.61-6.79-3.31-9.59-1.7-2.79-3.79-5.26-6.27-7.4-2.48-2.18-5.17-4.02-8.07-5.51-2.9-1.49-5.77-2.68-8.59-3.56-2.83-.92-5.48-1.53-7.95-1.84-2.48-.27-4.51-.27-6.1,0-2.24,.8-4.08,1.86-5.52,3.16-1.39,1.26-2.52,2.64-3.37,4.13-.81,1.45-1.39,2.95-1.74,4.48-.31,1.49-.46,2.95-.46,4.36m62.82,24.05c0-3.41,.12-6.79,.35-10.16,.23-3.37,.5-6.72,.81-10.04,.35-3.33,.62-6.64,.81-9.93,.23-3.41,.35-6.75,.35-10.04,0-1.88-.21-3.67-.64-5.4-.39-1.72-.58-3.46-.58-5.22v-.57c.15-.08,.43-.15,.81-.23,.43-.11,.85-.21,1.28-.29,.43-.08,.85-.19,1.28-.34,.39-.15,.64-.23,.75-.23h1.1c.58,2.6,1.35,5.7,2.32,9.3,1.01,3.56,2.19,7.21,3.54,10.96,1.39,3.71,3.04,7.42,4.93,11.14,1.9,3.71,4.06,7.02,6.5,9.93,2.48,2.87,5.24,5.19,8.3,6.95,3.06,1.76,6.46,2.6,10.22,2.53,2.24,0,4.22-.36,5.92-1.09,1.7-.77,3.1-1.8,4.18-3.1,1.12-1.34,1.95-2.91,2.5-4.71,.54-1.8,.81-3.77,.81-5.91,0-2.79-.56-5.4-1.68-7.81-1.12-2.41-2.34-4.73-3.66-6.95-1.32-2.22-2.54-4.44-3.66-6.66-1.12-2.26-1.68-4.67-1.68-7.23,0-.99,.1-1.78,.29-2.35,.23-.57,.85-.86,1.86-.86,1.16,0,2.34,.65,3.54,1.95,1.2,1.26,2.34,2.91,3.43,4.94,1.12,1.99,2.15,4.23,3.08,6.72,.93,2.49,1.76,4.96,2.5,7.4,.74,2.41,1.3,4.67,1.68,6.77,.39,2.07,.58,3.71,.58,4.94,0,3.06-.5,5.87-1.51,8.44-1.01,2.53-2.44,4.74-4.3,6.66-1.86,1.91-4.08,3.39-6.68,4.42-2.55,1.03-5.38,1.55-8.48,1.55-3.44,0-6.52-.63-9.23-1.89-2.71-1.3-5.15-2.97-7.32-4.99-2.13-2.07-4.01-4.25-5.63-6.54-1.63-2.3-3.02-4.46-4.18-6.49-1.16-2.07-2.17-3.75-3.02-5.05-.81-1.3-1.47-1.95-1.97-1.95-.97,0-1.66,.33-2.09,.98-.43,.65-.74,1.42-.93,2.3-.19,.84-.29,1.76-.29,2.76v2.18c0,2.3,.21,4.44,.64,6.43,.46,1.95,.7,4.04,.7,6.26,0,.5-.06,1.15-.17,1.95-.12,.8-.31,1.61-.58,2.41-.23,.77-.6,1.44-1.1,2.01-.5,.57-1.16,.86-1.97,.86-.74,0-1.34-.27-1.8-.8-.46-.54-.85-1.15-1.16-1.84-.27-.69-.46-1.4-.58-2.12-.12-.77-.17-1.4-.17-1.89m121.57-10.91c.12-2.49,.27-5.32,.46-8.5,.19-3.21,.43-6.41,.7-9.59,.31-3.21,.64-6.31,.99-9.3,.39-2.98,.83-5.59,1.34-7.81,.5-2.22,1.05-3.94,1.63-5.17,.74-1.22,1.45-1.63,2.15-1.21,1.05,.15,1.7,.96,1.97,2.41,.31,1.42,.41,3.31,.29,5.68-.12,2.37-.41,5.07-.87,8.09-.43,2.98-.83,6.07-1.22,9.24-.39,3.14-.74,6.28-1.05,9.41-.27,3.14-.33,5.99-.17,8.55,0,.73,.12,1.51,.35,2.35,.27,.8,.62,1.57,1.05,2.3,.43,.69,.97,1.32,1.63,1.89,.74,.57,1.49,.86,2.26,.86,7.3,.65,14.59,1.3,21.89,1.95,.66,.08,1.05,.44,1.16,1.09,.12,.65,.17,1.15,.17,1.49,0,1.3-.41,2.16-1.22,2.58-.77,.42-1.82,.78-3.14,1.09-.31,0-.85,.02-1.63,.06-.74,.04-1.53,.08-2.38,.11-.81,.04-1.59,.06-2.32,.06h-1.51c-3.33,0-6.41-.25-9.23-.75-2.79-.54-5.17-1.45-7.14-2.76-1.94-1.34-3.44-3.14-4.53-5.4-1.08-2.26-1.63-5.19-1.63-8.78"/><path class="d" d="M426.01,70.26c-1.27-1.17-1.06-2.25-.8-3.01,.24-1.02,.26-1.99-.34-3.67-.56-2.01-.48-1.47-.54-2.76-.16-1.29-.25-3.03-.14-4.33-.03-.8-.34-1.92-1.21-3.91-.42-3.18-.23-5.62,.36-7.31-1.45-1.41-1.62-1.5-1.76-1.58,.43-5.36,.36-5.32-1.02-3.85-1.06,4.46-2.89,6.42-4.63,8.1-2.07,1.25-5.1,2.37-7.36,2.25-1.82-.34-2.36-.73-2.85-1.11-.33-.43-.94-1.89,2.14-4.43-.06-.5,.43-.99,.42-1.51,.65-.11,1-.08,1.17,0-.12-1.45,.92-1.43,1.36-1.46-.24,.24,2.4-1.46,2.92-2.69,3.58-2.59,3.59-2.75,3.5-2.81,3.65-2.7,3.48-1.37,4.32-3.04-2.04-3.93-2.24-6.86-.82-10.27-1.76-2.77-3.02-4.71-3.9-6.74,2.5-6.22,1.46-4.96,.45-4.52-3.85,2.56-3.98,2.31-5.86,3.24-.66,.19-1.08,.28-3.4,2-.31-.04-2.37,.07-4.94,0-1.2-.61-2.21-1.39-3.61-2.58,.75,.64-.62-.25,1.56-.28-.24,0-.65,.11-1.21,.11-.11,0-.16-.33-.45-.32-.17-.1-.45-.02-.45-.28-.18-.14-.33-.25-.31-.36-.04-.09-.12-.14-.12-.24-.34-.52-.42-.5-.47-.62-.42-.03-1,.13-1.18-.51-.07-.38-.33-.87-.56-1.18,.02-.45-.1-1.47-.12-1.95,2.06-1.55,5.13-1.01,7.89,.53,1.92,.22,6.15,1.18,15.07,.26-8.78-4.24-4.7-10.52,5.26-9.32,3.24,11.27,.36,8.92,8.58,9.08,5.27-1.1,10.31-1.33,14.35-1.82,4.35-.27,7.97-.82,11.75-1.09,3.65-.32,7.17-.57,11.25,.21,2.24,.85,3.36,2.15,3.92,3.22-1.44,.9-3.83,2.3-5.78,2.66-3.11,1.2-6.58,1.72-9.43,2.17-2.26,.58-5.59,1.28-8.98,1.65-2.66-.92-5.55-.79-8.85-1.08-1.12-.18-3-.56-4.31-1.02-1.64-.27-3.2-.93-5-1.19-1.68-.49-7.52-1.86-8.05-2.09-.34-.04,.84,1.83,.73,1.66-.16-.03-.62,.03-1.69,.61,3.32-1.91,2.41-.9,3.39,1.92,.64,1.72,.72,2.79-2.31,6.77-.04,.18,1.13,2.95,1.81,5.85-.24,2.63-.96,5.64-1.08,6.88-.06,1.76,.58,1.41-.91,1.06,.16-.08,.32-.17-.01,.03,.15-.13,.73-.59,1.88-1.24,1.63-.41,3.36-.1,5.16,.63,1.16,.23,1.6,.39,2.56,.76,4.18,.76,8.24,1.36,11.62,2.33,2.75,.58,4.3,.94,5.82,2.24,1.16,.72,1.66,1.41,1.47,2.06-.28,.58-1.44,1.31-2.96,1.65-1.69,.99-4.64,1.49-9.07,2.12-3.82,.32-8.45,.27-14.26-7.4-.43,7.04,.13,10.18,1.4,13.27-.52,3.19-.74,4.34-.32,5.58,.68,1.49,1.19,2.98,1.42,3.76-.02,.52-.05,1.16-.47,3.16,.47,1.1,.96,2.62,.98,3.66-.16,.92,1.14,4.3,3.09,19.78-4.83-13-5.48-13.4-5.51-13.15-.06,.58,.29-1.9,.33-3.03-.16-1.64-.43-1.68-.64-1.53-.19,.14-.27,.13-.32-.02"/><path class="d" d="M522.44,119.54c.52-.3,.51-1.89,.22-3.45,.03-.67,.16-.97,.32-1.39,.04,.25,.13,.99-.05,.03-.14-.98-.11-1.78,.23-2.61,1.47-2.55,2.72-4.52,3.25-5.86-.3-1.99-.25-4.07,.12-6.26,.91-2.65,1.26-5.01,3.1-8.66,.44-1.62,.73-3.65,1.2-6.4-.45-1.42-.71-2.44-.1-3.09,.09-.95,.17-1.27,.06-1.38,.07-.14-.18-.17-.93-.09-3.33,.32-4.35-.77-6.55-1.81-2.34-.94-4.51-2.31-7.41-3.83-2.49-1.95-4.37-4.2-6.12-6.46-1.55-2.48-3.04-4.75-4.45-6.85-1.98-2.21-3.75-5.06-4.17-9.98,.09-.02,.37-.13,1.96-.8,.57-.02,1.67,.15,2.02,.1,.17,.28,1.05-.02,1.07,.73,.19-.1,.34,.61,.57,.24,1.73,.73,1.99,1.27,2.85,2.14,1.41,1.5,3.13,3.03,4.83,4.53,1.59,1.65,2.97,3.35,4.71,5,1.54,1.97,2.88,3.74,4.25,4.99,1.91,1.42,3.78,3.67,5,5,1.53,2.67,1.76,2.79,2.3,2.68-.94-4.3-.7-6.32,.92-9.04,.32-.72,5.13-3.53,5.46-3.96,.75-.88,1.89-1.86,1.47-.02,.05,2.64-.18,1.82-4.41-.97-.91-2.7-.62-3.2,.04-4.39,.93-1.22,1.11-1.47,4.41-2.33,.34-.7-.24-1.97,1.18-4.05-.71,2.41-.64,2.96-.56,3.15-.2,3.45,.5,4.27,1.06,4.65,1.55-1.82,2.53-1.83,4.73,.1,.49,4.74,.37,5.23-5.2,5.92,2.3,5.02,1.99,7.25,1.43,10.58-1.51,4.04-6.05,7.04-7.4,9.95-.72,3.35-1.46,6.07-2.36,10.22-.31,4.77-1.68,8.48-3.02,11.42-.14,4.06-1.32,7.6-1.92,10.13-.18,.28-1.35,.97-2.01,1.82,.6,2.29-.03,3.93-3.72,9.35-.93-1.13-.56-2.54-.99-4.55,1.13-2.35,2-3.11,2.63-4.48"/><path class="e" d="M919.11,220.33c10.65-6.34,22.06-11.37,33.92-14.96"/><path class="e" d="M933.4,233.87c11.54-10.5,25.46-18.37,40.41-22.82"/></g></g></svg>